<?xml version="1.0" encoding="UTF-8" standalone="no"?>
<!DOCTYPE svg PUBLIC "-//W3C//DTD SVG 1.1//EN"
 "http://www.w3.org/Graphics/SVG/1.1/DTD/svg11.dtd">
<!-- Generated by graphviz version 5.0.0 (20220707.1540)
 -->
<!-- Title: UmlClassDiagram Pages: 1 -->
<svg width="1817pt" height="1465pt"
 viewBox="0.00 0.00 1816.75 1465.20" xmlns="http://www.w3.org/2000/svg" xmlns:xlink="http://www.w3.org/1999/xlink">
<g id="graph0" class="graph" transform="scale(1 1) rotate(0) translate(4 1461.2)">
<title>UmlClassDiagram</title>
<polygon fill="white" stroke="transparent" points="-4,4 -4,-1461.2 1812.75,-1461.2 1812.75,4 -4,4"/>
<!-- 3 -->
<g id="node1" class="node">
<title>3</title>
<polygon fill="#f2f2f2" stroke="black" points="360.56,-1356.7 360.56,-1456.7 551.9,-1456.7 551.9,-1356.7 360.56,-1356.7"/>
<text text-anchor="middle" x="456.23" y="-1440.1" font-family="Times,serif" font-size="14.00">&lt;&lt;Enum&gt;&gt;</text>
<text text-anchor="middle" x="456.23" y="-1423.3" font-family="Times,serif" font-size="14.00">OrderStatus</text>
<text text-anchor="middle" x="456.23" y="-1406.5" font-family="Times,serif" font-size="14.00">contracts/libraries/order_lib.sol</text>
<polyline fill="none" stroke="black" points="360.56,-1398.3 551.9,-1398.3 "/>
<text text-anchor="start" x="368.56" y="-1381.7" font-family="Times,serif" font-size="14.00">OPEN: 0</text>
<text text-anchor="start" x="368.56" y="-1364.9" font-family="Times,serif" font-size="14.00">CLOSED: 1</text>
</g>
<!-- 4 -->
<g id="node2" class="node">
<title>4</title>
<polygon fill="#f2f2f2" stroke="black" points="139.56,-1118.9 139.56,-1319.7 330.9,-1319.7 330.9,-1118.9 139.56,-1118.9"/>
<text text-anchor="middle" x="235.23" y="-1303.1" font-family="Times,serif" font-size="14.00">&lt;&lt;Struct&gt;&gt;</text>
<text text-anchor="middle" x="235.23" y="-1286.3" font-family="Times,serif" font-size="14.00">Order</text>
<text text-anchor="middle" x="235.23" y="-1269.5" font-family="Times,serif" font-size="14.00">contracts/libraries/order_lib.sol</text>
<polyline fill="none" stroke="black" points="139.56,-1261.3 330.9,-1261.3 "/>
<text text-anchor="start" x="147.56" y="-1244.7" font-family="Times,serif" font-size="14.00">id: uint256</text>
<text text-anchor="start" x="147.56" y="-1227.9" font-family="Times,serif" font-size="14.00">statementId: uint256</text>
<text text-anchor="start" x="147.56" y="-1211.1" font-family="Times,serif" font-size="14.00">input: bytes32</text>
<text text-anchor="start" x="147.56" y="-1194.3" font-family="Times,serif" font-size="14.00">price: uint256</text>
<text text-anchor="start" x="147.56" y="-1177.5" font-family="Times,serif" font-size="14.00">buyer: address</text>
<text text-anchor="start" x="147.56" y="-1160.7" font-family="Times,serif" font-size="14.00">status: OrderStatus</text>
<text text-anchor="start" x="147.56" y="-1143.9" font-family="Times,serif" font-size="14.00">producer: address</text>
<text text-anchor="start" x="147.56" y="-1127.1" font-family="Times,serif" font-size="14.00">proof: bytes32[]</text>
</g>
<!-- 4&#45;&gt;3 -->
<g id="edge1" class="edge">
<title>4&#45;&gt;3</title>
<path fill="none" stroke="black" stroke-dasharray="5,2" d="M331.2,-1300.81C350.97,-1317.4 371.38,-1334.52 389.82,-1349.99"/>
<polygon fill="black" stroke="black" points="387.69,-1352.77 397.6,-1356.52 392.19,-1347.41 387.69,-1352.77"/>
</g>
<!-- 5 -->
<g id="node3" class="node">
<title>5</title>
<polygon fill="#f2f2f2" stroke="black" points="131.27,-981.9 131.27,-1081.9 339.18,-1081.9 339.18,-981.9 131.27,-981.9"/>
<text text-anchor="middle" x="235.23" y="-1065.3" font-family="Times,serif" font-size="14.00">&lt;&lt;Struct&gt;&gt;</text>
<text text-anchor="middle" x="235.23" y="-1048.5" font-family="Times,serif" font-size="14.00">OrderStorage</text>
<text text-anchor="middle" x="235.23" y="-1031.7" font-family="Times,serif" font-size="14.00">contracts/libraries/order_lib.sol</text>
<polyline fill="none" stroke="black" points="131.27,-1023.5 339.18,-1023.5 "/>
<text text-anchor="start" x="139.27" y="-1006.9" font-family="Times,serif" font-size="14.00">orders: mapping(uint256=&gt;Order)</text>
<text text-anchor="start" x="139.27" y="-990.1" font-family="Times,serif" font-size="14.00">orderCounter: uint256</text>
</g>
<!-- 5&#45;&gt;4 -->
<g id="edge2" class="edge">
<title>5&#45;&gt;4</title>
<path fill="none" stroke="black" stroke-dasharray="5,2" d="M235.23,-1082.1C235.23,-1090.45 235.23,-1099.41 235.23,-1108.6"/>
<polygon fill="black" stroke="black" points="231.73,-1108.64 235.23,-1118.64 238.73,-1108.64 231.73,-1108.64"/>
</g>
<!-- 6 -->
<g id="node4" class="node">
<title>6</title>
<polygon fill="#f2f2f2" stroke="black" points="151.97,-794.5 151.97,-928.1 760.49,-928.1 760.49,-794.5 151.97,-794.5"/>
<text text-anchor="middle" x="456.23" y="-911.5" font-family="Times,serif" font-size="14.00">&lt;&lt;Library&gt;&gt;</text>
<text text-anchor="middle" x="456.23" y="-894.7" font-family="Times,serif" font-size="14.00">OrderLibrary</text>
<text text-anchor="middle" x="456.23" y="-877.9" font-family="Times,serif" font-size="14.00">contracts/libraries/order_lib.sol</text>
<polyline fill="none" stroke="black" points="151.97,-869.7 760.49,-869.7 "/>
<text text-anchor="start" x="159.97" y="-853.1" font-family="Times,serif" font-size="14.00">Internal:</text>
<text text-anchor="start" x="159.97" y="-836.3" font-family="Times,serif" font-size="14.00"> &#160;&#160;&#160;create(self: OrderStorage, statementId: uint256, input: bytes32, price: uint256, buyer: address): uint256</text>
<text text-anchor="start" x="159.97" y="-819.5" font-family="Times,serif" font-size="14.00"> &#160;&#160;&#160;get(self: OrderStorage, id: uint256): Order</text>
<text text-anchor="start" x="159.97" y="-802.7" font-family="Times,serif" font-size="14.00"> &#160;&#160;&#160;update(self: OrderStorage, id: uint256, producer: address, proof: bytes32[])</text>
</g>
<!-- 6&#45;&gt;3 -->
<g id="edge5" class="edge">
<title>6&#45;&gt;3</title>
<path fill="none" stroke="black" stroke-dasharray="5,2" d="M456.23,-928.12C456.23,-1034.79 456.23,-1243.82 456.23,-1346.25"/>
<polygon fill="black" stroke="black" points="452.73,-1346.42 456.23,-1356.42 459.73,-1346.42 452.73,-1346.42"/>
</g>
<!-- 6&#45;&gt;4 -->
<g id="edge4" class="edge">
<title>6&#45;&gt;4</title>
<path fill="none" stroke="black" stroke-dasharray="5,2" d="M428.68,-928.55C408.85,-973.43 380.05,-1033.28 348.23,-1082.4 342.16,-1091.76 335.54,-1101.2 328.64,-1110.52"/>
<polygon fill="black" stroke="black" points="325.73,-1108.57 322.52,-1118.66 331.33,-1112.77 325.73,-1108.57"/>
</g>
<!-- 6&#45;&gt;5 -->
<g id="edge3" class="edge">
<title>6&#45;&gt;5</title>
<path fill="none" stroke="black" stroke-dasharray="5,2" d="M369.83,-928.21C349.3,-943.88 327.59,-960.43 307.75,-975.57"/>
<polygon fill="black" stroke="black" points="305.49,-972.89 299.66,-981.74 309.74,-978.46 305.49,-972.89"/>
</g>
<!-- 7 -->
<g id="node5" class="node">
<title>7</title>
<polygon fill="#f2f2f2" stroke="black" points="1445.5,-1160.9 1445.5,-1277.7 1660.95,-1277.7 1660.95,-1160.9 1445.5,-1160.9"/>
<text text-anchor="middle" x="1553.23" y="-1261.1" font-family="Times,serif" font-size="14.00">&lt;&lt;Struct&gt;&gt;</text>
<text text-anchor="middle" x="1553.23" y="-1244.3" font-family="Times,serif" font-size="14.00">StatementData</text>
<text text-anchor="middle" x="1553.23" y="-1227.5" font-family="Times,serif" font-size="14.00">contracts/libraries/statement_lib.sol</text>
<polyline fill="none" stroke="black" points="1445.5,-1219.3 1660.95,-1219.3 "/>
<text text-anchor="start" x="1453.5" y="-1202.7" font-family="Times,serif" font-size="14.00">id: uint256</text>
<text text-anchor="start" x="1453.5" y="-1185.9" font-family="Times,serif" font-size="14.00">definition: bytes32</text>
<text text-anchor="start" x="1453.5" y="-1169.1" font-family="Times,serif" font-size="14.00">price: Price</text>
</g>
<!-- 9 -->
<g id="node7" class="node">
<title>9</title>
<polygon fill="#f2f2f2" stroke="black" points="1144.5,-1365.1 1144.5,-1448.3 1359.95,-1448.3 1359.95,-1365.1 1144.5,-1365.1"/>
<text text-anchor="middle" x="1252.23" y="-1431.7" font-family="Times,serif" font-size="14.00">&lt;&lt;Struct&gt;&gt;</text>
<text text-anchor="middle" x="1252.23" y="-1414.9" font-family="Times,serif" font-size="14.00">Price</text>
<text text-anchor="middle" x="1252.23" y="-1398.1" font-family="Times,serif" font-size="14.00">contracts/libraries/statement_lib.sol</text>
<polyline fill="none" stroke="black" points="1144.5,-1389.9 1359.95,-1389.9 "/>
<text text-anchor="start" x="1152.5" y="-1373.3" font-family="Times,serif" font-size="14.00">price: uint256</text>
</g>
<!-- 7&#45;&gt;9 -->
<g id="edge6" class="edge">
<title>7&#45;&gt;9</title>
<path fill="none" stroke="black" stroke-dasharray="5,2" d="M1459.64,-1277.95C1417.03,-1304.19 1367.29,-1334.83 1327.2,-1359.52"/>
<polygon fill="black" stroke="black" points="1325.22,-1356.63 1318.54,-1364.86 1328.89,-1362.59 1325.22,-1356.63"/>
</g>
<!-- 8 -->
<g id="node6" class="node">
<title>8</title>
<polygon fill="#f2f2f2" stroke="black" points="1412.33,-981.9 1412.33,-1081.9 1694.12,-1081.9 1694.12,-981.9 1412.33,-981.9"/>
<text text-anchor="middle" x="1553.23" y="-1065.3" font-family="Times,serif" font-size="14.00">&lt;&lt;Struct&gt;&gt;</text>
<text text-anchor="middle" x="1553.23" y="-1048.5" font-family="Times,serif" font-size="14.00">StatementStorage</text>
<text text-anchor="middle" x="1553.23" y="-1031.7" font-family="Times,serif" font-size="14.00">contracts/libraries/statement_lib.sol</text>
<polyline fill="none" stroke="black" points="1412.33,-1023.5 1694.12,-1023.5 "/>
<text text-anchor="start" x="1420.33" y="-1006.9" font-family="Times,serif" font-size="14.00">statements: mapping(uint256=&gt;StatementData)</text>
<text text-anchor="start" x="1420.33" y="-990.1" font-family="Times,serif" font-size="14.00">statementCounter: uint256</text>
</g>
<!-- 8&#45;&gt;7 -->
<g id="edge7" class="edge">
<title>8&#45;&gt;7</title>
<path fill="none" stroke="black" stroke-dasharray="5,2" d="M1553.23,-1082.1C1553.23,-1103.03 1553.23,-1127.79 1553.23,-1150.42"/>
<polygon fill="black" stroke="black" points="1549.73,-1150.64 1553.23,-1160.64 1556.73,-1150.64 1549.73,-1150.64"/>
</g>
<!-- 10 -->
<g id="node8" class="node">
<title>10</title>
<polygon fill="#f2f2f2" stroke="black" points="1236.44,-777.7 1236.44,-944.9 1656.01,-944.9 1656.01,-777.7 1236.44,-777.7"/>
<text text-anchor="middle" x="1446.23" y="-928.3" font-family="Times,serif" font-size="14.00">&lt;&lt;Library&gt;&gt;</text>
<text text-anchor="middle" x="1446.23" y="-911.5" font-family="Times,serif" font-size="14.00">StatementLibrary</text>
<text text-anchor="middle" x="1446.23" y="-894.7" font-family="Times,serif" font-size="14.00">contracts/libraries/statement_lib.sol</text>
<polyline fill="none" stroke="black" points="1236.44,-886.5 1656.01,-886.5 "/>
<text text-anchor="start" x="1244.44" y="-869.9" font-family="Times,serif" font-size="14.00">Internal:</text>
<text text-anchor="start" x="1244.44" y="-853.1" font-family="Times,serif" font-size="14.00"> &#160;&#160;&#160;add(self: StatementStorage, definition: bytes32, price: Price): uint256</text>
<text text-anchor="start" x="1244.44" y="-836.3" font-family="Times,serif" font-size="14.00"> &#160;&#160;&#160;get(self: StatementStorage, id: uint256): StatementData</text>
<text text-anchor="start" x="1244.44" y="-819.5" font-family="Times,serif" font-size="14.00"> &#160;&#160;&#160;update(self: StatementStorage, id: uint256, price: Price)</text>
<text text-anchor="start" x="1244.44" y="-802.7" font-family="Times,serif" font-size="14.00"> &#160;&#160;&#160;update(self: StatementStorage, id: uint256, definition: bytes32)</text>
<text text-anchor="start" x="1244.44" y="-785.9" font-family="Times,serif" font-size="14.00"> &#160;&#160;&#160;remove(self: StatementStorage, id: uint256)</text>
</g>
<!-- 10&#45;&gt;7 -->
<g id="edge10" class="edge">
<title>10&#45;&gt;7</title>
<path fill="none" stroke="black" stroke-dasharray="5,2" d="M1407.21,-944.91C1392.77,-987.38 1384.05,-1039.16 1403.23,-1082.4 1415.38,-1109.82 1436.11,-1134.06 1458.34,-1154.2"/>
<polygon fill="black" stroke="black" points="1456.1,-1156.89 1465.92,-1160.87 1460.72,-1151.63 1456.1,-1156.89"/>
</g>
<!-- 10&#45;&gt;8 -->
<g id="edge8" class="edge">
<title>10&#45;&gt;8</title>
<path fill="none" stroke="black" stroke-dasharray="5,2" d="M1498.79,-945.12C1504.79,-954.58 1510.82,-964.08 1516.55,-973.11"/>
<polygon fill="black" stroke="black" points="1513.64,-975.06 1521.96,-981.63 1519.55,-971.31 1513.64,-975.06"/>
</g>
<!-- 10&#45;&gt;9 -->
<g id="edge9" class="edge">
<title>10&#45;&gt;9</title>
<path fill="none" stroke="black" stroke-dasharray="5,2" d="M1403.17,-945.18C1397.52,-957.2 1392.03,-969.53 1387.23,-981.4 1333.98,-1113.2 1287.57,-1274.57 1265.65,-1355.04"/>
<polygon fill="black" stroke="black" points="1262.22,-1354.34 1262.98,-1364.91 1268.97,-1356.17 1262.22,-1354.34"/>
</g>
<!-- 11 -->
<g id="node9" class="node">
<title>11</title>
<polygon fill="#f2f2f2" stroke="black" points="778.68,-811.3 778.68,-911.3 1103.78,-911.3 1103.78,-811.3 778.68,-811.3"/>
<text text-anchor="middle" x="941.23" y="-894.7" font-family="Times,serif" font-size="14.00">&lt;&lt;Library&gt;&gt;</text>
<text text-anchor="middle" x="941.23" y="-877.9" font-family="Times,serif" font-size="14.00">Tools</text>
<text text-anchor="middle" x="941.23" y="-861.1" font-family="Times,serif" font-size="14.00">contracts/libraries/tools.sol</text>
<polyline fill="none" stroke="black" points="778.68,-852.9 1103.78,-852.9 "/>
<text text-anchor="start" x="786.68" y="-836.3" font-family="Times,serif" font-size="14.00">Internal:</text>
<text text-anchor="start" x="786.68" y="-819.5" font-family="Times,serif" font-size="14.00"> &#160;&#160;&#160;verifyProof(orderId: uint256, proof: bytes32[]): bool</text>
</g>
<!-- 12 -->
<g id="node10" class="node">
<title>12</title>
<polygon fill="#f2f2f2" stroke="black" points="1481.98,-180.9 1481.98,-280.9 1804.47,-280.9 1804.47,-180.9 1481.98,-180.9"/>
<text text-anchor="middle" x="1643.23" y="-264.3" font-family="Times,serif" font-size="14.00">MockTocken</text>
<text text-anchor="middle" x="1643.23" y="-247.5" font-family="Times,serif" font-size="14.00">contracts/mock/mock_erc20_contract.sol</text>
<polyline fill="none" stroke="black" points="1481.98,-239.3 1804.47,-239.3 "/>
<text text-anchor="start" x="1489.98" y="-222.7" font-family="Times,serif" font-size="14.00">Public:</text>
<text text-anchor="start" x="1489.98" y="-205.9" font-family="Times,serif" font-size="14.00"> &#160;&#160;&#160;constructor()</text>
<text text-anchor="start" x="1489.98" y="-189.1" font-family="Times,serif" font-size="14.00"> &#160;&#160;&#160;mint(to: address, amount: uint256) &lt;&lt;onlyOwner&gt;&gt;</text>
</g>
<!-- 0 -->
<g id="node11" class="node">
<title>0</title>
<polygon fill="#f2f2f2" stroke="black" points="163.77,-515.1 163.77,-723.9 748.68,-723.9 748.68,-515.1 163.77,-515.1"/>
<text text-anchor="middle" x="456.23" y="-707.3" font-family="Times,serif" font-size="14.00">OrderContract</text>
<text text-anchor="middle" x="456.23" y="-690.5" font-family="Times,serif" font-size="14.00">contracts/order_contract.sol</text>
<polyline fill="none" stroke="black" points="163.77,-682.3 748.68,-682.3 "/>
<text text-anchor="start" x="171.77" y="-665.7" font-family="Times,serif" font-size="14.00">Private:</text>
<text text-anchor="start" x="171.77" y="-648.9" font-family="Times,serif" font-size="14.00"> &#160;&#160;orderStorage: OrderStorage</text>
<text text-anchor="start" x="171.77" y="-632.1" font-family="Times,serif" font-size="14.00">Public:</text>
<text text-anchor="start" x="171.77" y="-615.3" font-family="Times,serif" font-size="14.00"> &#160;&#160;AUTHORIZED_CALLER_ROLE: bytes32</text>
<polyline fill="none" stroke="black" points="163.77,-607.1 748.68,-607.1 "/>
<text text-anchor="start" x="171.77" y="-590.5" font-family="Times,serif" font-size="14.00">Public:</text>
<text text-anchor="start" x="171.77" y="-573.7" font-family="Times,serif" font-size="14.00"> &#160;&#160;&#160;constructor(_authorizedCaller: address)</text>
<text text-anchor="start" x="171.77" y="-556.9" font-family="Times,serif" font-size="14.00"> &#160;&#160;&#160;create(statementId: uint256, input: bytes32, price: uint256, buyer: address): uint256 &lt;&lt;onlyRole&gt;&gt;</text>
<text text-anchor="start" x="171.77" y="-540.1" font-family="Times,serif" font-size="14.00"> &#160;&#160;&#160;get(id: uint256): Order</text>
<text text-anchor="start" x="171.77" y="-523.3" font-family="Times,serif" font-size="14.00"> &#160;&#160;&#160;close(id: uint256, producer: address, proof: bytes32[]) &lt;&lt;onlyRole&gt;&gt;</text>
</g>
<!-- 0&#45;&gt;4 -->
<g id="edge13" class="edge">
<title>0&#45;&gt;4</title>
<path fill="none" stroke="black" stroke-dasharray="5,2" d="M163.67,-721.71C144.14,-737.62 126.85,-755.99 113.23,-777.2 39.87,-891.37 71.94,-956.36 122.23,-1082.4 126.02,-1091.9 130.74,-1101.24 136.08,-1110.28"/>
<polygon fill="black" stroke="black" points="133.15,-1112.2 141.39,-1118.86 139.11,-1108.52 133.15,-1112.2"/>
</g>
<!-- 0&#45;&gt;5 -->
<g id="edge12" class="edge">
<title>0&#45;&gt;5</title>
<path fill="none" stroke="black" d="M189.65,-723.93C171.61,-739.38 155.68,-757.04 143.23,-777.2 103.94,-840.8 113.36,-876.87 143.23,-945.4 147.74,-955.76 154.2,-965.43 161.63,-974.26"/>
<polygon fill="black" stroke="black" points="159.1,-976.69 168.38,-981.8 164.32,-972.02 159.1,-976.69"/>
</g>
<!-- 0&#45;&gt;6 -->
<g id="edge11" class="edge">
<title>0&#45;&gt;6</title>
<path fill="none" stroke="black" stroke-dasharray="5,2" d="M456.23,-723.94C456.23,-744.14 456.23,-764.97 456.23,-784.09"/>
<polygon fill="black" stroke="black" points="452.73,-784.22 456.23,-794.22 459.73,-784.22 452.73,-784.22"/>
</g>
<!-- 0&#45;&gt;11 -->
<g id="edge14" class="edge">
<title>0&#45;&gt;11</title>
<path fill="none" stroke="black" stroke-dasharray="5,2" d="M665.43,-723.94C723.11,-752.46 783.36,-782.25 832.78,-806.68"/>
<polygon fill="black" stroke="black" points="831.36,-809.88 841.87,-811.18 834.46,-803.61 831.36,-809.88"/>
</g>
<!-- 1 -->
<g id="node12" class="node">
<title>1</title>
<polygon fill="#f2f2f2" stroke="black" points="838.95,-0.5 838.95,-461.3 1463.51,-461.3 1463.51,-0.5 838.95,-0.5"/>
<text text-anchor="middle" x="1151.23" y="-444.7" font-family="Times,serif" font-size="14.00">ProofMarketEndpoint</text>
<text text-anchor="middle" x="1151.23" y="-427.9" font-family="Times,serif" font-size="14.00">contracts/proof_market_endpoint.sol</text>
<polyline fill="none" stroke="black" points="838.95,-419.7 1463.51,-419.7 "/>
<text text-anchor="start" x="846.95" y="-403.1" font-family="Times,serif" font-size="14.00">Public:</text>
<text text-anchor="start" x="846.95" y="-386.3" font-family="Times,serif" font-size="14.00"> &#160;&#160;token: IERC20</text>
<text text-anchor="start" x="846.95" y="-369.5" font-family="Times,serif" font-size="14.00"> &#160;&#160;statementContract: StatementContract</text>
<text text-anchor="start" x="846.95" y="-352.7" font-family="Times,serif" font-size="14.00"> &#160;&#160;orderContract: OrderContract</text>
<text text-anchor="start" x="846.95" y="-335.9" font-family="Times,serif" font-size="14.00"> &#160;&#160;OWNER_ROLE: bytes32</text>
<text text-anchor="start" x="846.95" y="-319.1" font-family="Times,serif" font-size="14.00"> &#160;&#160;RELAYER_ROLE: bytes32</text>
<polyline fill="none" stroke="black" points="838.95,-310.9 1463.51,-310.9 "/>
<text text-anchor="start" x="846.95" y="-294.3" font-family="Times,serif" font-size="14.00">Public:</text>
<text text-anchor="start" x="846.95" y="-277.5" font-family="Times,serif" font-size="14.00"> &#160;&#160;&#160;&lt;&lt;event&gt;&gt; OrderCreated(id: uint256, statementId: uint256, input: bytes32, price: uint256, buyer: address)</text>
<text text-anchor="start" x="846.95" y="-260.7" font-family="Times,serif" font-size="14.00"> &#160;&#160;&#160;&lt;&lt;event&gt;&gt; OrderClosed(id: uint256, producer: address, finalPrice: uint256, proof: bytes32[])</text>
<text text-anchor="start" x="846.95" y="-243.9" font-family="Times,serif" font-size="14.00"> &#160;&#160;&#160;&lt;&lt;event&gt;&gt; StatementAdded(id: uint256, definition: bytes32)</text>
<text text-anchor="start" x="846.95" y="-227.1" font-family="Times,serif" font-size="14.00"> &#160;&#160;&#160;&lt;&lt;event&gt;&gt; StatementDefinitionUpdated(id: uint256, definition: bytes32)</text>
<text text-anchor="start" x="846.95" y="-210.3" font-family="Times,serif" font-size="14.00"> &#160;&#160;&#160;&lt;&lt;event&gt;&gt; StatementPriceUpdated(id: uint256, price: uint256)</text>
<text text-anchor="start" x="846.95" y="-193.5" font-family="Times,serif" font-size="14.00"> &#160;&#160;&#160;&lt;&lt;event&gt;&gt; StatementRemoved(id: uint256)</text>
<text text-anchor="start" x="846.95" y="-176.7" font-family="Times,serif" font-size="14.00"> &#160;&#160;&#160;constructor(_token: IERC20)</text>
<text text-anchor="start" x="846.95" y="-159.9" font-family="Times,serif" font-size="14.00"> &#160;&#160;&#160;grantRelayer(relayer: address) &lt;&lt;onlyRole&gt;&gt;</text>
<text text-anchor="start" x="846.95" y="-143.1" font-family="Times,serif" font-size="14.00"> &#160;&#160;&#160;revokeRelayer(relayer: address) &lt;&lt;onlyRole&gt;&gt;</text>
<text text-anchor="start" x="846.95" y="-126.3" font-family="Times,serif" font-size="14.00"> &#160;&#160;&#160;getOrder(orderId: uint256): Order</text>
<text text-anchor="start" x="846.95" y="-109.5" font-family="Times,serif" font-size="14.00"> &#160;&#160;&#160;createOrder(statementId: uint256, input: bytes32, price: uint256): uint256</text>
<text text-anchor="start" x="846.95" y="-92.7" font-family="Times,serif" font-size="14.00"> &#160;&#160;&#160;closeOrder(orderId: uint256, proof: bytes32[], finalPrice: uint256, producer: address)</text>
<text text-anchor="start" x="846.95" y="-75.9" font-family="Times,serif" font-size="14.00"> &#160;&#160;&#160;getStatement(id: uint256): StatementData</text>
<text text-anchor="start" x="846.95" y="-59.1" font-family="Times,serif" font-size="14.00"> &#160;&#160;&#160;addStatement(definition: bytes32, price: Price) &lt;&lt;onlyRole&gt;&gt;</text>
<text text-anchor="start" x="846.95" y="-42.3" font-family="Times,serif" font-size="14.00"> &#160;&#160;&#160;updateStatementDefinition(id: uint256, definition: bytes32) &lt;&lt;onlyRole&gt;&gt;</text>
<text text-anchor="start" x="846.95" y="-25.5" font-family="Times,serif" font-size="14.00"> &#160;&#160;&#160;updateStatementPrice(id: uint256, price: Price)</text>
<text text-anchor="start" x="846.95" y="-8.7" font-family="Times,serif" font-size="14.00"> &#160;&#160;&#160;removeStatement(id: uint256) &lt;&lt;onlyRole&gt;&gt;</text>
</g>
<!-- 1&#45;&gt;3 -->
<g id="edge18" class="edge">
<title>1&#45;&gt;3</title>
<path fill="none" stroke="black" stroke-dasharray="5,2" d="M1140.95,-461.67C1136.47,-580.62 1132.23,-728.23 1132.23,-860.3 1132.23,-860.3 1132.23,-860.3 1132.23,-1032.9 1132.23,-1290.15 752.21,-1371.21 562.03,-1395.68"/>
<polygon fill="black" stroke="black" points="561.49,-1392.22 552.01,-1396.94 562.36,-1399.16 561.49,-1392.22"/>
</g>
<!-- 1&#45;&gt;4 -->
<g id="edge17" class="edge">
<title>1&#45;&gt;4</title>
<path fill="none" stroke="black" stroke-dasharray="5,2" d="M838.82,-281.71C584.97,-328.1 253.46,-404.12 155.23,-497.8 -34.31,-678.54 -39.34,-849.91 81.23,-1082.4 93.53,-1106.12 111.82,-1127.59 131.54,-1146.11"/>
<polygon fill="black" stroke="black" points="129.42,-1148.91 139.16,-1153.06 134.13,-1143.73 129.42,-1148.91"/>
</g>
<!-- 1&#45;&gt;7 -->
<g id="edge19" class="edge">
<title>1&#45;&gt;7</title>
<path fill="none" stroke="black" stroke-dasharray="5,2" d="M1463.8,-457.54C1466.94,-458.99 1470.09,-460.41 1473.23,-461.8 1543.09,-492.63 1584.59,-446.59 1641.23,-497.8 1836.37,-674.25 1851.82,-847.05 1734.23,-1082.4 1719.58,-1111.71 1695.28,-1136.34 1669.16,-1156.23"/>
<polygon fill="black" stroke="black" points="1666.97,-1153.5 1661.01,-1162.26 1671.13,-1159.13 1666.97,-1153.5"/>
</g>
<!-- 1&#45;&gt;9 -->
<g id="edge20" class="edge">
<title>1&#45;&gt;9</title>
<path fill="none" stroke="black" stroke-dasharray="5,2" d="M1161.51,-461.67C1165.98,-580.62 1170.23,-728.23 1170.23,-860.3 1170.23,-860.3 1170.23,-860.3 1170.23,-1032.9 1170.23,-1161.76 1171.09,-1197.11 1209.23,-1320.2 1212.88,-1331.98 1218.02,-1344.11 1223.5,-1355.41"/>
<polygon fill="black" stroke="black" points="1220.53,-1357.3 1228.14,-1364.67 1226.79,-1354.17 1220.53,-1357.3"/>
</g>
<!-- 1&#45;&gt;0 -->
<g id="edge16" class="edge">
<title>1&#45;&gt;0</title>
<path fill="none" stroke="black" d="M838.8,-405.69C775.01,-441.18 709.62,-477.55 651.36,-509.96"/>
<polygon fill="black" stroke="black" points="649.48,-507 642.44,-514.92 652.88,-513.11 649.48,-507"/>
</g>
<!-- 2 -->
<g id="node13" class="node">
<title>2</title>
<polygon fill="#f2f2f2" stroke="black" points="1259.91,-498.3 1259.91,-740.7 1632.54,-740.7 1632.54,-498.3 1259.91,-498.3"/>
<text text-anchor="middle" x="1446.23" y="-724.1" font-family="Times,serif" font-size="14.00">StatementContract</text>
<text text-anchor="middle" x="1446.23" y="-707.3" font-family="Times,serif" font-size="14.00">contracts/statement_contract.sol</text>
<polyline fill="none" stroke="black" points="1259.91,-699.1 1632.54,-699.1 "/>
<text text-anchor="start" x="1267.91" y="-682.5" font-family="Times,serif" font-size="14.00">Private:</text>
<text text-anchor="start" x="1267.91" y="-665.7" font-family="Times,serif" font-size="14.00"> &#160;&#160;statementStorage: StatementStorage</text>
<text text-anchor="start" x="1267.91" y="-648.9" font-family="Times,serif" font-size="14.00">Public:</text>
<text text-anchor="start" x="1267.91" y="-632.1" font-family="Times,serif" font-size="14.00"> &#160;&#160;AUTHORIZED_CALLER_ROLE: bytes32</text>
<polyline fill="none" stroke="black" points="1259.91,-623.9 1632.54,-623.9 "/>
<text text-anchor="start" x="1267.91" y="-607.3" font-family="Times,serif" font-size="14.00">Public:</text>
<text text-anchor="start" x="1267.91" y="-590.5" font-family="Times,serif" font-size="14.00"> &#160;&#160;&#160;constructor(_authorizedCaller: address)</text>
<text text-anchor="start" x="1267.91" y="-573.7" font-family="Times,serif" font-size="14.00"> &#160;&#160;&#160;add(definition: bytes32, price: Price): uint256 &lt;&lt;onlyRole&gt;&gt;</text>
<text text-anchor="start" x="1267.91" y="-556.9" font-family="Times,serif" font-size="14.00"> &#160;&#160;&#160;get(id: uint256): StatementData</text>
<text text-anchor="start" x="1267.91" y="-540.1" font-family="Times,serif" font-size="14.00"> &#160;&#160;&#160;update(id: uint256, price: Price) &lt;&lt;onlyRole&gt;&gt;</text>
<text text-anchor="start" x="1267.91" y="-523.3" font-family="Times,serif" font-size="14.00"> &#160;&#160;&#160;update(id: uint256, definition: bytes32) &lt;&lt;onlyRole&gt;&gt;</text>
<text text-anchor="start" x="1267.91" y="-506.5" font-family="Times,serif" font-size="14.00"> &#160;&#160;&#160;remove(id: uint256) &lt;&lt;onlyRole&gt;&gt;</text>
</g>
<!-- 1&#45;&gt;2 -->
<g id="edge15" class="edge">
<title>1&#45;&gt;2</title>
<path fill="none" stroke="black" d="M1326.45,-461.53C1333.83,-471.2 1341.11,-480.75 1348.22,-490.06"/>
<polygon fill="black" stroke="black" points="1345.58,-492.36 1354.42,-498.19 1351.14,-488.12 1345.58,-492.36"/>
</g>
<!-- 2&#45;&gt;7 -->
<g id="edge24" class="edge">
<title>2&#45;&gt;7</title>
<path fill="none" stroke="black" stroke-dasharray="5,2" d="M1632.62,-711.38C1655.74,-730.08 1676.42,-751.94 1691.23,-777.2 1759.88,-894.31 1758.25,-958.3 1703.23,-1082.4 1691.07,-1109.82 1670.35,-1134.06 1648.12,-1154.2"/>
<polygon fill="black" stroke="black" points="1645.73,-1151.63 1640.53,-1160.87 1650.35,-1156.89 1645.73,-1151.63"/>
</g>
<!-- 2&#45;&gt;8 -->
<g id="edge22" class="edge">
<title>2&#45;&gt;8</title>
<path fill="none" stroke="black" d="M1632.6,-731.4C1645.45,-745.31 1656.68,-760.57 1665.23,-777.2 1699.41,-843.68 1698.37,-878.39 1665.23,-945.4 1659.93,-956.11 1652.58,-965.84 1644.15,-974.58"/>
<polygon fill="black" stroke="black" points="1641.57,-972.21 1636.84,-981.69 1646.45,-977.23 1641.57,-972.21"/>
</g>
<!-- 2&#45;&gt;9 -->
<g id="edge23" class="edge">
<title>2&#45;&gt;9</title>
<path fill="none" stroke="black" stroke-dasharray="5,2" d="M1259.86,-731.4C1247,-745.31 1235.78,-760.57 1227.23,-777.2 1175.76,-877.31 1223.4,-1223.8 1243.9,-1354.91"/>
<polygon fill="black" stroke="black" points="1240.49,-1355.74 1245.51,-1365.07 1247.41,-1354.65 1240.49,-1355.74"/>
</g>
<!-- 2&#45;&gt;10 -->
<g id="edge21" class="edge">
<title>2&#45;&gt;10</title>
<path fill="none" stroke="black" stroke-dasharray="5,2" d="M1446.23,-740.75C1446.23,-749.65 1446.23,-758.56 1446.23,-767.26"/>
<polygon fill="black" stroke="black" points="1442.73,-767.37 1446.23,-777.37 1449.73,-767.37 1442.73,-767.37"/>
</g>
</g>
</svg>
