<?xml version="1.0" encoding="UTF-8" standalone="no"?>
<!DOCTYPE svg PUBLIC "-//W3C//DTD SVG 1.1//EN"
 "http://www.w3.org/Graphics/SVG/1.1/DTD/svg11.dtd">
<!-- Generated by graphviz version 5.0.0 (20220707.1540)
 -->
<!-- Title: UmlClassDiagram Pages: 1 -->
<svg width="1385pt" height="1575pt"
 viewBox="0.00 0.00 1385.39 1574.80" xmlns="http://www.w3.org/2000/svg" xmlns:xlink="http://www.w3.org/1999/xlink">
<g id="graph0" class="graph" transform="scale(1 1) rotate(0) translate(4 1570.8)">
<title>UmlClassDiagram</title>
<polygon fill="white" stroke="transparent" points="-4,4 -4,-1570.8 1381.39,-1570.8 1381.39,4 -4,4"/>
<!-- 1 -->
<g id="node1" class="node">
<title>1</title>
<polygon fill="#f2f2f2" stroke="black" points="397.38,-431.1 397.38,-799.9 951.96,-799.9 951.96,-431.1 397.38,-431.1"/>
<text text-anchor="middle" x="674.67" y="-783.3" font-family="Times,serif" font-size="14.00">&lt;&lt;Interface&gt;&gt;</text>
<text text-anchor="middle" x="674.67" y="-766.5" font-family="Times,serif" font-size="14.00">IProofMarketEndpoint</text>
<text text-anchor="middle" x="674.67" y="-749.7" font-family="Times,serif" font-size="14.00">contracts/interfaces/proof_market_endpoint.sol</text>
<polyline fill="none" stroke="black" points="397.38,-741.5 951.96,-741.5 "/>
<text text-anchor="start" x="405.38" y="-724.9" font-family="Times,serif" font-size="14.00">External:</text>
<text text-anchor="start" x="405.38" y="-708.1" font-family="Times,serif" font-size="14.00"> &#160;&#160;&#160;&#160;grantRelayer(relayer: address)</text>
<text text-anchor="start" x="405.38" y="-691.3" font-family="Times,serif" font-size="14.00"> &#160;&#160;&#160;&#160;revokeRelayer(relayer: address)</text>
<text text-anchor="start" x="405.38" y="-674.5" font-family="Times,serif" font-size="14.00"> &#160;&#160;&#160;&#160;getOrder(orderId: uint256): OrderLibrary.Order</text>
<text text-anchor="start" x="405.38" y="-657.7" font-family="Times,serif" font-size="14.00"> &#160;&#160;&#160;&#160;createOrder(orderInput: OrderLibrary.OrderInput): uint256</text>
<text text-anchor="start" x="405.38" y="-640.9" font-family="Times,serif" font-size="14.00"> &#160;&#160;&#160;&#160;closeOrder(orderId: uint256, proof: bytes, finalPrice: uint256, producer: address)</text>
<text text-anchor="start" x="405.38" y="-624.1" font-family="Times,serif" font-size="14.00"> &#160;&#160;&#160;&#160;getStatement(id: uint256): StatementLibrary.StatementData</text>
<text text-anchor="start" x="405.38" y="-607.3" font-family="Times,serif" font-size="14.00"> &#160;&#160;&#160;&#160;addStatement(statementInput: StatementLibrary.StatementInput)</text>
<text text-anchor="start" x="405.38" y="-590.5" font-family="Times,serif" font-size="14.00"> &#160;&#160;&#160;&#160;updateStatementDefinition(id: uint256, definition: StatementLibrary.Definition)</text>
<text text-anchor="start" x="405.38" y="-573.7" font-family="Times,serif" font-size="14.00"> &#160;&#160;&#160;&#160;updateStatementPrice(id: uint256, price: StatementLibrary.Price)</text>
<text text-anchor="start" x="405.38" y="-556.9" font-family="Times,serif" font-size="14.00"> &#160;&#160;&#160;&#160;removeStatement(id: uint256)</text>
<text text-anchor="start" x="405.38" y="-540.1" font-family="Times,serif" font-size="14.00">Public:</text>
<text text-anchor="start" x="405.38" y="-523.3" font-family="Times,serif" font-size="14.00"> &#160;&#160;&#160;&lt;&lt;event&gt;&gt; OrderCreated(id: uint256, orderInput: OrderLibrary.OrderInput, buyer: address)</text>
<text text-anchor="start" x="405.38" y="-506.5" font-family="Times,serif" font-size="14.00"> &#160;&#160;&#160;&lt;&lt;event&gt;&gt; OrderClosed(id: uint256, producer: address, finalPrice: uint256, proof: bytes)</text>
<text text-anchor="start" x="405.38" y="-489.7" font-family="Times,serif" font-size="14.00"> &#160;&#160;&#160;&lt;&lt;event&gt;&gt; StatementAdded(id: uint256, definition: StatementLibrary.Definition)</text>
<text text-anchor="start" x="405.38" y="-472.9" font-family="Times,serif" font-size="14.00"> &#160;&#160;&#160;&lt;&lt;event&gt;&gt; StatementDefinitionUpdated(id: uint256, definition: StatementLibrary.Definition)</text>
<text text-anchor="start" x="405.38" y="-456.1" font-family="Times,serif" font-size="14.00"> &#160;&#160;&#160;&lt;&lt;event&gt;&gt; StatementPriceUpdated(id: uint256, price: StatementLibrary.Price)</text>
<text text-anchor="start" x="405.38" y="-439.3" font-family="Times,serif" font-size="14.00"> &#160;&#160;&#160;&lt;&lt;event&gt;&gt; StatementRemoved(id: uint256)</text>
</g>
<!-- 2 -->
<g id="node6" class="node">
<title>2</title>
<polygon fill="#f2f2f2" stroke="black" points="146.68,-862.1 146.68,-995.7 592.65,-995.7 592.65,-862.1 146.68,-862.1"/>
<text text-anchor="middle" x="369.67" y="-979.1" font-family="Times,serif" font-size="14.00">&lt;&lt;Library&gt;&gt;</text>
<text text-anchor="middle" x="369.67" y="-962.3" font-family="Times,serif" font-size="14.00">OrderLibrary</text>
<text text-anchor="middle" x="369.67" y="-945.5" font-family="Times,serif" font-size="14.00">contracts/libraries/order_lib.sol</text>
<polyline fill="none" stroke="black" points="146.68,-937.3 592.65,-937.3 "/>
<text text-anchor="start" x="154.68" y="-920.7" font-family="Times,serif" font-size="14.00">Internal:</text>
<text text-anchor="start" x="154.68" y="-903.9" font-family="Times,serif" font-size="14.00"> &#160;&#160;&#160;create(self: OrderStorage, inputData: OrderInput, buyer: address): uint256</text>
<text text-anchor="start" x="154.68" y="-887.1" font-family="Times,serif" font-size="14.00"> &#160;&#160;&#160;get(self: OrderStorage, id: uint256): Order</text>
<text text-anchor="start" x="154.68" y="-870.3" font-family="Times,serif" font-size="14.00"> &#160;&#160;&#160;update(self: OrderStorage, id: uint256, producer: address, proof: bytes)</text>
</g>
<!-- 1&#45;&gt;2 -->
<g id="edge1" class="edge">
<title>1&#45;&gt;2</title>
<path fill="none" stroke="black" stroke-dasharray="5,2" d="M494.6,-800.34C476.04,-819.3 458.03,-837.68 441.75,-854.31"/>
<polygon fill="black" stroke="black" points="438.88,-852.23 434.39,-861.82 443.89,-857.13 438.88,-852.23"/>
</g>
<!-- 7 -->
<g id="node12" class="node">
<title>7</title>
<polygon fill="#f2f2f2" stroke="black" points="770.07,-836.9 770.07,-1020.9 1189.26,-1020.9 1189.26,-836.9 770.07,-836.9"/>
<text text-anchor="middle" x="979.67" y="-1004.3" font-family="Times,serif" font-size="14.00">&lt;&lt;Library&gt;&gt;</text>
<text text-anchor="middle" x="979.67" y="-987.5" font-family="Times,serif" font-size="14.00">StatementLibrary</text>
<text text-anchor="middle" x="979.67" y="-970.7" font-family="Times,serif" font-size="14.00">contracts/libraries/statement_lib.sol</text>
<polyline fill="none" stroke="black" points="770.07,-962.5 1189.26,-962.5 "/>
<text text-anchor="start" x="778.07" y="-945.9" font-family="Times,serif" font-size="14.00">Internal:</text>
<text text-anchor="start" x="778.07" y="-929.1" font-family="Times,serif" font-size="14.00"> &#160;&#160;&#160;add(self: StatementStorage, statementInput: StatementInput): uint256</text>
<text text-anchor="start" x="778.07" y="-912.3" font-family="Times,serif" font-size="14.00"> &#160;&#160;&#160;get(self: StatementStorage, id: uint256): StatementData</text>
<text text-anchor="start" x="778.07" y="-895.5" font-family="Times,serif" font-size="14.00"> &#160;&#160;&#160;update(self: StatementStorage, id: uint256, price: Price)</text>
<text text-anchor="start" x="778.07" y="-878.7" font-family="Times,serif" font-size="14.00"> &#160;&#160;&#160;update(self: StatementStorage, id: uint256, definition: Definition)</text>
<text text-anchor="start" x="778.07" y="-861.9" font-family="Times,serif" font-size="14.00"> &#160;&#160;&#160;remove(self: StatementStorage, id: uint256)</text>
<text text-anchor="start" x="778.07" y="-845.1" font-family="Times,serif" font-size="14.00"> &#160;&#160;&#160;exists(self: StatementStorage, id: uint256): bool</text>
</g>
<!-- 1&#45;&gt;7 -->
<g id="edge2" class="edge">
<title>1&#45;&gt;7</title>
<path fill="none" stroke="black" stroke-dasharray="5,2" d="M854.73,-800.34C864.5,-810.31 874.1,-820.12 883.39,-829.6"/>
<polygon fill="black" stroke="black" points="880.92,-832.09 890.42,-836.78 885.93,-827.19 880.92,-832.09"/>
</g>
<!-- 3 -->
<g id="node2" class="node">
<title>3</title>
<polygon fill="#f2f2f2" stroke="black" points="133,-1466.3 133,-1566.3 324.33,-1566.3 324.33,-1466.3 133,-1466.3"/>
<text text-anchor="middle" x="228.67" y="-1549.7" font-family="Times,serif" font-size="14.00">&lt;&lt;Enum&gt;&gt;</text>
<text text-anchor="middle" x="228.67" y="-1532.9" font-family="Times,serif" font-size="14.00">OrderStatus</text>
<text text-anchor="middle" x="228.67" y="-1516.1" font-family="Times,serif" font-size="14.00">contracts/libraries/order_lib.sol</text>
<polyline fill="none" stroke="black" points="133,-1507.9 324.33,-1507.9 "/>
<text text-anchor="start" x="141" y="-1491.3" font-family="Times,serif" font-size="14.00">OPEN: 0</text>
<text text-anchor="start" x="141" y="-1474.5" font-family="Times,serif" font-size="14.00">CLOSED: 1</text>
</g>
<!-- 3&#45;&gt;2 -->
<g id="edge5" class="edge">
<title>3&#45;&gt;2</title>
<path fill="none" stroke="black" d="M226.95,-1466.2C220.22,-1379.76 208,-1196.45 265.67,-1057.4 273.31,-1038.96 284.78,-1021.38 297.36,-1005.49"/>
<polygon fill="black" stroke="black" points="297.69,-1005.09 298.41,-997.92 305.32,-995.82 304.59,-1003 297.69,-1005.09"/>
</g>
<!-- 4 -->
<g id="node3" class="node">
<title>4</title>
<polygon fill="#f2f2f2" stroke="black" points="395,-1228.5 395,-1429.3 586.33,-1429.3 586.33,-1228.5 395,-1228.5"/>
<text text-anchor="middle" x="490.67" y="-1412.7" font-family="Times,serif" font-size="14.00">&lt;&lt;Struct&gt;&gt;</text>
<text text-anchor="middle" x="490.67" y="-1395.9" font-family="Times,serif" font-size="14.00">Order</text>
<text text-anchor="middle" x="490.67" y="-1379.1" font-family="Times,serif" font-size="14.00">contracts/libraries/order_lib.sol</text>
<polyline fill="none" stroke="black" points="395,-1370.9 586.33,-1370.9 "/>
<text text-anchor="start" x="403" y="-1354.3" font-family="Times,serif" font-size="14.00">id: uint256</text>
<text text-anchor="start" x="403" y="-1337.5" font-family="Times,serif" font-size="14.00">statementId: uint256</text>
<text text-anchor="start" x="403" y="-1320.7" font-family="Times,serif" font-size="14.00">input: bytes</text>
<text text-anchor="start" x="403" y="-1303.9" font-family="Times,serif" font-size="14.00">price: uint256</text>
<text text-anchor="start" x="403" y="-1287.1" font-family="Times,serif" font-size="14.00">buyer: address</text>
<text text-anchor="start" x="403" y="-1270.3" font-family="Times,serif" font-size="14.00">status: OrderStatus</text>
<text text-anchor="start" x="403" y="-1253.5" font-family="Times,serif" font-size="14.00">producer: address</text>
<text text-anchor="start" x="403" y="-1236.7" font-family="Times,serif" font-size="14.00">proof: bytes</text>
</g>
<!-- 4&#45;&gt;3 -->
<g id="edge3" class="edge">
<title>4&#45;&gt;3</title>
<path fill="none" stroke="black" stroke-dasharray="5,2" d="M394.97,-1397.62C365.96,-1418.15 334.45,-1440.45 306.74,-1460.06"/>
<polygon fill="black" stroke="black" points="304.41,-1457.42 298.27,-1466.05 308.45,-1463.13 304.41,-1457.42"/>
</g>
<!-- 4&#45;&gt;2 -->
<g id="edge6" class="edge">
<title>4&#45;&gt;2</title>
<path fill="none" stroke="black" d="M511.68,-1228.23C515.64,-1175.67 512.96,-1111.12 491.67,-1057.4 484.29,-1038.78 472.91,-1021.09 459.99,-1005.14"/>
<polygon fill="black" stroke="black" points="459.97,-1005.12 453.05,-1003.13 452.23,-995.96 459.16,-997.96 459.97,-1005.12"/>
</g>
<!-- 5 -->
<g id="node4" class="node">
<title>5</title>
<polygon fill="#f2f2f2" stroke="black" points="0,-1066.3 0,-1183.1 191.33,-1183.1 191.33,-1066.3 0,-1066.3"/>
<text text-anchor="middle" x="95.67" y="-1166.5" font-family="Times,serif" font-size="14.00">&lt;&lt;Struct&gt;&gt;</text>
<text text-anchor="middle" x="95.67" y="-1149.7" font-family="Times,serif" font-size="14.00">OrderInput</text>
<text text-anchor="middle" x="95.67" y="-1132.9" font-family="Times,serif" font-size="14.00">contracts/libraries/order_lib.sol</text>
<polyline fill="none" stroke="black" points="0,-1124.7 191.33,-1124.7 "/>
<text text-anchor="start" x="8" y="-1108.1" font-family="Times,serif" font-size="14.00">statementId: uint256</text>
<text text-anchor="start" x="8" y="-1091.3" font-family="Times,serif" font-size="14.00">input: bytes</text>
<text text-anchor="start" x="8" y="-1074.5" font-family="Times,serif" font-size="14.00">price: uint256</text>
</g>
<!-- 5&#45;&gt;2 -->
<g id="edge7" class="edge">
<title>5&#45;&gt;2</title>
<path fill="none" stroke="black" d="M183.33,-1066.1C211.96,-1046.24 243.9,-1023.73 273.15,-1002.81"/>
<polygon fill="black" stroke="black" points="273.2,-1002.77 275.75,-996.03 282.95,-995.78 280.41,-1002.53 273.2,-1002.77"/>
</g>
<!-- 6 -->
<g id="node5" class="node">
<title>6</title>
<polygon fill="#f2f2f2" stroke="black" points="265.71,-1074.7 265.71,-1174.7 473.62,-1174.7 473.62,-1074.7 265.71,-1074.7"/>
<text text-anchor="middle" x="369.67" y="-1158.1" font-family="Times,serif" font-size="14.00">&lt;&lt;Struct&gt;&gt;</text>
<text text-anchor="middle" x="369.67" y="-1141.3" font-family="Times,serif" font-size="14.00">OrderStorage</text>
<text text-anchor="middle" x="369.67" y="-1124.5" font-family="Times,serif" font-size="14.00">contracts/libraries/order_lib.sol</text>
<polyline fill="none" stroke="black" points="265.71,-1116.3 473.62,-1116.3 "/>
<text text-anchor="start" x="273.71" y="-1099.7" font-family="Times,serif" font-size="14.00">orders: mapping(uint256=&gt;Order)</text>
<text text-anchor="start" x="273.71" y="-1082.9" font-family="Times,serif" font-size="14.00">orderCounter: uint256</text>
</g>
<!-- 6&#45;&gt;4 -->
<g id="edge4" class="edge">
<title>6&#45;&gt;4</title>
<path fill="none" stroke="black" stroke-dasharray="5,2" d="M399.11,-1174.91C407.32,-1188.62 416.57,-1204.07 425.95,-1219.76"/>
<polygon fill="black" stroke="black" points="423.04,-1221.7 431.17,-1228.48 429.04,-1218.1 423.04,-1221.7"/>
</g>
<!-- 6&#45;&gt;2 -->
<g id="edge8" class="edge">
<title>6&#45;&gt;2</title>
<path fill="none" stroke="black" d="M375.63,-1074.53C376.35,-1054.37 376.58,-1030.53 376.3,-1008.08"/>
<polygon fill="black" stroke="black" points="376.3,-1007.78 372.2,-1001.85 376.1,-995.78 380.2,-1001.72 376.3,-1007.78"/>
</g>
<!-- 2&#45;&gt;3 -->
<g id="edge12" class="edge">
<title>2&#45;&gt;3</title>
<path fill="none" stroke="black" stroke-dasharray="5,2" d="M287.9,-995.82C271.71,-1014.12 256.9,-1035.13 247.67,-1057.4 192.14,-1191.29 201.41,-1366.22 214.65,-1456.18"/>
<polygon fill="black" stroke="black" points="211.21,-1456.85 216.19,-1466.2 218.12,-1455.78 211.21,-1456.85"/>
</g>
<!-- 2&#45;&gt;4 -->
<g id="edge11" class="edge">
<title>2&#45;&gt;4</title>
<path fill="none" stroke="black" stroke-dasharray="5,2" d="M434.8,-995.96C450.29,-1014.19 464.84,-1035.13 473.67,-1057.4 493.59,-1107.66 497.22,-1167.39 495.99,-1217.92"/>
<polygon fill="black" stroke="black" points="492.48,-1218.13 495.67,-1228.23 499.48,-1218.34 492.48,-1218.13"/>
</g>
<!-- 2&#45;&gt;5 -->
<g id="edge10" class="edge">
<title>2&#45;&gt;5</title>
<path fill="none" stroke="black" stroke-dasharray="5,2" d="M270.09,-995.78C240.28,-1016.56 207.92,-1039.46 179.25,-1060.07"/>
<polygon fill="black" stroke="black" points="176.94,-1057.42 170.87,-1066.1 181.03,-1063.1 176.94,-1057.42"/>
</g>
<!-- 2&#45;&gt;6 -->
<g id="edge9" class="edge">
<title>2&#45;&gt;6</title>
<path fill="none" stroke="black" stroke-dasharray="5,2" d="M363.23,-995.78C362.76,-1018.04 362.82,-1042.75 363.39,-1064.46"/>
<polygon fill="black" stroke="black" points="359.9,-1064.65 363.71,-1074.53 366.89,-1064.43 359.9,-1064.65"/>
</g>
<!-- 8 -->
<g id="node7" class="node">
<title>8</title>
<polygon fill="#f2f2f2" stroke="black" points="871.94,-1262.1 871.94,-1395.7 1087.39,-1395.7 1087.39,-1262.1 871.94,-1262.1"/>
<text text-anchor="middle" x="979.67" y="-1379.1" font-family="Times,serif" font-size="14.00">&lt;&lt;Struct&gt;&gt;</text>
<text text-anchor="middle" x="979.67" y="-1362.3" font-family="Times,serif" font-size="14.00">StatementData</text>
<text text-anchor="middle" x="979.67" y="-1345.5" font-family="Times,serif" font-size="14.00">contracts/libraries/statement_lib.sol</text>
<polyline fill="none" stroke="black" points="871.94,-1337.3 1087.39,-1337.3 "/>
<text text-anchor="start" x="879.94" y="-1320.7" font-family="Times,serif" font-size="14.00">id: uint256</text>
<text text-anchor="start" x="879.94" y="-1303.9" font-family="Times,serif" font-size="14.00">definition: Definition</text>
<text text-anchor="start" x="879.94" y="-1287.1" font-family="Times,serif" font-size="14.00">price: Price</text>
<text text-anchor="start" x="879.94" y="-1270.3" font-family="Times,serif" font-size="14.00">developer: address</text>
</g>
<!-- 11 -->
<g id="node10" class="node">
<title>11</title>
<polygon fill="#f2f2f2" stroke="black" points="1161.94,-1474.7 1161.94,-1557.9 1377.39,-1557.9 1377.39,-1474.7 1161.94,-1474.7"/>
<text text-anchor="middle" x="1269.67" y="-1541.3" font-family="Times,serif" font-size="14.00">&lt;&lt;Struct&gt;&gt;</text>
<text text-anchor="middle" x="1269.67" y="-1524.5" font-family="Times,serif" font-size="14.00">Price</text>
<text text-anchor="middle" x="1269.67" y="-1507.7" font-family="Times,serif" font-size="14.00">contracts/libraries/statement_lib.sol</text>
<polyline fill="none" stroke="black" points="1161.94,-1499.5 1377.39,-1499.5 "/>
<text text-anchor="start" x="1169.94" y="-1482.9" font-family="Times,serif" font-size="14.00">price: uint256</text>
</g>
<!-- 8&#45;&gt;11 -->
<g id="edge14" class="edge">
<title>8&#45;&gt;11</title>
<path fill="none" stroke="black" stroke-dasharray="5,2" d="M1082.73,-1395.79C1120.55,-1419.97 1162.53,-1446.81 1197.12,-1468.92"/>
<polygon fill="black" stroke="black" points="1195.43,-1472 1205.75,-1474.43 1199.21,-1466.1 1195.43,-1472"/>
</g>
<!-- 12 -->
<g id="node11" class="node">
<title>12</title>
<polygon fill="#f2f2f2" stroke="black" points="515.94,-1466.3 515.94,-1566.3 731.39,-1566.3 731.39,-1466.3 515.94,-1466.3"/>
<text text-anchor="middle" x="623.67" y="-1549.7" font-family="Times,serif" font-size="14.00">&lt;&lt;Struct&gt;&gt;</text>
<text text-anchor="middle" x="623.67" y="-1532.9" font-family="Times,serif" font-size="14.00">Definition</text>
<text text-anchor="middle" x="623.67" y="-1516.1" font-family="Times,serif" font-size="14.00">contracts/libraries/statement_lib.sol</text>
<polyline fill="none" stroke="black" points="515.94,-1507.9 731.39,-1507.9 "/>
<text text-anchor="start" x="523.94" y="-1491.3" font-family="Times,serif" font-size="14.00">verificationKey: bytes</text>
<text text-anchor="start" x="523.94" y="-1474.5" font-family="Times,serif" font-size="14.00">provingKey: bytes</text>
</g>
<!-- 8&#45;&gt;12 -->
<g id="edge13" class="edge">
<title>8&#45;&gt;12</title>
<path fill="none" stroke="black" stroke-dasharray="5,2" d="M871.89,-1386.03C825.84,-1410.01 772.33,-1437.88 726.81,-1461.59"/>
<polygon fill="black" stroke="black" points="725.07,-1458.55 717.81,-1466.27 728.3,-1464.76 725.07,-1458.55"/>
</g>
<!-- 8&#45;&gt;7 -->
<g id="edge18" class="edge">
<title>8&#45;&gt;7</title>
<path fill="none" stroke="black" d="M984.84,-1261.84C986.61,-1199.69 986.89,-1105.64 985.67,-1033.5"/>
<polygon fill="black" stroke="black" points="985.67,-1033.21 981.56,-1027.28 985.45,-1021.21 989.56,-1027.13 985.67,-1033.21"/>
</g>
<!-- 9 -->
<g id="node8" class="node">
<title>9</title>
<polygon fill="#f2f2f2" stroke="black" points="1016.94,-1057.9 1016.94,-1191.5 1232.39,-1191.5 1232.39,-1057.9 1016.94,-1057.9"/>
<text text-anchor="middle" x="1124.67" y="-1174.9" font-family="Times,serif" font-size="14.00">&lt;&lt;Struct&gt;&gt;</text>
<text text-anchor="middle" x="1124.67" y="-1158.1" font-family="Times,serif" font-size="14.00">StatementInput</text>
<text text-anchor="middle" x="1124.67" y="-1141.3" font-family="Times,serif" font-size="14.00">contracts/libraries/statement_lib.sol</text>
<polyline fill="none" stroke="black" points="1016.94,-1133.1 1232.39,-1133.1 "/>
<text text-anchor="start" x="1024.94" y="-1116.5" font-family="Times,serif" font-size="14.00">id: uint256</text>
<text text-anchor="start" x="1024.94" y="-1099.7" font-family="Times,serif" font-size="14.00">definition: Definition</text>
<text text-anchor="start" x="1024.94" y="-1082.9" font-family="Times,serif" font-size="14.00">price: Price</text>
<text text-anchor="start" x="1024.94" y="-1066.1" font-family="Times,serif" font-size="14.00">developer: address</text>
</g>
<!-- 9&#45;&gt;11 -->
<g id="edge16" class="edge">
<title>9&#45;&gt;11</title>
<path fill="none" stroke="black" stroke-dasharray="5,2" d="M1149.26,-1191.79C1178.05,-1269.13 1225.07,-1395.46 1251.01,-1465.17"/>
<polygon fill="black" stroke="black" points="1247.76,-1466.47 1254.53,-1474.62 1254.32,-1464.03 1247.76,-1466.47"/>
</g>
<!-- 9&#45;&gt;12 -->
<g id="edge15" class="edge">
<title>9&#45;&gt;12</title>
<path fill="none" stroke="black" stroke-dasharray="5,2" d="M1139.39,-1191.72C1150.44,-1260.23 1155.06,-1366.09 1096.67,-1429.8 1050.02,-1480.7 866.05,-1501.52 741.78,-1509.88"/>
<polygon fill="black" stroke="black" points="741.19,-1506.41 731.44,-1510.56 741.65,-1513.4 741.19,-1506.41"/>
</g>
<!-- 9&#45;&gt;7 -->
<g id="edge19" class="edge">
<title>9&#45;&gt;7</title>
<path fill="none" stroke="black" d="M1081.79,-1057.8C1075.49,-1049.13 1068.83,-1040.08 1062.05,-1030.99"/>
<polygon fill="black" stroke="black" points="1061.85,-1030.73 1055.06,-1028.33 1054.66,-1021.13 1061.46,-1023.53 1061.85,-1030.73"/>
</g>
<!-- 10 -->
<g id="node9" class="node">
<title>10</title>
<polygon fill="#f2f2f2" stroke="black" points="660.77,-1083.1 660.77,-1166.3 942.56,-1166.3 942.56,-1083.1 660.77,-1083.1"/>
<text text-anchor="middle" x="801.67" y="-1149.7" font-family="Times,serif" font-size="14.00">&lt;&lt;Struct&gt;&gt;</text>
<text text-anchor="middle" x="801.67" y="-1132.9" font-family="Times,serif" font-size="14.00">StatementStorage</text>
<text text-anchor="middle" x="801.67" y="-1116.1" font-family="Times,serif" font-size="14.00">contracts/libraries/statement_lib.sol</text>
<polyline fill="none" stroke="black" points="660.77,-1107.9 942.56,-1107.9 "/>
<text text-anchor="start" x="668.77" y="-1091.3" font-family="Times,serif" font-size="14.00">statements: mapping(uint256=&gt;StatementData)</text>
</g>
<!-- 10&#45;&gt;8 -->
<g id="edge17" class="edge">
<title>10&#45;&gt;8</title>
<path fill="none" stroke="black" stroke-dasharray="5,2" d="M837.69,-1166.62C859.79,-1191.72 888.74,-1224.61 914.74,-1254.14"/>
<polygon fill="black" stroke="black" points="912.39,-1256.77 921.63,-1261.97 917.65,-1252.15 912.39,-1256.77"/>
</g>
<!-- 10&#45;&gt;7 -->
<g id="edge20" class="edge">
<title>10&#45;&gt;7</title>
<path fill="none" stroke="black" d="M844.92,-1082.74C859.93,-1067.17 877.3,-1048.66 894.48,-1029.99"/>
<polygon fill="black" stroke="black" points="894.51,-1029.97 895.62,-1022.84 902.62,-1021.13 901.51,-1028.25 894.51,-1029.97"/>
</g>
<!-- 11&#45;&gt;7 -->
<g id="edge21" class="edge">
<title>11&#45;&gt;7</title>
<path fill="none" stroke="black" d="M1284.6,-1474.65C1307.38,-1389.18 1338,-1187.99 1250.67,-1057.4 1237.07,-1037.07 1219.27,-1019.88 1199.27,-1005.35"/>
<polygon fill="black" stroke="black" points="1199.15,-1005.27 1191.94,-1005.14 1189.29,-998.44 1196.5,-998.57 1199.15,-1005.27"/>
</g>
<!-- 12&#45;&gt;7 -->
<g id="edge22" class="edge">
<title>12&#45;&gt;7</title>
<path fill="none" stroke="black" d="M625.02,-1466.04C622.9,-1361.38 614.06,-1121.25 660.67,-1057.4 685.42,-1023.49 720.52,-998.6 758.45,-980.33"/>
<polygon fill="black" stroke="black" points="758.86,-980.14 762.63,-973.99 769.76,-975.11 765.99,-981.25 758.86,-980.14"/>
</g>
<!-- 7&#45;&gt;8 -->
<g id="edge25" class="edge">
<title>7&#45;&gt;8</title>
<path fill="none" stroke="black" stroke-dasharray="5,2" d="M973.89,-1021.21C972.49,-1090.92 972.6,-1185.86 974.22,-1251.56"/>
<polygon fill="black" stroke="black" points="970.73,-1251.94 974.49,-1261.84 977.73,-1251.75 970.73,-1251.94"/>
</g>
<!-- 7&#45;&gt;9 -->
<g id="edge24" class="edge">
<title>7&#45;&gt;9</title>
<path fill="none" stroke="black" stroke-dasharray="5,2" d="M1041.18,-1021.13C1048.31,-1030.69 1055.57,-1040.33 1062.7,-1049.67"/>
<polygon fill="black" stroke="black" points="1060.07,-1051.99 1068.93,-1057.8 1065.62,-1047.73 1060.07,-1051.99"/>
</g>
<!-- 7&#45;&gt;10 -->
<g id="edge23" class="edge">
<title>7&#45;&gt;10</title>
<path fill="none" stroke="black" stroke-dasharray="5,2" d="M889.14,-1021.13C872.02,-1039.69 854.98,-1058.53 840.53,-1074.91"/>
<polygon fill="black" stroke="black" points="837.62,-1072.92 833.66,-1082.74 842.89,-1077.53 837.62,-1072.92"/>
</g>
<!-- 7&#45;&gt;11 -->
<g id="edge26" class="edge">
<title>7&#45;&gt;11</title>
<path fill="none" stroke="black" stroke-dasharray="5,2" d="M1189.4,-1011.44C1206.05,-1024.62 1220.93,-1039.84 1232.67,-1057.4 1316.76,-1183.14 1291.49,-1374.35 1276.51,-1464.67"/>
<polygon fill="black" stroke="black" points="1273.04,-1464.21 1274.84,-1474.65 1279.95,-1465.37 1273.04,-1464.21"/>
</g>
<!-- 7&#45;&gt;12 -->
<g id="edge27" class="edge">
<title>7&#45;&gt;12</title>
<path fill="none" stroke="black" stroke-dasharray="5,2" d="M769.74,-967.92C720.55,-986.81 673.56,-1015.09 642.67,-1057.4 597.52,-1119.25 604.4,-1346.55 614.43,-1455.84"/>
<polygon fill="black" stroke="black" points="610.97,-1456.42 615.41,-1466.04 617.94,-1455.75 610.97,-1456.42"/>
</g>
<!-- 13 -->
<g id="node13" class="node">
<title>13</title>
<polygon fill="#f2f2f2" stroke="black" points="1007.78,-565.5 1007.78,-665.5 1309.56,-665.5 1309.56,-565.5 1007.78,-565.5"/>
<text text-anchor="middle" x="1158.67" y="-648.9" font-family="Times,serif" font-size="14.00">&lt;&lt;Library&gt;&gt;</text>
<text text-anchor="middle" x="1158.67" y="-632.1" font-family="Times,serif" font-size="14.00">Tools</text>
<text text-anchor="middle" x="1158.67" y="-615.3" font-family="Times,serif" font-size="14.00">contracts/libraries/tools.sol</text>
<polyline fill="none" stroke="black" points="1007.78,-607.1 1309.56,-607.1 "/>
<text text-anchor="start" x="1015.78" y="-590.5" font-family="Times,serif" font-size="14.00">Internal:</text>
<text text-anchor="start" x="1015.78" y="-573.7" font-family="Times,serif" font-size="14.00"> &#160;&#160;&#160;verifyProof(orderId: uint256, proof: bytes): bool</text>
</g>
<!-- 14 -->
<g id="node14" class="node">
<title>14</title>
<polygon fill="#f2f2f2" stroke="black" points="978.4,-147.3 978.4,-247.3 1224.93,-247.3 1224.93,-147.3 978.4,-147.3"/>
<text text-anchor="middle" x="1101.67" y="-230.7" font-family="Times,serif" font-size="14.00">MockTocken</text>
<text text-anchor="middle" x="1101.67" y="-213.9" font-family="Times,serif" font-size="14.00">contracts/mock/mock_erc20_contract.sol</text>
<polyline fill="none" stroke="black" points="978.4,-205.7 1224.93,-205.7 "/>
<text text-anchor="start" x="986.4" y="-189.1" font-family="Times,serif" font-size="14.00">Public:</text>
<text text-anchor="start" x="986.4" y="-172.3" font-family="Times,serif" font-size="14.00"> &#160;&#160;&#160;constructor()</text>
<text text-anchor="start" x="986.4" y="-155.5" font-family="Times,serif" font-size="14.00"> &#160;&#160;&#160;mint(to: address, amount: uint256)</text>
</g>
<!-- 0 -->
<g id="node15" class="node">
<title>0</title>
<polygon fill="#f2f2f2" stroke="black" points="389.42,-0.5 389.42,-394.1 959.92,-394.1 959.92,-0.5 389.42,-0.5"/>
<text text-anchor="middle" x="674.67" y="-377.5" font-family="Times,serif" font-size="14.00">ProofMarketEndpoint</text>
<text text-anchor="middle" x="674.67" y="-360.7" font-family="Times,serif" font-size="14.00">contracts/proof_market_endpoint.sol</text>
<polyline fill="none" stroke="black" points="389.42,-352.5 959.92,-352.5 "/>
<text text-anchor="start" x="397.42" y="-335.9" font-family="Times,serif" font-size="14.00">Private:</text>
<text text-anchor="start" x="397.42" y="-319.1" font-family="Times,serif" font-size="14.00"> &#160;&#160;orderStorage: OrderLibrary.OrderStorage</text>
<text text-anchor="start" x="397.42" y="-302.3" font-family="Times,serif" font-size="14.00"> &#160;&#160;statementStorage: StatementLibrary.StatementStorage</text>
<text text-anchor="start" x="397.42" y="-285.5" font-family="Times,serif" font-size="14.00">Public:</text>
<text text-anchor="start" x="397.42" y="-268.7" font-family="Times,serif" font-size="14.00"> &#160;&#160;token: IERC20</text>
<text text-anchor="start" x="397.42" y="-251.9" font-family="Times,serif" font-size="14.00"> &#160;&#160;OWNER_ROLE: bytes32</text>
<text text-anchor="start" x="397.42" y="-235.1" font-family="Times,serif" font-size="14.00"> &#160;&#160;RELAYER_ROLE: bytes32</text>
<polyline fill="none" stroke="black" points="389.42,-226.9 959.92,-226.9 "/>
<text text-anchor="start" x="397.42" y="-210.3" font-family="Times,serif" font-size="14.00">Public:</text>
<text text-anchor="start" x="397.42" y="-193.5" font-family="Times,serif" font-size="14.00"> &#160;&#160;&#160;&lt;&lt;modifier&gt;&gt; statementMustExist(statementId: uint256)</text>
<text text-anchor="start" x="397.42" y="-176.7" font-family="Times,serif" font-size="14.00"> &#160;&#160;&#160;constructor(_token: IERC20)</text>
<text text-anchor="start" x="397.42" y="-159.9" font-family="Times,serif" font-size="14.00"> &#160;&#160;&#160;grantRelayer(relayer: address) &lt;&lt;onlyRole&gt;&gt;</text>
<text text-anchor="start" x="397.42" y="-143.1" font-family="Times,serif" font-size="14.00"> &#160;&#160;&#160;revokeRelayer(relayer: address) &lt;&lt;onlyRole&gt;&gt;</text>
<text text-anchor="start" x="397.42" y="-126.3" font-family="Times,serif" font-size="14.00"> &#160;&#160;&#160;getOrder(orderId: uint256): OrderLibrary.Order</text>
<text text-anchor="start" x="397.42" y="-109.5" font-family="Times,serif" font-size="14.00"> &#160;&#160;&#160;createOrder(orderInput: OrderLibrary.OrderInput): uint256 &lt;&lt;statementMustExist&gt;&gt;</text>
<text text-anchor="start" x="397.42" y="-92.7" font-family="Times,serif" font-size="14.00"> &#160;&#160;&#160;closeOrder(orderId: uint256, proof: bytes, finalPrice: uint256, producer: address) &lt;&lt;onlyRole&gt;&gt;</text>
<text text-anchor="start" x="397.42" y="-75.9" font-family="Times,serif" font-size="14.00"> &#160;&#160;&#160;getStatement(id: uint256): StatementLibrary.StatementData</text>
<text text-anchor="start" x="397.42" y="-59.1" font-family="Times,serif" font-size="14.00"> &#160;&#160;&#160;addStatement(statementInput: StatementLibrary.StatementInput) &lt;&lt;onlyRole&gt;&gt;</text>
<text text-anchor="start" x="397.42" y="-42.3" font-family="Times,serif" font-size="14.00"> &#160;&#160;&#160;updateStatementDefinition(id: uint256, definition: StatementLibrary.Definition) &lt;&lt;onlyRole&gt;&gt;</text>
<text text-anchor="start" x="397.42" y="-25.5" font-family="Times,serif" font-size="14.00"> &#160;&#160;&#160;updateStatementPrice(id: uint256, price: StatementLibrary.Price) &lt;&lt;onlyRole&gt;&gt;</text>
<text text-anchor="start" x="397.42" y="-8.7" font-family="Times,serif" font-size="14.00"> &#160;&#160;&#160;removeStatement(id: uint256) &lt;&lt;onlyRole&gt;&gt;</text>
</g>
<!-- 0&#45;&gt;1 -->
<g id="edge28" class="edge">
<title>0&#45;&gt;1</title>
<path fill="none" stroke="black" stroke-dasharray="5,2" d="M674.67,-394.21C674.67,-396.41 674.67,-398.61 674.67,-400.81"/>
<polygon fill="none" stroke="black" points="664.17,-400.9 674.67,-430.9 685.17,-400.9 664.17,-400.9"/>
</g>
<!-- 0&#45;&gt;2 -->
<g id="edge29" class="edge">
<title>0&#45;&gt;2</title>
<path fill="none" stroke="black" d="M410.41,-394.19C402.28,-405.87 394.96,-418.01 388.67,-430.6 320.83,-566.36 337.14,-749.94 354.06,-851.8"/>
<polygon fill="black" stroke="black" points="350.62,-852.44 355.75,-861.7 357.52,-851.26 350.62,-852.44"/>
</g>
<!-- 0&#45;&gt;7 -->
<g id="edge30" class="edge">
<title>0&#45;&gt;7</title>
<path fill="none" stroke="black" d="M938.93,-394.19C947.06,-405.87 954.38,-418.01 960.67,-430.6 994.1,-497.5 991,-701.37 985.49,-826.34"/>
<polygon fill="black" stroke="black" points="981.98,-826.54 985.02,-836.69 988.97,-826.86 981.98,-826.54"/>
</g>
<!-- 0&#45;&gt;13 -->
<g id="edge31" class="edge">
<title>0&#45;&gt;13</title>
<path fill="none" stroke="black" stroke-dasharray="5,2" d="M951.63,-394.31C966.09,-406.29 980.19,-418.43 993.67,-430.6 1037.21,-469.92 1081.32,-519.72 1112.97,-557.57"/>
<polygon fill="black" stroke="black" points="1110.44,-560.01 1119.53,-565.46 1115.83,-555.53 1110.44,-560.01"/>
</g>
</g>
</svg>
