<?xml version="1.0" encoding="UTF-8" standalone="no"?>
<!DOCTYPE svg PUBLIC "-//W3C//DTD SVG 1.1//EN"
 "http://www.w3.org/Graphics/SVG/1.1/DTD/svg11.dtd">
<!-- Generated by graphviz version 5.0.0 (20220707.1540)
 -->
<!-- Title: UmlClassDiagram Pages: 1 -->
<svg width="1335pt" height="1101pt"
 viewBox="0.00 0.00 1334.74 1101.00" xmlns="http://www.w3.org/2000/svg" xmlns:xlink="http://www.w3.org/1999/xlink">
<g id="graph0" class="graph" transform="scale(1 1) rotate(0) translate(4 1097)">
<title>UmlClassDiagram</title>
<polygon fill="white" stroke="transparent" points="-4,4 -4,-1097 1330.74,-1097 1330.74,4 -4,4"/>
<!-- 0 -->
<g id="node1" class="node">
<title>0</title>
<polygon fill="#f2f2f2" stroke="black" points="204.32,-508.9 204.32,-700.9 685.3,-700.9 685.3,-508.9 204.32,-508.9"/>
<text text-anchor="middle" x="444.81" y="-684.3" font-family="Times,serif" font-size="14.00">OrderContract</text>
<text text-anchor="middle" x="444.81" y="-667.5" font-family="Times,serif" font-size="14.00">contracts/order_contract.sol</text>
<polyline fill="none" stroke="black" points="204.32,-659.3 685.3,-659.3 "/>
<text text-anchor="start" x="212.32" y="-642.7" font-family="Times,serif" font-size="14.00">Public:</text>
<text text-anchor="start" x="212.32" y="-625.9" font-family="Times,serif" font-size="14.00"> &#160;&#160;orders: mapping(uint256=&gt;Order)</text>
<text text-anchor="start" x="212.32" y="-609.1" font-family="Times,serif" font-size="14.00"> &#160;&#160;nextOrderId: uint256</text>
<polyline fill="none" stroke="black" points="204.32,-600.9 685.3,-600.9 "/>
<text text-anchor="start" x="212.32" y="-584.3" font-family="Times,serif" font-size="14.00">Public:</text>
<text text-anchor="start" x="212.32" y="-567.5" font-family="Times,serif" font-size="14.00"> &#160;&#160;&#160;constructor()</text>
<text text-anchor="start" x="212.32" y="-550.7" font-family="Times,serif" font-size="14.00"> &#160;&#160;&#160;getOrder(orderId: uint256): Order</text>
<text text-anchor="start" x="212.32" y="-533.9" font-family="Times,serif" font-size="14.00"> &#160;&#160;&#160;createOrder(statementId: uint256, input: bytes32, price: uint256, buyer: address)</text>
<text text-anchor="start" x="212.32" y="-517.1" font-family="Times,serif" font-size="14.00"> &#160;&#160;&#160;closeOrder(orderId: uint256, proofId: uint256)</text>
</g>
<!-- 5 -->
<g id="node6" class="node">
<title>5</title>
<polygon fill="#f2f2f2" stroke="black" points="428.41,-992.5 428.41,-1092.5 555.22,-1092.5 555.22,-992.5 428.41,-992.5"/>
<text text-anchor="middle" x="491.81" y="-1075.9" font-family="Times,serif" font-size="14.00">&lt;&lt;Enum&gt;&gt;</text>
<text text-anchor="middle" x="491.81" y="-1059.1" font-family="Times,serif" font-size="14.00">OrderStatus</text>
<text text-anchor="middle" x="491.81" y="-1042.3" font-family="Times,serif" font-size="14.00">contracts/structs.sol</text>
<polyline fill="none" stroke="black" points="428.41,-1034.1 555.22,-1034.1 "/>
<text text-anchor="start" x="436.41" y="-1017.5" font-family="Times,serif" font-size="14.00">OPEN: 0</text>
<text text-anchor="start" x="436.41" y="-1000.7" font-family="Times,serif" font-size="14.00">CLOSED: 1</text>
</g>
<!-- 0&#45;&gt;5 -->
<g id="edge2" class="edge">
<title>0&#45;&gt;5</title>
<path fill="none" stroke="black" stroke-dasharray="5,2" d="M443.28,-701.06C443.75,-771.92 447.83,-870.74 463.81,-956 465.44,-964.7 467.72,-973.74 470.29,-982.54"/>
<polygon fill="black" stroke="black" points="467.01,-983.8 473.28,-992.34 473.71,-981.76 467.01,-983.8"/>
</g>
<!-- 6 -->
<g id="node7" class="node">
<title>6</title>
<polygon fill="#f2f2f2" stroke="black" points="473.07,-737.9 473.07,-955.5 604.55,-955.5 604.55,-737.9 473.07,-737.9"/>
<text text-anchor="middle" x="538.81" y="-938.9" font-family="Times,serif" font-size="14.00">&lt;&lt;Struct&gt;&gt;</text>
<text text-anchor="middle" x="538.81" y="-922.1" font-family="Times,serif" font-size="14.00">Order</text>
<text text-anchor="middle" x="538.81" y="-905.3" font-family="Times,serif" font-size="14.00">contracts/structs.sol</text>
<polyline fill="none" stroke="black" points="473.07,-897.1 604.55,-897.1 "/>
<text text-anchor="start" x="481.07" y="-880.5" font-family="Times,serif" font-size="14.00">id: uint256</text>
<text text-anchor="start" x="481.07" y="-863.7" font-family="Times,serif" font-size="14.00">statementId: uint256</text>
<text text-anchor="start" x="481.07" y="-846.9" font-family="Times,serif" font-size="14.00">input: bytes32</text>
<text text-anchor="start" x="481.07" y="-830.1" font-family="Times,serif" font-size="14.00">price: uint256</text>
<text text-anchor="start" x="481.07" y="-813.3" font-family="Times,serif" font-size="14.00">createdOn: uint256</text>
<text text-anchor="start" x="481.07" y="-796.5" font-family="Times,serif" font-size="14.00">updatedOn: uint256</text>
<text text-anchor="start" x="481.07" y="-779.7" font-family="Times,serif" font-size="14.00">buyer: address</text>
<text text-anchor="start" x="481.07" y="-762.9" font-family="Times,serif" font-size="14.00">status: OrderStatus</text>
<text text-anchor="start" x="481.07" y="-746.1" font-family="Times,serif" font-size="14.00">proofId: uint256</text>
</g>
<!-- 0&#45;&gt;6 -->
<g id="edge1" class="edge">
<title>0&#45;&gt;6</title>
<path fill="none" stroke="black" d="M482.1,-701.02C485.6,-709.95 489.17,-719.07 492.74,-728.17"/>
<polygon fill="black" stroke="black" points="489.54,-729.61 496.45,-737.64 496.06,-727.05 489.54,-729.61"/>
</g>
<!-- 1 -->
<g id="node2" class="node">
<title>1</title>
<polygon fill="#f2f2f2" stroke="black" points="54.42,-246.3 54.42,-471.9 835.21,-471.9 835.21,-246.3 54.42,-246.3"/>
<text text-anchor="middle" x="444.81" y="-455.3" font-family="Times,serif" font-size="14.00">ProofContract</text>
<text text-anchor="middle" x="444.81" y="-438.5" font-family="Times,serif" font-size="14.00">contracts/proof_contract.sol</text>
<polyline fill="none" stroke="black" points="54.42,-430.3 835.21,-430.3 "/>
<text text-anchor="start" x="62.42" y="-413.7" font-family="Times,serif" font-size="14.00">Private:</text>
<text text-anchor="start" x="62.42" y="-396.9" font-family="Times,serif" font-size="14.00"> &#160;&#160;orderContract: OrderContract</text>
<text text-anchor="start" x="62.42" y="-380.1" font-family="Times,serif" font-size="14.00">Public:</text>
<text text-anchor="start" x="62.42" y="-363.3" font-family="Times,serif" font-size="14.00"> &#160;&#160;proofs: mapping(uint256=&gt;Proof)</text>
<text text-anchor="start" x="62.42" y="-346.5" font-family="Times,serif" font-size="14.00"> &#160;&#160;nextProofId: uint256</text>
<polyline fill="none" stroke="black" points="54.42,-338.3 835.21,-338.3 "/>
<text text-anchor="start" x="62.42" y="-321.7" font-family="Times,serif" font-size="14.00">Public:</text>
<text text-anchor="start" x="62.42" y="-304.9" font-family="Times,serif" font-size="14.00"> &#160;&#160;&#160;constructor(_orderContract: OrderContract)</text>
<text text-anchor="start" x="62.42" y="-288.1" font-family="Times,serif" font-size="14.00"> &#160;&#160;&#160;getProof(proofId: uint256): Proof</text>
<text text-anchor="start" x="62.42" y="-271.3" font-family="Times,serif" font-size="14.00"> &#160;&#160;&#160;verifyProof(statementId: uint256, orderId: uint256, finalPrice: uint256, timestamp: uint256, producer: address, proof: bytes32[]): bool</text>
<text text-anchor="start" x="62.42" y="-254.5" font-family="Times,serif" font-size="14.00"> &#160;&#160;&#160;addProof(statementId: uint256, orderId: uint256, finalPrice: uint256, timestamp: uint256, producer: address, proof: bytes32[])</text>
</g>
<!-- 1&#45;&gt;0 -->
<g id="edge4" class="edge">
<title>1&#45;&gt;0</title>
<path fill="none" stroke="black" d="M444.81,-472.01C444.81,-480.83 444.81,-489.71 444.81,-498.49"/>
<polygon fill="black" stroke="black" points="441.31,-498.72 444.81,-508.72 448.31,-498.72 441.31,-498.72"/>
</g>
<!-- 7 -->
<g id="node8" class="node">
<title>7</title>
<polygon fill="#f2f2f2" stroke="black" points="722.07,-512.9 722.07,-696.9 853.55,-696.9 853.55,-512.9 722.07,-512.9"/>
<text text-anchor="middle" x="787.81" y="-680.3" font-family="Times,serif" font-size="14.00">&lt;&lt;Struct&gt;&gt;</text>
<text text-anchor="middle" x="787.81" y="-663.5" font-family="Times,serif" font-size="14.00">Proof</text>
<text text-anchor="middle" x="787.81" y="-646.7" font-family="Times,serif" font-size="14.00">contracts/structs.sol</text>
<polyline fill="none" stroke="black" points="722.07,-638.5 853.55,-638.5 "/>
<text text-anchor="start" x="730.07" y="-621.9" font-family="Times,serif" font-size="14.00">id: uint256</text>
<text text-anchor="start" x="730.07" y="-605.1" font-family="Times,serif" font-size="14.00">statementId: uint256</text>
<text text-anchor="start" x="730.07" y="-588.3" font-family="Times,serif" font-size="14.00">orderId: uint256</text>
<text text-anchor="start" x="730.07" y="-571.5" font-family="Times,serif" font-size="14.00">finalPrice: uint256</text>
<text text-anchor="start" x="730.07" y="-554.7" font-family="Times,serif" font-size="14.00">timestamp: uint256</text>
<text text-anchor="start" x="730.07" y="-537.9" font-family="Times,serif" font-size="14.00">producer: address</text>
<text text-anchor="start" x="730.07" y="-521.1" font-family="Times,serif" font-size="14.00">proof: bytes32[]</text>
</g>
<!-- 1&#45;&gt;7 -->
<g id="edge3" class="edge">
<title>1&#45;&gt;7</title>
<path fill="none" stroke="black" d="M643.33,-471.92C660.8,-483.66 677.88,-495.9 693.81,-508.4 700.8,-513.88 707.8,-519.86 714.64,-526.05"/>
<polygon fill="black" stroke="black" points="712.28,-528.63 722,-532.85 717.03,-523.49 712.28,-528.63"/>
</g>
<!-- 2 -->
<g id="node3" class="node">
<title>2</title>
<polygon fill="#f2f2f2" stroke="black" points="293.16,-0.5 293.16,-209.3 1028.46,-209.3 1028.46,-0.5 293.16,-0.5"/>
<text text-anchor="middle" x="660.81" y="-192.7" font-family="Times,serif" font-size="14.00">ProofMarketEndpoint</text>
<text text-anchor="middle" x="660.81" y="-175.9" font-family="Times,serif" font-size="14.00">contracts/proof_market_endpoint.sol</text>
<polyline fill="none" stroke="black" points="293.16,-167.7 1028.46,-167.7 "/>
<text text-anchor="start" x="301.16" y="-151.1" font-family="Times,serif" font-size="14.00">Private:</text>
<text text-anchor="start" x="301.16" y="-134.3" font-family="Times,serif" font-size="14.00"> &#160;&#160;orderContract: OrderContract</text>
<text text-anchor="start" x="301.16" y="-117.5" font-family="Times,serif" font-size="14.00"> &#160;&#160;proofContract: ProofContract</text>
<polyline fill="none" stroke="black" points="293.16,-109.3 1028.46,-109.3 "/>
<text text-anchor="start" x="301.16" y="-92.7" font-family="Times,serif" font-size="14.00">Public:</text>
<text text-anchor="start" x="301.16" y="-75.9" font-family="Times,serif" font-size="14.00"> &#160;&#160;&#160;constructor()</text>
<text text-anchor="start" x="301.16" y="-59.1" font-family="Times,serif" font-size="14.00"> &#160;&#160;&#160;getOrder(orderId: uint256): Order</text>
<text text-anchor="start" x="301.16" y="-42.3" font-family="Times,serif" font-size="14.00"> &#160;&#160;&#160;getProof(proofId: uint256): Proof</text>
<text text-anchor="start" x="301.16" y="-25.5" font-family="Times,serif" font-size="14.00"> &#160;&#160;&#160;createOrder(statementId: uint256, input: bytes32, price: uint256, buyer: address)</text>
<text text-anchor="start" x="301.16" y="-8.7" font-family="Times,serif" font-size="14.00"> &#160;&#160;&#160;addProof(statementId: uint256, orderId: uint256, finalPrice: uint256, timestamp: uint256, producer: address, proof: bytes32[])</text>
</g>
<!-- 2&#45;&gt;0 -->
<g id="edge5" class="edge">
<title>2&#45;&gt;0</title>
<path fill="none" stroke="black" d="M292.9,-150.6C181.78,-172.15 80.05,-202.9 45.81,-245.8 -17.01,-324.52 -13.21,-390.8 45.81,-472.4 81.6,-521.87 136.64,-553.05 194.53,-572.61"/>
<polygon fill="black" stroke="black" points="193.63,-576 204.22,-575.77 195.8,-569.34 193.63,-576"/>
</g>
<!-- 2&#45;&gt;1 -->
<g id="edge6" class="edge">
<title>2&#45;&gt;1</title>
<path fill="none" stroke="black" d="M572.02,-209.57C563.85,-219.11 555.53,-228.83 547.25,-238.5"/>
<polygon fill="black" stroke="black" points="544.47,-236.36 540.62,-246.23 549.78,-240.92 544.47,-236.36"/>
</g>
<!-- 2&#45;&gt;6 -->
<g id="edge7" class="edge">
<title>2&#45;&gt;6</title>
<path fill="none" stroke="black" stroke-dasharray="5,2" d="M843.09,-209.59C853.08,-220.68 861.86,-232.74 868.81,-245.8 964,-424.54 975.31,-533.02 862.81,-701.4 807.24,-784.58 691.72,-820.3 614.72,-835.3"/>
<polygon fill="black" stroke="black" points="613.77,-831.91 604.59,-837.19 615.06,-838.79 613.77,-831.91"/>
</g>
<!-- 2&#45;&gt;7 -->
<g id="edge8" class="edge">
<title>2&#45;&gt;7</title>
<path fill="none" stroke="black" stroke-dasharray="5,2" d="M819.84,-209.68C829.23,-220.85 837.43,-232.89 843.81,-245.8 883.65,-326.41 861.57,-428.59 834.28,-503.16"/>
<polygon fill="black" stroke="black" points="830.99,-501.98 830.76,-512.57 837.54,-504.43 830.99,-501.98"/>
</g>
<!-- 3 -->
<g id="node4" class="node">
<title>3</title>
<polygon fill="#f2f2f2" stroke="black" points="1060.88,-42.5 1060.88,-167.3 1326.74,-167.3 1326.74,-42.5 1060.88,-42.5"/>
<text text-anchor="middle" x="1193.81" y="-150.7" font-family="Times,serif" font-size="14.00">StatementContract</text>
<text text-anchor="middle" x="1193.81" y="-133.9" font-family="Times,serif" font-size="14.00">contracts/statement_contract.sol</text>
<polyline fill="none" stroke="black" points="1060.88,-125.7 1326.74,-125.7 "/>
<text text-anchor="start" x="1068.88" y="-109.1" font-family="Times,serif" font-size="14.00">Public:</text>
<text text-anchor="start" x="1068.88" y="-92.3" font-family="Times,serif" font-size="14.00"> &#160;&#160;statements: mapping(uint256=&gt;Statement)</text>
<polyline fill="none" stroke="black" points="1060.88,-84.1 1326.74,-84.1 "/>
<text text-anchor="start" x="1068.88" y="-67.5" font-family="Times,serif" font-size="14.00">Public:</text>
<text text-anchor="start" x="1068.88" y="-50.7" font-family="Times,serif" font-size="14.00"> &#160;&#160;&#160;constructor()</text>
</g>
<!-- 4 -->
<g id="node5" class="node">
<title>4</title>
<polygon fill="#f2f2f2" stroke="black" points="1130.01,-283.9 1130.01,-434.3 1257.61,-434.3 1257.61,-283.9 1130.01,-283.9"/>
<text text-anchor="middle" x="1193.81" y="-417.7" font-family="Times,serif" font-size="14.00">&lt;&lt;Struct&gt;&gt;</text>
<text text-anchor="middle" x="1193.81" y="-400.9" font-family="Times,serif" font-size="14.00">Statement</text>
<text text-anchor="middle" x="1193.81" y="-384.1" font-family="Times,serif" font-size="14.00">contracts/structs.sol</text>
<polyline fill="none" stroke="black" points="1130.01,-375.9 1257.61,-375.9 "/>
<text text-anchor="start" x="1138.01" y="-359.3" font-family="Times,serif" font-size="14.00">id: uint256</text>
<text text-anchor="start" x="1138.01" y="-342.5" font-family="Times,serif" font-size="14.00">definition: bytes32</text>
<text text-anchor="start" x="1138.01" y="-325.7" font-family="Times,serif" font-size="14.00">price: uint256</text>
<text text-anchor="start" x="1138.01" y="-308.9" font-family="Times,serif" font-size="14.00">createdOn: uint256</text>
<text text-anchor="start" x="1138.01" y="-292.1" font-family="Times,serif" font-size="14.00">updatedOn: uint256</text>
</g>
<!-- 3&#45;&gt;4 -->
<g id="edge9" class="edge">
<title>3&#45;&gt;4</title>
<path fill="none" stroke="black" d="M1193.81,-167.6C1193.81,-199.45 1193.81,-238.8 1193.81,-273.45"/>
<polygon fill="black" stroke="black" points="1190.31,-273.56 1193.81,-283.56 1197.31,-273.56 1190.31,-273.56"/>
</g>
<!-- 6&#45;&gt;5 -->
<g id="edge10" class="edge">
<title>6&#45;&gt;5</title>
<path fill="none" stroke="black" stroke-dasharray="5,2" d="M512.63,-955.65C510.42,-964.77 508.24,-973.76 506.17,-982.29"/>
<polygon fill="black" stroke="black" points="502.76,-981.52 503.8,-992.06 509.56,-983.17 502.76,-981.52"/>
</g>
</g>
</svg>
