<?xml version="1.0" encoding="UTF-8" standalone="no"?>
<!DOCTYPE svg PUBLIC "-//W3C//DTD SVG 1.1//EN"
 "http://www.w3.org/Graphics/SVG/1.1/DTD/svg11.dtd">
<!-- Generated by graphviz version 5.0.0 (20220707.1540)
 -->
<!-- Title: UmlClassDiagram Pages: 1 -->
<svg width="1551pt" height="1026pt"
 viewBox="0.00 0.00 1550.93 1025.80" xmlns="http://www.w3.org/2000/svg" xmlns:xlink="http://www.w3.org/1999/xlink">
<g id="graph0" class="graph" transform="scale(1 1) rotate(0) translate(4 1021.8)">
<title>UmlClassDiagram</title>
<polygon fill="white" stroke="transparent" points="-4,4 -4,-1021.8 1546.93,-1021.8 1546.93,4 -4,4"/>
<!-- 4 -->
<g id="node1" class="node">
<title>4</title>
<polygon fill="#f2f2f2" stroke="black" points="629.88,-258.7 629.88,-358.7 821.22,-358.7 821.22,-258.7 629.88,-258.7"/>
<text text-anchor="middle" x="725.55" y="-342.1" font-family="Times,serif" font-size="14.00">&lt;&lt;Enum&gt;&gt;</text>
<text text-anchor="middle" x="725.55" y="-325.3" font-family="Times,serif" font-size="14.00">OrderStatus</text>
<text text-anchor="middle" x="725.55" y="-308.5" font-family="Times,serif" font-size="14.00">contracts/libraries/order_lib.sol</text>
<polyline fill="none" stroke="black" points="629.88,-300.3 821.22,-300.3 "/>
<text text-anchor="start" x="637.88" y="-283.7" font-family="Times,serif" font-size="14.00">OPEN: 0</text>
<text text-anchor="start" x="637.88" y="-266.9" font-family="Times,serif" font-size="14.00">CLOSED: 1</text>
</g>
<!-- 3 -->
<g id="node4" class="node">
<title>3</title>
<polygon fill="#f2f2f2" stroke="black" points="342.97,-458.5 342.97,-642.5 984.13,-642.5 984.13,-458.5 342.97,-458.5"/>
<text text-anchor="middle" x="663.55" y="-625.9" font-family="Times,serif" font-size="14.00">&lt;&lt;Library&gt;&gt;</text>
<text text-anchor="middle" x="663.55" y="-609.1" font-family="Times,serif" font-size="14.00">OrderLibrary</text>
<text text-anchor="middle" x="663.55" y="-592.3" font-family="Times,serif" font-size="14.00">contracts/libraries/order_lib.sol</text>
<polyline fill="none" stroke="black" points="342.97,-584.1 984.13,-584.1 "/>
<text text-anchor="start" x="350.97" y="-567.5" font-family="Times,serif" font-size="14.00">Internal:</text>
<text text-anchor="start" x="350.97" y="-550.7" font-family="Times,serif" font-size="14.00"> &#160;&#160;&#160;createOrder(self: OrderStorage, statementId: uint256, input: bytes32, price: uint256, buyer: address): uint256</text>
<text text-anchor="start" x="350.97" y="-533.9" font-family="Times,serif" font-size="14.00"> &#160;&#160;&#160;getOrder(self: OrderStorage, id: uint256): Order</text>
<text text-anchor="start" x="350.97" y="-517.1" font-family="Times,serif" font-size="14.00"> &#160;&#160;&#160;updateOrder(self: OrderStorage, id: uint256, producer: address, proof: bytes32[])</text>
<text text-anchor="start" x="350.97" y="-500.3" font-family="Times,serif" font-size="14.00">Public:</text>
<text text-anchor="start" x="350.97" y="-483.5" font-family="Times,serif" font-size="14.00"> &#160;&#160;&#160;&lt;&lt;event&gt;&gt; OrderCreated(id: uint256, statementId: uint256, input: bytes32, price: uint256, buyer: address)</text>
<text text-anchor="start" x="350.97" y="-466.7" font-family="Times,serif" font-size="14.00"> &#160;&#160;&#160;&lt;&lt;event&gt;&gt; OrderClosed(id: uint256, producer: address, finalPrice: uint256, proof: bytes32[])</text>
</g>
<!-- 4&#45;&gt;3 -->
<g id="edge3" class="edge">
<title>4&#45;&gt;3</title>
<path fill="none" stroke="black" d="M707.28,-358.81C699.79,-384.09 691.18,-415.91 683.55,-446.28"/>
<polygon fill="black" stroke="black" points="683.46,-446.63 685.89,-453.42 680.56,-458.28 678.13,-451.49 683.46,-446.63"/>
</g>
<!-- 5 -->
<g id="node2" class="node">
<title>5</title>
<polygon fill="#f2f2f2" stroke="black" points="708.88,-816.5 708.88,-1017.3 900.22,-1017.3 900.22,-816.5 708.88,-816.5"/>
<text text-anchor="middle" x="804.55" y="-1000.7" font-family="Times,serif" font-size="14.00">&lt;&lt;Struct&gt;&gt;</text>
<text text-anchor="middle" x="804.55" y="-983.9" font-family="Times,serif" font-size="14.00">Order</text>
<text text-anchor="middle" x="804.55" y="-967.1" font-family="Times,serif" font-size="14.00">contracts/libraries/order_lib.sol</text>
<polyline fill="none" stroke="black" points="708.88,-958.9 900.22,-958.9 "/>
<text text-anchor="start" x="716.88" y="-942.3" font-family="Times,serif" font-size="14.00">id: uint256</text>
<text text-anchor="start" x="716.88" y="-925.5" font-family="Times,serif" font-size="14.00">statementId: uint256</text>
<text text-anchor="start" x="716.88" y="-908.7" font-family="Times,serif" font-size="14.00">input: bytes32</text>
<text text-anchor="start" x="716.88" y="-891.9" font-family="Times,serif" font-size="14.00">price: uint256</text>
<text text-anchor="start" x="716.88" y="-875.1" font-family="Times,serif" font-size="14.00">buyer: address</text>
<text text-anchor="start" x="716.88" y="-858.3" font-family="Times,serif" font-size="14.00">status: OrderStatus</text>
<text text-anchor="start" x="716.88" y="-841.5" font-family="Times,serif" font-size="14.00">producer: address</text>
<text text-anchor="start" x="716.88" y="-824.7" font-family="Times,serif" font-size="14.00">proof: bytes32[]</text>
</g>
<!-- 5&#45;&gt;4 -->
<g id="edge1" class="edge">
<title>5&#45;&gt;4</title>
<path fill="none" stroke="black" stroke-dasharray="5,2" d="M900.34,-816.72C984.1,-717.76 1079.93,-565.39 993.55,-458 946.78,-399.85 894.31,-459.07 829.55,-422 805.42,-408.19 783.64,-386.9 766.32,-366.57"/>
<polygon fill="black" stroke="black" points="768.99,-364.3 759.91,-358.84 763.6,-368.77 768.99,-364.3"/>
</g>
<!-- 5&#45;&gt;3 -->
<g id="edge4" class="edge">
<title>5&#45;&gt;3</title>
<path fill="none" stroke="black" d="M814.23,-816.41C812.36,-772.64 804.65,-721.61 785.55,-679 781.55,-670.08 776.7,-661.33 771.26,-652.87"/>
<polygon fill="black" stroke="black" points="771.1,-652.62 764.42,-649.9 764.36,-642.69 771.04,-645.41 771.1,-652.62"/>
</g>
<!-- 6 -->
<g id="node3" class="node">
<title>6</title>
<polygon fill="#f2f2f2" stroke="black" points="559.59,-679.5 559.59,-779.5 767.51,-779.5 767.51,-679.5 559.59,-679.5"/>
<text text-anchor="middle" x="663.55" y="-762.9" font-family="Times,serif" font-size="14.00">&lt;&lt;Struct&gt;&gt;</text>
<text text-anchor="middle" x="663.55" y="-746.1" font-family="Times,serif" font-size="14.00">OrderStorage</text>
<text text-anchor="middle" x="663.55" y="-729.3" font-family="Times,serif" font-size="14.00">contracts/libraries/order_lib.sol</text>
<polyline fill="none" stroke="black" points="559.59,-721.1 767.51,-721.1 "/>
<text text-anchor="start" x="567.59" y="-704.5" font-family="Times,serif" font-size="14.00">orders: mapping(uint256=&gt;Order)</text>
<text text-anchor="start" x="567.59" y="-687.7" font-family="Times,serif" font-size="14.00">orderCounter: uint256</text>
</g>
<!-- 6&#45;&gt;5 -->
<g id="edge2" class="edge">
<title>6&#45;&gt;5</title>
<path fill="none" stroke="black" stroke-dasharray="5,2" d="M700.97,-779.7C707.79,-788.67 715.15,-798.35 722.68,-808.26"/>
<polygon fill="black" stroke="black" points="719.92,-810.4 728.76,-816.24 725.49,-806.17 719.92,-810.4"/>
</g>
<!-- 6&#45;&gt;3 -->
<g id="edge5" class="edge">
<title>6&#45;&gt;3</title>
<path fill="none" stroke="black" d="M669.67,-679.45C669.93,-671.62 670.12,-663.28 670.22,-654.75"/>
<polygon fill="black" stroke="black" points="670.22,-654.59 666.26,-648.57 670.3,-642.59 674.26,-648.62 670.22,-654.59"/>
</g>
<!-- 3&#45;&gt;4 -->
<g id="edge8" class="edge">
<title>3&#45;&gt;4</title>
<path fill="none" stroke="black" stroke-dasharray="5,2" d="M693.71,-458.28C701.83,-428.31 710.02,-395.79 716.17,-368.84"/>
<polygon fill="black" stroke="black" points="719.65,-369.33 718.42,-358.81 712.82,-367.8 719.65,-369.33"/>
</g>
<!-- 3&#45;&gt;5 -->
<g id="edge7" class="edge">
<title>3&#45;&gt;5</title>
<path fill="none" stroke="black" stroke-dasharray="5,2" d="M746.47,-642.69C754.61,-654.25 761.92,-666.45 767.55,-679 785.2,-718.36 793.12,-764.91 796.91,-806.29"/>
<polygon fill="black" stroke="black" points="793.44,-806.74 797.77,-816.41 800.41,-806.15 793.44,-806.74"/>
</g>
<!-- 3&#45;&gt;6 -->
<g id="edge6" class="edge">
<title>3&#45;&gt;6</title>
<path fill="none" stroke="black" stroke-dasharray="5,2" d="M656.8,-642.59C656.82,-651.63 656.93,-660.62 657.14,-669.21"/>
<polygon fill="black" stroke="black" points="653.65,-669.55 657.44,-679.45 660.64,-669.35 653.65,-669.55"/>
</g>
<!-- 8 -->
<g id="node5" class="node">
<title>8</title>
<polygon fill="#f2f2f2" stroke="black" points="1306.83,-858.5 1306.83,-975.3 1522.27,-975.3 1522.27,-858.5 1306.83,-858.5"/>
<text text-anchor="middle" x="1414.55" y="-958.7" font-family="Times,serif" font-size="14.00">&lt;&lt;Struct&gt;&gt;</text>
<text text-anchor="middle" x="1414.55" y="-941.9" font-family="Times,serif" font-size="14.00">StatementData</text>
<text text-anchor="middle" x="1414.55" y="-925.1" font-family="Times,serif" font-size="14.00">contracts/libraries/statement_lib.sol</text>
<polyline fill="none" stroke="black" points="1306.83,-916.9 1522.27,-916.9 "/>
<text text-anchor="start" x="1314.83" y="-900.3" font-family="Times,serif" font-size="14.00">id: uint256</text>
<text text-anchor="start" x="1314.83" y="-883.5" font-family="Times,serif" font-size="14.00">definition: bytes32</text>
<text text-anchor="start" x="1314.83" y="-866.7" font-family="Times,serif" font-size="14.00">price: uint256</text>
</g>
<!-- 7 -->
<g id="node7" class="node">
<title>7</title>
<polygon fill="#f2f2f2" stroke="black" points="1040.17,-458.5 1040.17,-642.5 1542.93,-642.5 1542.93,-458.5 1040.17,-458.5"/>
<text text-anchor="middle" x="1291.55" y="-625.9" font-family="Times,serif" font-size="14.00">&lt;&lt;Library&gt;&gt;</text>
<text text-anchor="middle" x="1291.55" y="-609.1" font-family="Times,serif" font-size="14.00">StatementLibrary</text>
<text text-anchor="middle" x="1291.55" y="-592.3" font-family="Times,serif" font-size="14.00">contracts/libraries/statement_lib.sol</text>
<polyline fill="none" stroke="black" points="1040.17,-584.1 1542.93,-584.1 "/>
<text text-anchor="start" x="1048.17" y="-567.5" font-family="Times,serif" font-size="14.00">Internal:</text>
<text text-anchor="start" x="1048.17" y="-550.7" font-family="Times,serif" font-size="14.00"> &#160;&#160;&#160;createStatement(self: StatementStorage, definition: bytes32, price: uint256): uint256</text>
<text text-anchor="start" x="1048.17" y="-533.9" font-family="Times,serif" font-size="14.00"> &#160;&#160;&#160;getStatement(self: StatementStorage, id: uint256): StatementData</text>
<text text-anchor="start" x="1048.17" y="-517.1" font-family="Times,serif" font-size="14.00"> &#160;&#160;&#160;updateStatementPrice(self: StatementStorage, id: uint256, price: uint256)</text>
<text text-anchor="start" x="1048.17" y="-500.3" font-family="Times,serif" font-size="14.00">Public:</text>
<text text-anchor="start" x="1048.17" y="-483.5" font-family="Times,serif" font-size="14.00"> &#160;&#160;&#160;&lt;&lt;event&gt;&gt; StatementCreated(id: uint256, definition: bytes32, price: uint256)</text>
<text text-anchor="start" x="1048.17" y="-466.7" font-family="Times,serif" font-size="14.00"> &#160;&#160;&#160;&lt;&lt;event&gt;&gt; StatementPriceUpdated(id: uint256, price: uint256)</text>
</g>
<!-- 8&#45;&gt;7 -->
<g id="edge10" class="edge">
<title>8&#45;&gt;7</title>
<path fill="none" stroke="black" d="M1423.11,-858.35C1424.27,-809.08 1418.69,-737.1 1395.55,-679 1392.1,-670.34 1387.91,-661.76 1383.22,-653.37"/>
<polygon fill="black" stroke="black" points="1383.11,-653.19 1376.62,-650.05 1377.01,-642.85 1383.51,-645.99 1383.11,-653.19"/>
</g>
<!-- 9 -->
<g id="node6" class="node">
<title>9</title>
<polygon fill="#f2f2f2" stroke="black" points="1095.66,-679.5 1095.66,-779.5 1377.44,-779.5 1377.44,-679.5 1095.66,-679.5"/>
<text text-anchor="middle" x="1236.55" y="-762.9" font-family="Times,serif" font-size="14.00">&lt;&lt;Struct&gt;&gt;</text>
<text text-anchor="middle" x="1236.55" y="-746.1" font-family="Times,serif" font-size="14.00">StatementStorage</text>
<text text-anchor="middle" x="1236.55" y="-729.3" font-family="Times,serif" font-size="14.00">contracts/libraries/statement_lib.sol</text>
<polyline fill="none" stroke="black" points="1095.66,-721.1 1377.44,-721.1 "/>
<text text-anchor="start" x="1103.66" y="-704.5" font-family="Times,serif" font-size="14.00">statements: mapping(uint256=&gt;StatementData)</text>
<text text-anchor="start" x="1103.66" y="-687.7" font-family="Times,serif" font-size="14.00">statementCounter: uint256</text>
</g>
<!-- 9&#45;&gt;8 -->
<g id="edge9" class="edge">
<title>9&#45;&gt;8</title>
<path fill="none" stroke="black" stroke-dasharray="5,2" d="M1283.78,-779.7C1304.69,-801.48 1329.58,-827.4 1352.01,-850.76"/>
<polygon fill="black" stroke="black" points="1349.74,-853.45 1359.19,-858.24 1354.79,-848.6 1349.74,-853.45"/>
</g>
<!-- 9&#45;&gt;7 -->
<g id="edge11" class="edge">
<title>9&#45;&gt;7</title>
<path fill="none" stroke="black" d="M1257.91,-679.45C1260.67,-671.44 1263.51,-662.89 1266.32,-654.16"/>
<polygon fill="black" stroke="black" points="1266.36,-654.03 1264.37,-647.1 1269.99,-642.59 1271.99,-649.52 1266.36,-654.03"/>
</g>
<!-- 7&#45;&gt;8 -->
<g id="edge13" class="edge">
<title>7&#45;&gt;8</title>
<path fill="none" stroke="black" stroke-dasharray="5,2" d="M1359.13,-642.85C1366.24,-654.51 1372.65,-666.69 1377.55,-679 1399.15,-733.24 1405.45,-799.58 1408.26,-848.25"/>
<polygon fill="black" stroke="black" points="1404.77,-848.56 1408.81,-858.35 1411.76,-848.18 1404.77,-848.56"/>
</g>
<!-- 7&#45;&gt;9 -->
<g id="edge12" class="edge">
<title>7&#45;&gt;9</title>
<path fill="none" stroke="black" stroke-dasharray="5,2" d="M1256.5,-642.59C1253.65,-651.82 1250.91,-661.02 1248.4,-669.77"/>
<polygon fill="black" stroke="black" points="1245.02,-668.87 1245.68,-679.45 1251.76,-670.77 1245.02,-668.87"/>
</g>
<!-- 10 -->
<g id="node8" class="node">
<title>10</title>
<polygon fill="#f2f2f2" stroke="black" points="0,-500.5 0,-600.5 325.1,-600.5 325.1,-500.5 0,-500.5"/>
<text text-anchor="middle" x="162.55" y="-583.9" font-family="Times,serif" font-size="14.00">&lt;&lt;Library&gt;&gt;</text>
<text text-anchor="middle" x="162.55" y="-567.1" font-family="Times,serif" font-size="14.00">Tools</text>
<text text-anchor="middle" x="162.55" y="-550.3" font-family="Times,serif" font-size="14.00">contracts/libraries/tools.sol</text>
<polyline fill="none" stroke="black" points="0,-542.1 325.1,-542.1 "/>
<text text-anchor="start" x="8" y="-525.5" font-family="Times,serif" font-size="14.00">Internal:</text>
<text text-anchor="start" x="8" y="-508.7" font-family="Times,serif" font-size="14.00"> &#160;&#160;&#160;verifyProof(orderId: uint256, proof: bytes32[]): bool</text>
</g>
<!-- 0 -->
<g id="node9" class="node">
<title>0</title>
<polygon fill="#f2f2f2" stroke="black" points="41.98,-221.1 41.98,-396.3 573.12,-396.3 573.12,-221.1 41.98,-221.1"/>
<text text-anchor="middle" x="307.55" y="-379.7" font-family="Times,serif" font-size="14.00">OrderContract</text>
<text text-anchor="middle" x="307.55" y="-362.9" font-family="Times,serif" font-size="14.00">contracts/order_contract.sol</text>
<polyline fill="none" stroke="black" points="41.98,-354.7 573.12,-354.7 "/>
<text text-anchor="start" x="49.98" y="-338.1" font-family="Times,serif" font-size="14.00">Private:</text>
<text text-anchor="start" x="49.98" y="-321.3" font-family="Times,serif" font-size="14.00"> &#160;&#160;orderStorage: OrderLibrary.OrderStorage</text>
<polyline fill="none" stroke="black" points="41.98,-313.1 573.12,-313.1 "/>
<text text-anchor="start" x="49.98" y="-296.5" font-family="Times,serif" font-size="14.00">Internal:</text>
<text text-anchor="start" x="49.98" y="-279.7" font-family="Times,serif" font-size="14.00"> &#160;&#160;&#160;createOrder(statementId: uint256, input: bytes32, price: uint256, buyer: address): uint256</text>
<text text-anchor="start" x="49.98" y="-262.9" font-family="Times,serif" font-size="14.00"> &#160;&#160;&#160;closeOrder(id: uint256, producer: address, proof: bytes32[])</text>
<text text-anchor="start" x="49.98" y="-246.1" font-family="Times,serif" font-size="14.00">Public:</text>
<text text-anchor="start" x="49.98" y="-229.3" font-family="Times,serif" font-size="14.00"> &#160;&#160;&#160;getOrder(id: uint256): OrderLibrary.Order</text>
</g>
<!-- 0&#45;&gt;3 -->
<g id="edge14" class="edge">
<title>0&#45;&gt;3</title>
<path fill="none" stroke="black" d="M436.33,-396.44C463.39,-414.67 492.1,-434.01 519.67,-452.58"/>
<polygon fill="black" stroke="black" points="517.94,-455.64 528.19,-458.32 521.85,-449.83 517.94,-455.64"/>
</g>
<!-- 0&#45;&gt;10 -->
<g id="edge15" class="edge">
<title>0&#45;&gt;10</title>
<path fill="none" stroke="black" stroke-dasharray="5,2" d="M255,-396.61C235.9,-428.19 214.8,-463.09 197.59,-491.56"/>
<polygon fill="black" stroke="black" points="194.56,-489.81 192.38,-500.17 200.55,-493.43 194.56,-489.81"/>
</g>
<!-- 1 -->
<g id="node10" class="node">
<title>1</title>
<polygon fill="#f2f2f2" stroke="black" points="347.84,-0.5 347.84,-158.9 855.26,-158.9 855.26,-0.5 347.84,-0.5"/>
<text text-anchor="middle" x="601.55" y="-142.3" font-family="Times,serif" font-size="14.00">ProofMarketEndpoint</text>
<text text-anchor="middle" x="601.55" y="-125.5" font-family="Times,serif" font-size="14.00">contracts/proof_market_endpoint.sol</text>
<polyline fill="none" stroke="black" points="347.84,-117.3 855.26,-117.3 "/>
<text text-anchor="start" x="355.84" y="-100.7" font-family="Times,serif" font-size="14.00">Public:</text>
<text text-anchor="start" x="355.84" y="-83.9" font-family="Times,serif" font-size="14.00"> &#160;&#160;token: IERC20</text>
<polyline fill="none" stroke="black" points="347.84,-75.7 855.26,-75.7 "/>
<text text-anchor="start" x="355.84" y="-59.1" font-family="Times,serif" font-size="14.00">Public:</text>
<text text-anchor="start" x="355.84" y="-42.3" font-family="Times,serif" font-size="14.00"> &#160;&#160;&#160;constructor(_token: IERC20)</text>
<text text-anchor="start" x="355.84" y="-25.5" font-family="Times,serif" font-size="14.00"> &#160;&#160;&#160;createOrder(statementId: uint256, input: bytes32, price: uint256): uint256</text>
<text text-anchor="start" x="355.84" y="-8.7" font-family="Times,serif" font-size="14.00"> &#160;&#160;&#160;closeOrder(orderId: uint256, proof: bytes32[], finalPrice: uint256, producer: address)</text>
</g>
<!-- 1&#45;&gt;3 -->
<g id="edge18" class="edge">
<title>1&#45;&gt;3</title>
<path fill="none" stroke="black" stroke-dasharray="5,2" d="M599.96,-159.03C599.94,-228.69 603.39,-332.99 620.55,-422 622.24,-430.76 624.38,-439.74 626.8,-448.69"/>
<polygon fill="black" stroke="black" points="623.45,-449.69 629.53,-458.37 630.19,-447.79 623.45,-449.69"/>
</g>
<!-- 1&#45;&gt;0 -->
<g id="edge17" class="edge">
<title>1&#45;&gt;0</title>
<path fill="none" stroke="black" d="M499.96,-159.14C481.81,-173.15 462.64,-187.95 443.71,-202.57"/>
<polygon fill="none" stroke="black" points="437.29,-194.26 419.96,-220.91 450.12,-210.89 437.29,-194.26"/>
</g>
<!-- 2 -->
<g id="node11" class="node">
<title>2</title>
<polygon fill="#f2f2f2" stroke="black" points="838.81,-195.9 838.81,-421.5 1306.29,-421.5 1306.29,-195.9 838.81,-195.9"/>
<text text-anchor="middle" x="1072.55" y="-404.9" font-family="Times,serif" font-size="14.00">StatementContract</text>
<text text-anchor="middle" x="1072.55" y="-388.1" font-family="Times,serif" font-size="14.00">contracts/statement_contract.sol</text>
<polyline fill="none" stroke="black" points="838.81,-379.9 1306.29,-379.9 "/>
<text text-anchor="start" x="846.81" y="-363.3" font-family="Times,serif" font-size="14.00">Private:</text>
<text text-anchor="start" x="846.81" y="-346.5" font-family="Times,serif" font-size="14.00"> &#160;&#160;statementStorage: StatementLibrary.StatementStorage</text>
<text text-anchor="start" x="846.81" y="-329.7" font-family="Times,serif" font-size="14.00">Public:</text>
<text text-anchor="start" x="846.81" y="-312.9" font-family="Times,serif" font-size="14.00"> &#160;&#160;owner: address</text>
<polyline fill="none" stroke="black" points="838.81,-304.7 1306.29,-304.7 "/>
<text text-anchor="start" x="846.81" y="-288.1" font-family="Times,serif" font-size="14.00">Public:</text>
<text text-anchor="start" x="846.81" y="-271.3" font-family="Times,serif" font-size="14.00"> &#160;&#160;&#160;&lt;&lt;modifier&gt;&gt; onlyOwner()</text>
<text text-anchor="start" x="846.81" y="-254.5" font-family="Times,serif" font-size="14.00"> &#160;&#160;&#160;constructor()</text>
<text text-anchor="start" x="846.81" y="-237.7" font-family="Times,serif" font-size="14.00"> &#160;&#160;&#160;createStatement(definition: bytes32, price: uint256): uint256 &lt;&lt;onlyOwner&gt;&gt;</text>
<text text-anchor="start" x="846.81" y="-220.9" font-family="Times,serif" font-size="14.00"> &#160;&#160;&#160;getStatement(id: uint256): StatementLibrary.StatementData</text>
<text text-anchor="start" x="846.81" y="-204.1" font-family="Times,serif" font-size="14.00"> &#160;&#160;&#160;updateStatementPrice(id: uint256, price: uint256) &lt;&lt;onlyOwner&gt;&gt;</text>
</g>
<!-- 1&#45;&gt;2 -->
<g id="edge16" class="edge">
<title>1&#45;&gt;2</title>
<path fill="none" stroke="black" d="M763.97,-158.98C780.01,-166.71 796.56,-174.68 813.26,-182.73"/>
<polygon fill="none" stroke="black" points="808.93,-192.31 840.52,-195.87 818.05,-173.39 808.93,-192.31"/>
</g>
<!-- 2&#45;&gt;7 -->
<g id="edge19" class="edge">
<title>2&#45;&gt;7</title>
<path fill="none" stroke="black" d="M1174.68,-421.53C1183.56,-431.26 1192.52,-441.06 1201.3,-450.68"/>
<polygon fill="black" stroke="black" points="1198.97,-453.32 1208.3,-458.34 1204.14,-448.6 1198.97,-453.32"/>
</g>
</g>
</svg>
