<?xml version="1.0" encoding="UTF-8" standalone="no"?>
<!DOCTYPE svg PUBLIC "-//W3C//DTD SVG 1.1//EN"
 "http://www.w3.org/Graphics/SVG/1.1/DTD/svg11.dtd">
<!-- Generated by graphviz version 5.0.0 (20220707.1540)
 -->
<!-- Title: UmlClassDiagram Pages: 1 -->
<svg width="1778pt" height="1575pt"
 viewBox="0.00 0.00 1778.50 1574.80" xmlns="http://www.w3.org/2000/svg" xmlns:xlink="http://www.w3.org/1999/xlink">
<g id="graph0" class="graph" transform="scale(1 1) rotate(0) translate(4 1570.8)">
<title>UmlClassDiagram</title>
<polygon fill="white" stroke="transparent" points="-4,4 -4,-1570.8 1774.5,-1570.8 1774.5,4 -4,4"/>
<!-- 3 -->
<g id="node1" class="node">
<title>3</title>
<polygon fill="#f2f2f2" stroke="black" points="563.48,-431.1 563.48,-799.9 1118.06,-799.9 1118.06,-431.1 563.48,-431.1"/>
<text text-anchor="middle" x="840.77" y="-783.3" font-family="Times,serif" font-size="14.00">&lt;&lt;Interface&gt;&gt;</text>
<text text-anchor="middle" x="840.77" y="-766.5" font-family="Times,serif" font-size="14.00">IProofMarketEndpoint</text>
<text text-anchor="middle" x="840.77" y="-749.7" font-family="Times,serif" font-size="14.00">contracts/interfaces/proof_market_endpoint.sol</text>
<polyline fill="none" stroke="black" points="563.48,-741.5 1118.06,-741.5 "/>
<text text-anchor="start" x="571.48" y="-724.9" font-family="Times,serif" font-size="14.00">External:</text>
<text text-anchor="start" x="571.48" y="-708.1" font-family="Times,serif" font-size="14.00"> &#160;&#160;&#160;&#160;grantRelayer(relayer: address)</text>
<text text-anchor="start" x="571.48" y="-691.3" font-family="Times,serif" font-size="14.00"> &#160;&#160;&#160;&#160;revokeRelayer(relayer: address)</text>
<text text-anchor="start" x="571.48" y="-674.5" font-family="Times,serif" font-size="14.00"> &#160;&#160;&#160;&#160;getOrder(orderId: uint256): OrderLibrary.Order</text>
<text text-anchor="start" x="571.48" y="-657.7" font-family="Times,serif" font-size="14.00"> &#160;&#160;&#160;&#160;createOrder(orderInput: OrderLibrary.OrderInput): uint256</text>
<text text-anchor="start" x="571.48" y="-640.9" font-family="Times,serif" font-size="14.00"> &#160;&#160;&#160;&#160;closeOrder(orderId: uint256, proof: bytes, finalPrice: uint256, producer: address)</text>
<text text-anchor="start" x="571.48" y="-624.1" font-family="Times,serif" font-size="14.00"> &#160;&#160;&#160;&#160;getStatement(id: uint256): StatementLibrary.StatementData</text>
<text text-anchor="start" x="571.48" y="-607.3" font-family="Times,serif" font-size="14.00"> &#160;&#160;&#160;&#160;addStatement(statementInput: StatementLibrary.StatementInput)</text>
<text text-anchor="start" x="571.48" y="-590.5" font-family="Times,serif" font-size="14.00"> &#160;&#160;&#160;&#160;updateStatementDefinition(id: uint256, definition: StatementLibrary.Definition)</text>
<text text-anchor="start" x="571.48" y="-573.7" font-family="Times,serif" font-size="14.00"> &#160;&#160;&#160;&#160;updateStatementPrice(id: uint256, price: StatementLibrary.Price)</text>
<text text-anchor="start" x="571.48" y="-556.9" font-family="Times,serif" font-size="14.00"> &#160;&#160;&#160;&#160;removeStatement(id: uint256)</text>
<text text-anchor="start" x="571.48" y="-540.1" font-family="Times,serif" font-size="14.00">Public:</text>
<text text-anchor="start" x="571.48" y="-523.3" font-family="Times,serif" font-size="14.00"> &#160;&#160;&#160;&lt;&lt;event&gt;&gt; OrderCreated(id: uint256, orderInput: OrderLibrary.OrderInput, buyer: address)</text>
<text text-anchor="start" x="571.48" y="-506.5" font-family="Times,serif" font-size="14.00"> &#160;&#160;&#160;&lt;&lt;event&gt;&gt; OrderClosed(id: uint256, producer: address, finalPrice: uint256, proof: bytes)</text>
<text text-anchor="start" x="571.48" y="-489.7" font-family="Times,serif" font-size="14.00"> &#160;&#160;&#160;&lt;&lt;event&gt;&gt; StatementAdded(id: uint256, definition: StatementLibrary.Definition)</text>
<text text-anchor="start" x="571.48" y="-472.9" font-family="Times,serif" font-size="14.00"> &#160;&#160;&#160;&lt;&lt;event&gt;&gt; StatementDefinitionUpdated(id: uint256, definition: StatementLibrary.Definition)</text>
<text text-anchor="start" x="571.48" y="-456.1" font-family="Times,serif" font-size="14.00"> &#160;&#160;&#160;&lt;&lt;event&gt;&gt; StatementPriceUpdated(id: uint256, price: StatementLibrary.Price)</text>
<text text-anchor="start" x="571.48" y="-439.3" font-family="Times,serif" font-size="14.00"> &#160;&#160;&#160;&lt;&lt;event&gt;&gt; StatementRemoved(id: uint256)</text>
</g>
<!-- 4 -->
<g id="node6" class="node">
<title>4</title>
<polygon fill="#f2f2f2" stroke="black" points="367.79,-870.5 367.79,-1004.1 813.76,-1004.1 813.76,-870.5 367.79,-870.5"/>
<text text-anchor="middle" x="590.77" y="-987.5" font-family="Times,serif" font-size="14.00">&lt;&lt;Library&gt;&gt;</text>
<text text-anchor="middle" x="590.77" y="-970.7" font-family="Times,serif" font-size="14.00">OrderLibrary</text>
<text text-anchor="middle" x="590.77" y="-953.9" font-family="Times,serif" font-size="14.00">contracts/libraries/order_lib.sol</text>
<polyline fill="none" stroke="black" points="367.79,-945.7 813.76,-945.7 "/>
<text text-anchor="start" x="375.79" y="-929.1" font-family="Times,serif" font-size="14.00">Internal:</text>
<text text-anchor="start" x="375.79" y="-912.3" font-family="Times,serif" font-size="14.00"> &#160;&#160;&#160;create(self: OrderStorage, inputData: OrderInput, buyer: address): uint256</text>
<text text-anchor="start" x="375.79" y="-895.5" font-family="Times,serif" font-size="14.00"> &#160;&#160;&#160;get(self: OrderStorage, id: uint256): Order</text>
<text text-anchor="start" x="375.79" y="-878.7" font-family="Times,serif" font-size="14.00"> &#160;&#160;&#160;update(self: OrderStorage, id: uint256, producer: address, proof: bytes)</text>
</g>
<!-- 3&#45;&gt;4 -->
<g id="edge1" class="edge">
<title>3&#45;&gt;4</title>
<path fill="none" stroke="black" stroke-dasharray="5,2" d="M697.16,-800.21C680.02,-822.14 663.36,-843.45 648.5,-862.45"/>
<polygon fill="black" stroke="black" points="645.65,-860.42 642.25,-870.45 651.16,-864.73 645.65,-860.42"/>
</g>
<!-- 9 -->
<g id="node12" class="node">
<title>9</title>
<polygon fill="#f2f2f2" stroke="black" points="1163.18,-836.9 1163.18,-1037.7 1582.37,-1037.7 1582.37,-836.9 1163.18,-836.9"/>
<text text-anchor="middle" x="1372.77" y="-1021.1" font-family="Times,serif" font-size="14.00">&lt;&lt;Library&gt;&gt;</text>
<text text-anchor="middle" x="1372.77" y="-1004.3" font-family="Times,serif" font-size="14.00">StatementLibrary</text>
<text text-anchor="middle" x="1372.77" y="-987.5" font-family="Times,serif" font-size="14.00">contracts/libraries/statement_lib.sol</text>
<polyline fill="none" stroke="black" points="1163.18,-979.3 1582.37,-979.3 "/>
<text text-anchor="start" x="1171.18" y="-962.7" font-family="Times,serif" font-size="14.00">Internal:</text>
<text text-anchor="start" x="1171.18" y="-945.9" font-family="Times,serif" font-size="14.00"> &#160;&#160;&#160;add(self: StatementStorage, statementInput: StatementInput): uint256</text>
<text text-anchor="start" x="1171.18" y="-929.1" font-family="Times,serif" font-size="14.00"> &#160;&#160;&#160;get(self: StatementStorage, id: uint256): StatementData</text>
<text text-anchor="start" x="1171.18" y="-912.3" font-family="Times,serif" font-size="14.00"> &#160;&#160;&#160;update(self: StatementStorage, id: uint256, price: Price)</text>
<text text-anchor="start" x="1171.18" y="-895.5" font-family="Times,serif" font-size="14.00"> &#160;&#160;&#160;update(self: StatementStorage, id: uint256, definition: Definition)</text>
<text text-anchor="start" x="1171.18" y="-878.7" font-family="Times,serif" font-size="14.00"> &#160;&#160;&#160;remove(self: StatementStorage, id: uint256)</text>
<text text-anchor="start" x="1171.18" y="-861.9" font-family="Times,serif" font-size="14.00"> &#160;&#160;&#160;exists(self: StatementStorage, id: uint256): bool</text>
<text text-anchor="start" x="1171.18" y="-845.1" font-family="Times,serif" font-size="14.00"> &#160;&#160;&#160;exists(self: StatementStorage, definition: Definition): bool</text>
</g>
<!-- 3&#45;&gt;9 -->
<g id="edge2" class="edge">
<title>3&#45;&gt;9</title>
<path fill="none" stroke="black" stroke-dasharray="5,2" d="M1118.37,-795.37C1121.18,-797.06 1123.98,-798.74 1126.77,-800.4 1144.06,-810.71 1162.16,-821.23 1180.36,-831.62"/>
<polygon fill="black" stroke="black" points="1178.88,-834.81 1189.3,-836.71 1182.34,-828.72 1178.88,-834.81"/>
</g>
<!-- 5 -->
<g id="node2" class="node">
<title>5</title>
<polygon fill="#f2f2f2" stroke="black" points="424.1,-1466.3 424.1,-1566.3 615.44,-1566.3 615.44,-1466.3 424.1,-1466.3"/>
<text text-anchor="middle" x="519.77" y="-1549.7" font-family="Times,serif" font-size="14.00">&lt;&lt;Enum&gt;&gt;</text>
<text text-anchor="middle" x="519.77" y="-1532.9" font-family="Times,serif" font-size="14.00">OrderStatus</text>
<text text-anchor="middle" x="519.77" y="-1516.1" font-family="Times,serif" font-size="14.00">contracts/libraries/order_lib.sol</text>
<polyline fill="none" stroke="black" points="424.1,-1507.9 615.44,-1507.9 "/>
<text text-anchor="start" x="432.1" y="-1491.3" font-family="Times,serif" font-size="14.00">OPEN: 0</text>
<text text-anchor="start" x="432.1" y="-1474.5" font-family="Times,serif" font-size="14.00">CLOSED: 1</text>
</g>
<!-- 5&#45;&gt;4 -->
<g id="edge5" class="edge">
<title>5&#45;&gt;4</title>
<path fill="none" stroke="black" d="M524.56,-1466.19C527.63,-1384.23 530.49,-1214.68 556.77,-1074.2 560.37,-1054.96 565.85,-1034.64 571.44,-1015.74"/>
<polygon fill="black" stroke="black" points="571.46,-1015.67 569.36,-1008.77 574.92,-1004.18 577.02,-1011.08 571.46,-1015.67"/>
</g>
<!-- 6 -->
<g id="node3" class="node">
<title>6</title>
<polygon fill="#f2f2f2" stroke="black" points="706.1,-1228.5 706.1,-1429.3 897.44,-1429.3 897.44,-1228.5 706.1,-1228.5"/>
<text text-anchor="middle" x="801.77" y="-1412.7" font-family="Times,serif" font-size="14.00">&lt;&lt;Struct&gt;&gt;</text>
<text text-anchor="middle" x="801.77" y="-1395.9" font-family="Times,serif" font-size="14.00">Order</text>
<text text-anchor="middle" x="801.77" y="-1379.1" font-family="Times,serif" font-size="14.00">contracts/libraries/order_lib.sol</text>
<polyline fill="none" stroke="black" points="706.1,-1370.9 897.44,-1370.9 "/>
<text text-anchor="start" x="714.1" y="-1354.3" font-family="Times,serif" font-size="14.00">id: uint256</text>
<text text-anchor="start" x="714.1" y="-1337.5" font-family="Times,serif" font-size="14.00">statementId: uint256</text>
<text text-anchor="start" x="714.1" y="-1320.7" font-family="Times,serif" font-size="14.00">input: bytes</text>
<text text-anchor="start" x="714.1" y="-1303.9" font-family="Times,serif" font-size="14.00">price: uint256</text>
<text text-anchor="start" x="714.1" y="-1287.1" font-family="Times,serif" font-size="14.00">buyer: address</text>
<text text-anchor="start" x="714.1" y="-1270.3" font-family="Times,serif" font-size="14.00">status: OrderStatus</text>
<text text-anchor="start" x="714.1" y="-1253.5" font-family="Times,serif" font-size="14.00">producer: address</text>
<text text-anchor="start" x="714.1" y="-1236.7" font-family="Times,serif" font-size="14.00">proof: bytes</text>
</g>
<!-- 6&#45;&gt;5 -->
<g id="edge3" class="edge">
<title>6&#45;&gt;5</title>
<path fill="none" stroke="black" stroke-dasharray="5,2" d="M705.91,-1392.93C672.49,-1414.9 635.29,-1439.36 602.98,-1460.59"/>
<polygon fill="black" stroke="black" points="600.88,-1457.79 594.44,-1466.21 604.72,-1463.64 600.88,-1457.79"/>
</g>
<!-- 6&#45;&gt;4 -->
<g id="edge6" class="edge">
<title>6&#45;&gt;4</title>
<path fill="none" stroke="black" d="M816.94,-1228.22C817.05,-1178.95 809.24,-1120.32 782.77,-1074.2 769.07,-1050.32 749.3,-1029.39 727.6,-1011.56"/>
<polygon fill="black" stroke="black" points="727.6,-1011.56 720.41,-1010.97 718.19,-1004.11 725.38,-1004.7 727.6,-1011.56"/>
</g>
<!-- 7 -->
<g id="node4" class="node">
<title>7</title>
<polygon fill="#f2f2f2" stroke="black" points="291.1,-1074.7 291.1,-1191.5 482.44,-1191.5 482.44,-1074.7 291.1,-1074.7"/>
<text text-anchor="middle" x="386.77" y="-1174.9" font-family="Times,serif" font-size="14.00">&lt;&lt;Struct&gt;&gt;</text>
<text text-anchor="middle" x="386.77" y="-1158.1" font-family="Times,serif" font-size="14.00">OrderInput</text>
<text text-anchor="middle" x="386.77" y="-1141.3" font-family="Times,serif" font-size="14.00">contracts/libraries/order_lib.sol</text>
<polyline fill="none" stroke="black" points="291.1,-1133.1 482.44,-1133.1 "/>
<text text-anchor="start" x="299.1" y="-1116.5" font-family="Times,serif" font-size="14.00">statementId: uint256</text>
<text text-anchor="start" x="299.1" y="-1099.7" font-family="Times,serif" font-size="14.00">input: bytes</text>
<text text-anchor="start" x="299.1" y="-1082.9" font-family="Times,serif" font-size="14.00">price: uint256</text>
</g>
<!-- 7&#45;&gt;4 -->
<g id="edge7" class="edge">
<title>7&#45;&gt;4</title>
<path fill="none" stroke="black" d="M453.63,-1074.5C474.62,-1055.07 497.87,-1033.11 519.17,-1012.58"/>
<polygon fill="black" stroke="black" points="519.23,-1012.52 520.76,-1005.48 527.86,-1004.18 526.32,-1011.23 519.23,-1012.52"/>
</g>
<!-- 8 -->
<g id="node5" class="node">
<title>8</title>
<polygon fill="#f2f2f2" stroke="black" points="556.82,-1083.1 556.82,-1183.1 764.73,-1183.1 764.73,-1083.1 556.82,-1083.1"/>
<text text-anchor="middle" x="660.77" y="-1166.5" font-family="Times,serif" font-size="14.00">&lt;&lt;Struct&gt;&gt;</text>
<text text-anchor="middle" x="660.77" y="-1149.7" font-family="Times,serif" font-size="14.00">OrderStorage</text>
<text text-anchor="middle" x="660.77" y="-1132.9" font-family="Times,serif" font-size="14.00">contracts/libraries/order_lib.sol</text>
<polyline fill="none" stroke="black" points="556.82,-1124.7 764.73,-1124.7 "/>
<text text-anchor="start" x="564.82" y="-1108.1" font-family="Times,serif" font-size="14.00">orders: mapping(uint256=&gt;Order)</text>
<text text-anchor="start" x="564.82" y="-1091.3" font-family="Times,serif" font-size="14.00">orderCounter: uint256</text>
</g>
<!-- 8&#45;&gt;6 -->
<g id="edge4" class="edge">
<title>8&#45;&gt;6</title>
<path fill="none" stroke="black" stroke-dasharray="5,2" d="M696.53,-1183.25C704.77,-1194.57 713.84,-1207.04 723.11,-1219.78"/>
<polygon fill="black" stroke="black" points="720.5,-1222.15 729.22,-1228.17 726.16,-1218.03 720.5,-1222.15"/>
</g>
<!-- 8&#45;&gt;4 -->
<g id="edge8" class="edge">
<title>8&#45;&gt;4</title>
<path fill="none" stroke="black" d="M648.98,-1082.93C642.32,-1062.49 633.8,-1038.26 625.3,-1015.54"/>
<polygon fill="black" stroke="black" points="625.25,-1015.41 619.38,-1011.21 621,-1004.18 626.87,-1008.38 625.25,-1015.41"/>
</g>
<!-- 4&#45;&gt;5 -->
<g id="edge12" class="edge">
<title>4&#45;&gt;5</title>
<path fill="none" stroke="black" stroke-dasharray="5,2" d="M557.85,-1004.18C550.21,-1026.16 543.12,-1050.97 538.77,-1074.2 513.52,-1209.19 509.89,-1371.03 513.07,-1456.2"/>
<polygon fill="black" stroke="black" points="509.57,-1456.35 513.49,-1466.19 516.57,-1456.06 509.57,-1456.35"/>
</g>
<!-- 4&#45;&gt;6 -->
<g id="edge11" class="edge">
<title>4&#45;&gt;6</title>
<path fill="none" stroke="black" stroke-dasharray="5,2" d="M700.73,-1004.11C725.53,-1023.47 749.11,-1046.91 764.77,-1074.2 789.43,-1117.17 797.89,-1170.99 800.35,-1217.99"/>
<polygon fill="black" stroke="black" points="796.86,-1218.39 800.8,-1228.22 803.86,-1218.08 796.86,-1218.39"/>
</g>
<!-- 4&#45;&gt;7 -->
<g id="edge10" class="edge">
<title>4&#45;&gt;7</title>
<path fill="none" stroke="black" stroke-dasharray="5,2" d="M514.99,-1004.18C493.07,-1024.6 469.42,-1047.07 448.46,-1067.41"/>
<polygon fill="black" stroke="black" points="445.9,-1065.02 441.17,-1074.5 450.78,-1070.04 445.9,-1065.02"/>
</g>
<!-- 4&#45;&gt;8 -->
<g id="edge9" class="edge">
<title>4&#45;&gt;8</title>
<path fill="none" stroke="black" stroke-dasharray="5,2" d="M608.14,-1004.18C615.78,-1026.65 624.84,-1051.59 633.33,-1073.45"/>
<polygon fill="black" stroke="black" points="630.14,-1074.9 637.05,-1082.93 636.66,-1072.34 630.14,-1074.9"/>
</g>
<!-- 10 -->
<g id="node7" class="node">
<title>10</title>
<polygon fill="#f2f2f2" stroke="black" points="1265.05,-1262.1 1265.05,-1395.7 1480.5,-1395.7 1480.5,-1262.1 1265.05,-1262.1"/>
<text text-anchor="middle" x="1372.77" y="-1379.1" font-family="Times,serif" font-size="14.00">&lt;&lt;Struct&gt;&gt;</text>
<text text-anchor="middle" x="1372.77" y="-1362.3" font-family="Times,serif" font-size="14.00">StatementData</text>
<text text-anchor="middle" x="1372.77" y="-1345.5" font-family="Times,serif" font-size="14.00">contracts/libraries/statement_lib.sol</text>
<polyline fill="none" stroke="black" points="1265.05,-1337.3 1480.5,-1337.3 "/>
<text text-anchor="start" x="1273.05" y="-1320.7" font-family="Times,serif" font-size="14.00">id: uint256</text>
<text text-anchor="start" x="1273.05" y="-1303.9" font-family="Times,serif" font-size="14.00">definition: Definition</text>
<text text-anchor="start" x="1273.05" y="-1287.1" font-family="Times,serif" font-size="14.00">price: Price</text>
<text text-anchor="start" x="1273.05" y="-1270.3" font-family="Times,serif" font-size="14.00">developer: address</text>
</g>
<!-- 13 -->
<g id="node10" class="node">
<title>13</title>
<polygon fill="#f2f2f2" stroke="black" points="1555.05,-1474.7 1555.05,-1557.9 1770.5,-1557.9 1770.5,-1474.7 1555.05,-1474.7"/>
<text text-anchor="middle" x="1662.77" y="-1541.3" font-family="Times,serif" font-size="14.00">&lt;&lt;Struct&gt;&gt;</text>
<text text-anchor="middle" x="1662.77" y="-1524.5" font-family="Times,serif" font-size="14.00">Price</text>
<text text-anchor="middle" x="1662.77" y="-1507.7" font-family="Times,serif" font-size="14.00">contracts/libraries/statement_lib.sol</text>
<polyline fill="none" stroke="black" points="1555.05,-1499.5 1770.5,-1499.5 "/>
<text text-anchor="start" x="1563.05" y="-1482.9" font-family="Times,serif" font-size="14.00">price: uint256</text>
</g>
<!-- 10&#45;&gt;13 -->
<g id="edge14" class="edge">
<title>10&#45;&gt;13</title>
<path fill="none" stroke="black" stroke-dasharray="5,2" d="M1475.83,-1395.79C1513.65,-1419.97 1555.64,-1446.81 1590.22,-1468.92"/>
<polygon fill="black" stroke="black" points="1588.54,-1472 1598.85,-1474.43 1592.31,-1466.1 1588.54,-1472"/>
</g>
<!-- 14 -->
<g id="node11" class="node">
<title>14</title>
<polygon fill="#f2f2f2" stroke="black" points="909.05,-1466.3 909.05,-1566.3 1124.5,-1566.3 1124.5,-1466.3 909.05,-1466.3"/>
<text text-anchor="middle" x="1016.77" y="-1549.7" font-family="Times,serif" font-size="14.00">&lt;&lt;Struct&gt;&gt;</text>
<text text-anchor="middle" x="1016.77" y="-1532.9" font-family="Times,serif" font-size="14.00">Definition</text>
<text text-anchor="middle" x="1016.77" y="-1516.1" font-family="Times,serif" font-size="14.00">contracts/libraries/statement_lib.sol</text>
<polyline fill="none" stroke="black" points="909.05,-1507.9 1124.5,-1507.9 "/>
<text text-anchor="start" x="917.05" y="-1491.3" font-family="Times,serif" font-size="14.00">verificationKey: bytes</text>
<text text-anchor="start" x="917.05" y="-1474.5" font-family="Times,serif" font-size="14.00">provingKey: bytes</text>
</g>
<!-- 10&#45;&gt;14 -->
<g id="edge13" class="edge">
<title>10&#45;&gt;14</title>
<path fill="none" stroke="black" stroke-dasharray="5,2" d="M1264.99,-1386.03C1218.95,-1410.01 1165.44,-1437.88 1119.91,-1461.59"/>
<polygon fill="black" stroke="black" points="1118.17,-1458.55 1110.92,-1466.27 1121.4,-1464.76 1118.17,-1458.55"/>
</g>
<!-- 10&#45;&gt;9 -->
<g id="edge18" class="edge">
<title>10&#45;&gt;9</title>
<path fill="none" stroke="black" d="M1377.99,-1261.91C1379.64,-1204 1379.96,-1118.57 1378.94,-1050.03"/>
<polygon fill="black" stroke="black" points="1378.94,-1049.87 1374.85,-1043.94 1378.75,-1037.87 1382.84,-1043.81 1378.94,-1049.87"/>
</g>
<!-- 11 -->
<g id="node8" class="node">
<title>11</title>
<polygon fill="#f2f2f2" stroke="black" points="1410.05,-1074.7 1410.05,-1191.5 1625.5,-1191.5 1625.5,-1074.7 1410.05,-1074.7"/>
<text text-anchor="middle" x="1517.77" y="-1174.9" font-family="Times,serif" font-size="14.00">&lt;&lt;Struct&gt;&gt;</text>
<text text-anchor="middle" x="1517.77" y="-1158.1" font-family="Times,serif" font-size="14.00">StatementInput</text>
<text text-anchor="middle" x="1517.77" y="-1141.3" font-family="Times,serif" font-size="14.00">contracts/libraries/statement_lib.sol</text>
<polyline fill="none" stroke="black" points="1410.05,-1133.1 1625.5,-1133.1 "/>
<text text-anchor="start" x="1418.05" y="-1116.5" font-family="Times,serif" font-size="14.00">definition: Definition</text>
<text text-anchor="start" x="1418.05" y="-1099.7" font-family="Times,serif" font-size="14.00">price: Price</text>
<text text-anchor="start" x="1418.05" y="-1082.9" font-family="Times,serif" font-size="14.00">developer: address</text>
</g>
<!-- 11&#45;&gt;13 -->
<g id="edge16" class="edge">
<title>11&#45;&gt;13</title>
<path fill="none" stroke="black" stroke-dasharray="5,2" d="M1539.64,-1191.58C1567.94,-1265.98 1616.79,-1394.41 1643.67,-1465.08"/>
<polygon fill="black" stroke="black" points="1640.48,-1466.55 1647.31,-1474.65 1647.03,-1464.06 1640.48,-1466.55"/>
</g>
<!-- 11&#45;&gt;14 -->
<g id="edge15" class="edge">
<title>11&#45;&gt;14</title>
<path fill="none" stroke="black" stroke-dasharray="5,2" d="M1530.8,-1191.7C1542.09,-1257.96 1548.57,-1365.82 1489.77,-1429.8 1443.06,-1480.64 1259.11,-1501.48 1134.86,-1509.86"/>
<polygon fill="black" stroke="black" points="1134.27,-1506.39 1124.52,-1510.54 1134.73,-1513.37 1134.27,-1506.39"/>
</g>
<!-- 11&#45;&gt;9 -->
<g id="edge19" class="edge">
<title>11&#45;&gt;9</title>
<path fill="none" stroke="black" d="M1481.01,-1074.64C1474.77,-1065.98 1468.08,-1056.82 1461.18,-1047.5"/>
<polygon fill="black" stroke="black" points="1461.09,-1047.39 1454.3,-1044.96 1453.93,-1037.75 1460.72,-1040.18 1461.09,-1047.39"/>
</g>
<!-- 12 -->
<g id="node9" class="node">
<title>12</title>
<polygon fill="#f2f2f2" stroke="black" points="1053.88,-1083.1 1053.88,-1183.1 1335.67,-1183.1 1335.67,-1083.1 1053.88,-1083.1"/>
<text text-anchor="middle" x="1194.77" y="-1166.5" font-family="Times,serif" font-size="14.00">&lt;&lt;Struct&gt;&gt;</text>
<text text-anchor="middle" x="1194.77" y="-1149.7" font-family="Times,serif" font-size="14.00">StatementStorage</text>
<text text-anchor="middle" x="1194.77" y="-1132.9" font-family="Times,serif" font-size="14.00">contracts/libraries/statement_lib.sol</text>
<polyline fill="none" stroke="black" points="1053.88,-1124.7 1335.67,-1124.7 "/>
<text text-anchor="start" x="1061.88" y="-1108.1" font-family="Times,serif" font-size="14.00">statements: mapping(uint256=&gt;StatementData)</text>
<text text-anchor="start" x="1061.88" y="-1091.3" font-family="Times,serif" font-size="14.00">statementCounter: uint256</text>
</g>
<!-- 12&#45;&gt;10 -->
<g id="edge17" class="edge">
<title>12&#45;&gt;10</title>
<path fill="none" stroke="black" stroke-dasharray="5,2" d="M1239.92,-1183.25C1259.72,-1204.81 1283.37,-1230.56 1305.2,-1254.33"/>
<polygon fill="black" stroke="black" points="1302.87,-1256.97 1312.21,-1261.96 1308.03,-1252.23 1302.87,-1256.97"/>
</g>
<!-- 12&#45;&gt;9 -->
<g id="edge20" class="edge">
<title>12&#45;&gt;9</title>
<path fill="none" stroke="black" d="M1246.11,-1082.71C1256.72,-1071.59 1268.19,-1059.37 1279.75,-1046.88"/>
<polygon fill="black" stroke="black" points="1280.03,-1046.57 1281.17,-1039.45 1288.17,-1037.75 1287.04,-1044.88 1280.03,-1046.57"/>
</g>
<!-- 13&#45;&gt;9 -->
<g id="edge21" class="edge">
<title>13&#45;&gt;9</title>
<path fill="none" stroke="black" d="M1677.46,-1474.41C1698.76,-1391.33 1725.82,-1200.02 1643.77,-1074.2 1630.24,-1053.45 1612.48,-1035.69 1592.51,-1020.54"/>
<polygon fill="black" stroke="black" points="1592.25,-1020.35 1585.04,-1020.06 1582.53,-1013.3 1589.74,-1013.59 1592.25,-1020.35"/>
</g>
<!-- 14&#45;&gt;9 -->
<g id="edge22" class="edge">
<title>14&#45;&gt;9</title>
<path fill="none" stroke="black" d="M1009.81,-1466.11C994.63,-1378.33 968.98,-1192.8 1053.77,-1074.2 1078.59,-1039.48 1113.98,-1013.6 1152.23,-994.32"/>
<polygon fill="black" stroke="black" points="1152.29,-994.29 1155.94,-988.07 1163.09,-989.06 1159.43,-995.27 1152.29,-994.29"/>
</g>
<!-- 9&#45;&gt;10 -->
<g id="edge25" class="edge">
<title>9&#45;&gt;10</title>
<path fill="none" stroke="black" stroke-dasharray="5,2" d="M1366.8,-1037.87C1365.62,-1104.37 1365.78,-1190.49 1367.28,-1251.57"/>
<polygon fill="black" stroke="black" points="1363.79,-1252.01 1367.56,-1261.91 1370.79,-1251.82 1363.79,-1252.01"/>
</g>
<!-- 9&#45;&gt;11 -->
<g id="edge24" class="edge">
<title>9&#45;&gt;11</title>
<path fill="none" stroke="black" stroke-dasharray="5,2" d="M1440.44,-1037.75C1447.77,-1047.53 1455.16,-1057.27 1462.33,-1066.58"/>
<polygon fill="black" stroke="black" points="1459.67,-1068.87 1468.55,-1074.64 1465.21,-1064.59 1459.67,-1068.87"/>
</g>
<!-- 9&#45;&gt;12 -->
<g id="edge23" class="edge">
<title>9&#45;&gt;12</title>
<path fill="none" stroke="black" stroke-dasharray="5,2" d="M1274.68,-1037.75C1262.94,-1050.56 1251.4,-1063.31 1240.91,-1075.1"/>
<polygon fill="black" stroke="black" points="1238.18,-1072.9 1234.17,-1082.71 1243.42,-1077.55 1238.18,-1072.9"/>
</g>
<!-- 9&#45;&gt;13 -->
<g id="edge26" class="edge">
<title>9&#45;&gt;13</title>
<path fill="none" stroke="black" stroke-dasharray="5,2" d="M1582.62,-1026.88C1599.24,-1040.59 1614.09,-1056.28 1625.77,-1074.2 1704.69,-1195.23 1682.67,-1376.85 1669.07,-1464.46"/>
<polygon fill="black" stroke="black" points="1665.61,-1463.99 1667.51,-1474.41 1672.52,-1465.08 1665.61,-1463.99"/>
</g>
<!-- 9&#45;&gt;14 -->
<g id="edge27" class="edge">
<title>9&#45;&gt;14</title>
<path fill="none" stroke="black" stroke-dasharray="5,2" d="M1163.08,-981.45C1113.74,-1001.59 1066.6,-1031.08 1035.77,-1074.2 954.04,-1188.51 974.92,-1365.01 996.72,-1456.22"/>
<polygon fill="black" stroke="black" points="993.37,-1457.25 999.17,-1466.11 1000.16,-1455.56 993.37,-1457.25"/>
</g>
<!-- 15 -->
<g id="node13" class="node">
<title>15</title>
<polygon fill="#f2f2f2" stroke="black" points="47.88,-887.3 47.88,-987.3 349.66,-987.3 349.66,-887.3 47.88,-887.3"/>
<text text-anchor="middle" x="198.77" y="-970.7" font-family="Times,serif" font-size="14.00">&lt;&lt;Library&gt;&gt;</text>
<text text-anchor="middle" x="198.77" y="-953.9" font-family="Times,serif" font-size="14.00">Tools</text>
<text text-anchor="middle" x="198.77" y="-937.1" font-family="Times,serif" font-size="14.00">contracts/libraries/tools.sol</text>
<polyline fill="none" stroke="black" points="47.88,-928.9 349.66,-928.9 "/>
<text text-anchor="start" x="55.88" y="-912.3" font-family="Times,serif" font-size="14.00">Internal:</text>
<text text-anchor="start" x="55.88" y="-895.5" font-family="Times,serif" font-size="14.00"> &#160;&#160;&#160;verifyProof(orderId: uint256, proof: bytes): bool</text>
</g>
<!-- 16 -->
<g id="node14" class="node">
<title>16</title>
<polygon fill="#f2f2f2" stroke="black" points="1168.53,-147.3 1168.53,-247.3 1491.02,-247.3 1491.02,-147.3 1168.53,-147.3"/>
<text text-anchor="middle" x="1329.77" y="-230.7" font-family="Times,serif" font-size="14.00">MockTocken</text>
<text text-anchor="middle" x="1329.77" y="-213.9" font-family="Times,serif" font-size="14.00">contracts/mock/mock_erc20_contract.sol</text>
<polyline fill="none" stroke="black" points="1168.53,-205.7 1491.02,-205.7 "/>
<text text-anchor="start" x="1176.53" y="-189.1" font-family="Times,serif" font-size="14.00">Public:</text>
<text text-anchor="start" x="1176.53" y="-172.3" font-family="Times,serif" font-size="14.00"> &#160;&#160;&#160;constructor()</text>
<text text-anchor="start" x="1176.53" y="-155.5" font-family="Times,serif" font-size="14.00"> &#160;&#160;&#160;mint(to: address, amount: uint256) &lt;&lt;onlyOwner&gt;&gt;</text>
</g>
<!-- 0 -->
<g id="node15" class="node">
<title>0</title>
<polygon fill="#f2f2f2" stroke="black" points="0,-502.7 0,-728.3 507.54,-728.3 507.54,-502.7 0,-502.7"/>
<text text-anchor="middle" x="253.77" y="-711.7" font-family="Times,serif" font-size="14.00">OrderContract</text>
<text text-anchor="middle" x="253.77" y="-694.9" font-family="Times,serif" font-size="14.00">contracts/order_contract.sol</text>
<polyline fill="none" stroke="black" points="0,-686.7 507.54,-686.7 "/>
<text text-anchor="start" x="8" y="-670.1" font-family="Times,serif" font-size="14.00">Private:</text>
<text text-anchor="start" x="8" y="-653.3" font-family="Times,serif" font-size="14.00"> &#160;&#160;orderStorage: OrderLibrary.OrderStorage</text>
<text text-anchor="start" x="8" y="-636.5" font-family="Times,serif" font-size="14.00">Public:</text>
<text text-anchor="start" x="8" y="-619.7" font-family="Times,serif" font-size="14.00"> &#160;&#160;token: IERC20</text>
<text text-anchor="start" x="8" y="-602.9" font-family="Times,serif" font-size="14.00"> &#160;&#160;AUTHORIZED_CALLER_ROLE: bytes32</text>
<polyline fill="none" stroke="black" points="0,-594.7 507.54,-594.7 "/>
<text text-anchor="start" x="8" y="-578.1" font-family="Times,serif" font-size="14.00">Public:</text>
<text text-anchor="start" x="8" y="-561.3" font-family="Times,serif" font-size="14.00"> &#160;&#160;&#160;constructor(_authorizedCaller: address, _token: address)</text>
<text text-anchor="start" x="8" y="-544.5" font-family="Times,serif" font-size="14.00"> &#160;&#160;&#160;create(orderInput: OrderLibrary.OrderInput, buyer: address): uint256 &lt;&lt;onlyRole&gt;&gt;</text>
<text text-anchor="start" x="8" y="-527.7" font-family="Times,serif" font-size="14.00"> &#160;&#160;&#160;get(id: uint256): OrderLibrary.Order</text>
<text text-anchor="start" x="8" y="-510.9" font-family="Times,serif" font-size="14.00"> &#160;&#160;&#160;close(id: uint256, proof: bytes, finalPrice: uint256, producer: address) &lt;&lt;onlyRole&gt;&gt;</text>
</g>
<!-- 0&#45;&gt;4 -->
<g id="edge28" class="edge">
<title>0&#45;&gt;4</title>
<path fill="none" stroke="black" d="M371.64,-728.35C418.73,-773.04 471.64,-823.25 513.67,-863.13"/>
<polygon fill="black" stroke="black" points="511.46,-865.86 521.12,-870.2 516.27,-860.78 511.46,-865.86"/>
</g>
<!-- 0&#45;&gt;15 -->
<g id="edge29" class="edge">
<title>0&#45;&gt;15</title>
<path fill="none" stroke="black" stroke-dasharray="5,2" d="M234.54,-728.35C225.92,-778.44 216.12,-835.46 208.95,-877.11"/>
<polygon fill="black" stroke="black" points="205.48,-876.63 207.24,-887.08 212.38,-877.82 205.48,-876.63"/>
</g>
<!-- 1 -->
<g id="node16" class="node">
<title>1</title>
<polygon fill="#f2f2f2" stroke="black" points="531.4,-0.5 531.4,-394.1 1150.15,-394.1 1150.15,-0.5 531.4,-0.5"/>
<text text-anchor="middle" x="840.77" y="-377.5" font-family="Times,serif" font-size="14.00">ProofMarketEndpoint</text>
<text text-anchor="middle" x="840.77" y="-360.7" font-family="Times,serif" font-size="14.00">contracts/proof_market_endpoint.sol</text>
<polyline fill="none" stroke="black" points="531.4,-352.5 1150.15,-352.5 "/>
<text text-anchor="start" x="539.4" y="-335.9" font-family="Times,serif" font-size="14.00">Public:</text>
<text text-anchor="start" x="539.4" y="-319.1" font-family="Times,serif" font-size="14.00"> &#160;&#160;token: IERC20</text>
<text text-anchor="start" x="539.4" y="-302.3" font-family="Times,serif" font-size="14.00"> &#160;&#160;statementContract: StatementContract</text>
<text text-anchor="start" x="539.4" y="-285.5" font-family="Times,serif" font-size="14.00"> &#160;&#160;orderContract: OrderContract</text>
<text text-anchor="start" x="539.4" y="-268.7" font-family="Times,serif" font-size="14.00"> &#160;&#160;OWNER_ROLE: bytes32</text>
<text text-anchor="start" x="539.4" y="-251.9" font-family="Times,serif" font-size="14.00"> &#160;&#160;RELAYER_ROLE: bytes32</text>
<polyline fill="none" stroke="black" points="531.4,-243.7 1150.15,-243.7 "/>
<text text-anchor="start" x="539.4" y="-227.1" font-family="Times,serif" font-size="14.00">Public:</text>
<text text-anchor="start" x="539.4" y="-210.3" font-family="Times,serif" font-size="14.00"> &#160;&#160;&#160;&lt;&lt;modifier&gt;&gt; statementMustExist(statementId: uint256)</text>
<text text-anchor="start" x="539.4" y="-193.5" font-family="Times,serif" font-size="14.00"> &#160;&#160;&#160;&lt;&lt;modifier&gt;&gt; statementMustNotExist(definition: StatementLibrary.Definition)</text>
<text text-anchor="start" x="539.4" y="-176.7" font-family="Times,serif" font-size="14.00"> &#160;&#160;&#160;constructor(_token: IERC20)</text>
<text text-anchor="start" x="539.4" y="-159.9" font-family="Times,serif" font-size="14.00"> &#160;&#160;&#160;grantRelayer(relayer: address) &lt;&lt;onlyRole&gt;&gt;</text>
<text text-anchor="start" x="539.4" y="-143.1" font-family="Times,serif" font-size="14.00"> &#160;&#160;&#160;revokeRelayer(relayer: address) &lt;&lt;onlyRole&gt;&gt;</text>
<text text-anchor="start" x="539.4" y="-126.3" font-family="Times,serif" font-size="14.00"> &#160;&#160;&#160;getOrder(orderId: uint256): OrderLibrary.Order</text>
<text text-anchor="start" x="539.4" y="-109.5" font-family="Times,serif" font-size="14.00"> &#160;&#160;&#160;createOrder(orderInput: OrderLibrary.OrderInput): uint256 &lt;&lt;statementMustExist&gt;&gt;</text>
<text text-anchor="start" x="539.4" y="-92.7" font-family="Times,serif" font-size="14.00"> &#160;&#160;&#160;closeOrder(orderId: uint256, proof: bytes, finalPrice: uint256, producer: address) &lt;&lt;onlyRole&gt;&gt;</text>
<text text-anchor="start" x="539.4" y="-75.9" font-family="Times,serif" font-size="14.00"> &#160;&#160;&#160;getStatement(id: uint256): StatementLibrary.StatementData</text>
<text text-anchor="start" x="539.4" y="-59.1" font-family="Times,serif" font-size="14.00"> &#160;&#160;&#160;addStatement(statementInput: StatementLibrary.StatementInput) &lt;&lt;onlyRole, statementMustNotExist&gt;&gt;</text>
<text text-anchor="start" x="539.4" y="-42.3" font-family="Times,serif" font-size="14.00"> &#160;&#160;&#160;updateStatementDefinition(id: uint256, definition: StatementLibrary.Definition) &lt;&lt;onlyRole&gt;&gt;</text>
<text text-anchor="start" x="539.4" y="-25.5" font-family="Times,serif" font-size="14.00"> &#160;&#160;&#160;updateStatementPrice(id: uint256, price: StatementLibrary.Price) &lt;&lt;onlyRole&gt;&gt;</text>
<text text-anchor="start" x="539.4" y="-8.7" font-family="Times,serif" font-size="14.00"> &#160;&#160;&#160;removeStatement(id: uint256) &lt;&lt;onlyRole&gt;&gt;</text>
</g>
<!-- 1&#45;&gt;3 -->
<g id="edge30" class="edge">
<title>1&#45;&gt;3</title>
<path fill="none" stroke="black" stroke-dasharray="5,2" d="M840.77,-394.21C840.77,-396.41 840.77,-398.61 840.77,-400.81"/>
<polygon fill="none" stroke="black" points="830.27,-400.9 840.77,-430.9 851.27,-400.9 830.27,-400.9"/>
</g>
<!-- 1&#45;&gt;4 -->
<g id="edge33" class="edge">
<title>1&#45;&gt;4</title>
<path fill="none" stroke="black" stroke-dasharray="5,2" d="M575.64,-394.3C567.78,-405.93 560.75,-418.04 554.77,-430.6 488.07,-570.72 530.32,-757.7 563.09,-860.54"/>
<polygon fill="black" stroke="black" points="559.82,-861.79 566.23,-870.22 566.47,-859.63 559.82,-861.79"/>
</g>
<!-- 1&#45;&gt;9 -->
<g id="edge34" class="edge">
<title>1&#45;&gt;9</title>
<path fill="none" stroke="black" stroke-dasharray="5,2" d="M1150.5,-391.47C1153.59,-392.55 1156.68,-393.59 1159.77,-394.6 1208.41,-410.45 1584.04,-393.04 1618.77,-430.6 1730.35,-551.27 1702.29,-658.85 1618.77,-800.4 1610.84,-813.84 1601.05,-826.05 1589.99,-837.12"/>
<polygon fill="black" stroke="black" points="1587.36,-834.79 1582.54,-844.23 1592.19,-839.85 1587.36,-834.79"/>
</g>
<!-- 1&#45;&gt;0 -->
<g id="edge32" class="edge">
<title>1&#45;&gt;0</title>
<path fill="none" stroke="black" d="M564.46,-394.21C515.05,-429.25 464.99,-464.74 419.9,-496.71"/>
<polygon fill="black" stroke="black" points="417.68,-494 411.55,-502.63 421.73,-499.71 417.68,-494"/>
</g>
<!-- 2 -->
<g id="node17" class="node">
<title>2</title>
<polygon fill="#f2f2f2" stroke="black" points="1135.92,-477.5 1135.92,-753.5 1609.63,-753.5 1609.63,-477.5 1135.92,-477.5"/>
<text text-anchor="middle" x="1372.77" y="-736.9" font-family="Times,serif" font-size="14.00">StatementContract</text>
<text text-anchor="middle" x="1372.77" y="-720.1" font-family="Times,serif" font-size="14.00">contracts/statement_contract.sol</text>
<polyline fill="none" stroke="black" points="1135.92,-711.9 1609.63,-711.9 "/>
<text text-anchor="start" x="1143.92" y="-695.3" font-family="Times,serif" font-size="14.00">Private:</text>
<text text-anchor="start" x="1143.92" y="-678.5" font-family="Times,serif" font-size="14.00"> &#160;&#160;statementStorage: StatementLibrary.StatementStorage</text>
<text text-anchor="start" x="1143.92" y="-661.7" font-family="Times,serif" font-size="14.00">Public:</text>
<text text-anchor="start" x="1143.92" y="-644.9" font-family="Times,serif" font-size="14.00"> &#160;&#160;AUTHORIZED_CALLER_ROLE: bytes32</text>
<polyline fill="none" stroke="black" points="1135.92,-636.7 1609.63,-636.7 "/>
<text text-anchor="start" x="1143.92" y="-620.1" font-family="Times,serif" font-size="14.00">Public:</text>
<text text-anchor="start" x="1143.92" y="-603.3" font-family="Times,serif" font-size="14.00"> &#160;&#160;&#160;constructor(_authorizedCaller: address)</text>
<text text-anchor="start" x="1143.92" y="-586.5" font-family="Times,serif" font-size="14.00"> &#160;&#160;&#160;add(statementInput: StatementLibrary.StatementInput): uint256 &lt;&lt;onlyRole&gt;&gt;</text>
<text text-anchor="start" x="1143.92" y="-569.7" font-family="Times,serif" font-size="14.00"> &#160;&#160;&#160;get(id: uint256): StatementLibrary.StatementData</text>
<text text-anchor="start" x="1143.92" y="-552.9" font-family="Times,serif" font-size="14.00"> &#160;&#160;&#160;update(id: uint256, price: StatementLibrary.Price) &lt;&lt;onlyRole&gt;&gt;</text>
<text text-anchor="start" x="1143.92" y="-536.1" font-family="Times,serif" font-size="14.00"> &#160;&#160;&#160;update(id: uint256, definition: StatementLibrary.Definition) &lt;&lt;onlyRole&gt;&gt;</text>
<text text-anchor="start" x="1143.92" y="-519.3" font-family="Times,serif" font-size="14.00"> &#160;&#160;&#160;remove(id: uint256) &lt;&lt;onlyRole&gt;&gt;</text>
<text text-anchor="start" x="1143.92" y="-502.5" font-family="Times,serif" font-size="14.00"> &#160;&#160;&#160;exists(id: uint256): bool</text>
<text text-anchor="start" x="1143.92" y="-485.7" font-family="Times,serif" font-size="14.00"> &#160;&#160;&#160;exists(definition: StatementLibrary.Definition): bool</text>
</g>
<!-- 1&#45;&gt;2 -->
<g id="edge31" class="edge">
<title>1&#45;&gt;2</title>
<path fill="none" stroke="black" d="M1091.19,-394.21C1124.36,-420.16 1157.85,-446.36 1189.6,-471.2"/>
<polygon fill="black" stroke="black" points="1187.6,-474.07 1197.63,-477.48 1191.91,-468.56 1187.6,-474.07"/>
</g>
<!-- 2&#45;&gt;9 -->
<g id="edge35" class="edge">
<title>2&#45;&gt;9</title>
<path fill="none" stroke="black" d="M1372.77,-753.52C1372.77,-777.88 1372.77,-802.97 1372.77,-826.46"/>
<polygon fill="black" stroke="black" points="1369.27,-826.77 1372.77,-836.77 1376.27,-826.77 1369.27,-826.77"/>
</g>
</g>
</svg>
