<?xml version="1.0" encoding="UTF-8" standalone="no"?>
<!DOCTYPE svg PUBLIC "-//W3C//DTD SVG 1.1//EN"
 "http://www.w3.org/Graphics/SVG/1.1/DTD/svg11.dtd">
<!-- Generated by graphviz version 5.0.0 (20220707.1540)
 -->
<!-- Title: UmlClassDiagram Pages: 1 -->
<svg width="1961pt" height="1280pt"
 viewBox="0.00 0.00 1961.36 1280.40" xmlns="http://www.w3.org/2000/svg" xmlns:xlink="http://www.w3.org/1999/xlink">
<g id="graph0" class="graph" transform="scale(1 1) rotate(0) translate(4 1276.4)">
<title>UmlClassDiagram</title>
<polygon fill="white" stroke="transparent" points="-4,4 -4,-1276.4 1957.36,-1276.4 1957.36,4 -4,4"/>
<!-- 3 -->
<g id="node1" class="node">
<title>3</title>
<polygon fill="#f2f2f2" stroke="black" points="740.92,-1171.9 740.92,-1271.9 932.25,-1271.9 932.25,-1171.9 740.92,-1171.9"/>
<text text-anchor="middle" x="836.58" y="-1255.3" font-family="Times,serif" font-size="14.00">&lt;&lt;Enum&gt;&gt;</text>
<text text-anchor="middle" x="836.58" y="-1238.5" font-family="Times,serif" font-size="14.00">OrderStatus</text>
<text text-anchor="middle" x="836.58" y="-1221.7" font-family="Times,serif" font-size="14.00">contracts/libraries/order_lib.sol</text>
<polyline fill="none" stroke="black" points="740.92,-1213.5 932.25,-1213.5 "/>
<text text-anchor="start" x="748.92" y="-1196.9" font-family="Times,serif" font-size="14.00">OPEN: 0</text>
<text text-anchor="start" x="748.92" y="-1180.1" font-family="Times,serif" font-size="14.00">CLOSED: 1</text>
</g>
<!-- 4 -->
<g id="node2" class="node">
<title>4</title>
<polygon fill="#f2f2f2" stroke="black" points="740.92,-934.1 740.92,-1134.9 932.25,-1134.9 932.25,-934.1 740.92,-934.1"/>
<text text-anchor="middle" x="836.58" y="-1118.3" font-family="Times,serif" font-size="14.00">&lt;&lt;Struct&gt;&gt;</text>
<text text-anchor="middle" x="836.58" y="-1101.5" font-family="Times,serif" font-size="14.00">Order</text>
<text text-anchor="middle" x="836.58" y="-1084.7" font-family="Times,serif" font-size="14.00">contracts/libraries/order_lib.sol</text>
<polyline fill="none" stroke="black" points="740.92,-1076.5 932.25,-1076.5 "/>
<text text-anchor="start" x="748.92" y="-1059.9" font-family="Times,serif" font-size="14.00">id: uint256</text>
<text text-anchor="start" x="748.92" y="-1043.1" font-family="Times,serif" font-size="14.00">statementId: uint256</text>
<text text-anchor="start" x="748.92" y="-1026.3" font-family="Times,serif" font-size="14.00">input: bytes32</text>
<text text-anchor="start" x="748.92" y="-1009.5" font-family="Times,serif" font-size="14.00">price: uint256</text>
<text text-anchor="start" x="748.92" y="-992.7" font-family="Times,serif" font-size="14.00">buyer: address</text>
<text text-anchor="start" x="748.92" y="-975.9" font-family="Times,serif" font-size="14.00">status: OrderStatus</text>
<text text-anchor="start" x="748.92" y="-959.1" font-family="Times,serif" font-size="14.00">producer: address</text>
<text text-anchor="start" x="748.92" y="-942.3" font-family="Times,serif" font-size="14.00">proof: bytes32[]</text>
</g>
<!-- 4&#45;&gt;3 -->
<g id="edge1" class="edge">
<title>4&#45;&gt;3</title>
<path fill="none" stroke="black" stroke-dasharray="5,2" d="M836.58,-1134.98C836.58,-1144.02 836.58,-1152.97 836.58,-1161.49"/>
<polygon fill="black" stroke="black" points="833.08,-1161.65 836.58,-1171.65 840.08,-1161.65 833.08,-1161.65"/>
</g>
<!-- 5 -->
<g id="node3" class="node">
<title>5</title>
<polygon fill="#f2f2f2" stroke="black" points="565.63,-797.1 565.63,-897.1 773.54,-897.1 773.54,-797.1 565.63,-797.1"/>
<text text-anchor="middle" x="669.58" y="-880.5" font-family="Times,serif" font-size="14.00">&lt;&lt;Struct&gt;&gt;</text>
<text text-anchor="middle" x="669.58" y="-863.7" font-family="Times,serif" font-size="14.00">OrderStorage</text>
<text text-anchor="middle" x="669.58" y="-846.9" font-family="Times,serif" font-size="14.00">contracts/libraries/order_lib.sol</text>
<polyline fill="none" stroke="black" points="565.63,-838.7 773.54,-838.7 "/>
<text text-anchor="start" x="573.63" y="-822.1" font-family="Times,serif" font-size="14.00">orders: mapping(uint256=&gt;Order)</text>
<text text-anchor="start" x="573.63" y="-805.3" font-family="Times,serif" font-size="14.00">orderCounter: uint256</text>
</g>
<!-- 5&#45;&gt;4 -->
<g id="edge2" class="edge">
<title>5&#45;&gt;4</title>
<path fill="none" stroke="black" stroke-dasharray="5,2" d="M713.9,-897.3C722.06,-906.36 730.87,-916.14 739.89,-926.15"/>
<polygon fill="black" stroke="black" points="737.52,-928.76 746.82,-933.84 742.73,-924.07 737.52,-928.76"/>
</g>
<!-- 6 -->
<g id="node4" class="node">
<title>6</title>
<polygon fill="#f2f2f2" stroke="black" points="0,-576.1 0,-760.1 641.17,-760.1 641.17,-576.1 0,-576.1"/>
<text text-anchor="middle" x="320.58" y="-743.5" font-family="Times,serif" font-size="14.00">&lt;&lt;Library&gt;&gt;</text>
<text text-anchor="middle" x="320.58" y="-726.7" font-family="Times,serif" font-size="14.00">OrderLibrary</text>
<text text-anchor="middle" x="320.58" y="-709.9" font-family="Times,serif" font-size="14.00">contracts/libraries/order_lib.sol</text>
<polyline fill="none" stroke="black" points="0,-701.7 641.17,-701.7 "/>
<text text-anchor="start" x="8" y="-685.1" font-family="Times,serif" font-size="14.00">Internal:</text>
<text text-anchor="start" x="8" y="-668.3" font-family="Times,serif" font-size="14.00"> &#160;&#160;&#160;createOrder(self: OrderStorage, statementId: uint256, input: bytes32, price: uint256, buyer: address): uint256</text>
<text text-anchor="start" x="8" y="-651.5" font-family="Times,serif" font-size="14.00"> &#160;&#160;&#160;getOrder(self: OrderStorage, id: uint256): Order</text>
<text text-anchor="start" x="8" y="-634.7" font-family="Times,serif" font-size="14.00"> &#160;&#160;&#160;updateOrder(self: OrderStorage, id: uint256, producer: address, proof: bytes32[])</text>
<text text-anchor="start" x="8" y="-617.9" font-family="Times,serif" font-size="14.00">Public:</text>
<text text-anchor="start" x="8" y="-601.1" font-family="Times,serif" font-size="14.00"> &#160;&#160;&#160;&lt;&lt;event&gt;&gt; OrderCreated(id: uint256, statementId: uint256, input: bytes32, price: uint256, buyer: address)</text>
<text text-anchor="start" x="8" y="-584.3" font-family="Times,serif" font-size="14.00"> &#160;&#160;&#160;&lt;&lt;event&gt;&gt; OrderClosed(id: uint256, producer: address, finalPrice: uint256, proof: bytes32[])</text>
</g>
<!-- 6&#45;&gt;3 -->
<g id="edge5" class="edge">
<title>6&#45;&gt;3</title>
<path fill="none" stroke="black" stroke-dasharray="5,2" d="M356.2,-760.3C375.99,-804.4 403.35,-856.53 436.58,-897.6 526.83,-1009.1 661.33,-1107.98 749.01,-1166.16"/>
<polygon fill="black" stroke="black" points="747.33,-1169.25 757.6,-1171.84 751.19,-1163.41 747.33,-1169.25"/>
</g>
<!-- 6&#45;&gt;4 -->
<g id="edge4" class="edge">
<title>6&#45;&gt;4</title>
<path fill="none" stroke="black" stroke-dasharray="5,2" d="M401.62,-760.27C444.69,-805.26 500.28,-858.2 556.58,-897.6 610.68,-935.45 676.92,-968.13 731.39,-991.95"/>
<polygon fill="black" stroke="black" points="730.15,-995.23 740.72,-995.99 732.93,-988.8 730.15,-995.23"/>
</g>
<!-- 6&#45;&gt;5 -->
<g id="edge3" class="edge">
<title>6&#45;&gt;5</title>
<path fill="none" stroke="black" stroke-dasharray="5,2" d="M500.2,-760.19C521.92,-771.21 543.54,-782.18 563.71,-792.4"/>
<polygon fill="black" stroke="black" points="562.36,-795.65 572.86,-797.05 565.53,-789.4 562.36,-795.65"/>
</g>
<!-- 7 -->
<g id="node5" class="node">
<title>7</title>
<polygon fill="#f2f2f2" stroke="black" points="1446.86,-976.1 1446.86,-1092.9 1662.31,-1092.9 1662.31,-976.1 1446.86,-976.1"/>
<text text-anchor="middle" x="1554.58" y="-1076.3" font-family="Times,serif" font-size="14.00">&lt;&lt;Struct&gt;&gt;</text>
<text text-anchor="middle" x="1554.58" y="-1059.5" font-family="Times,serif" font-size="14.00">StatementData</text>
<text text-anchor="middle" x="1554.58" y="-1042.7" font-family="Times,serif" font-size="14.00">contracts/libraries/statement_lib.sol</text>
<polyline fill="none" stroke="black" points="1446.86,-1034.5 1662.31,-1034.5 "/>
<text text-anchor="start" x="1454.86" y="-1017.9" font-family="Times,serif" font-size="14.00">id: uint256</text>
<text text-anchor="start" x="1454.86" y="-1001.1" font-family="Times,serif" font-size="14.00">definition: bytes32</text>
<text text-anchor="start" x="1454.86" y="-984.3" font-family="Times,serif" font-size="14.00">price: Price</text>
</g>
<!-- 9 -->
<g id="node7" class="node">
<title>9</title>
<polygon fill="#f2f2f2" stroke="black" points="1446.86,-1180.3 1446.86,-1263.5 1662.31,-1263.5 1662.31,-1180.3 1446.86,-1180.3"/>
<text text-anchor="middle" x="1554.58" y="-1246.9" font-family="Times,serif" font-size="14.00">&lt;&lt;Struct&gt;&gt;</text>
<text text-anchor="middle" x="1554.58" y="-1230.1" font-family="Times,serif" font-size="14.00">Price</text>
<text text-anchor="middle" x="1554.58" y="-1213.3" font-family="Times,serif" font-size="14.00">contracts/libraries/statement_lib.sol</text>
<polyline fill="none" stroke="black" points="1446.86,-1205.1 1662.31,-1205.1 "/>
<text text-anchor="start" x="1454.86" y="-1188.5" font-family="Times,serif" font-size="14.00">price: uint256</text>
</g>
<!-- 7&#45;&gt;9 -->
<g id="edge6" class="edge">
<title>7&#45;&gt;9</title>
<path fill="none" stroke="black" stroke-dasharray="5,2" d="M1554.58,-1093.15C1554.58,-1117.68 1554.58,-1146.06 1554.58,-1169.83"/>
<polygon fill="black" stroke="black" points="1551.08,-1170.06 1554.58,-1180.06 1558.08,-1170.06 1551.08,-1170.06"/>
</g>
<!-- 8 -->
<g id="node6" class="node">
<title>8</title>
<polygon fill="#f2f2f2" stroke="black" points="1413.69,-797.1 1413.69,-897.1 1695.48,-897.1 1695.48,-797.1 1413.69,-797.1"/>
<text text-anchor="middle" x="1554.58" y="-880.5" font-family="Times,serif" font-size="14.00">&lt;&lt;Struct&gt;&gt;</text>
<text text-anchor="middle" x="1554.58" y="-863.7" font-family="Times,serif" font-size="14.00">StatementStorage</text>
<text text-anchor="middle" x="1554.58" y="-846.9" font-family="Times,serif" font-size="14.00">contracts/libraries/statement_lib.sol</text>
<polyline fill="none" stroke="black" points="1413.69,-838.7 1695.48,-838.7 "/>
<text text-anchor="start" x="1421.69" y="-822.1" font-family="Times,serif" font-size="14.00">statements: mapping(uint256=&gt;StatementData)</text>
<text text-anchor="start" x="1421.69" y="-805.3" font-family="Times,serif" font-size="14.00">statementCounter: uint256</text>
</g>
<!-- 8&#45;&gt;7 -->
<g id="edge7" class="edge">
<title>8&#45;&gt;7</title>
<path fill="none" stroke="black" stroke-dasharray="5,2" d="M1554.58,-897.3C1554.58,-918.23 1554.58,-942.99 1554.58,-965.62"/>
<polygon fill="black" stroke="black" points="1551.08,-965.84 1554.58,-975.84 1558.08,-965.84 1551.08,-965.84"/>
</g>
<!-- 10 -->
<g id="node8" class="node">
<title>10</title>
<polygon fill="#f2f2f2" stroke="black" points="1477.8,-584.5 1477.8,-751.7 1953.36,-751.7 1953.36,-584.5 1477.8,-584.5"/>
<text text-anchor="middle" x="1715.58" y="-735.1" font-family="Times,serif" font-size="14.00">&lt;&lt;Library&gt;&gt;</text>
<text text-anchor="middle" x="1715.58" y="-718.3" font-family="Times,serif" font-size="14.00">StatementLibrary</text>
<text text-anchor="middle" x="1715.58" y="-701.5" font-family="Times,serif" font-size="14.00">contracts/libraries/statement_lib.sol</text>
<polyline fill="none" stroke="black" points="1477.8,-693.3 1953.36,-693.3 "/>
<text text-anchor="start" x="1485.8" y="-676.7" font-family="Times,serif" font-size="14.00">Internal:</text>
<text text-anchor="start" x="1485.8" y="-659.9" font-family="Times,serif" font-size="14.00"> &#160;&#160;&#160;addStatement(self: StatementStorage, definition: bytes32, price: Price): uint256</text>
<text text-anchor="start" x="1485.8" y="-643.1" font-family="Times,serif" font-size="14.00"> &#160;&#160;&#160;getStatement(self: StatementStorage, id: uint256): StatementData</text>
<text text-anchor="start" x="1485.8" y="-626.3" font-family="Times,serif" font-size="14.00"> &#160;&#160;&#160;updateStatement(self: StatementStorage, id: uint256, price: Price)</text>
<text text-anchor="start" x="1485.8" y="-609.5" font-family="Times,serif" font-size="14.00"> &#160;&#160;&#160;updateStatement(self: StatementStorage, id: uint256, definition: bytes32)</text>
<text text-anchor="start" x="1485.8" y="-592.7" font-family="Times,serif" font-size="14.00"> &#160;&#160;&#160;deleteStatement(self: StatementStorage, id: uint256)</text>
</g>
<!-- 10&#45;&gt;7 -->
<g id="edge10" class="edge">
<title>10&#45;&gt;7</title>
<path fill="none" stroke="black" stroke-dasharray="5,2" d="M1726.54,-751.83C1728.92,-796.96 1725.83,-852.62 1704.58,-897.6 1691.7,-924.86 1670.61,-949.11 1648.25,-969.31"/>
<polygon fill="black" stroke="black" points="1645.83,-966.78 1640.63,-976.01 1650.45,-972.04 1645.83,-966.78"/>
</g>
<!-- 10&#45;&gt;8 -->
<g id="edge8" class="edge">
<title>10&#45;&gt;8</title>
<path fill="none" stroke="black" stroke-dasharray="5,2" d="M1640.27,-751.9C1628.86,-764.45 1617.3,-777.15 1606.53,-788.99"/>
<polygon fill="black" stroke="black" points="1603.72,-786.88 1599.58,-796.63 1608.9,-791.59 1603.72,-786.88"/>
</g>
<!-- 10&#45;&gt;9 -->
<g id="edge9" class="edge">
<title>10&#45;&gt;9</title>
<path fill="none" stroke="black" stroke-dasharray="5,2" d="M1729.85,-751.78C1742.43,-851.48 1748.43,-1020 1671.58,-1135.4 1661.97,-1149.84 1649.04,-1162.71 1635.29,-1173.8"/>
<polygon fill="black" stroke="black" points="1632.88,-1171.23 1627.11,-1180.12 1637.16,-1176.77 1632.88,-1171.23"/>
</g>
<!-- 11 -->
<g id="node9" class="node">
<title>11</title>
<polygon fill="#f2f2f2" stroke="black" points="698.03,-618.1 698.03,-718.1 1023.13,-718.1 1023.13,-618.1 698.03,-618.1"/>
<text text-anchor="middle" x="860.58" y="-701.5" font-family="Times,serif" font-size="14.00">&lt;&lt;Library&gt;&gt;</text>
<text text-anchor="middle" x="860.58" y="-684.7" font-family="Times,serif" font-size="14.00">Tools</text>
<text text-anchor="middle" x="860.58" y="-667.9" font-family="Times,serif" font-size="14.00">contracts/libraries/tools.sol</text>
<polyline fill="none" stroke="black" points="698.03,-659.7 1023.13,-659.7 "/>
<text text-anchor="start" x="706.03" y="-643.1" font-family="Times,serif" font-size="14.00">Internal:</text>
<text text-anchor="start" x="706.03" y="-626.3" font-family="Times,serif" font-size="14.00"> &#160;&#160;&#160;verifyProof(orderId: uint256, proof: bytes32[]): bool</text>
</g>
<!-- 0 -->
<g id="node10" class="node">
<title>0</title>
<polygon fill="#f2f2f2" stroke="black" points="373.43,-271.5 373.43,-497.1 1061.74,-497.1 1061.74,-271.5 373.43,-271.5"/>
<text text-anchor="middle" x="717.58" y="-480.5" font-family="Times,serif" font-size="14.00">OrderContract</text>
<text text-anchor="middle" x="717.58" y="-463.7" font-family="Times,serif" font-size="14.00">contracts/order_contract.sol</text>
<polyline fill="none" stroke="black" points="373.43,-455.5 1061.74,-455.5 "/>
<text text-anchor="start" x="381.43" y="-438.9" font-family="Times,serif" font-size="14.00">Private:</text>
<text text-anchor="start" x="381.43" y="-422.1" font-family="Times,serif" font-size="14.00"> &#160;&#160;orderStorage: OrderStorage</text>
<text text-anchor="start" x="381.43" y="-405.3" font-family="Times,serif" font-size="14.00">Public:</text>
<text text-anchor="start" x="381.43" y="-388.5" font-family="Times,serif" font-size="14.00"> &#160;&#160;authorizedCaller: address</text>
<polyline fill="none" stroke="black" points="373.43,-380.3 1061.74,-380.3 "/>
<text text-anchor="start" x="381.43" y="-363.7" font-family="Times,serif" font-size="14.00">Public:</text>
<text text-anchor="start" x="381.43" y="-346.9" font-family="Times,serif" font-size="14.00"> &#160;&#160;&#160;&lt;&lt;modifier&gt;&gt; onlyAuthorizedCaller()</text>
<text text-anchor="start" x="381.43" y="-330.1" font-family="Times,serif" font-size="14.00"> &#160;&#160;&#160;constructor(_authorizedCaller: address)</text>
<text text-anchor="start" x="381.43" y="-313.3" font-family="Times,serif" font-size="14.00"> &#160;&#160;&#160;createOrder(statementId: uint256, input: bytes32, price: uint256, buyer: address): uint256 &lt;&lt;onlyAuthorizedCaller&gt;&gt;</text>
<text text-anchor="start" x="381.43" y="-296.5" font-family="Times,serif" font-size="14.00"> &#160;&#160;&#160;getOrder(id: uint256): Order</text>
<text text-anchor="start" x="381.43" y="-279.7" font-family="Times,serif" font-size="14.00"> &#160;&#160;&#160;closeOrder(id: uint256, producer: address, proof: bytes32[]) &lt;&lt;onlyAuthorizedCaller&gt;&gt;</text>
</g>
<!-- 0&#45;&gt;4 -->
<g id="edge13" class="edge">
<title>0&#45;&gt;4</title>
<path fill="none" stroke="black" stroke-dasharray="5,2" d="M964.41,-497.34C991.59,-519.47 1015.55,-545.41 1032.58,-575.6 1097.47,-690.61 1015.2,-831.34 938.25,-926.19"/>
<polygon fill="black" stroke="black" points="935.42,-924.13 931.78,-934.08 940.83,-928.57 935.42,-924.13"/>
</g>
<!-- 0&#45;&gt;5 -->
<g id="edge12" class="edge">
<title>0&#45;&gt;5</title>
<path fill="none" stroke="black" d="M698.97,-497.3C695.13,-522.97 691.41,-550.19 688.58,-575.6 680.55,-647.91 675.29,-731.49 672.38,-786.39"/>
<polygon fill="black" stroke="black" points="668.88,-786.46 671.85,-796.63 675.87,-786.83 668.88,-786.46"/>
</g>
<!-- 0&#45;&gt;6 -->
<g id="edge11" class="edge">
<title>0&#45;&gt;6</title>
<path fill="none" stroke="black" stroke-dasharray="5,2" d="M559.82,-497.28C525.92,-521.35 490.35,-546.59 457.32,-570.04"/>
<polygon fill="black" stroke="black" points="455.11,-567.32 448.98,-575.96 459.16,-573.03 455.11,-567.32"/>
</g>
<!-- 0&#45;&gt;11 -->
<g id="edge14" class="edge">
<title>0&#45;&gt;11</title>
<path fill="none" stroke="black" stroke-dasharray="5,2" d="M774.51,-497.48C793.79,-535.48 814.55,-576.39 830.85,-608.51"/>
<polygon fill="black" stroke="black" points="827.9,-610.42 835.54,-617.75 834.14,-607.25 827.9,-610.42"/>
</g>
<!-- 1 -->
<g id="node11" class="node">
<title>1</title>
<polygon fill="#f2f2f2" stroke="black" points="835.88,-0.5 835.88,-192.5 1343.29,-192.5 1343.29,-0.5 835.88,-0.5"/>
<text text-anchor="middle" x="1089.58" y="-175.9" font-family="Times,serif" font-size="14.00">ProofMarketEndpoint</text>
<text text-anchor="middle" x="1089.58" y="-159.1" font-family="Times,serif" font-size="14.00">contracts/proof_market_endpoint.sol</text>
<polyline fill="none" stroke="black" points="835.88,-150.9 1343.29,-150.9 "/>
<text text-anchor="start" x="843.88" y="-134.3" font-family="Times,serif" font-size="14.00">Public:</text>
<text text-anchor="start" x="843.88" y="-117.5" font-family="Times,serif" font-size="14.00"> &#160;&#160;token: IERC20</text>
<text text-anchor="start" x="843.88" y="-100.7" font-family="Times,serif" font-size="14.00"> &#160;&#160;statementContract: StatementContract</text>
<text text-anchor="start" x="843.88" y="-83.9" font-family="Times,serif" font-size="14.00"> &#160;&#160;orderContract: OrderContract</text>
<polyline fill="none" stroke="black" points="835.88,-75.7 1343.29,-75.7 "/>
<text text-anchor="start" x="843.88" y="-59.1" font-family="Times,serif" font-size="14.00">Public:</text>
<text text-anchor="start" x="843.88" y="-42.3" font-family="Times,serif" font-size="14.00"> &#160;&#160;&#160;constructor(_token: IERC20)</text>
<text text-anchor="start" x="843.88" y="-25.5" font-family="Times,serif" font-size="14.00"> &#160;&#160;&#160;createOrder(statementId: uint256, input: bytes32, price: uint256): uint256</text>
<text text-anchor="start" x="843.88" y="-8.7" font-family="Times,serif" font-size="14.00"> &#160;&#160;&#160;closeOrder(orderId: uint256, proof: bytes32[], finalPrice: uint256, producer: address)</text>
</g>
<!-- 1&#45;&gt;3 -->
<g id="edge19" class="edge">
<title>1&#45;&gt;3</title>
<path fill="none" stroke="black" stroke-dasharray="5,2" d="M1103.63,-192.55C1105.14,-204.8 1106.51,-217.18 1107.58,-229 1125.26,-423.11 1127.58,-472.19 1127.58,-667.1 1127.58,-667.1 1127.58,-667.1 1127.58,-848.1 1127.58,-984.51 1005.02,-1100.88 918.98,-1165.77"/>
<polygon fill="black" stroke="black" points="916.69,-1163.1 910.77,-1171.89 920.88,-1168.72 916.69,-1163.1"/>
</g>
<!-- 1&#45;&gt;4 -->
<g id="edge18" class="edge">
<title>1&#45;&gt;4</title>
<path fill="none" stroke="black" stroke-dasharray="5,2" d="M1094.67,-192.6C1099.47,-322.48 1100.63,-561.88 1058.58,-760.6 1045.1,-824.32 1044.93,-844.96 1006.58,-897.6 988.41,-922.54 964.54,-945.4 940.45,-964.96"/>
<polygon fill="black" stroke="black" points="938.26,-962.23 932.62,-971.2 942.62,-967.7 938.26,-962.23"/>
</g>
<!-- 1&#45;&gt;6 -->
<g id="edge17" class="edge">
<title>1&#45;&gt;6</title>
<path fill="none" stroke="black" stroke-dasharray="5,2" d="M835.78,-111.68C652.91,-127.56 427.67,-160.7 364.58,-229 281.72,-318.71 285.15,-467.08 299.43,-565.95"/>
<polygon fill="black" stroke="black" points="295.99,-566.59 300.94,-575.95 302.91,-565.54 295.99,-566.59"/>
</g>
<!-- 1&#45;&gt;0 -->
<g id="edge16" class="edge">
<title>1&#45;&gt;0</title>
<path fill="none" stroke="black" d="M965.71,-192.67C935.41,-215.94 902.63,-241.13 871.13,-265.33"/>
<polygon fill="black" stroke="black" points="868.95,-262.6 863.15,-271.46 873.21,-268.15 868.95,-262.6"/>
</g>
<!-- 2 -->
<g id="node12" class="node">
<title>2</title>
<polygon fill="#f2f2f2" stroke="black" points="1155.9,-229.5 1155.9,-539.1 1655.26,-539.1 1655.26,-229.5 1155.9,-229.5"/>
<text text-anchor="middle" x="1405.58" y="-522.5" font-family="Times,serif" font-size="14.00">StatementContract</text>
<text text-anchor="middle" x="1405.58" y="-505.7" font-family="Times,serif" font-size="14.00">contracts/statement_contract.sol</text>
<polyline fill="none" stroke="black" points="1155.9,-497.5 1655.26,-497.5 "/>
<text text-anchor="start" x="1163.9" y="-480.9" font-family="Times,serif" font-size="14.00">Private:</text>
<text text-anchor="start" x="1163.9" y="-464.1" font-family="Times,serif" font-size="14.00"> &#160;&#160;statementStorage: StatementStorage</text>
<text text-anchor="start" x="1163.9" y="-447.3" font-family="Times,serif" font-size="14.00">Public:</text>
<text text-anchor="start" x="1163.9" y="-430.5" font-family="Times,serif" font-size="14.00"> &#160;&#160;authorizedCaller: address</text>
<polyline fill="none" stroke="black" points="1155.9,-422.3 1655.26,-422.3 "/>
<text text-anchor="start" x="1163.9" y="-405.7" font-family="Times,serif" font-size="14.00">Public:</text>
<text text-anchor="start" x="1163.9" y="-388.9" font-family="Times,serif" font-size="14.00"> &#160;&#160;&#160;&lt;&lt;event&gt;&gt; StatementAdded(id: uint256, definition: bytes32, price: uint256)</text>
<text text-anchor="start" x="1163.9" y="-372.1" font-family="Times,serif" font-size="14.00"> &#160;&#160;&#160;&lt;&lt;event&gt;&gt; StatementDefinitionUpdated(id: uint256, definition: bytes32)</text>
<text text-anchor="start" x="1163.9" y="-355.3" font-family="Times,serif" font-size="14.00"> &#160;&#160;&#160;&lt;&lt;event&gt;&gt; StatementPriceUpdated(id: uint256, price: uint256)</text>
<text text-anchor="start" x="1163.9" y="-338.5" font-family="Times,serif" font-size="14.00"> &#160;&#160;&#160;&lt;&lt;modifier&gt;&gt; onlyAuthorizedCaller()</text>
<text text-anchor="start" x="1163.9" y="-321.7" font-family="Times,serif" font-size="14.00"> &#160;&#160;&#160;constructor(_authorizedCaller: address)</text>
<text text-anchor="start" x="1163.9" y="-304.9" font-family="Times,serif" font-size="14.00"> &#160;&#160;&#160;addStatement(definition: bytes32, price: Price): uint256 &lt;&lt;onlyAuthorizedCaller&gt;&gt;</text>
<text text-anchor="start" x="1163.9" y="-288.1" font-family="Times,serif" font-size="14.00"> &#160;&#160;&#160;getStatement(id: uint256): StatementData</text>
<text text-anchor="start" x="1163.9" y="-271.3" font-family="Times,serif" font-size="14.00"> &#160;&#160;&#160;updateStatement(id: uint256, price: Price) &lt;&lt;onlyAuthorizedCaller&gt;&gt;</text>
<text text-anchor="start" x="1163.9" y="-254.5" font-family="Times,serif" font-size="14.00"> &#160;&#160;&#160;updateStatement(id: uint256, definition: bytes32) &lt;&lt;onlyAuthorizedCaller&gt;&gt;</text>
<text text-anchor="start" x="1163.9" y="-237.7" font-family="Times,serif" font-size="14.00"> &#160;&#160;&#160;deleteStatement(id: uint256) &lt;&lt;onlyAuthorizedCaller&gt;&gt;</text>
</g>
<!-- 1&#45;&gt;2 -->
<g id="edge15" class="edge">
<title>1&#45;&gt;2</title>
<path fill="none" stroke="black" d="M1194.81,-192.67C1205.46,-202.3 1216.47,-212.26 1227.61,-222.34"/>
<polygon fill="black" stroke="black" points="1225.58,-225.22 1235.35,-229.33 1230.28,-220.03 1225.58,-225.22"/>
</g>
<!-- 2&#45;&gt;7 -->
<g id="edge23" class="edge">
<title>2&#45;&gt;7</title>
<path fill="none" stroke="black" stroke-dasharray="5,2" d="M1373.55,-539.12C1359.03,-644.53 1354.7,-785.09 1404.58,-897.6 1416.74,-925.02 1437.46,-949.26 1459.69,-969.4"/>
<polygon fill="black" stroke="black" points="1457.46,-972.09 1467.28,-976.07 1462.08,-966.83 1457.46,-972.09"/>
</g>
<!-- 2&#45;&gt;8 -->
<g id="edge21" class="edge">
<title>2&#45;&gt;8</title>
<path fill="none" stroke="black" d="M1410.01,-539.1C1417.28,-609.81 1433.53,-692.82 1468.58,-760.6 1473.82,-770.72 1480.69,-780.39 1488.26,-789.34"/>
<polygon fill="black" stroke="black" points="1485.82,-791.86 1495.08,-797.01 1491.05,-787.21 1485.82,-791.86"/>
</g>
<!-- 2&#45;&gt;9 -->
<g id="edge22" class="edge">
<title>2&#45;&gt;9</title>
<path fill="none" stroke="black" stroke-dasharray="5,2" d="M1366.88,-539.28C1364.75,-551.51 1362.94,-563.72 1361.58,-575.6 1345.35,-717.84 1346.35,-756.5 1370.58,-897.6 1389.17,-1005.82 1374.94,-1045.22 1437.58,-1135.4 1447.6,-1149.82 1460.86,-1162.74 1474.84,-1173.89"/>
<polygon fill="black" stroke="black" points="1473.07,-1176.95 1483.13,-1180.25 1477.33,-1171.39 1473.07,-1176.95"/>
</g>
<!-- 2&#45;&gt;10 -->
<g id="edge20" class="edge">
<title>2&#45;&gt;10</title>
<path fill="none" stroke="black" stroke-dasharray="5,2" d="M1575.1,-539.39C1589.41,-552.4 1603.55,-565.26 1617.04,-577.52"/>
<polygon fill="black" stroke="black" points="1614.71,-580.13 1624.46,-584.26 1619.41,-574.95 1614.71,-580.13"/>
</g>
</g>
</svg>
