<?xml version="1.0" encoding="UTF-8" standalone="no"?>
<!DOCTYPE svg PUBLIC "-//W3C//DTD SVG 1.1//EN"
 "http://www.w3.org/Graphics/SVG/1.1/DTD/svg11.dtd">
<!-- Generated by graphviz version 5.0.0 (20220707.1540)
 -->
<!-- Title: UmlClassDiagram Pages: 1 -->
<svg width="1203pt" height="1135pt"
 viewBox="0.00 0.00 1203.34 1134.60" xmlns="http://www.w3.org/2000/svg" xmlns:xlink="http://www.w3.org/1999/xlink">
<g id="graph0" class="graph" transform="scale(1 1) rotate(0) translate(4 1130.6)">
<title>UmlClassDiagram</title>
<polygon fill="white" stroke="transparent" points="-4,4 -4,-1130.6 1199.34,-1130.6 1199.34,4 -4,4"/>
<!-- 0 -->
<g id="node1" class="node">
<title>0</title>
<polygon fill="#f2f2f2" stroke="black" points="123.28,-576.1 123.28,-768.1 604.26,-768.1 604.26,-576.1 123.28,-576.1"/>
<text text-anchor="middle" x="363.77" y="-751.5" font-family="Times,serif" font-size="14.00">OrderContract</text>
<text text-anchor="middle" x="363.77" y="-734.7" font-family="Times,serif" font-size="14.00">contracts/order_contract.sol</text>
<polyline fill="none" stroke="black" points="123.28,-726.5 604.26,-726.5 "/>
<text text-anchor="start" x="131.28" y="-709.9" font-family="Times,serif" font-size="14.00">Public:</text>
<text text-anchor="start" x="131.28" y="-693.1" font-family="Times,serif" font-size="14.00"> &#160;&#160;orders: mapping(uint256=&gt;Order)</text>
<text text-anchor="start" x="131.28" y="-676.3" font-family="Times,serif" font-size="14.00"> &#160;&#160;nextOrderId: uint256</text>
<polyline fill="none" stroke="black" points="123.28,-668.1 604.26,-668.1 "/>
<text text-anchor="start" x="131.28" y="-651.5" font-family="Times,serif" font-size="14.00">Public:</text>
<text text-anchor="start" x="131.28" y="-634.7" font-family="Times,serif" font-size="14.00"> &#160;&#160;&#160;constructor()</text>
<text text-anchor="start" x="131.28" y="-617.9" font-family="Times,serif" font-size="14.00"> &#160;&#160;&#160;getOrder(orderId: uint256): Order</text>
<text text-anchor="start" x="131.28" y="-601.1" font-family="Times,serif" font-size="14.00"> &#160;&#160;&#160;createOrder(statementId: uint256, input: bytes32, price: uint256, buyer: address)</text>
<text text-anchor="start" x="131.28" y="-584.3" font-family="Times,serif" font-size="14.00"> &#160;&#160;&#160;closeOrder(orderId: uint256, proofId: uint256)</text>
</g>
<!-- 5 -->
<g id="node6" class="node">
<title>5</title>
<polygon fill="#f2f2f2" stroke="black" points="347.37,-1026.1 347.37,-1126.1 474.18,-1126.1 474.18,-1026.1 347.37,-1026.1"/>
<text text-anchor="middle" x="410.77" y="-1109.5" font-family="Times,serif" font-size="14.00">&lt;&lt;Enum&gt;&gt;</text>
<text text-anchor="middle" x="410.77" y="-1092.7" font-family="Times,serif" font-size="14.00">OrderStatus</text>
<text text-anchor="middle" x="410.77" y="-1075.9" font-family="Times,serif" font-size="14.00">contracts/structs.sol</text>
<polyline fill="none" stroke="black" points="347.37,-1067.7 474.18,-1067.7 "/>
<text text-anchor="start" x="355.37" y="-1051.1" font-family="Times,serif" font-size="14.00">OPEN: 0</text>
<text text-anchor="start" x="355.37" y="-1034.3" font-family="Times,serif" font-size="14.00">CLOSED: 1</text>
</g>
<!-- 0&#45;&gt;5 -->
<g id="edge2" class="edge">
<title>0&#45;&gt;5</title>
<path fill="none" stroke="black" stroke-dasharray="5,2" d="M363.15,-768.41C364.29,-831.64 368.79,-916.19 382.77,-989.6 384.43,-998.3 386.72,-1007.33 389.29,-1016.13"/>
<polygon fill="black" stroke="black" points="386.02,-1017.39 392.29,-1025.93 392.71,-1015.35 386.02,-1017.39"/>
</g>
<!-- 6 -->
<g id="node7" class="node">
<title>6</title>
<polygon fill="#f2f2f2" stroke="black" points="392.03,-805.1 392.03,-989.1 523.51,-989.1 523.51,-805.1 392.03,-805.1"/>
<text text-anchor="middle" x="457.77" y="-972.5" font-family="Times,serif" font-size="14.00">&lt;&lt;Struct&gt;&gt;</text>
<text text-anchor="middle" x="457.77" y="-955.7" font-family="Times,serif" font-size="14.00">Order</text>
<text text-anchor="middle" x="457.77" y="-938.9" font-family="Times,serif" font-size="14.00">contracts/structs.sol</text>
<polyline fill="none" stroke="black" points="392.03,-930.7 523.51,-930.7 "/>
<text text-anchor="start" x="400.03" y="-914.1" font-family="Times,serif" font-size="14.00">id: uint256</text>
<text text-anchor="start" x="400.03" y="-897.3" font-family="Times,serif" font-size="14.00">statementId: uint256</text>
<text text-anchor="start" x="400.03" y="-880.5" font-family="Times,serif" font-size="14.00">input: bytes32</text>
<text text-anchor="start" x="400.03" y="-863.7" font-family="Times,serif" font-size="14.00">price: uint256</text>
<text text-anchor="start" x="400.03" y="-846.9" font-family="Times,serif" font-size="14.00">buyer: address</text>
<text text-anchor="start" x="400.03" y="-830.1" font-family="Times,serif" font-size="14.00">status: OrderStatus</text>
<text text-anchor="start" x="400.03" y="-813.3" font-family="Times,serif" font-size="14.00">proofId: uint256</text>
</g>
<!-- 0&#45;&gt;6 -->
<g id="edge1" class="edge">
<title>0&#45;&gt;6</title>
<path fill="none" stroke="black" d="M403.91,-768.32C407.72,-777.37 411.6,-786.56 415.43,-795.66"/>
<polygon fill="black" stroke="black" points="412.3,-797.24 419.41,-805.09 418.75,-794.52 412.3,-797.24"/>
</g>
<!-- 1 -->
<g id="node2" class="node">
<title>1</title>
<polygon fill="#f2f2f2" stroke="black" points="53.87,-313.5 53.87,-539.1 673.67,-539.1 673.67,-313.5 53.87,-313.5"/>
<text text-anchor="middle" x="363.77" y="-522.5" font-family="Times,serif" font-size="14.00">ProofContract</text>
<text text-anchor="middle" x="363.77" y="-505.7" font-family="Times,serif" font-size="14.00">contracts/proof_contract.sol</text>
<polyline fill="none" stroke="black" points="53.87,-497.5 673.67,-497.5 "/>
<text text-anchor="start" x="61.87" y="-480.9" font-family="Times,serif" font-size="14.00">Private:</text>
<text text-anchor="start" x="61.87" y="-464.1" font-family="Times,serif" font-size="14.00"> &#160;&#160;orderContract: OrderContract</text>
<text text-anchor="start" x="61.87" y="-447.3" font-family="Times,serif" font-size="14.00">Public:</text>
<text text-anchor="start" x="61.87" y="-430.5" font-family="Times,serif" font-size="14.00"> &#160;&#160;proofs: mapping(uint256=&gt;Proof)</text>
<text text-anchor="start" x="61.87" y="-413.7" font-family="Times,serif" font-size="14.00"> &#160;&#160;nextProofId: uint256</text>
<polyline fill="none" stroke="black" points="53.87,-405.5 673.67,-405.5 "/>
<text text-anchor="start" x="61.87" y="-388.9" font-family="Times,serif" font-size="14.00">Public:</text>
<text text-anchor="start" x="61.87" y="-372.1" font-family="Times,serif" font-size="14.00"> &#160;&#160;&#160;constructor(_orderContract: OrderContract)</text>
<text text-anchor="start" x="61.87" y="-355.3" font-family="Times,serif" font-size="14.00"> &#160;&#160;&#160;getProof(proofId: uint256): Proof</text>
<text text-anchor="start" x="61.87" y="-338.5" font-family="Times,serif" font-size="14.00"> &#160;&#160;&#160;verifyProof(orderId: uint256, proof: bytes32[]): bool</text>
<text text-anchor="start" x="61.87" y="-321.7" font-family="Times,serif" font-size="14.00"> &#160;&#160;&#160;addProof(statementId: uint256, orderId: uint256, finalPrice: uint256, producer: address, proof: bytes32[])</text>
</g>
<!-- 1&#45;&gt;0 -->
<g id="edge4" class="edge">
<title>1&#45;&gt;0</title>
<path fill="none" stroke="black" d="M363.77,-539.21C363.77,-548.03 363.77,-556.91 363.77,-565.69"/>
<polygon fill="black" stroke="black" points="360.27,-565.92 363.77,-575.92 367.27,-565.92 360.27,-565.92"/>
</g>
<!-- 7 -->
<g id="node8" class="node">
<title>7</title>
<polygon fill="#f2f2f2" stroke="black" points="629.03,-588.5 629.03,-755.7 760.51,-755.7 760.51,-588.5 629.03,-588.5"/>
<text text-anchor="middle" x="694.77" y="-739.1" font-family="Times,serif" font-size="14.00">&lt;&lt;Struct&gt;&gt;</text>
<text text-anchor="middle" x="694.77" y="-722.3" font-family="Times,serif" font-size="14.00">Proof</text>
<text text-anchor="middle" x="694.77" y="-705.5" font-family="Times,serif" font-size="14.00">contracts/structs.sol</text>
<polyline fill="none" stroke="black" points="629.03,-697.3 760.51,-697.3 "/>
<text text-anchor="start" x="637.03" y="-680.7" font-family="Times,serif" font-size="14.00">id: uint256</text>
<text text-anchor="start" x="637.03" y="-663.9" font-family="Times,serif" font-size="14.00">statementId: uint256</text>
<text text-anchor="start" x="637.03" y="-647.1" font-family="Times,serif" font-size="14.00">orderId: uint256</text>
<text text-anchor="start" x="637.03" y="-630.3" font-family="Times,serif" font-size="14.00">finalPrice: uint256</text>
<text text-anchor="start" x="637.03" y="-613.5" font-family="Times,serif" font-size="14.00">producer: address</text>
<text text-anchor="start" x="637.03" y="-596.7" font-family="Times,serif" font-size="14.00">proof: bytes32[]</text>
</g>
<!-- 1&#45;&gt;7 -->
<g id="edge3" class="edge">
<title>1&#45;&gt;7</title>
<path fill="none" stroke="black" d="M565.14,-539.32C581.74,-550.9 597.85,-563.05 612.77,-575.6 615.61,-577.99 618.44,-580.49 621.24,-583.06"/>
<polygon fill="black" stroke="black" points="618.93,-585.69 628.59,-590.04 623.75,-580.62 618.93,-585.69"/>
</g>
<!-- 2 -->
<g id="node3" class="node">
<title>2</title>
<polygon fill="#f2f2f2" stroke="black" points="495.87,-0.5 495.87,-276.5 1115.67,-276.5 1115.67,-0.5 495.87,-0.5"/>
<text text-anchor="middle" x="805.77" y="-259.9" font-family="Times,serif" font-size="14.00">ProofMarketEndpoint</text>
<text text-anchor="middle" x="805.77" y="-243.1" font-family="Times,serif" font-size="14.00">contracts/proof_market_endpoint.sol</text>
<polyline fill="none" stroke="black" points="495.87,-234.9 1115.67,-234.9 "/>
<text text-anchor="start" x="503.87" y="-218.3" font-family="Times,serif" font-size="14.00">Private:</text>
<text text-anchor="start" x="503.87" y="-201.5" font-family="Times,serif" font-size="14.00"> &#160;&#160;orderContract: OrderContract</text>
<text text-anchor="start" x="503.87" y="-184.7" font-family="Times,serif" font-size="14.00"> &#160;&#160;proofContract: ProofContract</text>
<text text-anchor="start" x="503.87" y="-167.9" font-family="Times,serif" font-size="14.00"> &#160;&#160;statementContract: StatementContract</text>
<polyline fill="none" stroke="black" points="495.87,-159.7 1115.67,-159.7 "/>
<text text-anchor="start" x="503.87" y="-143.1" font-family="Times,serif" font-size="14.00">Public:</text>
<text text-anchor="start" x="503.87" y="-126.3" font-family="Times,serif" font-size="14.00"> &#160;&#160;&#160;constructor()</text>
<text text-anchor="start" x="503.87" y="-109.5" font-family="Times,serif" font-size="14.00"> &#160;&#160;&#160;getOrder(orderId: uint256): Order</text>
<text text-anchor="start" x="503.87" y="-92.7" font-family="Times,serif" font-size="14.00"> &#160;&#160;&#160;getProof(proofId: uint256): Proof</text>
<text text-anchor="start" x="503.87" y="-75.9" font-family="Times,serif" font-size="14.00"> &#160;&#160;&#160;getStatement(statementId: uint256): Statement</text>
<text text-anchor="start" x="503.87" y="-59.1" font-family="Times,serif" font-size="14.00"> &#160;&#160;&#160;createOrder(statementId: uint256, input: bytes32, price: uint256, buyer: address)</text>
<text text-anchor="start" x="503.87" y="-42.3" font-family="Times,serif" font-size="14.00"> &#160;&#160;&#160;addProof(statementId: uint256, orderId: uint256, finalPrice: uint256, producer: address, proof: bytes32[])</text>
<text text-anchor="start" x="503.87" y="-25.5" font-family="Times,serif" font-size="14.00"> &#160;&#160;&#160;addStatement(definition: bytes32)</text>
<text text-anchor="start" x="503.87" y="-8.7" font-family="Times,serif" font-size="14.00"> &#160;&#160;&#160;updateStatementPrice(statementId: uint256, price: uint256)</text>
</g>
<!-- 2&#45;&gt;0 -->
<g id="edge5" class="edge">
<title>2&#45;&gt;0</title>
<path fill="none" stroke="black" d="M495.7,-171.07C311.09,-196.99 101.91,-241.36 44.77,-313 -18.03,-391.73 -11.25,-455.91 44.77,-539.6 62.66,-566.33 87.08,-587.63 114.51,-604.61"/>
<polygon fill="black" stroke="black" points="112.73,-607.62 123.11,-609.74 116.32,-601.61 112.73,-607.62"/>
</g>
<!-- 2&#45;&gt;1 -->
<g id="edge6" class="edge">
<title>2&#45;&gt;1</title>
<path fill="none" stroke="black" d="M593.83,-276.54C577.76,-286.94 561.62,-297.37 545.75,-307.63"/>
<polygon fill="black" stroke="black" points="543.47,-304.94 536.97,-313.31 547.27,-310.82 543.47,-304.94"/>
</g>
<!-- 3 -->
<g id="node4" class="node">
<title>3</title>
<polygon fill="#f2f2f2" stroke="black" points="729.76,-330.3 729.76,-522.3 1091.78,-522.3 1091.78,-330.3 729.76,-330.3"/>
<text text-anchor="middle" x="910.77" y="-505.7" font-family="Times,serif" font-size="14.00">StatementContract</text>
<text text-anchor="middle" x="910.77" y="-488.9" font-family="Times,serif" font-size="14.00">contracts/statement_contract.sol</text>
<polyline fill="none" stroke="black" points="729.76,-480.7 1091.78,-480.7 "/>
<text text-anchor="start" x="737.76" y="-464.1" font-family="Times,serif" font-size="14.00">Public:</text>
<text text-anchor="start" x="737.76" y="-447.3" font-family="Times,serif" font-size="14.00"> &#160;&#160;statements: mapping(uint256=&gt;Statement)</text>
<text text-anchor="start" x="737.76" y="-430.5" font-family="Times,serif" font-size="14.00"> &#160;&#160;nextStatementId: uint256</text>
<polyline fill="none" stroke="black" points="729.76,-422.3 1091.78,-422.3 "/>
<text text-anchor="start" x="737.76" y="-405.7" font-family="Times,serif" font-size="14.00">Public:</text>
<text text-anchor="start" x="737.76" y="-388.9" font-family="Times,serif" font-size="14.00"> &#160;&#160;&#160;constructor()</text>
<text text-anchor="start" x="737.76" y="-372.1" font-family="Times,serif" font-size="14.00"> &#160;&#160;&#160;getStatement(statementId: uint256): Statement</text>
<text text-anchor="start" x="737.76" y="-355.3" font-family="Times,serif" font-size="14.00"> &#160;&#160;&#160;addStatement(definition: bytes32)</text>
<text text-anchor="start" x="737.76" y="-338.5" font-family="Times,serif" font-size="14.00"> &#160;&#160;&#160;updateStatementPrice(statementId: uint256, price: uint256)</text>
</g>
<!-- 2&#45;&gt;3 -->
<g id="edge7" class="edge">
<title>2&#45;&gt;3</title>
<path fill="none" stroke="black" d="M856.12,-276.54C861.51,-291.21 866.93,-305.96 872.15,-320.17"/>
<polygon fill="black" stroke="black" points="868.99,-321.73 875.73,-329.91 875.56,-319.32 868.99,-321.73"/>
</g>
<!-- 4 -->
<g id="node5" class="node">
<title>4</title>
<polygon fill="#f2f2f2" stroke="black" points="925.37,-613.7 925.37,-730.5 1052.18,-730.5 1052.18,-613.7 925.37,-613.7"/>
<text text-anchor="middle" x="988.77" y="-713.9" font-family="Times,serif" font-size="14.00">&lt;&lt;Struct&gt;&gt;</text>
<text text-anchor="middle" x="988.77" y="-697.1" font-family="Times,serif" font-size="14.00">Statement</text>
<text text-anchor="middle" x="988.77" y="-680.3" font-family="Times,serif" font-size="14.00">contracts/structs.sol</text>
<polyline fill="none" stroke="black" points="925.37,-672.1 1052.18,-672.1 "/>
<text text-anchor="start" x="933.37" y="-655.5" font-family="Times,serif" font-size="14.00">id: uint256</text>
<text text-anchor="start" x="933.37" y="-638.7" font-family="Times,serif" font-size="14.00">definition: bytes32</text>
<text text-anchor="start" x="933.37" y="-621.9" font-family="Times,serif" font-size="14.00">price: uint256</text>
</g>
<!-- 2&#45;&gt;4 -->
<g id="edge10" class="edge">
<title>2&#45;&gt;4</title>
<path fill="none" stroke="black" stroke-dasharray="5,2" d="M1074.57,-276.53C1084.47,-287.84 1093.32,-299.98 1100.77,-313 1150.78,-400.42 1135.56,-445.09 1100.77,-539.6 1091.76,-564.07 1075.95,-587.09 1059,-606.82"/>
<polygon fill="black" stroke="black" points="1056.21,-604.69 1052.2,-614.5 1061.45,-609.33 1056.21,-604.69"/>
</g>
<!-- 2&#45;&gt;6 -->
<g id="edge8" class="edge">
<title>2&#45;&gt;6</title>
<path fill="none" stroke="black" stroke-dasharray="5,2" d="M1103.61,-276.63C1113.8,-287.87 1122.96,-299.97 1130.77,-313 1236.14,-488.69 1211.88,-630.27 1060.77,-768.6 984.27,-838.63 677.88,-875.71 533.61,-889.59"/>
<polygon fill="black" stroke="black" points="533.14,-886.12 523.51,-890.55 533.8,-893.08 533.14,-886.12"/>
</g>
<!-- 2&#45;&gt;7 -->
<g id="edge9" class="edge">
<title>2&#45;&gt;7</title>
<path fill="none" stroke="black" stroke-dasharray="5,2" d="M732.7,-276.87C728.09,-288.88 724.01,-301.02 720.77,-313 697.04,-400.79 691.91,-504.81 691.89,-578.06"/>
<polygon fill="black" stroke="black" points="688.39,-578.2 691.92,-588.19 695.39,-578.18 688.39,-578.2"/>
</g>
<!-- 3&#45;&gt;4 -->
<g id="edge11" class="edge">
<title>3&#45;&gt;4</title>
<path fill="none" stroke="black" d="M941.26,-522.61C949.94,-549.72 959.21,-578.69 967.23,-603.77"/>
<polygon fill="black" stroke="black" points="963.97,-605.08 970.35,-613.54 970.64,-602.95 963.97,-605.08"/>
</g>
<!-- 6&#45;&gt;5 -->
<g id="edge12" class="edge">
<title>6&#45;&gt;5</title>
<path fill="none" stroke="black" stroke-dasharray="5,2" d="M433.58,-989.19C431.13,-998.42 428.69,-1007.62 426.37,-1016.37"/>
<polygon fill="black" stroke="black" points="422.98,-1015.48 423.8,-1026.05 429.75,-1017.28 422.98,-1015.48"/>
</g>
</g>
</svg>
