<?xml version="1.0" encoding="UTF-8" standalone="no"?>
<!DOCTYPE svg PUBLIC "-//W3C//DTD SVG 1.1//EN"
 "http://www.w3.org/Graphics/SVG/1.1/DTD/svg11.dtd">
<!-- Generated by graphviz version 5.0.0 (20220707.1540)
 -->
<!-- Title: UmlClassDiagram Pages: 1 -->
<svg width="1721pt" height="1465pt"
 viewBox="0.00 0.00 1720.84 1465.20" xmlns="http://www.w3.org/2000/svg" xmlns:xlink="http://www.w3.org/1999/xlink">
<g id="graph0" class="graph" transform="scale(1 1) rotate(0) translate(4 1461.2)">
<title>UmlClassDiagram</title>
<polygon fill="white" stroke="transparent" points="-4,4 -4,-1461.2 1716.84,-1461.2 1716.84,4 -4,4"/>
<!-- 4 -->
<g id="node1" class="node">
<title>4</title>
<polygon fill="#f2f2f2" stroke="black" points="249.4,-569.5 249.4,-669.5 440.73,-669.5 440.73,-569.5 249.4,-569.5"/>
<text text-anchor="middle" x="345.06" y="-652.9" font-family="Times,serif" font-size="14.00">&lt;&lt;Enum&gt;&gt;</text>
<text text-anchor="middle" x="345.06" y="-636.1" font-family="Times,serif" font-size="14.00">OrderStatus</text>
<text text-anchor="middle" x="345.06" y="-619.3" font-family="Times,serif" font-size="14.00">contracts/libraries/order_lib.sol</text>
<polyline fill="none" stroke="black" points="249.4,-611.1 440.73,-611.1 "/>
<text text-anchor="start" x="257.4" y="-594.5" font-family="Times,serif" font-size="14.00">OPEN: 0</text>
<text text-anchor="start" x="257.4" y="-577.7" font-family="Times,serif" font-size="14.00">CLOSED: 1</text>
</g>
<!-- 3 -->
<g id="node4" class="node">
<title>3</title>
<polygon fill="#f2f2f2" stroke="black" points="47.81,-794.5 47.81,-928.1 642.32,-928.1 642.32,-794.5 47.81,-794.5"/>
<text text-anchor="middle" x="345.06" y="-911.5" font-family="Times,serif" font-size="14.00">&lt;&lt;Library&gt;&gt;</text>
<text text-anchor="middle" x="345.06" y="-894.7" font-family="Times,serif" font-size="14.00">OrderLibrary</text>
<text text-anchor="middle" x="345.06" y="-877.9" font-family="Times,serif" font-size="14.00">contracts/libraries/order_lib.sol</text>
<polyline fill="none" stroke="black" points="47.81,-869.7 642.32,-869.7 "/>
<text text-anchor="start" x="55.81" y="-853.1" font-family="Times,serif" font-size="14.00">Internal:</text>
<text text-anchor="start" x="55.81" y="-836.3" font-family="Times,serif" font-size="14.00"> &#160;&#160;&#160;create(self: OrderStorage, statementId: uint256, input: bytes, price: uint256, buyer: address): uint256</text>
<text text-anchor="start" x="55.81" y="-819.5" font-family="Times,serif" font-size="14.00"> &#160;&#160;&#160;get(self: OrderStorage, id: uint256): Order</text>
<text text-anchor="start" x="55.81" y="-802.7" font-family="Times,serif" font-size="14.00"> &#160;&#160;&#160;update(self: OrderStorage, id: uint256, producer: address, proof: bytes)</text>
</g>
<!-- 4&#45;&gt;3 -->
<g id="edge3" class="edge">
<title>4&#45;&gt;3</title>
<path fill="none" stroke="black" d="M339.49,-669.61C338.26,-701.98 338,-745.09 338.69,-782.13"/>
<polygon fill="black" stroke="black" points="338.7,-782.44 342.83,-788.35 338.97,-794.43 334.83,-788.52 338.7,-782.44"/>
</g>
<!-- 5 -->
<g id="node2" class="node">
<title>5</title>
<polygon fill="#f2f2f2" stroke="black" points="249.4,-1118.9 249.4,-1319.7 440.73,-1319.7 440.73,-1118.9 249.4,-1118.9"/>
<text text-anchor="middle" x="345.06" y="-1303.1" font-family="Times,serif" font-size="14.00">&lt;&lt;Struct&gt;&gt;</text>
<text text-anchor="middle" x="345.06" y="-1286.3" font-family="Times,serif" font-size="14.00">Order</text>
<text text-anchor="middle" x="345.06" y="-1269.5" font-family="Times,serif" font-size="14.00">contracts/libraries/order_lib.sol</text>
<polyline fill="none" stroke="black" points="249.4,-1261.3 440.73,-1261.3 "/>
<text text-anchor="start" x="257.4" y="-1244.7" font-family="Times,serif" font-size="14.00">id: uint256</text>
<text text-anchor="start" x="257.4" y="-1227.9" font-family="Times,serif" font-size="14.00">statementId: uint256</text>
<text text-anchor="start" x="257.4" y="-1211.1" font-family="Times,serif" font-size="14.00">input: bytes</text>
<text text-anchor="start" x="257.4" y="-1194.3" font-family="Times,serif" font-size="14.00">price: uint256</text>
<text text-anchor="start" x="257.4" y="-1177.5" font-family="Times,serif" font-size="14.00">buyer: address</text>
<text text-anchor="start" x="257.4" y="-1160.7" font-family="Times,serif" font-size="14.00">status: OrderStatus</text>
<text text-anchor="start" x="257.4" y="-1143.9" font-family="Times,serif" font-size="14.00">producer: address</text>
<text text-anchor="start" x="257.4" y="-1127.1" font-family="Times,serif" font-size="14.00">proof: bytes</text>
</g>
<!-- 5&#45;&gt;4 -->
<g id="edge1" class="edge">
<title>5&#45;&gt;4</title>
<path fill="none" stroke="black" stroke-dasharray="5,2" d="M249.14,-1186.15C196.33,-1164.19 133.17,-1130.29 91.06,-1082.4 0.22,-979.06 -32.71,-894.6 39.06,-777.2 82.48,-706.19 169.39,-666.05 239.52,-644.21"/>
<polygon fill="black" stroke="black" points="240.75,-647.5 249.3,-641.25 238.72,-640.8 240.75,-647.5"/>
</g>
<!-- 5&#45;&gt;3 -->
<g id="edge4" class="edge">
<title>5&#45;&gt;3</title>
<path fill="none" stroke="black" d="M351.19,-1118.89C352.14,-1062.58 352,-993.13 350.77,-940.69"/>
<polygon fill="black" stroke="black" points="350.76,-940.42 346.61,-934.53 350.45,-928.43 354.61,-934.32 350.76,-940.42"/>
</g>
<!-- 6 -->
<g id="node3" class="node">
<title>6</title>
<polygon fill="#f2f2f2" stroke="black" points="100.11,-981.9 100.11,-1081.9 308.02,-1081.9 308.02,-981.9 100.11,-981.9"/>
<text text-anchor="middle" x="204.06" y="-1065.3" font-family="Times,serif" font-size="14.00">&lt;&lt;Struct&gt;&gt;</text>
<text text-anchor="middle" x="204.06" y="-1048.5" font-family="Times,serif" font-size="14.00">OrderStorage</text>
<text text-anchor="middle" x="204.06" y="-1031.7" font-family="Times,serif" font-size="14.00">contracts/libraries/order_lib.sol</text>
<polyline fill="none" stroke="black" points="100.11,-1023.5 308.02,-1023.5 "/>
<text text-anchor="start" x="108.11" y="-1006.9" font-family="Times,serif" font-size="14.00">orders: mapping(uint256=&gt;Order)</text>
<text text-anchor="start" x="108.11" y="-990.1" font-family="Times,serif" font-size="14.00">orderCounter: uint256</text>
</g>
<!-- 6&#45;&gt;5 -->
<g id="edge2" class="edge">
<title>6&#45;&gt;5</title>
<path fill="none" stroke="black" stroke-dasharray="5,2" d="M241.48,-1082.1C248.3,-1091.07 255.66,-1100.75 263.2,-1110.66"/>
<polygon fill="black" stroke="black" points="260.44,-1112.8 269.27,-1118.64 266.01,-1108.57 260.44,-1112.8"/>
</g>
<!-- 6&#45;&gt;3 -->
<g id="edge5" class="edge">
<title>6&#45;&gt;3</title>
<path fill="none" stroke="black" d="M251.25,-981.88C263.27,-968.06 276.29,-952.7 288.71,-937.72"/>
<polygon fill="black" stroke="black" points="288.72,-937.71 289.45,-930.54 296.35,-928.45 295.62,-935.63 288.72,-937.71"/>
</g>
<!-- 3&#45;&gt;4 -->
<g id="edge8" class="edge">
<title>3&#45;&gt;4</title>
<path fill="none" stroke="black" stroke-dasharray="5,2" d="M351.16,-794.43C352.09,-758.52 352.03,-714.43 350.98,-679.62"/>
<polygon fill="black" stroke="black" points="354.47,-679.48 350.64,-669.61 347.48,-679.72 354.47,-679.48"/>
</g>
<!-- 3&#45;&gt;5 -->
<g id="edge7" class="edge">
<title>3&#45;&gt;5</title>
<path fill="none" stroke="black" stroke-dasharray="5,2" d="M339.68,-928.43C338.24,-978.99 337.94,-1049.8 338.78,-1108.78"/>
<polygon fill="black" stroke="black" points="335.28,-1108.95 338.94,-1118.89 342.28,-1108.84 335.28,-1108.95"/>
</g>
<!-- 3&#45;&gt;6 -->
<g id="edge6" class="edge">
<title>3&#45;&gt;6</title>
<path fill="none" stroke="black" stroke-dasharray="5,2" d="M283.13,-928.45C270.33,-943.47 257.16,-959.3 245.3,-973.91"/>
<polygon fill="black" stroke="black" points="242.42,-971.9 238.86,-981.88 247.87,-976.3 242.42,-971.9"/>
</g>
<!-- 8 -->
<g id="node5" class="node">
<title>8</title>
<polygon fill="#f2f2f2" stroke="black" points="1200.34,-1160.9 1200.34,-1277.7 1415.79,-1277.7 1415.79,-1160.9 1200.34,-1160.9"/>
<text text-anchor="middle" x="1308.06" y="-1261.1" font-family="Times,serif" font-size="14.00">&lt;&lt;Struct&gt;&gt;</text>
<text text-anchor="middle" x="1308.06" y="-1244.3" font-family="Times,serif" font-size="14.00">StatementData</text>
<text text-anchor="middle" x="1308.06" y="-1227.5" font-family="Times,serif" font-size="14.00">contracts/libraries/statement_lib.sol</text>
<polyline fill="none" stroke="black" points="1200.34,-1219.3 1415.79,-1219.3 "/>
<text text-anchor="start" x="1208.34" y="-1202.7" font-family="Times,serif" font-size="14.00">id: uint256</text>
<text text-anchor="start" x="1208.34" y="-1185.9" font-family="Times,serif" font-size="14.00">definition: Definition</text>
<text text-anchor="start" x="1208.34" y="-1169.1" font-family="Times,serif" font-size="14.00">price: Price</text>
</g>
<!-- 10 -->
<g id="node7" class="node">
<title>10</title>
<polygon fill="#f2f2f2" stroke="black" points="1467.34,-1365.1 1467.34,-1448.3 1682.79,-1448.3 1682.79,-1365.1 1467.34,-1365.1"/>
<text text-anchor="middle" x="1575.06" y="-1431.7" font-family="Times,serif" font-size="14.00">&lt;&lt;Struct&gt;&gt;</text>
<text text-anchor="middle" x="1575.06" y="-1414.9" font-family="Times,serif" font-size="14.00">Price</text>
<text text-anchor="middle" x="1575.06" y="-1398.1" font-family="Times,serif" font-size="14.00">contracts/libraries/statement_lib.sol</text>
<polyline fill="none" stroke="black" points="1467.34,-1389.9 1682.79,-1389.9 "/>
<text text-anchor="start" x="1475.34" y="-1373.3" font-family="Times,serif" font-size="14.00">price: uint256</text>
</g>
<!-- 8&#45;&gt;10 -->
<g id="edge10" class="edge">
<title>8&#45;&gt;10</title>
<path fill="none" stroke="black" stroke-dasharray="5,2" d="M1391.08,-1277.95C1428.64,-1304.02 1472.45,-1334.44 1507.89,-1359.06"/>
<polygon fill="black" stroke="black" points="1506.04,-1362.03 1516.25,-1364.86 1510.03,-1356.28 1506.04,-1362.03"/>
</g>
<!-- 11 -->
<g id="node8" class="node">
<title>11</title>
<polygon fill="#f2f2f2" stroke="black" points="1055.34,-1356.7 1055.34,-1456.7 1270.79,-1456.7 1270.79,-1356.7 1055.34,-1356.7"/>
<text text-anchor="middle" x="1163.06" y="-1440.1" font-family="Times,serif" font-size="14.00">&lt;&lt;Struct&gt;&gt;</text>
<text text-anchor="middle" x="1163.06" y="-1423.3" font-family="Times,serif" font-size="14.00">Definition</text>
<text text-anchor="middle" x="1163.06" y="-1406.5" font-family="Times,serif" font-size="14.00">contracts/libraries/statement_lib.sol</text>
<polyline fill="none" stroke="black" points="1055.34,-1398.3 1270.79,-1398.3 "/>
<text text-anchor="start" x="1063.34" y="-1381.7" font-family="Times,serif" font-size="14.00">verificationKey: bytes</text>
<text text-anchor="start" x="1063.34" y="-1364.9" font-family="Times,serif" font-size="14.00">provingKey: bytes</text>
</g>
<!-- 8&#45;&gt;11 -->
<g id="edge9" class="edge">
<title>8&#45;&gt;11</title>
<path fill="none" stroke="black" stroke-dasharray="5,2" d="M1262.98,-1277.95C1245.43,-1300.38 1225.37,-1326.03 1207.85,-1348.43"/>
<polygon fill="black" stroke="black" points="1204.93,-1346.49 1201.52,-1356.53 1210.44,-1350.81 1204.93,-1346.49"/>
</g>
<!-- 7 -->
<g id="node9" class="node">
<title>7</title>
<polygon fill="#f2f2f2" stroke="black" points="1091.28,-777.7 1091.28,-944.9 1524.85,-944.9 1524.85,-777.7 1091.28,-777.7"/>
<text text-anchor="middle" x="1308.06" y="-928.3" font-family="Times,serif" font-size="14.00">&lt;&lt;Library&gt;&gt;</text>
<text text-anchor="middle" x="1308.06" y="-911.5" font-family="Times,serif" font-size="14.00">StatementLibrary</text>
<text text-anchor="middle" x="1308.06" y="-894.7" font-family="Times,serif" font-size="14.00">contracts/libraries/statement_lib.sol</text>
<polyline fill="none" stroke="black" points="1091.28,-886.5 1524.85,-886.5 "/>
<text text-anchor="start" x="1099.28" y="-869.9" font-family="Times,serif" font-size="14.00">Internal:</text>
<text text-anchor="start" x="1099.28" y="-853.1" font-family="Times,serif" font-size="14.00"> &#160;&#160;&#160;add(self: StatementStorage, definition: Definition, price: Price): uint256</text>
<text text-anchor="start" x="1099.28" y="-836.3" font-family="Times,serif" font-size="14.00"> &#160;&#160;&#160;get(self: StatementStorage, id: uint256): StatementData</text>
<text text-anchor="start" x="1099.28" y="-819.5" font-family="Times,serif" font-size="14.00"> &#160;&#160;&#160;update(self: StatementStorage, id: uint256, price: Price)</text>
<text text-anchor="start" x="1099.28" y="-802.7" font-family="Times,serif" font-size="14.00"> &#160;&#160;&#160;update(self: StatementStorage, id: uint256, definition: Definition)</text>
<text text-anchor="start" x="1099.28" y="-785.9" font-family="Times,serif" font-size="14.00"> &#160;&#160;&#160;remove(self: StatementStorage, id: uint256)</text>
</g>
<!-- 8&#45;&gt;7 -->
<g id="edge12" class="edge">
<title>8&#45;&gt;7</title>
<path fill="none" stroke="black" d="M1284.05,-1160.61C1273.25,-1137.11 1261.8,-1109.21 1256.06,-1082.4 1246.67,-1038.51 1245.54,-1025.04 1256.06,-981.4 1258.09,-973.02 1260.81,-964.56 1263.95,-956.23"/>
<polygon fill="black" stroke="black" points="1264,-956.09 1262.52,-949.04 1268.47,-944.96 1269.95,-952.02 1264,-956.09"/>
</g>
<!-- 9 -->
<g id="node6" class="node">
<title>9</title>
<polygon fill="#f2f2f2" stroke="black" points="1256.17,-981.9 1256.17,-1081.9 1537.96,-1081.9 1537.96,-981.9 1256.17,-981.9"/>
<text text-anchor="middle" x="1397.06" y="-1065.3" font-family="Times,serif" font-size="14.00">&lt;&lt;Struct&gt;&gt;</text>
<text text-anchor="middle" x="1397.06" y="-1048.5" font-family="Times,serif" font-size="14.00">StatementStorage</text>
<text text-anchor="middle" x="1397.06" y="-1031.7" font-family="Times,serif" font-size="14.00">contracts/libraries/statement_lib.sol</text>
<polyline fill="none" stroke="black" points="1256.17,-1023.5 1537.96,-1023.5 "/>
<text text-anchor="start" x="1264.17" y="-1006.9" font-family="Times,serif" font-size="14.00">statements: mapping(uint256=&gt;StatementData)</text>
<text text-anchor="start" x="1264.17" y="-990.1" font-family="Times,serif" font-size="14.00">statementCounter: uint256</text>
</g>
<!-- 9&#45;&gt;8 -->
<g id="edge11" class="edge">
<title>9&#45;&gt;8</title>
<path fill="none" stroke="black" stroke-dasharray="5,2" d="M1373.45,-1082.1C1363.26,-1103.31 1351.19,-1128.46 1340.21,-1151.33"/>
<polygon fill="black" stroke="black" points="1336.92,-1150.11 1335.74,-1160.64 1343.23,-1153.14 1336.92,-1150.11"/>
</g>
<!-- 9&#45;&gt;7 -->
<g id="edge13" class="edge">
<title>9&#45;&gt;7</title>
<path fill="none" stroke="black" d="M1377.26,-981.63C1373.22,-973.46 1368.8,-964.77 1364.21,-955.94"/>
<polygon fill="black" stroke="black" points="1364.11,-955.74 1357.78,-952.29 1358.53,-945.12 1364.86,-948.57 1364.11,-955.74"/>
</g>
<!-- 10&#45;&gt;7 -->
<g id="edge14" class="edge">
<title>10&#45;&gt;7</title>
<path fill="none" stroke="black" d="M1589.74,-1365.01C1610.38,-1284.23 1635.72,-1101.09 1556.06,-981.4 1549.32,-971.27 1541.45,-961.96 1532.74,-953.42"/>
<polygon fill="black" stroke="black" points="1532.58,-953.27 1525.46,-952.14 1523.76,-945.13 1530.88,-946.26 1532.58,-953.27"/>
</g>
<!-- 11&#45;&gt;7 -->
<g id="edge15" class="edge">
<title>11&#45;&gt;7</title>
<path fill="none" stroke="black" d="M1168.79,-1356.54C1174.32,-1274.91 1186.01,-1107.87 1244.06,-981.4 1247.94,-972.95 1252.29,-964.37 1256.86,-955.87"/>
<polygon fill="black" stroke="black" points="1256.96,-955.69 1256.35,-948.51 1262.74,-945.18 1263.36,-952.36 1256.96,-955.69"/>
</g>
<!-- 7&#45;&gt;8 -->
<g id="edge19" class="edge">
<title>7&#45;&gt;8</title>
<path fill="none" stroke="black" stroke-dasharray="5,2" d="M1250.64,-944.96C1245.42,-956.86 1241.01,-969.2 1238.06,-981.4 1227.54,-1025.04 1228.67,-1038.51 1238.06,-1082.4 1243.09,-1105.85 1252.48,-1130.15 1262.84,-1151.6"/>
<polygon fill="black" stroke="black" points="1259.74,-1153.22 1267.33,-1160.61 1266,-1150.1 1259.74,-1153.22"/>
</g>
<!-- 7&#45;&gt;9 -->
<g id="edge16" class="edge">
<title>7&#45;&gt;9</title>
<path fill="none" stroke="black" stroke-dasharray="5,2" d="M1345.03,-945.12C1349.97,-954.49 1355.03,-963.88 1359.96,-972.83"/>
<polygon fill="black" stroke="black" points="1356.93,-974.59 1364.85,-981.63 1363.05,-971.19 1356.93,-974.59"/>
</g>
<!-- 7&#45;&gt;10 -->
<g id="edge18" class="edge">
<title>7&#45;&gt;10</title>
<path fill="none" stroke="black" stroke-dasharray="5,2" d="M1505.81,-945.13C1518.08,-955.85 1529.08,-967.89 1538.06,-981.4 1614.61,-1096.41 1594.2,-1270.02 1581.21,-1355.09"/>
<polygon fill="black" stroke="black" points="1577.74,-1354.59 1579.66,-1365.01 1584.66,-1355.67 1577.74,-1354.59"/>
</g>
<!-- 7&#45;&gt;11 -->
<g id="edge17" class="edge">
<title>7&#45;&gt;11</title>
<path fill="none" stroke="black" stroke-dasharray="5,2" d="M1244.92,-945.18C1238.05,-957.09 1231.58,-969.39 1226.06,-981.4 1170.34,-1102.81 1157.33,-1261.59 1157.62,-1346.33"/>
<polygon fill="black" stroke="black" points="1154.12,-1346.57 1157.72,-1356.54 1161.12,-1346.5 1154.12,-1346.57"/>
</g>
<!-- 12 -->
<g id="node10" class="node">
<title>12</title>
<polygon fill="#f2f2f2" stroke="black" points="660.18,-811.3 660.18,-911.3 961.95,-911.3 961.95,-811.3 660.18,-811.3"/>
<text text-anchor="middle" x="811.06" y="-894.7" font-family="Times,serif" font-size="14.00">&lt;&lt;Library&gt;&gt;</text>
<text text-anchor="middle" x="811.06" y="-877.9" font-family="Times,serif" font-size="14.00">Tools</text>
<text text-anchor="middle" x="811.06" y="-861.1" font-family="Times,serif" font-size="14.00">contracts/libraries/tools.sol</text>
<polyline fill="none" stroke="black" points="660.18,-852.9 961.95,-852.9 "/>
<text text-anchor="start" x="668.18" y="-836.3" font-family="Times,serif" font-size="14.00">Internal:</text>
<text text-anchor="start" x="668.18" y="-819.5" font-family="Times,serif" font-size="14.00"> &#160;&#160;&#160;verifyProof(orderId: uint256, proof: bytes): bool</text>
</g>
<!-- 13 -->
<g id="node11" class="node">
<title>13</title>
<polygon fill="#f2f2f2" stroke="black" points="1261.82,-180.9 1261.82,-280.9 1584.31,-280.9 1584.31,-180.9 1261.82,-180.9"/>
<text text-anchor="middle" x="1423.06" y="-264.3" font-family="Times,serif" font-size="14.00">MockTocken</text>
<text text-anchor="middle" x="1423.06" y="-247.5" font-family="Times,serif" font-size="14.00">contracts/mock/mock_erc20_contract.sol</text>
<polyline fill="none" stroke="black" points="1261.82,-239.3 1584.31,-239.3 "/>
<text text-anchor="start" x="1269.82" y="-222.7" font-family="Times,serif" font-size="14.00">Public:</text>
<text text-anchor="start" x="1269.82" y="-205.9" font-family="Times,serif" font-size="14.00"> &#160;&#160;&#160;constructor()</text>
<text text-anchor="start" x="1269.82" y="-189.1" font-family="Times,serif" font-size="14.00"> &#160;&#160;&#160;mint(to: address, amount: uint256) &lt;&lt;onlyOwner&gt;&gt;</text>
</g>
<!-- 0 -->
<g id="node12" class="node">
<title>0</title>
<polygon fill="#f2f2f2" stroke="black" points="496.61,-506.7 496.61,-732.3 1067.52,-732.3 1067.52,-506.7 496.61,-506.7"/>
<text text-anchor="middle" x="782.06" y="-715.7" font-family="Times,serif" font-size="14.00">OrderContract</text>
<text text-anchor="middle" x="782.06" y="-698.9" font-family="Times,serif" font-size="14.00">contracts/order_contract.sol</text>
<polyline fill="none" stroke="black" points="496.61,-690.7 1067.52,-690.7 "/>
<text text-anchor="start" x="504.61" y="-674.1" font-family="Times,serif" font-size="14.00">Private:</text>
<text text-anchor="start" x="504.61" y="-657.3" font-family="Times,serif" font-size="14.00"> &#160;&#160;orderStorage: OrderLibrary.OrderStorage</text>
<text text-anchor="start" x="504.61" y="-640.5" font-family="Times,serif" font-size="14.00">Public:</text>
<text text-anchor="start" x="504.61" y="-623.7" font-family="Times,serif" font-size="14.00"> &#160;&#160;token: IERC20</text>
<text text-anchor="start" x="504.61" y="-606.9" font-family="Times,serif" font-size="14.00"> &#160;&#160;AUTHORIZED_CALLER_ROLE: bytes32</text>
<polyline fill="none" stroke="black" points="496.61,-598.7 1067.52,-598.7 "/>
<text text-anchor="start" x="504.61" y="-582.1" font-family="Times,serif" font-size="14.00">Public:</text>
<text text-anchor="start" x="504.61" y="-565.3" font-family="Times,serif" font-size="14.00"> &#160;&#160;&#160;constructor(_authorizedCaller: address, _token: address)</text>
<text text-anchor="start" x="504.61" y="-548.5" font-family="Times,serif" font-size="14.00"> &#160;&#160;&#160;create(statementId: uint256, input: bytes, price: uint256, buyer: address): uint256 &lt;&lt;onlyRole&gt;&gt;</text>
<text text-anchor="start" x="504.61" y="-531.7" font-family="Times,serif" font-size="14.00"> &#160;&#160;&#160;get(id: uint256): OrderLibrary.Order</text>
<text text-anchor="start" x="504.61" y="-514.9" font-family="Times,serif" font-size="14.00"> &#160;&#160;&#160;close(id: uint256, proof: bytes, finalPrice: uint256, producer: address) &lt;&lt;onlyRole&gt;&gt;</text>
</g>
<!-- 0&#45;&gt;3 -->
<g id="edge20" class="edge">
<title>0&#45;&gt;3</title>
<path fill="none" stroke="black" d="M578.28,-732.33C542.89,-751.75 506.98,-771.45 474.29,-789.39"/>
<polygon fill="black" stroke="black" points="472.24,-786.52 465.16,-794.4 475.61,-792.66 472.24,-786.52"/>
</g>
<!-- 0&#45;&gt;12 -->
<g id="edge21" class="edge">
<title>0&#45;&gt;12</title>
<path fill="none" stroke="black" stroke-dasharray="5,2" d="M795.59,-732.33C798.47,-756.15 801.4,-780.39 803.93,-801.28"/>
<polygon fill="black" stroke="black" points="800.46,-801.74 805.13,-811.25 807.41,-800.9 800.46,-801.74"/>
</g>
<!-- 1 -->
<g id="node13" class="node">
<title>1</title>
<polygon fill="#f2f2f2" stroke="black" points="632.78,-0.5 632.78,-461.3 1243.35,-461.3 1243.35,-0.5 632.78,-0.5"/>
<text text-anchor="middle" x="938.06" y="-444.7" font-family="Times,serif" font-size="14.00">ProofMarketEndpoint</text>
<text text-anchor="middle" x="938.06" y="-427.9" font-family="Times,serif" font-size="14.00">contracts/proof_market_endpoint.sol</text>
<polyline fill="none" stroke="black" points="632.78,-419.7 1243.35,-419.7 "/>
<text text-anchor="start" x="640.78" y="-403.1" font-family="Times,serif" font-size="14.00">Public:</text>
<text text-anchor="start" x="640.78" y="-386.3" font-family="Times,serif" font-size="14.00"> &#160;&#160;token: IERC20</text>
<text text-anchor="start" x="640.78" y="-369.5" font-family="Times,serif" font-size="14.00"> &#160;&#160;statementContract: StatementContract</text>
<text text-anchor="start" x="640.78" y="-352.7" font-family="Times,serif" font-size="14.00"> &#160;&#160;orderContract: OrderContract</text>
<text text-anchor="start" x="640.78" y="-335.9" font-family="Times,serif" font-size="14.00"> &#160;&#160;OWNER_ROLE: bytes32</text>
<text text-anchor="start" x="640.78" y="-319.1" font-family="Times,serif" font-size="14.00"> &#160;&#160;RELAYER_ROLE: bytes32</text>
<polyline fill="none" stroke="black" points="632.78,-310.9 1243.35,-310.9 "/>
<text text-anchor="start" x="640.78" y="-294.3" font-family="Times,serif" font-size="14.00">Public:</text>
<text text-anchor="start" x="640.78" y="-277.5" font-family="Times,serif" font-size="14.00"> &#160;&#160;&#160;&lt;&lt;event&gt;&gt; OrderCreated(id: uint256, statementId: uint256, input: bytes, price: uint256, buyer: address)</text>
<text text-anchor="start" x="640.78" y="-260.7" font-family="Times,serif" font-size="14.00"> &#160;&#160;&#160;&lt;&lt;event&gt;&gt; OrderClosed(id: uint256, producer: address, finalPrice: uint256, proof: bytes)</text>
<text text-anchor="start" x="640.78" y="-243.9" font-family="Times,serif" font-size="14.00"> &#160;&#160;&#160;&lt;&lt;event&gt;&gt; StatementAdded(id: uint256, definition: StatementLibrary.Definition)</text>
<text text-anchor="start" x="640.78" y="-227.1" font-family="Times,serif" font-size="14.00"> &#160;&#160;&#160;&lt;&lt;event&gt;&gt; StatementDefinitionUpdated(id: uint256, definition: StatementLibrary.Definition)</text>
<text text-anchor="start" x="640.78" y="-210.3" font-family="Times,serif" font-size="14.00"> &#160;&#160;&#160;&lt;&lt;event&gt;&gt; StatementPriceUpdated(id: uint256, price: StatementLibrary.Price)</text>
<text text-anchor="start" x="640.78" y="-193.5" font-family="Times,serif" font-size="14.00"> &#160;&#160;&#160;&lt;&lt;event&gt;&gt; StatementRemoved(id: uint256)</text>
<text text-anchor="start" x="640.78" y="-176.7" font-family="Times,serif" font-size="14.00"> &#160;&#160;&#160;constructor(_token: IERC20)</text>
<text text-anchor="start" x="640.78" y="-159.9" font-family="Times,serif" font-size="14.00"> &#160;&#160;&#160;grantRelayer(relayer: address) &lt;&lt;onlyRole&gt;&gt;</text>
<text text-anchor="start" x="640.78" y="-143.1" font-family="Times,serif" font-size="14.00"> &#160;&#160;&#160;revokeRelayer(relayer: address) &lt;&lt;onlyRole&gt;&gt;</text>
<text text-anchor="start" x="640.78" y="-126.3" font-family="Times,serif" font-size="14.00"> &#160;&#160;&#160;getOrder(orderId: uint256): OrderLibrary.Order</text>
<text text-anchor="start" x="640.78" y="-109.5" font-family="Times,serif" font-size="14.00"> &#160;&#160;&#160;createOrder(statementId: uint256, input: bytes, price: uint256): uint256</text>
<text text-anchor="start" x="640.78" y="-92.7" font-family="Times,serif" font-size="14.00"> &#160;&#160;&#160;closeOrder(orderId: uint256, proof: bytes, finalPrice: uint256, producer: address) &lt;&lt;onlyRole&gt;&gt;</text>
<text text-anchor="start" x="640.78" y="-75.9" font-family="Times,serif" font-size="14.00"> &#160;&#160;&#160;getStatement(id: uint256): StatementLibrary.StatementData</text>
<text text-anchor="start" x="640.78" y="-59.1" font-family="Times,serif" font-size="14.00"> &#160;&#160;&#160;addStatement(definition: StatementLibrary.Definition, price: StatementLibrary.Price) &lt;&lt;onlyRole&gt;&gt;</text>
<text text-anchor="start" x="640.78" y="-42.3" font-family="Times,serif" font-size="14.00"> &#160;&#160;&#160;updateStatementDefinition(id: uint256, definition: StatementLibrary.Definition) &lt;&lt;onlyRole&gt;&gt;</text>
<text text-anchor="start" x="640.78" y="-25.5" font-family="Times,serif" font-size="14.00"> &#160;&#160;&#160;updateStatementPrice(id: uint256, price: StatementLibrary.Price) &lt;&lt;onlyRole&gt;&gt;</text>
<text text-anchor="start" x="640.78" y="-8.7" font-family="Times,serif" font-size="14.00"> &#160;&#160;&#160;removeStatement(id: uint256) &lt;&lt;onlyRole&gt;&gt;</text>
</g>
<!-- 1&#45;&gt;3 -->
<g id="edge25" class="edge">
<title>1&#45;&gt;3</title>
<path fill="none" stroke="black" stroke-dasharray="5,2" d="M632.53,-362.16C576.92,-398.57 524.93,-443.45 488.06,-497.8 426.61,-588.41 496.57,-642.08 450.06,-741.2 442.67,-756.95 432.55,-772.17 421.48,-786.17"/>
<polygon fill="black" stroke="black" points="418.48,-784.31 414.87,-794.27 423.9,-788.73 418.48,-784.31"/>
</g>
<!-- 1&#45;&gt;7 -->
<g id="edge24" class="edge">
<title>1&#45;&gt;7</title>
<path fill="none" stroke="black" stroke-dasharray="5,2" d="M1062.92,-461.63C1067.71,-473.71 1072.14,-485.82 1076.06,-497.8 1110.17,-601.84 1053.37,-650.07 1114.06,-741.2 1121.07,-751.71 1129.34,-761.46 1138.47,-770.46"/>
<polygon fill="black" stroke="black" points="1136.28,-773.21 1145.96,-777.52 1141.08,-768.11 1136.28,-773.21"/>
</g>
<!-- 1&#45;&gt;0 -->
<g id="edge23" class="edge">
<title>1&#45;&gt;0</title>
<path fill="none" stroke="black" d="M845.4,-461.53C840.54,-473.58 835.76,-485.44 831.13,-496.9"/>
<polygon fill="black" stroke="black" points="827.78,-495.85 827.28,-506.44 834.27,-498.47 827.78,-495.85"/>
</g>
<!-- 2 -->
<g id="node14" class="node">
<title>2</title>
<polygon fill="#f2f2f2" stroke="black" points="1123.29,-498.3 1123.29,-740.7 1712.84,-740.7 1712.84,-498.3 1123.29,-498.3"/>
<text text-anchor="middle" x="1418.06" y="-724.1" font-family="Times,serif" font-size="14.00">StatementContract</text>
<text text-anchor="middle" x="1418.06" y="-707.3" font-family="Times,serif" font-size="14.00">contracts/statement_contract.sol</text>
<polyline fill="none" stroke="black" points="1123.29,-699.1 1712.84,-699.1 "/>
<text text-anchor="start" x="1131.29" y="-682.5" font-family="Times,serif" font-size="14.00">Private:</text>
<text text-anchor="start" x="1131.29" y="-665.7" font-family="Times,serif" font-size="14.00"> &#160;&#160;statementStorage: StatementLibrary.StatementStorage</text>
<text text-anchor="start" x="1131.29" y="-648.9" font-family="Times,serif" font-size="14.00">Public:</text>
<text text-anchor="start" x="1131.29" y="-632.1" font-family="Times,serif" font-size="14.00"> &#160;&#160;AUTHORIZED_CALLER_ROLE: bytes32</text>
<polyline fill="none" stroke="black" points="1123.29,-623.9 1712.84,-623.9 "/>
<text text-anchor="start" x="1131.29" y="-607.3" font-family="Times,serif" font-size="14.00">Public:</text>
<text text-anchor="start" x="1131.29" y="-590.5" font-family="Times,serif" font-size="14.00"> &#160;&#160;&#160;constructor(_authorizedCaller: address)</text>
<text text-anchor="start" x="1131.29" y="-573.7" font-family="Times,serif" font-size="14.00"> &#160;&#160;&#160;add(definition: StatementLibrary.Definition, price: StatementLibrary.Price): uint256 &lt;&lt;onlyRole&gt;&gt;</text>
<text text-anchor="start" x="1131.29" y="-556.9" font-family="Times,serif" font-size="14.00"> &#160;&#160;&#160;get(id: uint256): StatementLibrary.StatementData</text>
<text text-anchor="start" x="1131.29" y="-540.1" font-family="Times,serif" font-size="14.00"> &#160;&#160;&#160;update(id: uint256, price: StatementLibrary.Price) &lt;&lt;onlyRole&gt;&gt;</text>
<text text-anchor="start" x="1131.29" y="-523.3" font-family="Times,serif" font-size="14.00"> &#160;&#160;&#160;update(id: uint256, definition: StatementLibrary.Definition) &lt;&lt;onlyRole&gt;&gt;</text>
<text text-anchor="start" x="1131.29" y="-506.5" font-family="Times,serif" font-size="14.00"> &#160;&#160;&#160;remove(id: uint256) &lt;&lt;onlyRole&gt;&gt;</text>
</g>
<!-- 1&#45;&gt;2 -->
<g id="edge22" class="edge">
<title>1&#45;&gt;2</title>
<path fill="none" stroke="black" d="M1223.18,-461.53C1235.91,-471.79 1248.47,-481.9 1260.7,-491.76"/>
<polygon fill="black" stroke="black" points="1258.71,-494.64 1268.69,-498.19 1263.1,-489.19 1258.71,-494.64"/>
</g>
<!-- 2&#45;&gt;7 -->
<g id="edge26" class="edge">
<title>2&#45;&gt;7</title>
<path fill="none" stroke="black" d="M1362.9,-740.75C1358.69,-749.94 1354.47,-759.14 1350.35,-768.11"/>
<polygon fill="black" stroke="black" points="1347.09,-766.82 1346.11,-777.37 1353.46,-769.74 1347.09,-766.82"/>
</g>
</g>
</svg>
