<?xml version="1.0" encoding="UTF-8" standalone="no"?>
<!DOCTYPE svg PUBLIC "-//W3C//DTD SVG 1.1//EN"
 "http://www.w3.org/Graphics/SVG/1.1/DTD/svg11.dtd">
<!-- Generated by graphviz version 5.0.0 (20220707.1540)
 -->
<!-- Title: UmlClassDiagram Pages: 1 -->
<svg width="1939pt" height="1247pt"
 viewBox="0.00 0.00 1939.36 1246.80" xmlns="http://www.w3.org/2000/svg" xmlns:xlink="http://www.w3.org/1999/xlink">
<g id="graph0" class="graph" transform="scale(1 1) rotate(0) translate(4 1242.8)">
<title>UmlClassDiagram</title>
<polygon fill="white" stroke="transparent" points="-4,4 -4,-1242.8 1935.36,-1242.8 1935.36,4 -4,4"/>
<!-- 3 -->
<g id="node1" class="node">
<title>3</title>
<polygon fill="#f2f2f2" stroke="black" points="740.92,-1138.3 740.92,-1238.3 932.25,-1238.3 932.25,-1138.3 740.92,-1138.3"/>
<text text-anchor="middle" x="836.58" y="-1221.7" font-family="Times,serif" font-size="14.00">&lt;&lt;Enum&gt;&gt;</text>
<text text-anchor="middle" x="836.58" y="-1204.9" font-family="Times,serif" font-size="14.00">OrderStatus</text>
<text text-anchor="middle" x="836.58" y="-1188.1" font-family="Times,serif" font-size="14.00">contracts/libraries/order_lib.sol</text>
<polyline fill="none" stroke="black" points="740.92,-1179.9 932.25,-1179.9 "/>
<text text-anchor="start" x="748.92" y="-1163.3" font-family="Times,serif" font-size="14.00">OPEN: 0</text>
<text text-anchor="start" x="748.92" y="-1146.5" font-family="Times,serif" font-size="14.00">CLOSED: 1</text>
</g>
<!-- 4 -->
<g id="node2" class="node">
<title>4</title>
<polygon fill="#f2f2f2" stroke="black" points="740.92,-900.5 740.92,-1101.3 932.25,-1101.3 932.25,-900.5 740.92,-900.5"/>
<text text-anchor="middle" x="836.58" y="-1084.7" font-family="Times,serif" font-size="14.00">&lt;&lt;Struct&gt;&gt;</text>
<text text-anchor="middle" x="836.58" y="-1067.9" font-family="Times,serif" font-size="14.00">Order</text>
<text text-anchor="middle" x="836.58" y="-1051.1" font-family="Times,serif" font-size="14.00">contracts/libraries/order_lib.sol</text>
<polyline fill="none" stroke="black" points="740.92,-1042.9 932.25,-1042.9 "/>
<text text-anchor="start" x="748.92" y="-1026.3" font-family="Times,serif" font-size="14.00">id: uint256</text>
<text text-anchor="start" x="748.92" y="-1009.5" font-family="Times,serif" font-size="14.00">statementId: uint256</text>
<text text-anchor="start" x="748.92" y="-992.7" font-family="Times,serif" font-size="14.00">input: bytes32</text>
<text text-anchor="start" x="748.92" y="-975.9" font-family="Times,serif" font-size="14.00">price: uint256</text>
<text text-anchor="start" x="748.92" y="-959.1" font-family="Times,serif" font-size="14.00">buyer: address</text>
<text text-anchor="start" x="748.92" y="-942.3" font-family="Times,serif" font-size="14.00">status: OrderStatus</text>
<text text-anchor="start" x="748.92" y="-925.5" font-family="Times,serif" font-size="14.00">producer: address</text>
<text text-anchor="start" x="748.92" y="-908.7" font-family="Times,serif" font-size="14.00">proof: bytes32[]</text>
</g>
<!-- 4&#45;&gt;3 -->
<g id="edge1" class="edge">
<title>4&#45;&gt;3</title>
<path fill="none" stroke="black" stroke-dasharray="5,2" d="M836.58,-1101.38C836.58,-1110.42 836.58,-1119.37 836.58,-1127.89"/>
<polygon fill="black" stroke="black" points="833.08,-1128.05 836.58,-1138.05 840.08,-1128.05 833.08,-1128.05"/>
</g>
<!-- 5 -->
<g id="node3" class="node">
<title>5</title>
<polygon fill="#f2f2f2" stroke="black" points="565.63,-763.5 565.63,-863.5 773.54,-863.5 773.54,-763.5 565.63,-763.5"/>
<text text-anchor="middle" x="669.58" y="-846.9" font-family="Times,serif" font-size="14.00">&lt;&lt;Struct&gt;&gt;</text>
<text text-anchor="middle" x="669.58" y="-830.1" font-family="Times,serif" font-size="14.00">OrderStorage</text>
<text text-anchor="middle" x="669.58" y="-813.3" font-family="Times,serif" font-size="14.00">contracts/libraries/order_lib.sol</text>
<polyline fill="none" stroke="black" points="565.63,-805.1 773.54,-805.1 "/>
<text text-anchor="start" x="573.63" y="-788.5" font-family="Times,serif" font-size="14.00">orders: mapping(uint256=&gt;Order)</text>
<text text-anchor="start" x="573.63" y="-771.7" font-family="Times,serif" font-size="14.00">orderCounter: uint256</text>
</g>
<!-- 5&#45;&gt;4 -->
<g id="edge2" class="edge">
<title>5&#45;&gt;4</title>
<path fill="none" stroke="black" stroke-dasharray="5,2" d="M713.9,-863.7C722.06,-872.76 730.87,-882.54 739.89,-892.55"/>
<polygon fill="black" stroke="black" points="737.52,-895.16 746.82,-900.24 742.73,-890.47 737.52,-895.16"/>
</g>
<!-- 6 -->
<g id="node4" class="node">
<title>6</title>
<polygon fill="#f2f2f2" stroke="black" points="0,-542.5 0,-726.5 641.17,-726.5 641.17,-542.5 0,-542.5"/>
<text text-anchor="middle" x="320.58" y="-709.9" font-family="Times,serif" font-size="14.00">&lt;&lt;Library&gt;&gt;</text>
<text text-anchor="middle" x="320.58" y="-693.1" font-family="Times,serif" font-size="14.00">OrderLibrary</text>
<text text-anchor="middle" x="320.58" y="-676.3" font-family="Times,serif" font-size="14.00">contracts/libraries/order_lib.sol</text>
<polyline fill="none" stroke="black" points="0,-668.1 641.17,-668.1 "/>
<text text-anchor="start" x="8" y="-651.5" font-family="Times,serif" font-size="14.00">Internal:</text>
<text text-anchor="start" x="8" y="-634.7" font-family="Times,serif" font-size="14.00"> &#160;&#160;&#160;createOrder(self: OrderStorage, statementId: uint256, input: bytes32, price: uint256, buyer: address): uint256</text>
<text text-anchor="start" x="8" y="-617.9" font-family="Times,serif" font-size="14.00"> &#160;&#160;&#160;getOrder(self: OrderStorage, id: uint256): Order</text>
<text text-anchor="start" x="8" y="-601.1" font-family="Times,serif" font-size="14.00"> &#160;&#160;&#160;updateOrder(self: OrderStorage, id: uint256, producer: address, proof: bytes32[])</text>
<text text-anchor="start" x="8" y="-584.3" font-family="Times,serif" font-size="14.00">Public:</text>
<text text-anchor="start" x="8" y="-567.5" font-family="Times,serif" font-size="14.00"> &#160;&#160;&#160;&lt;&lt;event&gt;&gt; OrderCreated(id: uint256, statementId: uint256, input: bytes32, price: uint256, buyer: address)</text>
<text text-anchor="start" x="8" y="-550.7" font-family="Times,serif" font-size="14.00"> &#160;&#160;&#160;&lt;&lt;event&gt;&gt; OrderClosed(id: uint256, producer: address, finalPrice: uint256, proof: bytes32[])</text>
</g>
<!-- 6&#45;&gt;3 -->
<g id="edge5" class="edge">
<title>6&#45;&gt;3</title>
<path fill="none" stroke="black" stroke-dasharray="5,2" d="M356.2,-726.7C375.99,-770.8 403.35,-822.93 436.58,-864 526.83,-975.5 661.33,-1074.38 749.01,-1132.56"/>
<polygon fill="black" stroke="black" points="747.33,-1135.65 757.6,-1138.24 751.19,-1129.81 747.33,-1135.65"/>
</g>
<!-- 6&#45;&gt;4 -->
<g id="edge4" class="edge">
<title>6&#45;&gt;4</title>
<path fill="none" stroke="black" stroke-dasharray="5,2" d="M401.62,-726.67C444.69,-771.66 500.28,-824.6 556.58,-864 610.68,-901.85 676.92,-934.53 731.39,-958.35"/>
<polygon fill="black" stroke="black" points="730.15,-961.63 740.72,-962.39 732.93,-955.2 730.15,-961.63"/>
</g>
<!-- 6&#45;&gt;5 -->
<g id="edge3" class="edge">
<title>6&#45;&gt;5</title>
<path fill="none" stroke="black" stroke-dasharray="5,2" d="M500.2,-726.59C521.92,-737.61 543.54,-748.58 563.71,-758.8"/>
<polygon fill="black" stroke="black" points="562.36,-762.05 572.86,-763.45 565.53,-755.8 562.36,-762.05"/>
</g>
<!-- 7 -->
<g id="node5" class="node">
<title>7</title>
<polygon fill="#f2f2f2" stroke="black" points="1424.86,-942.5 1424.86,-1059.3 1640.31,-1059.3 1640.31,-942.5 1424.86,-942.5"/>
<text text-anchor="middle" x="1532.58" y="-1042.7" font-family="Times,serif" font-size="14.00">&lt;&lt;Struct&gt;&gt;</text>
<text text-anchor="middle" x="1532.58" y="-1025.9" font-family="Times,serif" font-size="14.00">StatementData</text>
<text text-anchor="middle" x="1532.58" y="-1009.1" font-family="Times,serif" font-size="14.00">contracts/libraries/statement_lib.sol</text>
<polyline fill="none" stroke="black" points="1424.86,-1000.9 1640.31,-1000.9 "/>
<text text-anchor="start" x="1432.86" y="-984.3" font-family="Times,serif" font-size="14.00">id: uint256</text>
<text text-anchor="start" x="1432.86" y="-967.5" font-family="Times,serif" font-size="14.00">definition: bytes32</text>
<text text-anchor="start" x="1432.86" y="-950.7" font-family="Times,serif" font-size="14.00">price: Price</text>
</g>
<!-- 9 -->
<g id="node7" class="node">
<title>9</title>
<polygon fill="#f2f2f2" stroke="black" points="1424.86,-1146.7 1424.86,-1229.9 1640.31,-1229.9 1640.31,-1146.7 1424.86,-1146.7"/>
<text text-anchor="middle" x="1532.58" y="-1213.3" font-family="Times,serif" font-size="14.00">&lt;&lt;Struct&gt;&gt;</text>
<text text-anchor="middle" x="1532.58" y="-1196.5" font-family="Times,serif" font-size="14.00">Price</text>
<text text-anchor="middle" x="1532.58" y="-1179.7" font-family="Times,serif" font-size="14.00">contracts/libraries/statement_lib.sol</text>
<polyline fill="none" stroke="black" points="1424.86,-1171.5 1640.31,-1171.5 "/>
<text text-anchor="start" x="1432.86" y="-1154.9" font-family="Times,serif" font-size="14.00">price: uint256</text>
</g>
<!-- 7&#45;&gt;9 -->
<g id="edge6" class="edge">
<title>7&#45;&gt;9</title>
<path fill="none" stroke="black" stroke-dasharray="5,2" d="M1532.58,-1059.55C1532.58,-1084.08 1532.58,-1112.46 1532.58,-1136.23"/>
<polygon fill="black" stroke="black" points="1529.08,-1136.46 1532.58,-1146.46 1536.08,-1136.46 1529.08,-1136.46"/>
</g>
<!-- 8 -->
<g id="node6" class="node">
<title>8</title>
<polygon fill="#f2f2f2" stroke="black" points="1391.69,-763.5 1391.69,-863.5 1673.48,-863.5 1673.48,-763.5 1391.69,-763.5"/>
<text text-anchor="middle" x="1532.58" y="-846.9" font-family="Times,serif" font-size="14.00">&lt;&lt;Struct&gt;&gt;</text>
<text text-anchor="middle" x="1532.58" y="-830.1" font-family="Times,serif" font-size="14.00">StatementStorage</text>
<text text-anchor="middle" x="1532.58" y="-813.3" font-family="Times,serif" font-size="14.00">contracts/libraries/statement_lib.sol</text>
<polyline fill="none" stroke="black" points="1391.69,-805.1 1673.48,-805.1 "/>
<text text-anchor="start" x="1399.69" y="-788.5" font-family="Times,serif" font-size="14.00">statements: mapping(uint256=&gt;StatementData)</text>
<text text-anchor="start" x="1399.69" y="-771.7" font-family="Times,serif" font-size="14.00">statementCounter: uint256</text>
</g>
<!-- 8&#45;&gt;7 -->
<g id="edge7" class="edge">
<title>8&#45;&gt;7</title>
<path fill="none" stroke="black" stroke-dasharray="5,2" d="M1532.58,-863.7C1532.58,-884.63 1532.58,-909.39 1532.58,-932.02"/>
<polygon fill="black" stroke="black" points="1529.08,-932.24 1532.58,-942.24 1536.08,-932.24 1529.08,-932.24"/>
</g>
<!-- 10 -->
<g id="node8" class="node">
<title>10</title>
<polygon fill="#f2f2f2" stroke="black" points="1455.8,-550.9 1455.8,-718.1 1931.36,-718.1 1931.36,-550.9 1455.8,-550.9"/>
<text text-anchor="middle" x="1693.58" y="-701.5" font-family="Times,serif" font-size="14.00">&lt;&lt;Library&gt;&gt;</text>
<text text-anchor="middle" x="1693.58" y="-684.7" font-family="Times,serif" font-size="14.00">StatementLibrary</text>
<text text-anchor="middle" x="1693.58" y="-667.9" font-family="Times,serif" font-size="14.00">contracts/libraries/statement_lib.sol</text>
<polyline fill="none" stroke="black" points="1455.8,-659.7 1931.36,-659.7 "/>
<text text-anchor="start" x="1463.8" y="-643.1" font-family="Times,serif" font-size="14.00">Internal:</text>
<text text-anchor="start" x="1463.8" y="-626.3" font-family="Times,serif" font-size="14.00"> &#160;&#160;&#160;addStatement(self: StatementStorage, definition: bytes32, price: Price): uint256</text>
<text text-anchor="start" x="1463.8" y="-609.5" font-family="Times,serif" font-size="14.00"> &#160;&#160;&#160;getStatement(self: StatementStorage, id: uint256): StatementData</text>
<text text-anchor="start" x="1463.8" y="-592.7" font-family="Times,serif" font-size="14.00"> &#160;&#160;&#160;updateStatement(self: StatementStorage, id: uint256, price: Price)</text>
<text text-anchor="start" x="1463.8" y="-575.9" font-family="Times,serif" font-size="14.00"> &#160;&#160;&#160;updateStatement(self: StatementStorage, id: uint256, definition: bytes32)</text>
<text text-anchor="start" x="1463.8" y="-559.1" font-family="Times,serif" font-size="14.00"> &#160;&#160;&#160;deleteStatement(self: StatementStorage, id: uint256)</text>
</g>
<!-- 10&#45;&gt;7 -->
<g id="edge10" class="edge">
<title>10&#45;&gt;7</title>
<path fill="none" stroke="black" stroke-dasharray="5,2" d="M1704.54,-718.23C1706.92,-763.36 1703.83,-819.02 1682.58,-864 1669.7,-891.26 1648.61,-915.51 1626.25,-935.71"/>
<polygon fill="black" stroke="black" points="1623.83,-933.18 1618.63,-942.41 1628.45,-938.44 1623.83,-933.18"/>
</g>
<!-- 10&#45;&gt;8 -->
<g id="edge8" class="edge">
<title>10&#45;&gt;8</title>
<path fill="none" stroke="black" stroke-dasharray="5,2" d="M1618.27,-718.3C1606.86,-730.85 1595.3,-743.55 1584.53,-755.39"/>
<polygon fill="black" stroke="black" points="1581.72,-753.28 1577.58,-763.03 1586.9,-757.99 1581.72,-753.28"/>
</g>
<!-- 10&#45;&gt;9 -->
<g id="edge9" class="edge">
<title>10&#45;&gt;9</title>
<path fill="none" stroke="black" stroke-dasharray="5,2" d="M1707.85,-718.18C1720.43,-817.88 1726.43,-986.4 1649.58,-1101.8 1639.97,-1116.24 1627.04,-1129.11 1613.29,-1140.2"/>
<polygon fill="black" stroke="black" points="1610.88,-1137.63 1605.11,-1146.52 1615.16,-1143.17 1610.88,-1137.63"/>
</g>
<!-- 11 -->
<g id="node9" class="node">
<title>11</title>
<polygon fill="#f2f2f2" stroke="black" points="698.03,-584.5 698.03,-684.5 1023.13,-684.5 1023.13,-584.5 698.03,-584.5"/>
<text text-anchor="middle" x="860.58" y="-667.9" font-family="Times,serif" font-size="14.00">&lt;&lt;Library&gt;&gt;</text>
<text text-anchor="middle" x="860.58" y="-651.1" font-family="Times,serif" font-size="14.00">Tools</text>
<text text-anchor="middle" x="860.58" y="-634.3" font-family="Times,serif" font-size="14.00">contracts/libraries/tools.sol</text>
<polyline fill="none" stroke="black" points="698.03,-626.1 1023.13,-626.1 "/>
<text text-anchor="start" x="706.03" y="-609.5" font-family="Times,serif" font-size="14.00">Internal:</text>
<text text-anchor="start" x="706.03" y="-592.7" font-family="Times,serif" font-size="14.00"> &#160;&#160;&#160;verifyProof(orderId: uint256, proof: bytes32[]): bool</text>
</g>
<!-- 0 -->
<g id="node10" class="node">
<title>0</title>
<polygon fill="#f2f2f2" stroke="black" points="530.01,-263.1 530.01,-438.3 1061.16,-438.3 1061.16,-263.1 530.01,-263.1"/>
<text text-anchor="middle" x="795.58" y="-421.7" font-family="Times,serif" font-size="14.00">OrderContract</text>
<text text-anchor="middle" x="795.58" y="-404.9" font-family="Times,serif" font-size="14.00">contracts/order_contract.sol</text>
<polyline fill="none" stroke="black" points="530.01,-396.7 1061.16,-396.7 "/>
<text text-anchor="start" x="538.01" y="-380.1" font-family="Times,serif" font-size="14.00">Private:</text>
<text text-anchor="start" x="538.01" y="-363.3" font-family="Times,serif" font-size="14.00"> &#160;&#160;orderStorage: OrderStorage</text>
<polyline fill="none" stroke="black" points="530.01,-355.1 1061.16,-355.1 "/>
<text text-anchor="start" x="538.01" y="-338.5" font-family="Times,serif" font-size="14.00">Internal:</text>
<text text-anchor="start" x="538.01" y="-321.7" font-family="Times,serif" font-size="14.00"> &#160;&#160;&#160;createOrder(statementId: uint256, input: bytes32, price: uint256, buyer: address): uint256</text>
<text text-anchor="start" x="538.01" y="-304.9" font-family="Times,serif" font-size="14.00"> &#160;&#160;&#160;closeOrder(id: uint256, producer: address, proof: bytes32[])</text>
<text text-anchor="start" x="538.01" y="-288.1" font-family="Times,serif" font-size="14.00">Public:</text>
<text text-anchor="start" x="538.01" y="-271.3" font-family="Times,serif" font-size="14.00"> &#160;&#160;&#160;getOrder(id: uint256): Order</text>
</g>
<!-- 0&#45;&gt;4 -->
<g id="edge13" class="edge">
<title>0&#45;&gt;4</title>
<path fill="none" stroke="black" stroke-dasharray="5,2" d="M944.97,-438.36C980.16,-466.58 1013.08,-501.32 1032.58,-542 1089.17,-660 1010.35,-798.51 936.45,-892.04"/>
<polygon fill="black" stroke="black" points="933.52,-890.11 930,-900.11 938.98,-894.48 933.52,-890.11"/>
</g>
<!-- 0&#45;&gt;5 -->
<g id="edge12" class="edge">
<title>0&#45;&gt;5</title>
<path fill="none" stroke="black" d="M736.09,-438.55C717.61,-469.82 699.3,-506.24 688.58,-542 667.46,-612.47 665.05,-697.71 666.37,-753.42"/>
<polygon fill="black" stroke="black" points="662.87,-753.57 666.66,-763.47 669.87,-753.37 662.87,-753.57"/>
</g>
<!-- 0&#45;&gt;6 -->
<g id="edge11" class="edge">
<title>0&#45;&gt;6</title>
<path fill="none" stroke="black" stroke-dasharray="5,2" d="M649.52,-438.36C596.72,-469.68 536.81,-505.22 482.72,-537.31"/>
<polygon fill="black" stroke="black" points="480.9,-534.32 474.09,-542.43 484.47,-540.34 480.9,-534.32"/>
</g>
<!-- 0&#45;&gt;11 -->
<g id="edge14" class="edge">
<title>0&#45;&gt;11</title>
<path fill="none" stroke="black" stroke-dasharray="5,2" d="M815.62,-438.55C825.77,-482.58 837.85,-534.92 846.92,-574.28"/>
<polygon fill="black" stroke="black" points="843.56,-575.29 849.22,-584.24 850.38,-573.71 843.56,-575.29"/>
</g>
<!-- 1 -->
<g id="node11" class="node">
<title>1</title>
<polygon fill="#f2f2f2" stroke="black" points="835.88,-0.5 835.88,-158.9 1343.29,-158.9 1343.29,-0.5 835.88,-0.5"/>
<text text-anchor="middle" x="1089.58" y="-142.3" font-family="Times,serif" font-size="14.00">ProofMarketEndpoint</text>
<text text-anchor="middle" x="1089.58" y="-125.5" font-family="Times,serif" font-size="14.00">contracts/proof_market_endpoint.sol</text>
<polyline fill="none" stroke="black" points="835.88,-117.3 1343.29,-117.3 "/>
<text text-anchor="start" x="843.88" y="-100.7" font-family="Times,serif" font-size="14.00">Public:</text>
<text text-anchor="start" x="843.88" y="-83.9" font-family="Times,serif" font-size="14.00"> &#160;&#160;token: IERC20</text>
<polyline fill="none" stroke="black" points="835.88,-75.7 1343.29,-75.7 "/>
<text text-anchor="start" x="843.88" y="-59.1" font-family="Times,serif" font-size="14.00">Public:</text>
<text text-anchor="start" x="843.88" y="-42.3" font-family="Times,serif" font-size="14.00"> &#160;&#160;&#160;constructor(_token: IERC20)</text>
<text text-anchor="start" x="843.88" y="-25.5" font-family="Times,serif" font-size="14.00"> &#160;&#160;&#160;createOrder(statementId: uint256, input: bytes32, price: uint256): uint256</text>
<text text-anchor="start" x="843.88" y="-8.7" font-family="Times,serif" font-size="14.00"> &#160;&#160;&#160;closeOrder(orderId: uint256, proof: bytes32[], finalPrice: uint256, producer: address)</text>
</g>
<!-- 1&#45;&gt;3 -->
<g id="edge19" class="edge">
<title>1&#45;&gt;3</title>
<path fill="none" stroke="black" stroke-dasharray="5,2" d="M1102.24,-158.93C1103.9,-171.11 1105.43,-183.58 1106.58,-195.4 1125.56,-389.41 1127.58,-438.57 1127.58,-633.5 1127.58,-633.5 1127.58,-633.5 1127.58,-814.5 1127.58,-950.91 1005.02,-1067.28 918.98,-1132.17"/>
<polygon fill="black" stroke="black" points="916.69,-1129.5 910.77,-1138.29 920.88,-1135.12 916.69,-1129.5"/>
</g>
<!-- 1&#45;&gt;4 -->
<g id="edge18" class="edge">
<title>1&#45;&gt;4</title>
<path fill="none" stroke="black" stroke-dasharray="5,2" d="M1093.81,-159.15C1098.6,-281.88 1100.72,-526.05 1056.58,-727 1042.58,-790.77 1041.96,-811.19 1003.58,-864 986.11,-888.04 963.38,-910.26 940.35,-929.47"/>
<polygon fill="black" stroke="black" points="938.05,-926.82 932.53,-935.86 942.49,-932.24 938.05,-926.82"/>
</g>
<!-- 1&#45;&gt;6 -->
<g id="edge17" class="edge">
<title>1&#45;&gt;6</title>
<path fill="none" stroke="black" stroke-dasharray="5,2" d="M835.75,-109.03C708.11,-127.71 570.17,-156.06 520.58,-195.4 414.89,-279.26 362.97,-431.49 339.04,-532.56"/>
<polygon fill="black" stroke="black" points="335.58,-531.95 336.74,-542.48 342.4,-533.53 335.58,-531.95"/>
</g>
<!-- 1&#45;&gt;0 -->
<g id="edge16" class="edge">
<title>1&#45;&gt;0</title>
<path fill="none" stroke="black" d="M1003.76,-159.23C975.25,-185.31 943.02,-214.8 912.58,-242.66"/>
<polygon fill="none" stroke="black" points="905.32,-235.06 890.27,-263.06 919.49,-250.56 905.32,-235.06"/>
</g>
<!-- 2 -->
<g id="node12" class="node">
<title>2</title>
<polygon fill="#f2f2f2" stroke="black" points="1155.27,-195.9 1155.27,-505.5 1611.89,-505.5 1611.89,-195.9 1155.27,-195.9"/>
<text text-anchor="middle" x="1383.58" y="-488.9" font-family="Times,serif" font-size="14.00">StatementContract</text>
<text text-anchor="middle" x="1383.58" y="-472.1" font-family="Times,serif" font-size="14.00">contracts/statement_contract.sol</text>
<polyline fill="none" stroke="black" points="1155.27,-463.9 1611.89,-463.9 "/>
<text text-anchor="start" x="1163.27" y="-447.3" font-family="Times,serif" font-size="14.00">Private:</text>
<text text-anchor="start" x="1163.27" y="-430.5" font-family="Times,serif" font-size="14.00"> &#160;&#160;statementStorage: StatementStorage</text>
<text text-anchor="start" x="1163.27" y="-413.7" font-family="Times,serif" font-size="14.00">Public:</text>
<text text-anchor="start" x="1163.27" y="-396.9" font-family="Times,serif" font-size="14.00"> &#160;&#160;owner: address</text>
<polyline fill="none" stroke="black" points="1155.27,-388.7 1611.89,-388.7 "/>
<text text-anchor="start" x="1163.27" y="-372.1" font-family="Times,serif" font-size="14.00">Public:</text>
<text text-anchor="start" x="1163.27" y="-355.3" font-family="Times,serif" font-size="14.00"> &#160;&#160;&#160;&lt;&lt;event&gt;&gt; StatementAdded(id: uint256, definition: bytes32, price: uint256)</text>
<text text-anchor="start" x="1163.27" y="-338.5" font-family="Times,serif" font-size="14.00"> &#160;&#160;&#160;&lt;&lt;event&gt;&gt; StatementDefinitionUpdated(id: uint256, definition: bytes32)</text>
<text text-anchor="start" x="1163.27" y="-321.7" font-family="Times,serif" font-size="14.00"> &#160;&#160;&#160;&lt;&lt;event&gt;&gt; StatementPriceUpdated(id: uint256, price: uint256)</text>
<text text-anchor="start" x="1163.27" y="-304.9" font-family="Times,serif" font-size="14.00"> &#160;&#160;&#160;&lt;&lt;modifier&gt;&gt; onlyOwner()</text>
<text text-anchor="start" x="1163.27" y="-288.1" font-family="Times,serif" font-size="14.00"> &#160;&#160;&#160;constructor()</text>
<text text-anchor="start" x="1163.27" y="-271.3" font-family="Times,serif" font-size="14.00"> &#160;&#160;&#160;addStatement(definition: bytes32, price: Price): uint256 &lt;&lt;onlyOwner&gt;&gt;</text>
<text text-anchor="start" x="1163.27" y="-254.5" font-family="Times,serif" font-size="14.00"> &#160;&#160;&#160;getStatement(id: uint256): StatementData</text>
<text text-anchor="start" x="1163.27" y="-237.7" font-family="Times,serif" font-size="14.00"> &#160;&#160;&#160;updateStatement(id: uint256, price: Price) &lt;&lt;onlyOwner&gt;&gt;</text>
<text text-anchor="start" x="1163.27" y="-220.9" font-family="Times,serif" font-size="14.00"> &#160;&#160;&#160;updateStatement(id: uint256, definition: bytes32) &lt;&lt;onlyOwner&gt;&gt;</text>
<text text-anchor="start" x="1163.27" y="-204.1" font-family="Times,serif" font-size="14.00"> &#160;&#160;&#160;deleteStatement(id: uint256) &lt;&lt;onlyOwner&gt;&gt;</text>
</g>
<!-- 1&#45;&gt;2 -->
<g id="edge15" class="edge">
<title>1&#45;&gt;2</title>
<path fill="none" stroke="black" d="M1175.41,-159.23C1181.17,-164.5 1187.08,-169.91 1193.1,-175.42"/>
<polygon fill="none" stroke="black" points="1186.06,-183.21 1215.28,-195.71 1200.24,-167.71 1186.06,-183.21"/>
</g>
<!-- 2&#45;&gt;7 -->
<g id="edge23" class="edge">
<title>2&#45;&gt;7</title>
<path fill="none" stroke="black" stroke-dasharray="5,2" d="M1351.55,-505.52C1337.03,-610.93 1332.7,-751.49 1382.58,-864 1394.74,-891.42 1415.46,-915.66 1437.69,-935.8"/>
<polygon fill="black" stroke="black" points="1435.46,-938.49 1445.28,-942.47 1440.08,-933.23 1435.46,-938.49"/>
</g>
<!-- 2&#45;&gt;8 -->
<g id="edge21" class="edge">
<title>2&#45;&gt;8</title>
<path fill="none" stroke="black" d="M1388.01,-505.5C1395.28,-576.21 1411.53,-659.22 1446.58,-727 1451.82,-737.12 1458.69,-746.79 1466.26,-755.74"/>
<polygon fill="black" stroke="black" points="1463.82,-758.26 1473.08,-763.41 1469.05,-753.61 1463.82,-758.26"/>
</g>
<!-- 2&#45;&gt;9 -->
<g id="edge22" class="edge">
<title>2&#45;&gt;9</title>
<path fill="none" stroke="black" stroke-dasharray="5,2" d="M1344.88,-505.68C1342.75,-517.91 1340.94,-530.12 1339.58,-542 1323.35,-684.24 1324.35,-722.9 1348.58,-864 1367.17,-972.22 1352.94,-1011.62 1415.58,-1101.8 1425.6,-1116.22 1438.86,-1129.14 1452.84,-1140.29"/>
<polygon fill="black" stroke="black" points="1451.07,-1143.35 1461.13,-1146.65 1455.33,-1137.79 1451.07,-1143.35"/>
</g>
<!-- 2&#45;&gt;10 -->
<g id="edge20" class="edge">
<title>2&#45;&gt;10</title>
<path fill="none" stroke="black" stroke-dasharray="5,2" d="M1553.1,-505.79C1567.41,-518.8 1581.55,-531.66 1595.04,-543.92"/>
<polygon fill="black" stroke="black" points="1592.71,-546.53 1602.46,-550.66 1597.41,-541.35 1592.71,-546.53"/>
</g>
</g>
</svg>
