<?xml version="1.0" encoding="UTF-8" standalone="no"?>
<!DOCTYPE svg PUBLIC "-//W3C//DTD SVG 1.1//EN"
 "http://www.w3.org/Graphics/SVG/1.1/DTD/svg11.dtd">
<!-- Generated by graphviz version 5.0.0 (20220707.1540)
 -->
<!-- Title: UmlClassDiagram Pages: 1 -->
<svg width="1890pt" height="1659pt"
 viewBox="0.00 0.00 1890.23 1658.80" xmlns="http://www.w3.org/2000/svg" xmlns:xlink="http://www.w3.org/1999/xlink">
<g id="graph0" class="graph" transform="scale(1 1) rotate(0) translate(4 1654.8)">
<title>UmlClassDiagram</title>
<polygon fill="white" stroke="transparent" points="-4,4 -4,-1654.8 1886.23,-1654.8 1886.23,4 -4,4"/>
<!-- 3 -->
<g id="node1" class="node">
<title>3</title>
<polygon fill="#f2f2f2" stroke="black" points="645.5,-531.9 645.5,-900.7 1256.06,-900.7 1256.06,-531.9 645.5,-531.9"/>
<text text-anchor="middle" x="950.78" y="-884.1" font-family="Times,serif" font-size="14.00">&lt;&lt;Interface&gt;&gt;</text>
<text text-anchor="middle" x="950.78" y="-867.3" font-family="Times,serif" font-size="14.00">IProofMarketEndpoint</text>
<text text-anchor="middle" x="950.78" y="-850.5" font-family="Times,serif" font-size="14.00">contracts/interfaces/proof_market_endpoint.sol</text>
<polyline fill="none" stroke="black" points="645.5,-842.3 1256.06,-842.3 "/>
<text text-anchor="start" x="653.5" y="-825.7" font-family="Times,serif" font-size="14.00">External:</text>
<text text-anchor="start" x="653.5" y="-808.9" font-family="Times,serif" font-size="14.00"> &#160;&#160;&#160;&#160;grantRelayer(relayer: address)</text>
<text text-anchor="start" x="653.5" y="-792.1" font-family="Times,serif" font-size="14.00"> &#160;&#160;&#160;&#160;revokeRelayer(relayer: address)</text>
<text text-anchor="start" x="653.5" y="-775.3" font-family="Times,serif" font-size="14.00"> &#160;&#160;&#160;&#160;getOrder(orderId: uint256): OrderLibrary.Order</text>
<text text-anchor="start" x="653.5" y="-758.5" font-family="Times,serif" font-size="14.00"> &#160;&#160;&#160;&#160;createOrder(statementId: uint256, input: bytes, price: uint256): uint256</text>
<text text-anchor="start" x="653.5" y="-741.7" font-family="Times,serif" font-size="14.00"> &#160;&#160;&#160;&#160;closeOrder(orderId: uint256, proof: bytes, finalPrice: uint256, producer: address)</text>
<text text-anchor="start" x="653.5" y="-724.9" font-family="Times,serif" font-size="14.00"> &#160;&#160;&#160;&#160;getStatement(id: uint256): StatementLibrary.StatementData</text>
<text text-anchor="start" x="653.5" y="-708.1" font-family="Times,serif" font-size="14.00"> &#160;&#160;&#160;&#160;addStatement(definition: StatementLibrary.Definition, price: StatementLibrary.Price)</text>
<text text-anchor="start" x="653.5" y="-691.3" font-family="Times,serif" font-size="14.00"> &#160;&#160;&#160;&#160;updateStatementDefinition(id: uint256, definition: StatementLibrary.Definition)</text>
<text text-anchor="start" x="653.5" y="-674.5" font-family="Times,serif" font-size="14.00"> &#160;&#160;&#160;&#160;updateStatementPrice(id: uint256, price: StatementLibrary.Price)</text>
<text text-anchor="start" x="653.5" y="-657.7" font-family="Times,serif" font-size="14.00"> &#160;&#160;&#160;&#160;removeStatement(id: uint256)</text>
<text text-anchor="start" x="653.5" y="-640.9" font-family="Times,serif" font-size="14.00">Public:</text>
<text text-anchor="start" x="653.5" y="-624.1" font-family="Times,serif" font-size="14.00"> &#160;&#160;&#160;&lt;&lt;event&gt;&gt; OrderCreated(id: uint256, statementId: uint256, input: bytes, price: uint256, buyer: address)</text>
<text text-anchor="start" x="653.5" y="-607.3" font-family="Times,serif" font-size="14.00"> &#160;&#160;&#160;&lt;&lt;event&gt;&gt; OrderClosed(id: uint256, producer: address, finalPrice: uint256, proof: bytes)</text>
<text text-anchor="start" x="653.5" y="-590.5" font-family="Times,serif" font-size="14.00"> &#160;&#160;&#160;&lt;&lt;event&gt;&gt; StatementAdded(id: uint256, definition: StatementLibrary.Definition)</text>
<text text-anchor="start" x="653.5" y="-573.7" font-family="Times,serif" font-size="14.00"> &#160;&#160;&#160;&lt;&lt;event&gt;&gt; StatementDefinitionUpdated(id: uint256, definition: StatementLibrary.Definition)</text>
<text text-anchor="start" x="653.5" y="-556.9" font-family="Times,serif" font-size="14.00"> &#160;&#160;&#160;&lt;&lt;event&gt;&gt; StatementPriceUpdated(id: uint256, price: StatementLibrary.Price)</text>
<text text-anchor="start" x="653.5" y="-540.1" font-family="Times,serif" font-size="14.00"> &#160;&#160;&#160;&lt;&lt;event&gt;&gt; StatementRemoved(id: uint256)</text>
</g>
<!-- 4 -->
<g id="node5" class="node">
<title>4</title>
<polygon fill="#f2f2f2" stroke="black" points="884.52,-971.3 884.52,-1104.9 1479.04,-1104.9 1479.04,-971.3 884.52,-971.3"/>
<text text-anchor="middle" x="1181.78" y="-1088.3" font-family="Times,serif" font-size="14.00">&lt;&lt;Library&gt;&gt;</text>
<text text-anchor="middle" x="1181.78" y="-1071.5" font-family="Times,serif" font-size="14.00">OrderLibrary</text>
<text text-anchor="middle" x="1181.78" y="-1054.7" font-family="Times,serif" font-size="14.00">contracts/libraries/order_lib.sol</text>
<polyline fill="none" stroke="black" points="884.52,-1046.5 1479.04,-1046.5 "/>
<text text-anchor="start" x="892.52" y="-1029.9" font-family="Times,serif" font-size="14.00">Internal:</text>
<text text-anchor="start" x="892.52" y="-1013.1" font-family="Times,serif" font-size="14.00"> &#160;&#160;&#160;create(self: OrderStorage, statementId: uint256, input: bytes, price: uint256, buyer: address): uint256</text>
<text text-anchor="start" x="892.52" y="-996.3" font-family="Times,serif" font-size="14.00"> &#160;&#160;&#160;get(self: OrderStorage, id: uint256): Order</text>
<text text-anchor="start" x="892.52" y="-979.5" font-family="Times,serif" font-size="14.00"> &#160;&#160;&#160;update(self: OrderStorage, id: uint256, producer: address, proof: bytes)</text>
</g>
<!-- 3&#45;&gt;4 -->
<g id="edge2" class="edge">
<title>3&#45;&gt;4</title>
<path fill="none" stroke="black" stroke-dasharray="5,2" d="M1083.48,-901.01C1099.24,-922.84 1114.57,-944.06 1128.25,-963"/>
<polygon fill="black" stroke="black" points="1125.52,-965.2 1134.21,-971.25 1131.2,-961.1 1125.52,-965.2"/>
</g>
<!-- 8 -->
<g id="node10" class="node">
<title>8</title>
<polygon fill="#f2f2f2" stroke="black" points="400.99,-937.7 400.99,-1138.5 834.56,-1138.5 834.56,-937.7 400.99,-937.7"/>
<text text-anchor="middle" x="617.78" y="-1121.9" font-family="Times,serif" font-size="14.00">&lt;&lt;Library&gt;&gt;</text>
<text text-anchor="middle" x="617.78" y="-1105.1" font-family="Times,serif" font-size="14.00">StatementLibrary</text>
<text text-anchor="middle" x="617.78" y="-1088.3" font-family="Times,serif" font-size="14.00">contracts/libraries/statement_lib.sol</text>
<polyline fill="none" stroke="black" points="400.99,-1080.1 834.56,-1080.1 "/>
<text text-anchor="start" x="408.99" y="-1063.5" font-family="Times,serif" font-size="14.00">Internal:</text>
<text text-anchor="start" x="408.99" y="-1046.7" font-family="Times,serif" font-size="14.00"> &#160;&#160;&#160;add(self: StatementStorage, definition: Definition, price: Price): uint256</text>
<text text-anchor="start" x="408.99" y="-1029.9" font-family="Times,serif" font-size="14.00"> &#160;&#160;&#160;get(self: StatementStorage, id: uint256): StatementData</text>
<text text-anchor="start" x="408.99" y="-1013.1" font-family="Times,serif" font-size="14.00"> &#160;&#160;&#160;update(self: StatementStorage, id: uint256, price: Price)</text>
<text text-anchor="start" x="408.99" y="-996.3" font-family="Times,serif" font-size="14.00"> &#160;&#160;&#160;update(self: StatementStorage, id: uint256, definition: Definition)</text>
<text text-anchor="start" x="408.99" y="-979.5" font-family="Times,serif" font-size="14.00"> &#160;&#160;&#160;remove(self: StatementStorage, id: uint256)</text>
<text text-anchor="start" x="408.99" y="-962.7" font-family="Times,serif" font-size="14.00"> &#160;&#160;&#160;exists(self: StatementStorage, id: uint256): bool</text>
<text text-anchor="start" x="408.99" y="-945.9" font-family="Times,serif" font-size="14.00"> &#160;&#160;&#160;exists(self: StatementStorage, definition: Definition): bool</text>
</g>
<!-- 3&#45;&gt;8 -->
<g id="edge1" class="edge">
<title>3&#45;&gt;8</title>
<path fill="none" stroke="black" stroke-dasharray="5,2" d="M759.48,-901.01C748.99,-911.09 738.62,-921.05 728.57,-930.7"/>
<polygon fill="black" stroke="black" points="726.09,-928.23 721.3,-937.68 730.94,-933.28 726.09,-928.23"/>
</g>
<!-- 5 -->
<g id="node2" class="node">
<title>5</title>
<polygon fill="#f2f2f2" stroke="black" points="945.11,-1550.3 945.11,-1650.3 1136.45,-1650.3 1136.45,-1550.3 945.11,-1550.3"/>
<text text-anchor="middle" x="1040.78" y="-1633.7" font-family="Times,serif" font-size="14.00">&lt;&lt;Enum&gt;&gt;</text>
<text text-anchor="middle" x="1040.78" y="-1616.9" font-family="Times,serif" font-size="14.00">OrderStatus</text>
<text text-anchor="middle" x="1040.78" y="-1600.1" font-family="Times,serif" font-size="14.00">contracts/libraries/order_lib.sol</text>
<polyline fill="none" stroke="black" points="945.11,-1591.9 1136.45,-1591.9 "/>
<text text-anchor="start" x="953.11" y="-1575.3" font-family="Times,serif" font-size="14.00">OPEN: 0</text>
<text text-anchor="start" x="953.11" y="-1558.5" font-family="Times,serif" font-size="14.00">CLOSED: 1</text>
</g>
<!-- 5&#45;&gt;4 -->
<g id="edge5" class="edge">
<title>5&#45;&gt;4</title>
<path fill="none" stroke="black" d="M1040.04,-1550.08C1035.16,-1468.73 1026.88,-1302.53 1077.78,-1175 1086.35,-1153.52 1099.67,-1132.91 1113.97,-1114.52"/>
<polygon fill="black" stroke="black" points="1114,-1114.47 1114.64,-1107.29 1121.51,-1105.11 1120.88,-1112.3 1114,-1114.47"/>
</g>
<!-- 6 -->
<g id="node3" class="node">
<title>6</title>
<polygon fill="#f2f2f2" stroke="black" points="1227.11,-1312.5 1227.11,-1513.3 1418.45,-1513.3 1418.45,-1312.5 1227.11,-1312.5"/>
<text text-anchor="middle" x="1322.78" y="-1496.7" font-family="Times,serif" font-size="14.00">&lt;&lt;Struct&gt;&gt;</text>
<text text-anchor="middle" x="1322.78" y="-1479.9" font-family="Times,serif" font-size="14.00">Order</text>
<text text-anchor="middle" x="1322.78" y="-1463.1" font-family="Times,serif" font-size="14.00">contracts/libraries/order_lib.sol</text>
<polyline fill="none" stroke="black" points="1227.11,-1454.9 1418.45,-1454.9 "/>
<text text-anchor="start" x="1235.11" y="-1438.3" font-family="Times,serif" font-size="14.00">id: uint256</text>
<text text-anchor="start" x="1235.11" y="-1421.5" font-family="Times,serif" font-size="14.00">statementId: uint256</text>
<text text-anchor="start" x="1235.11" y="-1404.7" font-family="Times,serif" font-size="14.00">input: bytes</text>
<text text-anchor="start" x="1235.11" y="-1387.9" font-family="Times,serif" font-size="14.00">price: uint256</text>
<text text-anchor="start" x="1235.11" y="-1371.1" font-family="Times,serif" font-size="14.00">buyer: address</text>
<text text-anchor="start" x="1235.11" y="-1354.3" font-family="Times,serif" font-size="14.00">status: OrderStatus</text>
<text text-anchor="start" x="1235.11" y="-1337.5" font-family="Times,serif" font-size="14.00">producer: address</text>
<text text-anchor="start" x="1235.11" y="-1320.7" font-family="Times,serif" font-size="14.00">proof: bytes</text>
</g>
<!-- 6&#45;&gt;5 -->
<g id="edge3" class="edge">
<title>6&#45;&gt;5</title>
<path fill="none" stroke="black" stroke-dasharray="5,2" d="M1226.91,-1476.93C1193.49,-1498.9 1156.29,-1523.36 1123.99,-1544.59"/>
<polygon fill="black" stroke="black" points="1121.88,-1541.79 1115.45,-1550.21 1125.73,-1547.64 1121.88,-1541.79"/>
</g>
<!-- 6&#45;&gt;4 -->
<g id="edge6" class="edge">
<title>6&#45;&gt;4</title>
<path fill="none" stroke="black" d="M1331.81,-1312.39C1329.8,-1268.74 1322.16,-1217.81 1303.78,-1175 1294.6,-1153.63 1280.95,-1133 1266.05,-1114.55"/>
<polygon fill="black" stroke="black" points="1265.86,-1114.32 1258.94,-1112.28 1258.16,-1105.11 1265.08,-1107.15 1265.86,-1114.32"/>
</g>
<!-- 7 -->
<g id="node4" class="node">
<title>7</title>
<polygon fill="#f2f2f2" stroke="black" points="1077.82,-1175.5 1077.82,-1275.5 1285.73,-1275.5 1285.73,-1175.5 1077.82,-1175.5"/>
<text text-anchor="middle" x="1181.78" y="-1258.9" font-family="Times,serif" font-size="14.00">&lt;&lt;Struct&gt;&gt;</text>
<text text-anchor="middle" x="1181.78" y="-1242.1" font-family="Times,serif" font-size="14.00">OrderStorage</text>
<text text-anchor="middle" x="1181.78" y="-1225.3" font-family="Times,serif" font-size="14.00">contracts/libraries/order_lib.sol</text>
<polyline fill="none" stroke="black" points="1077.82,-1217.1 1285.73,-1217.1 "/>
<text text-anchor="start" x="1085.82" y="-1200.5" font-family="Times,serif" font-size="14.00">orders: mapping(uint256=&gt;Order)</text>
<text text-anchor="start" x="1085.82" y="-1183.7" font-family="Times,serif" font-size="14.00">orderCounter: uint256</text>
</g>
<!-- 7&#45;&gt;6 -->
<g id="edge4" class="edge">
<title>7&#45;&gt;6</title>
<path fill="none" stroke="black" stroke-dasharray="5,2" d="M1219.19,-1275.7C1226.02,-1284.67 1233.38,-1294.35 1240.91,-1304.26"/>
<polygon fill="black" stroke="black" points="1238.15,-1306.4 1246.99,-1312.24 1243.72,-1302.17 1238.15,-1306.4"/>
</g>
<!-- 7&#45;&gt;4 -->
<g id="edge7" class="edge">
<title>7&#45;&gt;4</title>
<path fill="none" stroke="black" d="M1187.81,-1175.44C1188.44,-1157.57 1188.66,-1136.9 1188.45,-1117.14"/>
<polygon fill="black" stroke="black" points="1188.45,-1116.99 1184.36,-1111.05 1188.27,-1104.99 1192.36,-1110.93 1188.45,-1116.99"/>
</g>
<!-- 4&#45;&gt;5 -->
<g id="edge10" class="edge">
<title>4&#45;&gt;5</title>
<path fill="none" stroke="black" stroke-dasharray="5,2" d="M1104.26,-1105.11C1086.46,-1125.75 1069.84,-1149.78 1059.78,-1175 1010.86,-1297.55 1016.6,-1455.8 1027.59,-1540.17"/>
<polygon fill="black" stroke="black" points="1024.12,-1540.65 1028.95,-1550.08 1031.05,-1539.7 1024.12,-1540.65"/>
</g>
<!-- 4&#45;&gt;6 -->
<g id="edge9" class="edge">
<title>4&#45;&gt;6</title>
<path fill="none" stroke="black" stroke-dasharray="5,2" d="M1240.92,-1105.11C1258.06,-1125.84 1275,-1149.91 1285.78,-1175 1302.76,-1214.55 1310.57,-1261.03 1314.46,-1302.3"/>
<polygon fill="black" stroke="black" points="1310.98,-1302.74 1315.34,-1312.39 1317.96,-1302.13 1310.98,-1302.74"/>
</g>
<!-- 4&#45;&gt;7 -->
<g id="edge8" class="edge">
<title>4&#45;&gt;7</title>
<path fill="none" stroke="black" stroke-dasharray="5,2" d="M1175.29,-1104.99C1174.9,-1124.66 1174.95,-1146.1 1175.44,-1165.31"/>
<polygon fill="black" stroke="black" points="1171.94,-1165.55 1175.74,-1175.44 1178.94,-1165.34 1171.94,-1165.55"/>
</g>
<!-- 9 -->
<g id="node6" class="node">
<title>9</title>
<polygon fill="#f2f2f2" stroke="black" points="494.06,-1354.5 494.06,-1471.3 709.5,-1471.3 709.5,-1354.5 494.06,-1354.5"/>
<text text-anchor="middle" x="601.78" y="-1454.7" font-family="Times,serif" font-size="14.00">&lt;&lt;Struct&gt;&gt;</text>
<text text-anchor="middle" x="601.78" y="-1437.9" font-family="Times,serif" font-size="14.00">StatementData</text>
<text text-anchor="middle" x="601.78" y="-1421.1" font-family="Times,serif" font-size="14.00">contracts/libraries/statement_lib.sol</text>
<polyline fill="none" stroke="black" points="494.06,-1412.9 709.5,-1412.9 "/>
<text text-anchor="start" x="502.06" y="-1396.3" font-family="Times,serif" font-size="14.00">id: uint256</text>
<text text-anchor="start" x="502.06" y="-1379.5" font-family="Times,serif" font-size="14.00">definition: Definition</text>
<text text-anchor="start" x="502.06" y="-1362.7" font-family="Times,serif" font-size="14.00">price: Price</text>
</g>
<!-- 11 -->
<g id="node8" class="node">
<title>11</title>
<polygon fill="#f2f2f2" stroke="black" points="227.06,-1558.7 227.06,-1641.9 442.5,-1641.9 442.5,-1558.7 227.06,-1558.7"/>
<text text-anchor="middle" x="334.78" y="-1625.3" font-family="Times,serif" font-size="14.00">&lt;&lt;Struct&gt;&gt;</text>
<text text-anchor="middle" x="334.78" y="-1608.5" font-family="Times,serif" font-size="14.00">Price</text>
<text text-anchor="middle" x="334.78" y="-1591.7" font-family="Times,serif" font-size="14.00">contracts/libraries/statement_lib.sol</text>
<polyline fill="none" stroke="black" points="227.06,-1583.5 442.5,-1583.5 "/>
<text text-anchor="start" x="235.06" y="-1566.9" font-family="Times,serif" font-size="14.00">price: uint256</text>
</g>
<!-- 9&#45;&gt;11 -->
<g id="edge12" class="edge">
<title>9&#45;&gt;11</title>
<path fill="none" stroke="black" stroke-dasharray="5,2" d="M518.76,-1471.55C481.2,-1497.62 437.4,-1528.04 401.95,-1552.66"/>
<polygon fill="black" stroke="black" points="399.81,-1549.88 393.6,-1558.46 403.81,-1555.63 399.81,-1549.88"/>
</g>
<!-- 12 -->
<g id="node9" class="node">
<title>12</title>
<polygon fill="#f2f2f2" stroke="black" points="639.06,-1550.3 639.06,-1650.3 854.5,-1650.3 854.5,-1550.3 639.06,-1550.3"/>
<text text-anchor="middle" x="746.78" y="-1633.7" font-family="Times,serif" font-size="14.00">&lt;&lt;Struct&gt;&gt;</text>
<text text-anchor="middle" x="746.78" y="-1616.9" font-family="Times,serif" font-size="14.00">Definition</text>
<text text-anchor="middle" x="746.78" y="-1600.1" font-family="Times,serif" font-size="14.00">contracts/libraries/statement_lib.sol</text>
<polyline fill="none" stroke="black" points="639.06,-1591.9 854.5,-1591.9 "/>
<text text-anchor="start" x="647.06" y="-1575.3" font-family="Times,serif" font-size="14.00">verificationKey: bytes</text>
<text text-anchor="start" x="647.06" y="-1558.5" font-family="Times,serif" font-size="14.00">provingKey: bytes</text>
</g>
<!-- 9&#45;&gt;12 -->
<g id="edge11" class="edge">
<title>9&#45;&gt;12</title>
<path fill="none" stroke="black" stroke-dasharray="5,2" d="M646.86,-1471.55C664.41,-1493.98 684.47,-1519.63 701.99,-1542.03"/>
<polygon fill="black" stroke="black" points="699.4,-1544.41 708.32,-1550.13 704.92,-1540.09 699.4,-1544.41"/>
</g>
<!-- 9&#45;&gt;8 -->
<g id="edge14" class="edge">
<title>9&#45;&gt;8</title>
<path fill="none" stroke="black" d="M642.51,-1354.21C654.59,-1330.71 666.04,-1302.81 671.78,-1276 681.18,-1232.11 678.92,-1219.32 671.78,-1175 670.47,-1166.91 668.76,-1158.65 666.74,-1150.4"/>
<polygon fill="black" stroke="black" points="666.73,-1150.37 661.35,-1145.58 663.7,-1138.76 669.09,-1143.55 666.73,-1150.37"/>
</g>
<!-- 10 -->
<g id="node7" class="node">
<title>10</title>
<polygon fill="#f2f2f2" stroke="black" points="371.88,-1175.5 371.88,-1275.5 653.67,-1275.5 653.67,-1175.5 371.88,-1175.5"/>
<text text-anchor="middle" x="512.78" y="-1258.9" font-family="Times,serif" font-size="14.00">&lt;&lt;Struct&gt;&gt;</text>
<text text-anchor="middle" x="512.78" y="-1242.1" font-family="Times,serif" font-size="14.00">StatementStorage</text>
<text text-anchor="middle" x="512.78" y="-1225.3" font-family="Times,serif" font-size="14.00">contracts/libraries/statement_lib.sol</text>
<polyline fill="none" stroke="black" points="371.88,-1217.1 653.67,-1217.1 "/>
<text text-anchor="start" x="379.88" y="-1200.5" font-family="Times,serif" font-size="14.00">statements: mapping(uint256=&gt;StatementData)</text>
<text text-anchor="start" x="379.88" y="-1183.7" font-family="Times,serif" font-size="14.00">statementCounter: uint256</text>
</g>
<!-- 10&#45;&gt;9 -->
<g id="edge13" class="edge">
<title>10&#45;&gt;9</title>
<path fill="none" stroke="black" stroke-dasharray="5,2" d="M536.39,-1275.7C546.58,-1296.91 558.65,-1322.06 569.63,-1344.93"/>
<polygon fill="black" stroke="black" points="566.62,-1346.74 574.1,-1354.24 572.93,-1343.71 566.62,-1346.74"/>
</g>
<!-- 10&#45;&gt;8 -->
<g id="edge15" class="edge">
<title>10&#45;&gt;8</title>
<path fill="none" stroke="black" d="M546.71,-1175.25C551.65,-1167.05 556.82,-1158.26 562.04,-1149.25"/>
<polygon fill="black" stroke="black" points="562.19,-1148.99 561.71,-1141.79 568.17,-1138.58 568.65,-1145.78 562.19,-1148.99"/>
</g>
<!-- 11&#45;&gt;8 -->
<g id="edge16" class="edge">
<title>11&#45;&gt;8</title>
<path fill="none" stroke="black" d="M330.41,-1558.49C318.18,-1477.87 293.87,-1295.61 371.78,-1175 378.14,-1165.15 385.47,-1155.96 393.53,-1147.4"/>
<polygon fill="black" stroke="black" points="393.71,-1147.22 395.11,-1140.14 402.18,-1138.71 400.78,-1145.78 393.71,-1147.22"/>
</g>
<!-- 12&#45;&gt;8 -->
<g id="edge17" class="edge">
<title>12&#45;&gt;8</title>
<path fill="none" stroke="black" d="M752.3,-1549.98C754.17,-1469.18 744.88,-1304.62 697.78,-1175 694.74,-1166.65 691.29,-1158.17 687.57,-1149.73"/>
<polygon fill="black" stroke="black" points="687.51,-1149.59 681.38,-1145.79 682.52,-1138.67 688.65,-1142.47 687.51,-1149.59"/>
</g>
<!-- 8&#45;&gt;9 -->
<g id="edge21" class="edge">
<title>8&#45;&gt;9</title>
<path fill="none" stroke="black" stroke-dasharray="5,2" d="M645.82,-1138.76C649.05,-1150.83 651.86,-1163.1 653.78,-1175 660.92,-1219.32 663.18,-1232.11 653.78,-1276 648.78,-1299.35 639.45,-1323.54 629.99,-1344.92"/>
<polygon fill="black" stroke="black" points="626.71,-1343.66 625.79,-1354.21 633.09,-1346.54 626.71,-1343.66"/>
</g>
<!-- 8&#45;&gt;10 -->
<g id="edge18" class="edge">
<title>8&#45;&gt;10</title>
<path fill="none" stroke="black" stroke-dasharray="5,2" d="M554.7,-1138.58C549.4,-1148.02 544.25,-1157.36 539.47,-1166.21"/>
<polygon fill="black" stroke="black" points="536.27,-1164.78 534.63,-1175.25 542.44,-1168.09 536.27,-1164.78"/>
</g>
<!-- 8&#45;&gt;11 -->
<g id="edge20" class="edge">
<title>8&#45;&gt;11</title>
<path fill="none" stroke="black" stroke-dasharray="5,2" d="M400.85,-1124.28C382.55,-1138.81 366.3,-1155.62 353.78,-1175 278.91,-1290.9 298.44,-1463.73 317.94,-1548.58"/>
<polygon fill="black" stroke="black" points="314.57,-1549.58 320.31,-1558.49 321.38,-1547.95 314.57,-1549.58"/>
</g>
<!-- 8&#45;&gt;12 -->
<g id="edge19" class="edge">
<title>8&#45;&gt;12</title>
<path fill="none" stroke="black" stroke-dasharray="5,2" d="M664.64,-1138.67C670.19,-1150.71 675.41,-1162.99 679.78,-1175 724.99,-1299.43 735.37,-1456.06 740.52,-1539.88"/>
<polygon fill="black" stroke="black" points="737.04,-1540.21 741.14,-1549.98 744.02,-1539.78 737.04,-1540.21"/>
</g>
<!-- 13 -->
<g id="node11" class="node">
<title>13</title>
<polygon fill="#f2f2f2" stroke="black" points="1496.89,-988.1 1496.89,-1088.1 1798.67,-1088.1 1798.67,-988.1 1496.89,-988.1"/>
<text text-anchor="middle" x="1647.78" y="-1071.5" font-family="Times,serif" font-size="14.00">&lt;&lt;Library&gt;&gt;</text>
<text text-anchor="middle" x="1647.78" y="-1054.7" font-family="Times,serif" font-size="14.00">Tools</text>
<text text-anchor="middle" x="1647.78" y="-1037.9" font-family="Times,serif" font-size="14.00">contracts/libraries/tools.sol</text>
<polyline fill="none" stroke="black" points="1496.89,-1029.7 1798.67,-1029.7 "/>
<text text-anchor="start" x="1504.89" y="-1013.1" font-family="Times,serif" font-size="14.00">Internal:</text>
<text text-anchor="start" x="1504.89" y="-996.3" font-family="Times,serif" font-size="14.00"> &#160;&#160;&#160;verifyProof(orderId: uint256, proof: bytes): bool</text>
</g>
<!-- 14 -->
<g id="node12" class="node">
<title>14</title>
<polygon fill="#f2f2f2" stroke="black" points="1336.53,-197.7 1336.53,-297.7 1659.02,-297.7 1659.02,-197.7 1336.53,-197.7"/>
<text text-anchor="middle" x="1497.78" y="-281.1" font-family="Times,serif" font-size="14.00">MockTocken</text>
<text text-anchor="middle" x="1497.78" y="-264.3" font-family="Times,serif" font-size="14.00">contracts/mock/mock_erc20_contract.sol</text>
<polyline fill="none" stroke="black" points="1336.53,-256.1 1659.02,-256.1 "/>
<text text-anchor="start" x="1344.53" y="-239.5" font-family="Times,serif" font-size="14.00">Public:</text>
<text text-anchor="start" x="1344.53" y="-222.7" font-family="Times,serif" font-size="14.00"> &#160;&#160;&#160;constructor()</text>
<text text-anchor="start" x="1344.53" y="-205.9" font-family="Times,serif" font-size="14.00"> &#160;&#160;&#160;mint(to: address, amount: uint256) &lt;&lt;onlyOwner&gt;&gt;</text>
</g>
<!-- 0 -->
<g id="node13" class="node">
<title>0</title>
<polygon fill="#f2f2f2" stroke="black" points="1311.32,-603.5 1311.32,-829.1 1882.23,-829.1 1882.23,-603.5 1311.32,-603.5"/>
<text text-anchor="middle" x="1596.78" y="-812.5" font-family="Times,serif" font-size="14.00">OrderContract</text>
<text text-anchor="middle" x="1596.78" y="-795.7" font-family="Times,serif" font-size="14.00">contracts/order_contract.sol</text>
<polyline fill="none" stroke="black" points="1311.32,-787.5 1882.23,-787.5 "/>
<text text-anchor="start" x="1319.32" y="-770.9" font-family="Times,serif" font-size="14.00">Private:</text>
<text text-anchor="start" x="1319.32" y="-754.1" font-family="Times,serif" font-size="14.00"> &#160;&#160;orderStorage: OrderLibrary.OrderStorage</text>
<text text-anchor="start" x="1319.32" y="-737.3" font-family="Times,serif" font-size="14.00">Public:</text>
<text text-anchor="start" x="1319.32" y="-720.5" font-family="Times,serif" font-size="14.00"> &#160;&#160;token: IERC20</text>
<text text-anchor="start" x="1319.32" y="-703.7" font-family="Times,serif" font-size="14.00"> &#160;&#160;AUTHORIZED_CALLER_ROLE: bytes32</text>
<polyline fill="none" stroke="black" points="1311.32,-695.5 1882.23,-695.5 "/>
<text text-anchor="start" x="1319.32" y="-678.9" font-family="Times,serif" font-size="14.00">Public:</text>
<text text-anchor="start" x="1319.32" y="-662.1" font-family="Times,serif" font-size="14.00"> &#160;&#160;&#160;constructor(_authorizedCaller: address, _token: address)</text>
<text text-anchor="start" x="1319.32" y="-645.3" font-family="Times,serif" font-size="14.00"> &#160;&#160;&#160;create(statementId: uint256, input: bytes, price: uint256, buyer: address): uint256 &lt;&lt;onlyRole&gt;&gt;</text>
<text text-anchor="start" x="1319.32" y="-628.5" font-family="Times,serif" font-size="14.00"> &#160;&#160;&#160;get(id: uint256): OrderLibrary.Order</text>
<text text-anchor="start" x="1319.32" y="-611.7" font-family="Times,serif" font-size="14.00"> &#160;&#160;&#160;close(id: uint256, proof: bytes, finalPrice: uint256, producer: address) &lt;&lt;onlyRole&gt;&gt;</text>
</g>
<!-- 0&#45;&gt;4 -->
<g id="edge22" class="edge">
<title>0&#45;&gt;4</title>
<path fill="none" stroke="black" d="M1451.63,-829.15C1393.17,-874.2 1327.43,-924.86 1275.47,-964.9"/>
<polygon fill="black" stroke="black" points="1273.04,-962.36 1267.25,-971.23 1277.31,-967.9 1273.04,-962.36"/>
</g>
<!-- 0&#45;&gt;13 -->
<g id="edge23" class="edge">
<title>0&#45;&gt;13</title>
<path fill="none" stroke="black" stroke-dasharray="5,2" d="M1614.62,-829.15C1622.6,-879.24 1631.7,-936.26 1638.34,-977.91"/>
<polygon fill="black" stroke="black" points="1634.9,-978.56 1639.93,-987.88 1641.81,-977.45 1634.9,-978.56"/>
</g>
<!-- 1 -->
<g id="node14" class="node">
<title>1</title>
<polygon fill="#f2f2f2" stroke="black" points="583.48,-0.5 583.48,-494.9 1318.07,-494.9 1318.07,-0.5 583.48,-0.5"/>
<text text-anchor="middle" x="950.78" y="-478.3" font-family="Times,serif" font-size="14.00">ProofMarketEndpoint</text>
<text text-anchor="middle" x="950.78" y="-461.5" font-family="Times,serif" font-size="14.00">contracts/proof_market_endpoint.sol</text>
<polyline fill="none" stroke="black" points="583.48,-453.3 1318.07,-453.3 "/>
<text text-anchor="start" x="591.48" y="-436.7" font-family="Times,serif" font-size="14.00">Public:</text>
<text text-anchor="start" x="591.48" y="-419.9" font-family="Times,serif" font-size="14.00"> &#160;&#160;token: IERC20</text>
<text text-anchor="start" x="591.48" y="-403.1" font-family="Times,serif" font-size="14.00"> &#160;&#160;statementContract: StatementContract</text>
<text text-anchor="start" x="591.48" y="-386.3" font-family="Times,serif" font-size="14.00"> &#160;&#160;orderContract: OrderContract</text>
<text text-anchor="start" x="591.48" y="-369.5" font-family="Times,serif" font-size="14.00"> &#160;&#160;OWNER_ROLE: bytes32</text>
<text text-anchor="start" x="591.48" y="-352.7" font-family="Times,serif" font-size="14.00"> &#160;&#160;RELAYER_ROLE: bytes32</text>
<polyline fill="none" stroke="black" points="583.48,-344.5 1318.07,-344.5 "/>
<text text-anchor="start" x="591.48" y="-327.9" font-family="Times,serif" font-size="14.00">Public:</text>
<text text-anchor="start" x="591.48" y="-311.1" font-family="Times,serif" font-size="14.00"> &#160;&#160;&#160;&lt;&lt;event&gt;&gt; OrderCreated(id: uint256, statementId: uint256, input: bytes, price: uint256, buyer: address)</text>
<text text-anchor="start" x="591.48" y="-294.3" font-family="Times,serif" font-size="14.00"> &#160;&#160;&#160;&lt;&lt;event&gt;&gt; OrderClosed(id: uint256, producer: address, finalPrice: uint256, proof: bytes)</text>
<text text-anchor="start" x="591.48" y="-277.5" font-family="Times,serif" font-size="14.00"> &#160;&#160;&#160;&lt;&lt;event&gt;&gt; StatementAdded(id: uint256, definition: StatementLibrary.Definition)</text>
<text text-anchor="start" x="591.48" y="-260.7" font-family="Times,serif" font-size="14.00"> &#160;&#160;&#160;&lt;&lt;event&gt;&gt; StatementDefinitionUpdated(id: uint256, definition: StatementLibrary.Definition)</text>
<text text-anchor="start" x="591.48" y="-243.9" font-family="Times,serif" font-size="14.00"> &#160;&#160;&#160;&lt;&lt;event&gt;&gt; StatementPriceUpdated(id: uint256, price: StatementLibrary.Price)</text>
<text text-anchor="start" x="591.48" y="-227.1" font-family="Times,serif" font-size="14.00"> &#160;&#160;&#160;&lt;&lt;event&gt;&gt; StatementRemoved(id: uint256)</text>
<text text-anchor="start" x="591.48" y="-210.3" font-family="Times,serif" font-size="14.00"> &#160;&#160;&#160;&lt;&lt;modifier&gt;&gt; statementMustExist(statementId: uint256)</text>
<text text-anchor="start" x="591.48" y="-193.5" font-family="Times,serif" font-size="14.00"> &#160;&#160;&#160;&lt;&lt;modifier&gt;&gt; statementMustNotExist(definition: StatementLibrary.Definition)</text>
<text text-anchor="start" x="591.48" y="-176.7" font-family="Times,serif" font-size="14.00"> &#160;&#160;&#160;constructor(_token: IERC20)</text>
<text text-anchor="start" x="591.48" y="-159.9" font-family="Times,serif" font-size="14.00"> &#160;&#160;&#160;grantRelayer(relayer: address) &lt;&lt;onlyRole&gt;&gt;</text>
<text text-anchor="start" x="591.48" y="-143.1" font-family="Times,serif" font-size="14.00"> &#160;&#160;&#160;revokeRelayer(relayer: address) &lt;&lt;onlyRole&gt;&gt;</text>
<text text-anchor="start" x="591.48" y="-126.3" font-family="Times,serif" font-size="14.00"> &#160;&#160;&#160;getOrder(orderId: uint256): OrderLibrary.Order</text>
<text text-anchor="start" x="591.48" y="-109.5" font-family="Times,serif" font-size="14.00"> &#160;&#160;&#160;createOrder(statementId: uint256, input: bytes, price: uint256): uint256 &lt;&lt;statementMustExist&gt;&gt;</text>
<text text-anchor="start" x="591.48" y="-92.7" font-family="Times,serif" font-size="14.00"> &#160;&#160;&#160;closeOrder(orderId: uint256, proof: bytes, finalPrice: uint256, producer: address) &lt;&lt;onlyRole&gt;&gt;</text>
<text text-anchor="start" x="591.48" y="-75.9" font-family="Times,serif" font-size="14.00"> &#160;&#160;&#160;getStatement(id: uint256): StatementLibrary.StatementData</text>
<text text-anchor="start" x="591.48" y="-59.1" font-family="Times,serif" font-size="14.00"> &#160;&#160;&#160;addStatement(definition: StatementLibrary.Definition, price: StatementLibrary.Price) &lt;&lt;onlyRole, statementMustNotExist&gt;&gt;</text>
<text text-anchor="start" x="591.48" y="-42.3" font-family="Times,serif" font-size="14.00"> &#160;&#160;&#160;updateStatementDefinition(id: uint256, definition: StatementLibrary.Definition) &lt;&lt;onlyRole&gt;&gt;</text>
<text text-anchor="start" x="591.48" y="-25.5" font-family="Times,serif" font-size="14.00"> &#160;&#160;&#160;updateStatementPrice(id: uint256, price: StatementLibrary.Price) &lt;&lt;onlyRole&gt;&gt;</text>
<text text-anchor="start" x="591.48" y="-8.7" font-family="Times,serif" font-size="14.00"> &#160;&#160;&#160;removeStatement(id: uint256) &lt;&lt;onlyRole&gt;&gt;</text>
</g>
<!-- 1&#45;&gt;4 -->
<g id="edge27" class="edge">
<title>1&#45;&gt;4</title>
<path fill="none" stroke="black" stroke-dasharray="5,2" d="M1245.84,-495.17C1252.9,-506.92 1259.26,-519 1264.78,-531.4 1298.2,-606.47 1287.02,-822.09 1264.78,-901.2 1258.84,-922.32 1248.61,-943.4 1237.32,-962.44"/>
<polygon fill="black" stroke="black" points="1234.29,-960.68 1232.06,-971.04 1240.26,-964.33 1234.29,-960.68"/>
</g>
<!-- 1&#45;&gt;8 -->
<g id="edge26" class="edge">
<title>1&#45;&gt;8</title>
<path fill="none" stroke="black" stroke-dasharray="5,2" d="M656.6,-494.97C649.27,-506.79 642.61,-518.94 636.78,-531.4 605.1,-599.1 607.14,-800.18 612.07,-927.45"/>
<polygon fill="black" stroke="black" points="608.58,-927.77 612.47,-937.63 615.57,-927.49 608.58,-927.77"/>
</g>
<!-- 1&#45;&gt;0 -->
<g id="edge25" class="edge">
<title>1&#45;&gt;0</title>
<path fill="none" stroke="black" d="M1291.75,-494.98C1341.04,-530.59 1389.78,-565.79 1433.34,-597.25"/>
<polygon fill="black" stroke="black" points="1431.54,-600.27 1441.7,-603.29 1435.64,-594.6 1431.54,-600.27"/>
</g>
<!-- 2 -->
<g id="node15" class="node">
<title>2</title>
<polygon fill="#f2f2f2" stroke="black" points="0,-578.3 0,-854.3 589.56,-854.3 589.56,-578.3 0,-578.3"/>
<text text-anchor="middle" x="294.78" y="-837.7" font-family="Times,serif" font-size="14.00">StatementContract</text>
<text text-anchor="middle" x="294.78" y="-820.9" font-family="Times,serif" font-size="14.00">contracts/statement_contract.sol</text>
<polyline fill="none" stroke="black" points="0,-812.7 589.56,-812.7 "/>
<text text-anchor="start" x="8" y="-796.1" font-family="Times,serif" font-size="14.00">Private:</text>
<text text-anchor="start" x="8" y="-779.3" font-family="Times,serif" font-size="14.00"> &#160;&#160;statementStorage: StatementLibrary.StatementStorage</text>
<text text-anchor="start" x="8" y="-762.5" font-family="Times,serif" font-size="14.00">Public:</text>
<text text-anchor="start" x="8" y="-745.7" font-family="Times,serif" font-size="14.00"> &#160;&#160;AUTHORIZED_CALLER_ROLE: bytes32</text>
<polyline fill="none" stroke="black" points="0,-737.5 589.56,-737.5 "/>
<text text-anchor="start" x="8" y="-720.9" font-family="Times,serif" font-size="14.00">Public:</text>
<text text-anchor="start" x="8" y="-704.1" font-family="Times,serif" font-size="14.00"> &#160;&#160;&#160;constructor(_authorizedCaller: address)</text>
<text text-anchor="start" x="8" y="-687.3" font-family="Times,serif" font-size="14.00"> &#160;&#160;&#160;add(definition: StatementLibrary.Definition, price: StatementLibrary.Price): uint256 &lt;&lt;onlyRole&gt;&gt;</text>
<text text-anchor="start" x="8" y="-670.5" font-family="Times,serif" font-size="14.00"> &#160;&#160;&#160;get(id: uint256): StatementLibrary.StatementData</text>
<text text-anchor="start" x="8" y="-653.7" font-family="Times,serif" font-size="14.00"> &#160;&#160;&#160;update(id: uint256, price: StatementLibrary.Price) &lt;&lt;onlyRole&gt;&gt;</text>
<text text-anchor="start" x="8" y="-636.9" font-family="Times,serif" font-size="14.00"> &#160;&#160;&#160;update(id: uint256, definition: StatementLibrary.Definition) &lt;&lt;onlyRole&gt;&gt;</text>
<text text-anchor="start" x="8" y="-620.1" font-family="Times,serif" font-size="14.00"> &#160;&#160;&#160;remove(id: uint256) &lt;&lt;onlyRole&gt;&gt;</text>
<text text-anchor="start" x="8" y="-603.3" font-family="Times,serif" font-size="14.00"> &#160;&#160;&#160;exists(id: uint256): bool</text>
<text text-anchor="start" x="8" y="-586.5" font-family="Times,serif" font-size="14.00"> &#160;&#160;&#160;exists(definition: StatementLibrary.Definition): bool</text>
</g>
<!-- 1&#45;&gt;2 -->
<g id="edge24" class="edge">
<title>1&#45;&gt;2</title>
<path fill="none" stroke="black" d="M604.53,-494.98C567.32,-521.45 530.42,-547.69 495.76,-572.34"/>
<polygon fill="black" stroke="black" points="493.59,-569.59 487.47,-578.24 497.65,-575.3 493.59,-569.59"/>
</g>
<!-- 2&#45;&gt;8 -->
<g id="edge28" class="edge">
<title>2&#45;&gt;8</title>
<path fill="none" stroke="black" d="M433.16,-854.32C458.88,-879.77 485.39,-906.02 510.02,-930.41"/>
<polygon fill="black" stroke="black" points="507.69,-933.03 517.26,-937.57 512.61,-928.05 507.69,-933.03"/>
</g>
</g>
</svg>
