<?xml version="1.0" encoding="UTF-8" standalone="no"?>
<!DOCTYPE svg PUBLIC "-//W3C//DTD SVG 1.1//EN"
 "http://www.w3.org/Graphics/SVG/1.1/DTD/svg11.dtd">
<!-- Generated by graphviz version 5.0.0 (20220707.1540)
 -->
<!-- Title: UmlClassDiagram Pages: 1 -->
<svg width="1626pt" height="934pt"
 viewBox="0.00 0.00 1625.66 933.80" xmlns="http://www.w3.org/2000/svg" xmlns:xlink="http://www.w3.org/1999/xlink">
<g id="graph0" class="graph" transform="scale(1 1) rotate(0) translate(4 929.8)">
<title>UmlClassDiagram</title>
<polygon fill="white" stroke="transparent" points="-4,4 -4,-929.8 1621.66,-929.8 1621.66,4 -4,4"/>
<!-- 4 -->
<g id="node1" class="node">
<title>4</title>
<polygon fill="#f2f2f2" stroke="black" points="783.72,-200.3 783.72,-300.3 975.05,-300.3 975.05,-200.3 783.72,-200.3"/>
<text text-anchor="middle" x="879.38" y="-283.7" font-family="Times,serif" font-size="14.00">&lt;&lt;Enum&gt;&gt;</text>
<text text-anchor="middle" x="879.38" y="-266.9" font-family="Times,serif" font-size="14.00">OrderStatus</text>
<text text-anchor="middle" x="879.38" y="-250.1" font-family="Times,serif" font-size="14.00">contracts/libraries/order_lib.sol</text>
<polyline fill="none" stroke="black" points="783.72,-241.9 975.05,-241.9 "/>
<text text-anchor="start" x="791.72" y="-225.3" font-family="Times,serif" font-size="14.00">OPEN: 0</text>
<text text-anchor="start" x="791.72" y="-208.5" font-family="Times,serif" font-size="14.00">CLOSED: 1</text>
</g>
<!-- 3 -->
<g id="node4" class="node">
<title>3</title>
<polygon fill="#f2f2f2" stroke="black" points="558.8,-416.9 558.8,-550.5 1199.97,-550.5 1199.97,-416.9 558.8,-416.9"/>
<text text-anchor="middle" x="879.38" y="-533.9" font-family="Times,serif" font-size="14.00">&lt;&lt;Library&gt;&gt;</text>
<text text-anchor="middle" x="879.38" y="-517.1" font-family="Times,serif" font-size="14.00">OrderLibrary</text>
<text text-anchor="middle" x="879.38" y="-500.3" font-family="Times,serif" font-size="14.00">contracts/libraries/order_lib.sol</text>
<polyline fill="none" stroke="black" points="558.8,-492.1 1199.97,-492.1 "/>
<text text-anchor="start" x="566.8" y="-475.5" font-family="Times,serif" font-size="14.00">Internal:</text>
<text text-anchor="start" x="566.8" y="-458.7" font-family="Times,serif" font-size="14.00"> &#160;&#160;&#160;createOrder(self: OrderStorage, statementId: uint256, input: bytes32, price: uint256, buyer: address): uint256</text>
<text text-anchor="start" x="566.8" y="-441.9" font-family="Times,serif" font-size="14.00"> &#160;&#160;&#160;getOrder(self: OrderStorage, id: uint256): Order</text>
<text text-anchor="start" x="566.8" y="-425.1" font-family="Times,serif" font-size="14.00"> &#160;&#160;&#160;updateOrder(self: OrderStorage, id: uint256, producer: address, proof: bytes32[])</text>
</g>
<!-- 4&#45;&gt;3 -->
<g id="edge3" class="edge">
<title>4&#45;&gt;3</title>
<path fill="none" stroke="black" d="M873.75,-300.37C872.61,-330.5 872.34,-369.78 872.95,-404.16"/>
<polygon fill="black" stroke="black" points="872.96,-404.58 877.09,-410.49 873.22,-416.57 869.09,-410.66 872.96,-404.58"/>
</g>
<!-- 5 -->
<g id="node2" class="node">
<title>5</title>
<polygon fill="#f2f2f2" stroke="black" points="642.72,-724.5 642.72,-925.3 834.05,-925.3 834.05,-724.5 642.72,-724.5"/>
<text text-anchor="middle" x="738.38" y="-908.7" font-family="Times,serif" font-size="14.00">&lt;&lt;Struct&gt;&gt;</text>
<text text-anchor="middle" x="738.38" y="-891.9" font-family="Times,serif" font-size="14.00">Order</text>
<text text-anchor="middle" x="738.38" y="-875.1" font-family="Times,serif" font-size="14.00">contracts/libraries/order_lib.sol</text>
<polyline fill="none" stroke="black" points="642.72,-866.9 834.05,-866.9 "/>
<text text-anchor="start" x="650.72" y="-850.3" font-family="Times,serif" font-size="14.00">id: uint256</text>
<text text-anchor="start" x="650.72" y="-833.5" font-family="Times,serif" font-size="14.00">statementId: uint256</text>
<text text-anchor="start" x="650.72" y="-816.7" font-family="Times,serif" font-size="14.00">input: bytes32</text>
<text text-anchor="start" x="650.72" y="-799.9" font-family="Times,serif" font-size="14.00">price: uint256</text>
<text text-anchor="start" x="650.72" y="-783.1" font-family="Times,serif" font-size="14.00">buyer: address</text>
<text text-anchor="start" x="650.72" y="-766.3" font-family="Times,serif" font-size="14.00">status: OrderStatus</text>
<text text-anchor="start" x="650.72" y="-749.5" font-family="Times,serif" font-size="14.00">producer: address</text>
<text text-anchor="start" x="650.72" y="-732.7" font-family="Times,serif" font-size="14.00">proof: bytes32[]</text>
</g>
<!-- 5&#45;&gt;4 -->
<g id="edge1" class="edge">
<title>5&#45;&gt;4</title>
<path fill="none" stroke="black" stroke-dasharray="5,2" d="M642.49,-732.93C561.01,-644.65 469.02,-510.58 549.38,-416.4 615.4,-339.03 687.39,-431.41 775.38,-380.4 804.71,-363.4 829.06,-334.73 846.81,-308.71"/>
<polygon fill="black" stroke="black" points="849.72,-310.65 852.34,-300.38 843.89,-306.78 849.72,-310.65"/>
</g>
<!-- 5&#45;&gt;3 -->
<g id="edge4" class="edge">
<title>5&#45;&gt;3</title>
<path fill="none" stroke="black" d="M742.93,-724.24C745.88,-680.07 753.83,-628.77 775.38,-587 780.28,-577.52 786.43,-568.48 793.3,-559.99"/>
<polygon fill="black" stroke="black" points="793.5,-559.75 794.37,-552.59 801.32,-550.64 800.45,-557.8 793.5,-559.75"/>
</g>
<!-- 6 -->
<g id="node3" class="node">
<title>6</title>
<polygon fill="#f2f2f2" stroke="black" points="775.43,-587.5 775.43,-687.5 983.34,-687.5 983.34,-587.5 775.43,-587.5"/>
<text text-anchor="middle" x="879.38" y="-670.9" font-family="Times,serif" font-size="14.00">&lt;&lt;Struct&gt;&gt;</text>
<text text-anchor="middle" x="879.38" y="-654.1" font-family="Times,serif" font-size="14.00">OrderStorage</text>
<text text-anchor="middle" x="879.38" y="-637.3" font-family="Times,serif" font-size="14.00">contracts/libraries/order_lib.sol</text>
<polyline fill="none" stroke="black" points="775.43,-629.1 983.34,-629.1 "/>
<text text-anchor="start" x="783.43" y="-612.5" font-family="Times,serif" font-size="14.00">orders: mapping(uint256=&gt;Order)</text>
<text text-anchor="start" x="783.43" y="-595.7" font-family="Times,serif" font-size="14.00">orderCounter: uint256</text>
</g>
<!-- 6&#45;&gt;5 -->
<g id="edge2" class="edge">
<title>6&#45;&gt;5</title>
<path fill="none" stroke="black" stroke-dasharray="5,2" d="M841.97,-687.7C835.14,-696.67 827.79,-706.35 820.25,-716.26"/>
<polygon fill="black" stroke="black" points="817.44,-714.17 814.17,-724.24 823.01,-718.4 817.44,-714.17"/>
</g>
<!-- 6&#45;&gt;3 -->
<g id="edge5" class="edge">
<title>6&#45;&gt;3</title>
<path fill="none" stroke="black" d="M885.74,-587.47C885.98,-579.63 886.11,-571.34 886.13,-563.02"/>
<polygon fill="black" stroke="black" points="886.13,-562.84 882.11,-556.86 886.08,-550.84 890.11,-556.82 886.13,-562.84"/>
</g>
<!-- 3&#45;&gt;4 -->
<g id="edge8" class="edge">
<title>3&#45;&gt;4</title>
<path fill="none" stroke="black" stroke-dasharray="5,2" d="M885.55,-416.57C886.39,-383.18 886.32,-342.98 885.36,-310.6"/>
<polygon fill="black" stroke="black" points="888.85,-310.25 885.02,-300.37 881.86,-310.49 888.85,-310.25"/>
</g>
<!-- 3&#45;&gt;5 -->
<g id="edge7" class="edge">
<title>3&#45;&gt;5</title>
<path fill="none" stroke="black" stroke-dasharray="5,2" d="M783.5,-550.64C773.24,-561.75 764.12,-573.95 757.38,-587 737.47,-625.59 729.17,-672.31 726.93,-714.03"/>
<polygon fill="black" stroke="black" points="723.43,-714.1 726.5,-724.24 730.42,-714.4 723.43,-714.1"/>
</g>
<!-- 3&#45;&gt;6 -->
<g id="edge6" class="edge">
<title>3&#45;&gt;6</title>
<path fill="none" stroke="black" stroke-dasharray="5,2" d="M872.68,-550.84C872.59,-559.68 872.63,-568.71 872.78,-577.42"/>
<polygon fill="black" stroke="black" points="869.29,-577.56 873.02,-587.47 876.28,-577.39 869.29,-577.56"/>
</g>
<!-- 8 -->
<g id="node5" class="node">
<title>8</title>
<polygon fill="#f2f2f2" stroke="black" points="232.66,-766.5 232.66,-883.3 448.11,-883.3 448.11,-766.5 232.66,-766.5"/>
<text text-anchor="middle" x="340.38" y="-866.7" font-family="Times,serif" font-size="14.00">&lt;&lt;Struct&gt;&gt;</text>
<text text-anchor="middle" x="340.38" y="-849.9" font-family="Times,serif" font-size="14.00">StatementData</text>
<text text-anchor="middle" x="340.38" y="-833.1" font-family="Times,serif" font-size="14.00">contracts/libraries/statement_lib.sol</text>
<polyline fill="none" stroke="black" points="232.66,-824.9 448.11,-824.9 "/>
<text text-anchor="start" x="240.66" y="-808.3" font-family="Times,serif" font-size="14.00">id: uint256</text>
<text text-anchor="start" x="240.66" y="-791.5" font-family="Times,serif" font-size="14.00">definition: bytes32</text>
<text text-anchor="start" x="240.66" y="-774.7" font-family="Times,serif" font-size="14.00">price: uint256</text>
</g>
<!-- 7 -->
<g id="node7" class="node">
<title>7</title>
<polygon fill="#f2f2f2" stroke="black" points="0,-416.9 0,-550.5 502.77,-550.5 502.77,-416.9 0,-416.9"/>
<text text-anchor="middle" x="251.38" y="-533.9" font-family="Times,serif" font-size="14.00">&lt;&lt;Library&gt;&gt;</text>
<text text-anchor="middle" x="251.38" y="-517.1" font-family="Times,serif" font-size="14.00">StatementLibrary</text>
<text text-anchor="middle" x="251.38" y="-500.3" font-family="Times,serif" font-size="14.00">contracts/libraries/statement_lib.sol</text>
<polyline fill="none" stroke="black" points="0,-492.1 502.77,-492.1 "/>
<text text-anchor="start" x="8" y="-475.5" font-family="Times,serif" font-size="14.00">Internal:</text>
<text text-anchor="start" x="8" y="-458.7" font-family="Times,serif" font-size="14.00"> &#160;&#160;&#160;createStatement(self: StatementStorage, definition: bytes32, price: uint256): uint256</text>
<text text-anchor="start" x="8" y="-441.9" font-family="Times,serif" font-size="14.00"> &#160;&#160;&#160;getStatement(self: StatementStorage, id: uint256): StatementData</text>
<text text-anchor="start" x="8" y="-425.1" font-family="Times,serif" font-size="14.00"> &#160;&#160;&#160;updateStatementPrice(self: StatementStorage, id: uint256, price: uint256)</text>
</g>
<!-- 8&#45;&gt;7 -->
<g id="edge10" class="edge">
<title>8&#45;&gt;7</title>
<path fill="none" stroke="black" d="M347.43,-766.43C347.59,-717.52 341.44,-646.01 321.38,-587 318.49,-578.49 314.82,-569.92 310.68,-561.56"/>
<polygon fill="black" stroke="black" points="310.56,-561.34 304.24,-557.88 304.99,-550.71 311.32,-554.17 310.56,-561.34"/>
</g>
<!-- 9 -->
<g id="node6" class="node">
<title>9</title>
<polygon fill="#f2f2f2" stroke="black" points="21.49,-587.5 21.49,-687.5 303.28,-687.5 303.28,-587.5 21.49,-587.5"/>
<text text-anchor="middle" x="162.38" y="-670.9" font-family="Times,serif" font-size="14.00">&lt;&lt;Struct&gt;&gt;</text>
<text text-anchor="middle" x="162.38" y="-654.1" font-family="Times,serif" font-size="14.00">StatementStorage</text>
<text text-anchor="middle" x="162.38" y="-637.3" font-family="Times,serif" font-size="14.00">contracts/libraries/statement_lib.sol</text>
<polyline fill="none" stroke="black" points="21.49,-629.1 303.28,-629.1 "/>
<text text-anchor="start" x="29.49" y="-612.5" font-family="Times,serif" font-size="14.00">statements: mapping(uint256=&gt;StatementData)</text>
<text text-anchor="start" x="29.49" y="-595.7" font-family="Times,serif" font-size="14.00">statementCounter: uint256</text>
</g>
<!-- 9&#45;&gt;8 -->
<g id="edge9" class="edge">
<title>9&#45;&gt;8</title>
<path fill="none" stroke="black" stroke-dasharray="5,2" d="M209.62,-687.7C230.53,-709.48 255.42,-735.4 277.84,-758.76"/>
<polygon fill="black" stroke="black" points="275.58,-761.45 285.03,-766.24 280.63,-756.6 275.58,-761.45"/>
</g>
<!-- 9&#45;&gt;7 -->
<g id="edge11" class="edge">
<title>9&#45;&gt;7</title>
<path fill="none" stroke="black" d="M197.49,-587.47C202.66,-579.08 208.01,-570.18 213.24,-561.27"/>
<polygon fill="black" stroke="black" points="213.27,-561.21 212.83,-554.02 219.31,-550.84 219.75,-558.04 213.27,-561.21"/>
</g>
<!-- 7&#45;&gt;8 -->
<g id="edge13" class="edge">
<title>7&#45;&gt;8</title>
<path fill="none" stroke="black" stroke-dasharray="5,2" d="M287.25,-550.71C293.46,-562.4 299.22,-574.76 303.38,-587 322.11,-642.09 328.72,-708.07 332.35,-756.39"/>
<polygon fill="black" stroke="black" points="328.87,-756.71 333.09,-766.43 335.85,-756.2 328.87,-756.71"/>
</g>
<!-- 7&#45;&gt;9 -->
<g id="edge12" class="edge">
<title>7&#45;&gt;9</title>
<path fill="none" stroke="black" stroke-dasharray="5,2" d="M205.91,-550.84C200.4,-560.07 194.92,-569.49 189.78,-578.55"/>
<polygon fill="black" stroke="black" points="186.61,-577.04 184.77,-587.47 192.72,-580.47 186.61,-577.04"/>
</g>
<!-- 10 -->
<g id="node8" class="node">
<title>10</title>
<polygon fill="#f2f2f2" stroke="black" points="1217.83,-433.7 1217.83,-533.7 1542.93,-533.7 1542.93,-433.7 1217.83,-433.7"/>
<text text-anchor="middle" x="1380.38" y="-517.1" font-family="Times,serif" font-size="14.00">&lt;&lt;Library&gt;&gt;</text>
<text text-anchor="middle" x="1380.38" y="-500.3" font-family="Times,serif" font-size="14.00">Tools</text>
<text text-anchor="middle" x="1380.38" y="-483.5" font-family="Times,serif" font-size="14.00">contracts/libraries/tools.sol</text>
<polyline fill="none" stroke="black" points="1217.83,-475.3 1542.93,-475.3 "/>
<text text-anchor="start" x="1225.83" y="-458.7" font-family="Times,serif" font-size="14.00">Internal:</text>
<text text-anchor="start" x="1225.83" y="-441.9" font-family="Times,serif" font-size="14.00"> &#160;&#160;&#160;verifyProof(orderId: uint256, proof: bytes32[]): bool</text>
</g>
<!-- 0 -->
<g id="node9" class="node">
<title>0</title>
<polygon fill="#f2f2f2" stroke="black" points="993.1,-154.3 993.1,-346.3 1617.66,-346.3 1617.66,-154.3 993.1,-154.3"/>
<text text-anchor="middle" x="1305.38" y="-329.7" font-family="Times,serif" font-size="14.00">OrderContract</text>
<text text-anchor="middle" x="1305.38" y="-312.9" font-family="Times,serif" font-size="14.00">contracts/order_contract.sol</text>
<polyline fill="none" stroke="black" points="993.1,-304.7 1617.66,-304.7 "/>
<text text-anchor="start" x="1001.1" y="-288.1" font-family="Times,serif" font-size="14.00">Private:</text>
<text text-anchor="start" x="1001.1" y="-271.3" font-family="Times,serif" font-size="14.00"> &#160;&#160;orderStorage: OrderLibrary.OrderStorage</text>
<polyline fill="none" stroke="black" points="993.1,-263.1 1617.66,-263.1 "/>
<text text-anchor="start" x="1001.1" y="-246.5" font-family="Times,serif" font-size="14.00">Public:</text>
<text text-anchor="start" x="1001.1" y="-229.7" font-family="Times,serif" font-size="14.00"> &#160;&#160;&#160;&lt;&lt;event&gt;&gt; OrderCreated(id: uint256, statementId: uint256, input: bytes32, price: uint256, buyer: address)</text>
<text text-anchor="start" x="1001.1" y="-212.9" font-family="Times,serif" font-size="14.00"> &#160;&#160;&#160;&lt;&lt;event&gt;&gt; OrderClosed(id: uint256, producer: address, proof: bytes32[])</text>
<text text-anchor="start" x="1001.1" y="-196.1" font-family="Times,serif" font-size="14.00"> &#160;&#160;&#160;createOrder(statementId: uint256, input: bytes32, price: uint256): uint256</text>
<text text-anchor="start" x="1001.1" y="-179.3" font-family="Times,serif" font-size="14.00"> &#160;&#160;&#160;getOrder(id: uint256): OrderLibrary.Order</text>
<text text-anchor="start" x="1001.1" y="-162.5" font-family="Times,serif" font-size="14.00"> &#160;&#160;&#160;updateOrder(id: uint256, producer: address, proof: bytes32[])</text>
</g>
<!-- 0&#45;&gt;3 -->
<g id="edge14" class="edge">
<title>0&#45;&gt;3</title>
<path fill="none" stroke="black" d="M1130.27,-346.42C1089.9,-368.35 1047.66,-391.29 1009.6,-411.97"/>
<polygon fill="black" stroke="black" points="1007.64,-409.05 1000.53,-416.9 1010.98,-415.2 1007.64,-409.05"/>
</g>
<!-- 0&#45;&gt;10 -->
<g id="edge15" class="edge">
<title>0&#45;&gt;10</title>
<path fill="none" stroke="black" stroke-dasharray="5,2" d="M1336.21,-346.42C1344.7,-372.6 1353.65,-400.23 1361.27,-423.72"/>
<polygon fill="black" stroke="black" points="1358.03,-425.08 1364.44,-433.51 1364.69,-422.92 1358.03,-425.08"/>
</g>
<!-- 1 -->
<g id="node10" class="node">
<title>1</title>
<polygon fill="#f2f2f2" stroke="black" points="807.16,-0.5 807.16,-83.7 1029.61,-83.7 1029.61,-0.5 807.16,-0.5"/>
<text text-anchor="middle" x="918.38" y="-67.1" font-family="Times,serif" font-size="14.00">ProofMarketEndpoint</text>
<text text-anchor="middle" x="918.38" y="-50.3" font-family="Times,serif" font-size="14.00">contracts/proof_market_endpoint.sol</text>
<polyline fill="none" stroke="black" points="807.16,-42.1 1029.61,-42.1 "/>
<text text-anchor="start" x="815.16" y="-25.5" font-family="Times,serif" font-size="14.00">Public:</text>
<text text-anchor="start" x="815.16" y="-8.7" font-family="Times,serif" font-size="14.00"> &#160;&#160;&#160;constructor()</text>
</g>
<!-- 1&#45;&gt;0 -->
<g id="edge17" class="edge">
<title>1&#45;&gt;0</title>
<path fill="none" stroke="black" d="M994.84,-83.84C1025.57,-100.21 1062.6,-119.94 1100.22,-139.99"/>
<polygon fill="none" stroke="black" points="1095.55,-149.39 1126.96,-154.23 1105.42,-130.86 1095.55,-149.39"/>
</g>
<!-- 2 -->
<g id="node11" class="node">
<title>2</title>
<polygon fill="#f2f2f2" stroke="black" points="298.64,-120.7 298.64,-379.9 766.12,-379.9 766.12,-120.7 298.64,-120.7"/>
<text text-anchor="middle" x="532.38" y="-363.3" font-family="Times,serif" font-size="14.00">StatementContract</text>
<text text-anchor="middle" x="532.38" y="-346.5" font-family="Times,serif" font-size="14.00">contracts/statement_contract.sol</text>
<polyline fill="none" stroke="black" points="298.64,-338.3 766.12,-338.3 "/>
<text text-anchor="start" x="306.64" y="-321.7" font-family="Times,serif" font-size="14.00">Private:</text>
<text text-anchor="start" x="306.64" y="-304.9" font-family="Times,serif" font-size="14.00"> &#160;&#160;statementStorage: StatementLibrary.StatementStorage</text>
<text text-anchor="start" x="306.64" y="-288.1" font-family="Times,serif" font-size="14.00">Public:</text>
<text text-anchor="start" x="306.64" y="-271.3" font-family="Times,serif" font-size="14.00"> &#160;&#160;owner: address</text>
<polyline fill="none" stroke="black" points="298.64,-263.1 766.12,-263.1 "/>
<text text-anchor="start" x="306.64" y="-246.5" font-family="Times,serif" font-size="14.00">Public:</text>
<text text-anchor="start" x="306.64" y="-229.7" font-family="Times,serif" font-size="14.00"> &#160;&#160;&#160;&lt;&lt;event&gt;&gt; StatementCreated(id: uint256, definition: bytes32, price: uint256)</text>
<text text-anchor="start" x="306.64" y="-212.9" font-family="Times,serif" font-size="14.00"> &#160;&#160;&#160;&lt;&lt;event&gt;&gt; StatementPriceUpdated(id: uint256, price: uint256)</text>
<text text-anchor="start" x="306.64" y="-196.1" font-family="Times,serif" font-size="14.00"> &#160;&#160;&#160;&lt;&lt;modifier&gt;&gt; onlyOwner()</text>
<text text-anchor="start" x="306.64" y="-179.3" font-family="Times,serif" font-size="14.00"> &#160;&#160;&#160;constructor()</text>
<text text-anchor="start" x="306.64" y="-162.5" font-family="Times,serif" font-size="14.00"> &#160;&#160;&#160;createStatement(definition: bytes32, price: uint256): uint256 &lt;&lt;onlyOwner&gt;&gt;</text>
<text text-anchor="start" x="306.64" y="-145.7" font-family="Times,serif" font-size="14.00"> &#160;&#160;&#160;getStatement(id: uint256): StatementLibrary.StatementData</text>
<text text-anchor="start" x="306.64" y="-128.9" font-family="Times,serif" font-size="14.00"> &#160;&#160;&#160;updateStatementPrice(id: uint256, price: uint256) &lt;&lt;onlyOwner&gt;&gt;</text>
</g>
<!-- 1&#45;&gt;2 -->
<g id="edge16" class="edge">
<title>1&#45;&gt;2</title>
<path fill="none" stroke="black" d="M842.12,-83.84C827.01,-91.91 810.36,-100.81 792.87,-110.15"/>
<polygon fill="none" stroke="black" points="787.75,-100.98 766.24,-124.38 797.65,-119.5 787.75,-100.98"/>
</g>
<!-- 2&#45;&gt;7 -->
<g id="edge18" class="edge">
<title>2&#45;&gt;7</title>
<path fill="none" stroke="black" d="M375.86,-380.19C363.47,-390.4 351.25,-400.46 339.59,-410.06"/>
<polygon fill="black" stroke="black" points="337.11,-407.57 331.61,-416.63 341.56,-412.98 337.11,-407.57"/>
</g>
</g>
</svg>
