<?xml version="1.0" encoding="UTF-8" standalone="no"?>
<!DOCTYPE svg PUBLIC "-//W3C//DTD SVG 1.1//EN"
 "http://www.w3.org/Graphics/SVG/1.1/DTD/svg11.dtd">
<!-- Generated by graphviz version 5.0.0 (20220707.1540)
 -->
<!-- Title: UmlClassDiagram Pages: 1 -->
<svg width="1826pt" height="1465pt"
 viewBox="0.00 0.00 1825.55 1465.20" xmlns="http://www.w3.org/2000/svg" xmlns:xlink="http://www.w3.org/1999/xlink">
<g id="graph0" class="graph" transform="scale(1 1) rotate(0) translate(4 1461.2)">
<title>UmlClassDiagram</title>
<polygon fill="white" stroke="transparent" points="-4,4 -4,-1461.2 1821.55,-1461.2 1821.55,4 -4,4"/>
<!-- 3 -->
<g id="node1" class="node">
<title>3</title>
<polygon fill="#f2f2f2" stroke="black" points="327.16,-1356.7 327.16,-1456.7 518.5,-1456.7 518.5,-1356.7 327.16,-1356.7"/>
<text text-anchor="middle" x="422.83" y="-1440.1" font-family="Times,serif" font-size="14.00">&lt;&lt;Enum&gt;&gt;</text>
<text text-anchor="middle" x="422.83" y="-1423.3" font-family="Times,serif" font-size="14.00">OrderStatus</text>
<text text-anchor="middle" x="422.83" y="-1406.5" font-family="Times,serif" font-size="14.00">contracts/libraries/order_lib.sol</text>
<polyline fill="none" stroke="black" points="327.16,-1398.3 518.5,-1398.3 "/>
<text text-anchor="start" x="335.16" y="-1381.7" font-family="Times,serif" font-size="14.00">OPEN: 0</text>
<text text-anchor="start" x="335.16" y="-1364.9" font-family="Times,serif" font-size="14.00">CLOSED: 1</text>
</g>
<!-- 4 -->
<g id="node2" class="node">
<title>4</title>
<polygon fill="#f2f2f2" stroke="black" points="112.16,-1118.9 112.16,-1319.7 303.5,-1319.7 303.5,-1118.9 112.16,-1118.9"/>
<text text-anchor="middle" x="207.83" y="-1303.1" font-family="Times,serif" font-size="14.00">&lt;&lt;Struct&gt;&gt;</text>
<text text-anchor="middle" x="207.83" y="-1286.3" font-family="Times,serif" font-size="14.00">Order</text>
<text text-anchor="middle" x="207.83" y="-1269.5" font-family="Times,serif" font-size="14.00">contracts/libraries/order_lib.sol</text>
<polyline fill="none" stroke="black" points="112.16,-1261.3 303.5,-1261.3 "/>
<text text-anchor="start" x="120.16" y="-1244.7" font-family="Times,serif" font-size="14.00">id: uint256</text>
<text text-anchor="start" x="120.16" y="-1227.9" font-family="Times,serif" font-size="14.00">statementId: uint256</text>
<text text-anchor="start" x="120.16" y="-1211.1" font-family="Times,serif" font-size="14.00">input: bytes</text>
<text text-anchor="start" x="120.16" y="-1194.3" font-family="Times,serif" font-size="14.00">price: uint256</text>
<text text-anchor="start" x="120.16" y="-1177.5" font-family="Times,serif" font-size="14.00">buyer: address</text>
<text text-anchor="start" x="120.16" y="-1160.7" font-family="Times,serif" font-size="14.00">status: OrderStatus</text>
<text text-anchor="start" x="120.16" y="-1143.9" font-family="Times,serif" font-size="14.00">producer: address</text>
<text text-anchor="start" x="120.16" y="-1127.1" font-family="Times,serif" font-size="14.00">proof: bytes</text>
</g>
<!-- 4&#45;&gt;3 -->
<g id="edge1" class="edge">
<title>4&#45;&gt;3</title>
<path fill="none" stroke="black" stroke-dasharray="5,2" d="M303.7,-1302.97C322.15,-1318.88 341.06,-1335.19 358.23,-1349.99"/>
<polygon fill="black" stroke="black" points="356.12,-1352.8 365.98,-1356.68 360.7,-1347.5 356.12,-1352.8"/>
</g>
<!-- 5 -->
<g id="node3" class="node">
<title>5</title>
<polygon fill="#f2f2f2" stroke="black" points="103.87,-981.9 103.87,-1081.9 311.79,-1081.9 311.79,-981.9 103.87,-981.9"/>
<text text-anchor="middle" x="207.83" y="-1065.3" font-family="Times,serif" font-size="14.00">&lt;&lt;Struct&gt;&gt;</text>
<text text-anchor="middle" x="207.83" y="-1048.5" font-family="Times,serif" font-size="14.00">OrderStorage</text>
<text text-anchor="middle" x="207.83" y="-1031.7" font-family="Times,serif" font-size="14.00">contracts/libraries/order_lib.sol</text>
<polyline fill="none" stroke="black" points="103.87,-1023.5 311.79,-1023.5 "/>
<text text-anchor="start" x="111.87" y="-1006.9" font-family="Times,serif" font-size="14.00">orders: mapping(uint256=&gt;Order)</text>
<text text-anchor="start" x="111.87" y="-990.1" font-family="Times,serif" font-size="14.00">orderCounter: uint256</text>
</g>
<!-- 5&#45;&gt;4 -->
<g id="edge2" class="edge">
<title>5&#45;&gt;4</title>
<path fill="none" stroke="black" stroke-dasharray="5,2" d="M207.83,-1082.1C207.83,-1090.45 207.83,-1099.41 207.83,-1108.6"/>
<polygon fill="black" stroke="black" points="204.33,-1108.64 207.83,-1118.64 211.33,-1108.64 204.33,-1108.64"/>
</g>
<!-- 6 -->
<g id="node4" class="node">
<title>6</title>
<polygon fill="#f2f2f2" stroke="black" points="125.57,-794.5 125.57,-928.1 720.09,-928.1 720.09,-794.5 125.57,-794.5"/>
<text text-anchor="middle" x="422.83" y="-911.5" font-family="Times,serif" font-size="14.00">&lt;&lt;Library&gt;&gt;</text>
<text text-anchor="middle" x="422.83" y="-894.7" font-family="Times,serif" font-size="14.00">OrderLibrary</text>
<text text-anchor="middle" x="422.83" y="-877.9" font-family="Times,serif" font-size="14.00">contracts/libraries/order_lib.sol</text>
<polyline fill="none" stroke="black" points="125.57,-869.7 720.09,-869.7 "/>
<text text-anchor="start" x="133.57" y="-853.1" font-family="Times,serif" font-size="14.00">Internal:</text>
<text text-anchor="start" x="133.57" y="-836.3" font-family="Times,serif" font-size="14.00"> &#160;&#160;&#160;create(self: OrderStorage, statementId: uint256, input: bytes, price: uint256, buyer: address): uint256</text>
<text text-anchor="start" x="133.57" y="-819.5" font-family="Times,serif" font-size="14.00"> &#160;&#160;&#160;get(self: OrderStorage, id: uint256): Order</text>
<text text-anchor="start" x="133.57" y="-802.7" font-family="Times,serif" font-size="14.00"> &#160;&#160;&#160;update(self: OrderStorage, id: uint256, producer: address, proof: bytes)</text>
</g>
<!-- 6&#45;&gt;3 -->
<g id="edge5" class="edge">
<title>6&#45;&gt;3</title>
<path fill="none" stroke="black" stroke-dasharray="5,2" d="M422.83,-928.12C422.83,-1034.79 422.83,-1243.82 422.83,-1346.25"/>
<polygon fill="black" stroke="black" points="419.33,-1346.42 422.83,-1356.42 426.33,-1346.42 419.33,-1346.42"/>
</g>
<!-- 6&#45;&gt;4 -->
<g id="edge4" class="edge">
<title>6&#45;&gt;4</title>
<path fill="none" stroke="black" stroke-dasharray="5,2" d="M397.59,-928.17C379.1,-973.16 351.89,-1033.28 320.83,-1082.4 314.87,-1091.83 308.32,-1101.32 301.48,-1110.66"/>
<polygon fill="black" stroke="black" points="298.56,-1108.72 295.39,-1118.83 304.17,-1112.91 298.56,-1108.72"/>
</g>
<!-- 6&#45;&gt;5 -->
<g id="edge3" class="edge">
<title>6&#45;&gt;5</title>
<path fill="none" stroke="black" stroke-dasharray="5,2" d="M338.78,-928.21C318.89,-943.81 297.88,-960.29 278.64,-975.37"/>
<polygon fill="black" stroke="black" points="276.23,-972.82 270.52,-981.74 280.54,-978.33 276.23,-972.82"/>
</g>
<!-- 7 -->
<g id="node5" class="node">
<title>7</title>
<polygon fill="#f2f2f2" stroke="black" points="1246.11,-1160.9 1246.11,-1277.7 1461.55,-1277.7 1461.55,-1160.9 1246.11,-1160.9"/>
<text text-anchor="middle" x="1353.83" y="-1261.1" font-family="Times,serif" font-size="14.00">&lt;&lt;Struct&gt;&gt;</text>
<text text-anchor="middle" x="1353.83" y="-1244.3" font-family="Times,serif" font-size="14.00">StatementData</text>
<text text-anchor="middle" x="1353.83" y="-1227.5" font-family="Times,serif" font-size="14.00">contracts/libraries/statement_lib.sol</text>
<polyline fill="none" stroke="black" points="1246.11,-1219.3 1461.55,-1219.3 "/>
<text text-anchor="start" x="1254.11" y="-1202.7" font-family="Times,serif" font-size="14.00">id: uint256</text>
<text text-anchor="start" x="1254.11" y="-1185.9" font-family="Times,serif" font-size="14.00">definition: Definition</text>
<text text-anchor="start" x="1254.11" y="-1169.1" font-family="Times,serif" font-size="14.00">price: Price</text>
</g>
<!-- 9 -->
<g id="node7" class="node">
<title>9</title>
<polygon fill="#f2f2f2" stroke="black" points="1160.11,-1365.1 1160.11,-1448.3 1375.55,-1448.3 1375.55,-1365.1 1160.11,-1365.1"/>
<text text-anchor="middle" x="1267.83" y="-1431.7" font-family="Times,serif" font-size="14.00">&lt;&lt;Struct&gt;&gt;</text>
<text text-anchor="middle" x="1267.83" y="-1414.9" font-family="Times,serif" font-size="14.00">Price</text>
<text text-anchor="middle" x="1267.83" y="-1398.1" font-family="Times,serif" font-size="14.00">contracts/libraries/statement_lib.sol</text>
<polyline fill="none" stroke="black" points="1160.11,-1389.9 1375.55,-1389.9 "/>
<text text-anchor="start" x="1168.11" y="-1373.3" font-family="Times,serif" font-size="14.00">price: uint256</text>
</g>
<!-- 7&#45;&gt;9 -->
<g id="edge7" class="edge">
<title>7&#45;&gt;9</title>
<path fill="none" stroke="black" stroke-dasharray="5,2" d="M1327.09,-1277.95C1315.55,-1302.81 1302.19,-1331.63 1291.07,-1355.59"/>
<polygon fill="black" stroke="black" points="1287.81,-1354.31 1286.77,-1364.86 1294.16,-1357.26 1287.81,-1354.31"/>
</g>
<!-- 10 -->
<g id="node8" class="node">
<title>10</title>
<polygon fill="#f2f2f2" stroke="black" points="1602.11,-1356.7 1602.11,-1456.7 1817.55,-1456.7 1817.55,-1356.7 1602.11,-1356.7"/>
<text text-anchor="middle" x="1709.83" y="-1440.1" font-family="Times,serif" font-size="14.00">&lt;&lt;Struct&gt;&gt;</text>
<text text-anchor="middle" x="1709.83" y="-1423.3" font-family="Times,serif" font-size="14.00">Definition</text>
<text text-anchor="middle" x="1709.83" y="-1406.5" font-family="Times,serif" font-size="14.00">contracts/libraries/statement_lib.sol</text>
<polyline fill="none" stroke="black" points="1602.11,-1398.3 1817.55,-1398.3 "/>
<text text-anchor="start" x="1610.11" y="-1381.7" font-family="Times,serif" font-size="14.00">verificationKey: bytes</text>
<text text-anchor="start" x="1610.11" y="-1364.9" font-family="Times,serif" font-size="14.00">provingKey: bytes</text>
</g>
<!-- 7&#45;&gt;10 -->
<g id="edge6" class="edge">
<title>7&#45;&gt;10</title>
<path fill="none" stroke="black" stroke-dasharray="5,2" d="M1461.61,-1276.43C1507.65,-1300.41 1561.17,-1328.28 1606.69,-1351.99"/>
<polygon fill="black" stroke="black" points="1605.2,-1355.16 1615.68,-1356.67 1608.43,-1348.95 1605.2,-1355.16"/>
</g>
<!-- 8 -->
<g id="node6" class="node">
<title>8</title>
<polygon fill="#f2f2f2" stroke="black" points="1247.94,-981.9 1247.94,-1081.9 1529.72,-1081.9 1529.72,-981.9 1247.94,-981.9"/>
<text text-anchor="middle" x="1388.83" y="-1065.3" font-family="Times,serif" font-size="14.00">&lt;&lt;Struct&gt;&gt;</text>
<text text-anchor="middle" x="1388.83" y="-1048.5" font-family="Times,serif" font-size="14.00">StatementStorage</text>
<text text-anchor="middle" x="1388.83" y="-1031.7" font-family="Times,serif" font-size="14.00">contracts/libraries/statement_lib.sol</text>
<polyline fill="none" stroke="black" points="1247.94,-1023.5 1529.72,-1023.5 "/>
<text text-anchor="start" x="1255.94" y="-1006.9" font-family="Times,serif" font-size="14.00">statements: mapping(uint256=&gt;StatementData)</text>
<text text-anchor="start" x="1255.94" y="-990.1" font-family="Times,serif" font-size="14.00">statementCounter: uint256</text>
</g>
<!-- 8&#45;&gt;7 -->
<g id="edge8" class="edge">
<title>8&#45;&gt;7</title>
<path fill="none" stroke="black" stroke-dasharray="5,2" d="M1379.54,-1082.1C1375.57,-1103.12 1370.87,-1128.01 1366.59,-1150.72"/>
<polygon fill="black" stroke="black" points="1363.13,-1150.17 1364.71,-1160.64 1370.01,-1151.46 1363.13,-1150.17"/>
</g>
<!-- 11 -->
<g id="node9" class="node">
<title>11</title>
<polygon fill="#f2f2f2" stroke="black" points="1286.05,-777.7 1286.05,-944.9 1719.61,-944.9 1719.61,-777.7 1286.05,-777.7"/>
<text text-anchor="middle" x="1502.83" y="-928.3" font-family="Times,serif" font-size="14.00">&lt;&lt;Library&gt;&gt;</text>
<text text-anchor="middle" x="1502.83" y="-911.5" font-family="Times,serif" font-size="14.00">StatementLibrary</text>
<text text-anchor="middle" x="1502.83" y="-894.7" font-family="Times,serif" font-size="14.00">contracts/libraries/statement_lib.sol</text>
<polyline fill="none" stroke="black" points="1286.05,-886.5 1719.61,-886.5 "/>
<text text-anchor="start" x="1294.05" y="-869.9" font-family="Times,serif" font-size="14.00">Internal:</text>
<text text-anchor="start" x="1294.05" y="-853.1" font-family="Times,serif" font-size="14.00"> &#160;&#160;&#160;add(self: StatementStorage, definition: Definition, price: Price): uint256</text>
<text text-anchor="start" x="1294.05" y="-836.3" font-family="Times,serif" font-size="14.00"> &#160;&#160;&#160;get(self: StatementStorage, id: uint256): StatementData</text>
<text text-anchor="start" x="1294.05" y="-819.5" font-family="Times,serif" font-size="14.00"> &#160;&#160;&#160;update(self: StatementStorage, id: uint256, price: Price)</text>
<text text-anchor="start" x="1294.05" y="-802.7" font-family="Times,serif" font-size="14.00"> &#160;&#160;&#160;update(self: StatementStorage, id: uint256, definition: Definition)</text>
<text text-anchor="start" x="1294.05" y="-785.9" font-family="Times,serif" font-size="14.00"> &#160;&#160;&#160;remove(self: StatementStorage, id: uint256)</text>
</g>
<!-- 11&#45;&gt;7 -->
<g id="edge12" class="edge">
<title>11&#45;&gt;7</title>
<path fill="none" stroke="black" stroke-dasharray="5,2" d="M1539.47,-944.91C1552.93,-987.87 1560.25,-1040.08 1538.83,-1082.4 1523.43,-1112.82 1497.66,-1138.09 1470.17,-1158.25"/>
<polygon fill="black" stroke="black" points="1468.11,-1155.42 1461.99,-1164.07 1472.17,-1161.12 1468.11,-1155.42"/>
</g>
<!-- 11&#45;&gt;8 -->
<g id="edge9" class="edge">
<title>11&#45;&gt;8</title>
<path fill="none" stroke="black" stroke-dasharray="5,2" d="M1446.83,-945.12C1440.43,-954.58 1434.01,-964.08 1427.9,-973.11"/>
<polygon fill="black" stroke="black" points="1424.85,-971.38 1422.15,-981.63 1430.65,-975.3 1424.85,-971.38"/>
</g>
<!-- 11&#45;&gt;9 -->
<g id="edge11" class="edge">
<title>11&#45;&gt;9</title>
<path fill="none" stroke="black" stroke-dasharray="5,2" d="M1547.25,-944.92C1552.02,-956.87 1556.11,-969.25 1558.83,-981.4 1592.74,-1133.23 1578.38,-1207.79 1470.83,-1320.2 1447.59,-1344.49 1416.37,-1362.18 1385.4,-1374.94"/>
<polygon fill="black" stroke="black" points="1383.81,-1371.8 1375.81,-1378.74 1386.39,-1378.31 1383.81,-1371.8"/>
</g>
<!-- 11&#45;&gt;10 -->
<g id="edge10" class="edge">
<title>11&#45;&gt;10</title>
<path fill="none" stroke="black" stroke-dasharray="5,2" d="M1586.15,-944.93C1595.06,-956.55 1603.26,-968.84 1609.83,-981.4 1672.67,-1101.6 1696.53,-1261.45 1705.2,-1346.52"/>
<polygon fill="black" stroke="black" points="1701.72,-1346.91 1706.18,-1356.52 1708.68,-1346.23 1701.72,-1346.91"/>
</g>
<!-- 12 -->
<g id="node10" class="node">
<title>12</title>
<polygon fill="#f2f2f2" stroke="black" points="737.94,-811.3 737.94,-911.3 1039.72,-911.3 1039.72,-811.3 737.94,-811.3"/>
<text text-anchor="middle" x="888.83" y="-894.7" font-family="Times,serif" font-size="14.00">&lt;&lt;Library&gt;&gt;</text>
<text text-anchor="middle" x="888.83" y="-877.9" font-family="Times,serif" font-size="14.00">Tools</text>
<text text-anchor="middle" x="888.83" y="-861.1" font-family="Times,serif" font-size="14.00">contracts/libraries/tools.sol</text>
<polyline fill="none" stroke="black" points="737.94,-852.9 1039.72,-852.9 "/>
<text text-anchor="start" x="745.94" y="-836.3" font-family="Times,serif" font-size="14.00">Internal:</text>
<text text-anchor="start" x="745.94" y="-819.5" font-family="Times,serif" font-size="14.00"> &#160;&#160;&#160;verifyProof(orderId: uint256, proof: bytes): bool</text>
</g>
<!-- 13 -->
<g id="node11" class="node">
<title>13</title>
<polygon fill="#f2f2f2" stroke="black" points="1448.58,-180.9 1448.58,-280.9 1771.07,-280.9 1771.07,-180.9 1448.58,-180.9"/>
<text text-anchor="middle" x="1609.83" y="-264.3" font-family="Times,serif" font-size="14.00">MockTocken</text>
<text text-anchor="middle" x="1609.83" y="-247.5" font-family="Times,serif" font-size="14.00">contracts/mock/mock_erc20_contract.sol</text>
<polyline fill="none" stroke="black" points="1448.58,-239.3 1771.07,-239.3 "/>
<text text-anchor="start" x="1456.58" y="-222.7" font-family="Times,serif" font-size="14.00">Public:</text>
<text text-anchor="start" x="1456.58" y="-205.9" font-family="Times,serif" font-size="14.00"> &#160;&#160;&#160;constructor()</text>
<text text-anchor="start" x="1456.58" y="-189.1" font-family="Times,serif" font-size="14.00"> &#160;&#160;&#160;mint(to: address, amount: uint256) &lt;&lt;onlyOwner&gt;&gt;</text>
</g>
<!-- 0 -->
<g id="node12" class="node">
<title>0</title>
<polygon fill="#f2f2f2" stroke="black" points="322.37,-506.7 322.37,-732.3 893.29,-732.3 893.29,-506.7 322.37,-506.7"/>
<text text-anchor="middle" x="607.83" y="-715.7" font-family="Times,serif" font-size="14.00">OrderContract</text>
<text text-anchor="middle" x="607.83" y="-698.9" font-family="Times,serif" font-size="14.00">contracts/order_contract.sol</text>
<polyline fill="none" stroke="black" points="322.37,-690.7 893.29,-690.7 "/>
<text text-anchor="start" x="330.37" y="-674.1" font-family="Times,serif" font-size="14.00">Private:</text>
<text text-anchor="start" x="330.37" y="-657.3" font-family="Times,serif" font-size="14.00"> &#160;&#160;orderStorage: OrderStorage</text>
<text text-anchor="start" x="330.37" y="-640.5" font-family="Times,serif" font-size="14.00">Public:</text>
<text text-anchor="start" x="330.37" y="-623.7" font-family="Times,serif" font-size="14.00"> &#160;&#160;token: IERC20</text>
<text text-anchor="start" x="330.37" y="-606.9" font-family="Times,serif" font-size="14.00"> &#160;&#160;AUTHORIZED_CALLER_ROLE: bytes32</text>
<polyline fill="none" stroke="black" points="322.37,-598.7 893.29,-598.7 "/>
<text text-anchor="start" x="330.37" y="-582.1" font-family="Times,serif" font-size="14.00">Public:</text>
<text text-anchor="start" x="330.37" y="-565.3" font-family="Times,serif" font-size="14.00"> &#160;&#160;&#160;constructor(_authorizedCaller: address, _token: address)</text>
<text text-anchor="start" x="330.37" y="-548.5" font-family="Times,serif" font-size="14.00"> &#160;&#160;&#160;create(statementId: uint256, input: bytes, price: uint256, buyer: address): uint256 &lt;&lt;onlyRole&gt;&gt;</text>
<text text-anchor="start" x="330.37" y="-531.7" font-family="Times,serif" font-size="14.00"> &#160;&#160;&#160;get(id: uint256): Order</text>
<text text-anchor="start" x="330.37" y="-514.9" font-family="Times,serif" font-size="14.00"> &#160;&#160;&#160;close(id: uint256, proof: bytes, finalPrice: uint256, producer: address) &lt;&lt;onlyRole&gt;&gt;</text>
</g>
<!-- 0&#45;&gt;3 -->
<g id="edge16" class="edge">
<title>0&#45;&gt;3</title>
<path fill="none" stroke="black" stroke-dasharray="5,2" d="M893.39,-665.56C954.22,-688.88 1011.34,-724.1 1048.83,-777.2 1091.94,-838.27 1082.58,-878.7 1048.83,-945.4 939.63,-1161.24 676.28,-1300.54 528.3,-1364.64"/>
<polygon fill="black" stroke="black" points="526.53,-1361.59 518.72,-1368.75 529.29,-1368.02 526.53,-1361.59"/>
</g>
<!-- 0&#45;&gt;4 -->
<g id="edge15" class="edge">
<title>0&#45;&gt;4</title>
<path fill="none" stroke="black" stroke-dasharray="5,2" d="M322.09,-674.61C217.41,-700.72 116.86,-735.49 85.83,-777.2 4.83,-886.08 44.54,-956.36 94.83,-1082.4 98.62,-1091.9 103.34,-1101.24 108.69,-1110.28"/>
<polygon fill="black" stroke="black" points="105.75,-1112.2 113.99,-1118.86 111.71,-1108.52 105.75,-1112.2"/>
</g>
<!-- 0&#45;&gt;5 -->
<g id="edge14" class="edge">
<title>0&#45;&gt;5</title>
<path fill="none" stroke="black" d="M322.12,-681.17C229.84,-706.96 144.18,-739.76 116.83,-777.2 72.73,-837.56 87.15,-876.79 116.83,-945.4 121.29,-955.71 127.67,-965.35 135.02,-974.17"/>
<polygon fill="black" stroke="black" points="132.44,-976.54 141.7,-981.7 137.68,-971.9 132.44,-976.54"/>
</g>
<!-- 0&#45;&gt;6 -->
<g id="edge13" class="edge">
<title>0&#45;&gt;6</title>
<path fill="none" stroke="black" stroke-dasharray="5,2" d="M521.56,-732.33C507.47,-750.58 493.19,-769.09 480.03,-786.15"/>
<polygon fill="black" stroke="black" points="477.01,-784.34 473.67,-794.4 482.55,-788.62 477.01,-784.34"/>
</g>
<!-- 0&#45;&gt;12 -->
<g id="edge17" class="edge">
<title>0&#45;&gt;12</title>
<path fill="none" stroke="black" stroke-dasharray="5,2" d="M738.87,-732.33C768.3,-757.45 798.29,-783.04 823.64,-804.67"/>
<polygon fill="black" stroke="black" points="821.48,-807.42 831.35,-811.25 826.02,-802.1 821.48,-807.42"/>
</g>
<!-- 1 -->
<g id="node13" class="node">
<title>1</title>
<polygon fill="#f2f2f2" stroke="black" points="819.55,-0.5 819.55,-461.3 1430.11,-461.3 1430.11,-0.5 819.55,-0.5"/>
<text text-anchor="middle" x="1124.83" y="-444.7" font-family="Times,serif" font-size="14.00">ProofMarketEndpoint</text>
<text text-anchor="middle" x="1124.83" y="-427.9" font-family="Times,serif" font-size="14.00">contracts/proof_market_endpoint.sol</text>
<polyline fill="none" stroke="black" points="819.55,-419.7 1430.11,-419.7 "/>
<text text-anchor="start" x="827.55" y="-403.1" font-family="Times,serif" font-size="14.00">Public:</text>
<text text-anchor="start" x="827.55" y="-386.3" font-family="Times,serif" font-size="14.00"> &#160;&#160;token: IERC20</text>
<text text-anchor="start" x="827.55" y="-369.5" font-family="Times,serif" font-size="14.00"> &#160;&#160;statementContract: StatementContract</text>
<text text-anchor="start" x="827.55" y="-352.7" font-family="Times,serif" font-size="14.00"> &#160;&#160;orderContract: OrderContract</text>
<text text-anchor="start" x="827.55" y="-335.9" font-family="Times,serif" font-size="14.00"> &#160;&#160;OWNER_ROLE: bytes32</text>
<text text-anchor="start" x="827.55" y="-319.1" font-family="Times,serif" font-size="14.00"> &#160;&#160;RELAYER_ROLE: bytes32</text>
<polyline fill="none" stroke="black" points="819.55,-310.9 1430.11,-310.9 "/>
<text text-anchor="start" x="827.55" y="-294.3" font-family="Times,serif" font-size="14.00">Public:</text>
<text text-anchor="start" x="827.55" y="-277.5" font-family="Times,serif" font-size="14.00"> &#160;&#160;&#160;&lt;&lt;event&gt;&gt; OrderCreated(id: uint256, statementId: uint256, input: bytes, price: uint256, buyer: address)</text>
<text text-anchor="start" x="827.55" y="-260.7" font-family="Times,serif" font-size="14.00"> &#160;&#160;&#160;&lt;&lt;event&gt;&gt; OrderClosed(id: uint256, producer: address, finalPrice: uint256, proof: bytes)</text>
<text text-anchor="start" x="827.55" y="-243.9" font-family="Times,serif" font-size="14.00"> &#160;&#160;&#160;&lt;&lt;event&gt;&gt; StatementAdded(id: uint256, definition: Definition)</text>
<text text-anchor="start" x="827.55" y="-227.1" font-family="Times,serif" font-size="14.00"> &#160;&#160;&#160;&lt;&lt;event&gt;&gt; StatementDefinitionUpdated(id: uint256, definition: Definition)</text>
<text text-anchor="start" x="827.55" y="-210.3" font-family="Times,serif" font-size="14.00"> &#160;&#160;&#160;&lt;&lt;event&gt;&gt; StatementPriceUpdated(id: uint256, price: Price)</text>
<text text-anchor="start" x="827.55" y="-193.5" font-family="Times,serif" font-size="14.00"> &#160;&#160;&#160;&lt;&lt;event&gt;&gt; StatementRemoved(id: uint256)</text>
<text text-anchor="start" x="827.55" y="-176.7" font-family="Times,serif" font-size="14.00"> &#160;&#160;&#160;constructor(_token: IERC20)</text>
<text text-anchor="start" x="827.55" y="-159.9" font-family="Times,serif" font-size="14.00"> &#160;&#160;&#160;grantRelayer(relayer: address) &lt;&lt;onlyRole&gt;&gt;</text>
<text text-anchor="start" x="827.55" y="-143.1" font-family="Times,serif" font-size="14.00"> &#160;&#160;&#160;revokeRelayer(relayer: address) &lt;&lt;onlyRole&gt;&gt;</text>
<text text-anchor="start" x="827.55" y="-126.3" font-family="Times,serif" font-size="14.00"> &#160;&#160;&#160;getOrder(orderId: uint256): Order</text>
<text text-anchor="start" x="827.55" y="-109.5" font-family="Times,serif" font-size="14.00"> &#160;&#160;&#160;createOrder(statementId: uint256, input: bytes, price: uint256): uint256</text>
<text text-anchor="start" x="827.55" y="-92.7" font-family="Times,serif" font-size="14.00"> &#160;&#160;&#160;closeOrder(orderId: uint256, proof: bytes, finalPrice: uint256, producer: address) &lt;&lt;onlyRole&gt;&gt;</text>
<text text-anchor="start" x="827.55" y="-75.9" font-family="Times,serif" font-size="14.00"> &#160;&#160;&#160;getStatement(id: uint256): StatementData</text>
<text text-anchor="start" x="827.55" y="-59.1" font-family="Times,serif" font-size="14.00"> &#160;&#160;&#160;addStatement(definition: Definition, price: Price) &lt;&lt;onlyRole&gt;&gt;</text>
<text text-anchor="start" x="827.55" y="-42.3" font-family="Times,serif" font-size="14.00"> &#160;&#160;&#160;updateStatementDefinition(id: uint256, definition: Definition) &lt;&lt;onlyRole&gt;&gt;</text>
<text text-anchor="start" x="827.55" y="-25.5" font-family="Times,serif" font-size="14.00"> &#160;&#160;&#160;updateStatementPrice(id: uint256, price: Price) &lt;&lt;onlyRole&gt;&gt;</text>
<text text-anchor="start" x="827.55" y="-8.7" font-family="Times,serif" font-size="14.00"> &#160;&#160;&#160;removeStatement(id: uint256) &lt;&lt;onlyRole&gt;&gt;</text>
</g>
<!-- 1&#45;&gt;4 -->
<g id="edge22" class="edge">
<title>1&#45;&gt;4</title>
<path fill="none" stroke="black" stroke-dasharray="5,2" d="M819.36,-275.74C543.68,-334.67 162.53,-470.23 35.83,-777.2 -15.99,-902.76 -11.52,-962.25 51.83,-1082.4 64.66,-1106.74 83.78,-1128.68 104.27,-1147.47"/>
<polygon fill="black" stroke="black" points="102.08,-1150.21 111.88,-1154.26 106.74,-1144.99 102.08,-1150.21"/>
</g>
<!-- 1&#45;&gt;7 -->
<g id="edge23" class="edge">
<title>1&#45;&gt;7</title>
<path fill="none" stroke="black" stroke-dasharray="5,2" d="M1128.29,-461.55C1134.9,-675.83 1153.85,-977.74 1207.83,-1082.4 1221.66,-1109.22 1243,-1133.53 1265.12,-1153.93"/>
<polygon fill="black" stroke="black" points="1262.87,-1156.61 1272.65,-1160.7 1267.55,-1151.41 1262.87,-1156.61"/>
</g>
<!-- 1&#45;&gt;9 -->
<g id="edge21" class="edge">
<title>1&#45;&gt;9</title>
<path fill="none" stroke="black" stroke-dasharray="5,2" d="M1114.55,-461.67C1110.07,-580.62 1105.83,-728.23 1105.83,-860.3 1105.83,-860.3 1105.83,-860.3 1105.83,-1032.9 1105.83,-1164.54 1111.48,-1206.51 1177.83,-1320.2 1185.67,-1333.64 1196.25,-1346.29 1207.39,-1357.54"/>
<polygon fill="black" stroke="black" points="1205.17,-1360.26 1214.77,-1364.73 1210.05,-1355.24 1205.17,-1360.26"/>
</g>
<!-- 1&#45;&gt;10 -->
<g id="edge20" class="edge">
<title>1&#45;&gt;10</title>
<path fill="none" stroke="black" stroke-dasharray="5,2" d="M1430.24,-457.03C1433.44,-458.65 1436.63,-460.24 1439.83,-461.8 1492.57,-487.5 1519.25,-463.48 1566.83,-497.8 1719.49,-607.92 1785.83,-672.07 1785.83,-860.3 1785.83,-860.3 1785.83,-860.3 1785.83,-1032.9 1785.83,-1161.53 1786.89,-1196.73 1750.83,-1320.2 1748.19,-1329.23 1744.69,-1338.49 1740.84,-1347.43"/>
<polygon fill="black" stroke="black" points="1737.62,-1346.04 1736.72,-1356.6 1744.01,-1348.91 1737.62,-1346.04"/>
</g>
<!-- 1&#45;&gt;0 -->
<g id="edge19" class="edge">
<title>1&#45;&gt;0</title>
<path fill="none" stroke="black" d="M819.23,-460.42C801.03,-474.03 783.16,-487.4 765.98,-500.24"/>
<polygon fill="black" stroke="black" points="763.52,-497.71 757.6,-506.5 767.71,-503.32 763.52,-497.71"/>
</g>
<!-- 2 -->
<g id="node14" class="node">
<title>2</title>
<polygon fill="#f2f2f2" stroke="black" points="1171.52,-498.3 1171.52,-740.7 1558.14,-740.7 1558.14,-498.3 1171.52,-498.3"/>
<text text-anchor="middle" x="1364.83" y="-724.1" font-family="Times,serif" font-size="14.00">StatementContract</text>
<text text-anchor="middle" x="1364.83" y="-707.3" font-family="Times,serif" font-size="14.00">contracts/statement_contract.sol</text>
<polyline fill="none" stroke="black" points="1171.52,-699.1 1558.14,-699.1 "/>
<text text-anchor="start" x="1179.52" y="-682.5" font-family="Times,serif" font-size="14.00">Private:</text>
<text text-anchor="start" x="1179.52" y="-665.7" font-family="Times,serif" font-size="14.00"> &#160;&#160;statementStorage: StatementStorage</text>
<text text-anchor="start" x="1179.52" y="-648.9" font-family="Times,serif" font-size="14.00">Public:</text>
<text text-anchor="start" x="1179.52" y="-632.1" font-family="Times,serif" font-size="14.00"> &#160;&#160;AUTHORIZED_CALLER_ROLE: bytes32</text>
<polyline fill="none" stroke="black" points="1171.52,-623.9 1558.14,-623.9 "/>
<text text-anchor="start" x="1179.52" y="-607.3" font-family="Times,serif" font-size="14.00">Public:</text>
<text text-anchor="start" x="1179.52" y="-590.5" font-family="Times,serif" font-size="14.00"> &#160;&#160;&#160;constructor(_authorizedCaller: address)</text>
<text text-anchor="start" x="1179.52" y="-573.7" font-family="Times,serif" font-size="14.00"> &#160;&#160;&#160;add(definition: Definition, price: Price): uint256 &lt;&lt;onlyRole&gt;&gt;</text>
<text text-anchor="start" x="1179.52" y="-556.9" font-family="Times,serif" font-size="14.00"> &#160;&#160;&#160;get(id: uint256): StatementData</text>
<text text-anchor="start" x="1179.52" y="-540.1" font-family="Times,serif" font-size="14.00"> &#160;&#160;&#160;update(id: uint256, price: Price) &lt;&lt;onlyRole&gt;&gt;</text>
<text text-anchor="start" x="1179.52" y="-523.3" font-family="Times,serif" font-size="14.00"> &#160;&#160;&#160;update(id: uint256, definition: Definition) &lt;&lt;onlyRole&gt;&gt;</text>
<text text-anchor="start" x="1179.52" y="-506.5" font-family="Times,serif" font-size="14.00"> &#160;&#160;&#160;remove(id: uint256) &lt;&lt;onlyRole&gt;&gt;</text>
</g>
<!-- 1&#45;&gt;2 -->
<g id="edge18" class="edge">
<title>1&#45;&gt;2</title>
<path fill="none" stroke="black" d="M1267.39,-461.53C1273.27,-471.01 1279.07,-480.36 1284.75,-489.5"/>
<polygon fill="black" stroke="black" points="1281.89,-491.54 1290.14,-498.19 1287.84,-487.85 1281.89,-491.54"/>
</g>
<!-- 2&#45;&gt;7 -->
<g id="edge28" class="edge">
<title>2&#45;&gt;7</title>
<path fill="none" stroke="black" stroke-dasharray="5,2" d="M1269.33,-740.94C1262.9,-752.75 1257.23,-764.92 1252.83,-777.2 1206.97,-905.01 1192.12,-954.9 1238.83,-1082.4 1248.26,-1108.13 1264.95,-1132.35 1282.75,-1153"/>
<polygon fill="black" stroke="black" points="1280.35,-1155.58 1289.61,-1160.74 1285.59,-1150.94 1280.35,-1155.58"/>
</g>
<!-- 2&#45;&gt;8 -->
<g id="edge25" class="edge">
<title>2&#45;&gt;8</title>
<path fill="none" stroke="black" d="M1289.35,-741.13C1284.31,-753 1279.99,-765.13 1276.83,-777.2 1257.91,-849.52 1243.68,-878.39 1276.83,-945.4 1282.13,-956.11 1289.48,-965.84 1297.9,-974.58"/>
<polygon fill="black" stroke="black" points="1295.61,-977.23 1305.22,-981.69 1300.49,-972.21 1295.61,-977.23"/>
</g>
<!-- 2&#45;&gt;9 -->
<g id="edge27" class="edge">
<title>2&#45;&gt;9</title>
<path fill="none" stroke="black" stroke-dasharray="5,2" d="M1225.98,-740.75C1218.04,-752.32 1211.14,-764.51 1205.83,-777.2 1121.81,-977.98 1205.37,-1245.29 1247.14,-1355.22"/>
<polygon fill="black" stroke="black" points="1243.94,-1356.66 1250.8,-1364.74 1250.48,-1354.15 1243.94,-1356.66"/>
</g>
<!-- 2&#45;&gt;10 -->
<g id="edge26" class="edge">
<title>2&#45;&gt;10</title>
<path fill="none" stroke="black" stroke-dasharray="5,2" d="M1558.2,-658.25C1623.66,-681.26 1689.96,-718.15 1728.83,-777.2 1789.51,-869.38 1742.49,-1208.01 1720.04,-1346.29"/>
<polygon fill="black" stroke="black" points="1716.56,-1345.85 1718.4,-1356.29 1723.47,-1346.98 1716.56,-1345.85"/>
</g>
<!-- 2&#45;&gt;11 -->
<g id="edge24" class="edge">
<title>2&#45;&gt;11</title>
<path fill="none" stroke="black" stroke-dasharray="5,2" d="M1434.03,-740.75C1439.43,-750.14 1444.83,-759.52 1450.1,-768.67"/>
<polygon fill="black" stroke="black" points="1447.08,-770.45 1455.1,-777.37 1453.15,-766.96 1447.08,-770.45"/>
</g>
</g>
</svg>
