<?xml version="1.0" encoding="UTF-8" standalone="no"?>
<!DOCTYPE svg PUBLIC "-//W3C//DTD SVG 1.1//EN"
 "http://www.w3.org/Graphics/SVG/1.1/DTD/svg11.dtd">
<!-- Generated by graphviz version 5.0.0 (20220707.1540)
 -->
<!-- Title: UmlClassDiagram Pages: 1 -->
<svg width="1864pt" height="1465pt"
 viewBox="0.00 0.00 1864.16 1465.20" xmlns="http://www.w3.org/2000/svg" xmlns:xlink="http://www.w3.org/1999/xlink">
<g id="graph0" class="graph" transform="scale(1 1) rotate(0) translate(4 1461.2)">
<title>UmlClassDiagram</title>
<polygon fill="white" stroke="transparent" points="-4,4 -4,-1461.2 1860.16,-1461.2 1860.16,4 -4,4"/>
<!-- 3 -->
<g id="node1" class="node">
<title>3</title>
<polygon fill="#f2f2f2" stroke="black" points="334.76,-1356.7 334.76,-1456.7 526.1,-1456.7 526.1,-1356.7 334.76,-1356.7"/>
<text text-anchor="middle" x="430.43" y="-1440.1" font-family="Times,serif" font-size="14.00">&lt;&lt;Enum&gt;&gt;</text>
<text text-anchor="middle" x="430.43" y="-1423.3" font-family="Times,serif" font-size="14.00">OrderStatus</text>
<text text-anchor="middle" x="430.43" y="-1406.5" font-family="Times,serif" font-size="14.00">contracts/libraries/order_lib.sol</text>
<polyline fill="none" stroke="black" points="334.76,-1398.3 526.1,-1398.3 "/>
<text text-anchor="start" x="342.76" y="-1381.7" font-family="Times,serif" font-size="14.00">OPEN: 0</text>
<text text-anchor="start" x="342.76" y="-1364.9" font-family="Times,serif" font-size="14.00">CLOSED: 1</text>
</g>
<!-- 4 -->
<g id="node2" class="node">
<title>4</title>
<polygon fill="#f2f2f2" stroke="black" points="113.76,-1118.9 113.76,-1319.7 305.1,-1319.7 305.1,-1118.9 113.76,-1118.9"/>
<text text-anchor="middle" x="209.43" y="-1303.1" font-family="Times,serif" font-size="14.00">&lt;&lt;Struct&gt;&gt;</text>
<text text-anchor="middle" x="209.43" y="-1286.3" font-family="Times,serif" font-size="14.00">Order</text>
<text text-anchor="middle" x="209.43" y="-1269.5" font-family="Times,serif" font-size="14.00">contracts/libraries/order_lib.sol</text>
<polyline fill="none" stroke="black" points="113.76,-1261.3 305.1,-1261.3 "/>
<text text-anchor="start" x="121.76" y="-1244.7" font-family="Times,serif" font-size="14.00">id: uint256</text>
<text text-anchor="start" x="121.76" y="-1227.9" font-family="Times,serif" font-size="14.00">statementId: uint256</text>
<text text-anchor="start" x="121.76" y="-1211.1" font-family="Times,serif" font-size="14.00">input: bytes32</text>
<text text-anchor="start" x="121.76" y="-1194.3" font-family="Times,serif" font-size="14.00">price: uint256</text>
<text text-anchor="start" x="121.76" y="-1177.5" font-family="Times,serif" font-size="14.00">buyer: address</text>
<text text-anchor="start" x="121.76" y="-1160.7" font-family="Times,serif" font-size="14.00">status: OrderStatus</text>
<text text-anchor="start" x="121.76" y="-1143.9" font-family="Times,serif" font-size="14.00">producer: address</text>
<text text-anchor="start" x="121.76" y="-1127.1" font-family="Times,serif" font-size="14.00">proof: bytes32[]</text>
</g>
<!-- 4&#45;&gt;3 -->
<g id="edge1" class="edge">
<title>4&#45;&gt;3</title>
<path fill="none" stroke="black" stroke-dasharray="5,2" d="M305.4,-1300.81C325.18,-1317.4 345.58,-1334.52 364.03,-1349.99"/>
<polygon fill="black" stroke="black" points="361.89,-1352.77 371.8,-1356.52 366.39,-1347.41 361.89,-1352.77"/>
</g>
<!-- 5 -->
<g id="node3" class="node">
<title>5</title>
<polygon fill="#f2f2f2" stroke="black" points="105.48,-981.9 105.48,-1081.9 313.39,-1081.9 313.39,-981.9 105.48,-981.9"/>
<text text-anchor="middle" x="209.43" y="-1065.3" font-family="Times,serif" font-size="14.00">&lt;&lt;Struct&gt;&gt;</text>
<text text-anchor="middle" x="209.43" y="-1048.5" font-family="Times,serif" font-size="14.00">OrderStorage</text>
<text text-anchor="middle" x="209.43" y="-1031.7" font-family="Times,serif" font-size="14.00">contracts/libraries/order_lib.sol</text>
<polyline fill="none" stroke="black" points="105.48,-1023.5 313.39,-1023.5 "/>
<text text-anchor="start" x="113.48" y="-1006.9" font-family="Times,serif" font-size="14.00">orders: mapping(uint256=&gt;Order)</text>
<text text-anchor="start" x="113.48" y="-990.1" font-family="Times,serif" font-size="14.00">orderCounter: uint256</text>
</g>
<!-- 5&#45;&gt;4 -->
<g id="edge2" class="edge">
<title>5&#45;&gt;4</title>
<path fill="none" stroke="black" stroke-dasharray="5,2" d="M209.43,-1082.1C209.43,-1090.45 209.43,-1099.41 209.43,-1108.6"/>
<polygon fill="black" stroke="black" points="205.93,-1108.64 209.43,-1118.64 212.93,-1108.64 205.93,-1108.64"/>
</g>
<!-- 6 -->
<g id="node4" class="node">
<title>6</title>
<polygon fill="#f2f2f2" stroke="black" points="126.17,-794.5 126.17,-928.1 734.69,-928.1 734.69,-794.5 126.17,-794.5"/>
<text text-anchor="middle" x="430.43" y="-911.5" font-family="Times,serif" font-size="14.00">&lt;&lt;Library&gt;&gt;</text>
<text text-anchor="middle" x="430.43" y="-894.7" font-family="Times,serif" font-size="14.00">OrderLibrary</text>
<text text-anchor="middle" x="430.43" y="-877.9" font-family="Times,serif" font-size="14.00">contracts/libraries/order_lib.sol</text>
<polyline fill="none" stroke="black" points="126.17,-869.7 734.69,-869.7 "/>
<text text-anchor="start" x="134.17" y="-853.1" font-family="Times,serif" font-size="14.00">Internal:</text>
<text text-anchor="start" x="134.17" y="-836.3" font-family="Times,serif" font-size="14.00"> &#160;&#160;&#160;create(self: OrderStorage, statementId: uint256, input: bytes32, price: uint256, buyer: address): uint256</text>
<text text-anchor="start" x="134.17" y="-819.5" font-family="Times,serif" font-size="14.00"> &#160;&#160;&#160;get(self: OrderStorage, id: uint256): Order</text>
<text text-anchor="start" x="134.17" y="-802.7" font-family="Times,serif" font-size="14.00"> &#160;&#160;&#160;update(self: OrderStorage, id: uint256, producer: address, proof: bytes32[])</text>
</g>
<!-- 6&#45;&gt;3 -->
<g id="edge5" class="edge">
<title>6&#45;&gt;3</title>
<path fill="none" stroke="black" stroke-dasharray="5,2" d="M430.43,-928.12C430.43,-1034.79 430.43,-1243.82 430.43,-1346.25"/>
<polygon fill="black" stroke="black" points="426.93,-1346.42 430.43,-1356.42 433.93,-1346.42 426.93,-1346.42"/>
</g>
<!-- 6&#45;&gt;4 -->
<g id="edge4" class="edge">
<title>6&#45;&gt;4</title>
<path fill="none" stroke="black" stroke-dasharray="5,2" d="M402.89,-928.55C383.05,-973.43 354.26,-1033.28 322.43,-1082.4 316.37,-1091.76 309.75,-1101.2 302.85,-1110.52"/>
<polygon fill="black" stroke="black" points="299.94,-1108.57 296.72,-1118.66 305.53,-1112.77 299.94,-1108.57"/>
</g>
<!-- 6&#45;&gt;5 -->
<g id="edge3" class="edge">
<title>6&#45;&gt;5</title>
<path fill="none" stroke="black" stroke-dasharray="5,2" d="M344.04,-928.21C323.5,-943.88 301.8,-960.43 281.96,-975.57"/>
<polygon fill="black" stroke="black" points="279.7,-972.89 273.87,-981.74 283.94,-978.46 279.7,-972.89"/>
</g>
<!-- 7 -->
<g id="node5" class="node">
<title>7</title>
<polygon fill="#f2f2f2" stroke="black" points="1284.71,-1160.9 1284.71,-1277.7 1500.16,-1277.7 1500.16,-1160.9 1284.71,-1160.9"/>
<text text-anchor="middle" x="1392.43" y="-1261.1" font-family="Times,serif" font-size="14.00">&lt;&lt;Struct&gt;&gt;</text>
<text text-anchor="middle" x="1392.43" y="-1244.3" font-family="Times,serif" font-size="14.00">StatementData</text>
<text text-anchor="middle" x="1392.43" y="-1227.5" font-family="Times,serif" font-size="14.00">contracts/libraries/statement_lib.sol</text>
<polyline fill="none" stroke="black" points="1284.71,-1219.3 1500.16,-1219.3 "/>
<text text-anchor="start" x="1292.71" y="-1202.7" font-family="Times,serif" font-size="14.00">id: uint256</text>
<text text-anchor="start" x="1292.71" y="-1185.9" font-family="Times,serif" font-size="14.00">definition: Definition</text>
<text text-anchor="start" x="1292.71" y="-1169.1" font-family="Times,serif" font-size="14.00">price: Price</text>
</g>
<!-- 9 -->
<g id="node7" class="node">
<title>9</title>
<polygon fill="#f2f2f2" stroke="black" points="1198.71,-1365.1 1198.71,-1448.3 1414.16,-1448.3 1414.16,-1365.1 1198.71,-1365.1"/>
<text text-anchor="middle" x="1306.43" y="-1431.7" font-family="Times,serif" font-size="14.00">&lt;&lt;Struct&gt;&gt;</text>
<text text-anchor="middle" x="1306.43" y="-1414.9" font-family="Times,serif" font-size="14.00">Price</text>
<text text-anchor="middle" x="1306.43" y="-1398.1" font-family="Times,serif" font-size="14.00">contracts/libraries/statement_lib.sol</text>
<polyline fill="none" stroke="black" points="1198.71,-1389.9 1414.16,-1389.9 "/>
<text text-anchor="start" x="1206.71" y="-1373.3" font-family="Times,serif" font-size="14.00">price: uint256</text>
</g>
<!-- 7&#45;&gt;9 -->
<g id="edge7" class="edge">
<title>7&#45;&gt;9</title>
<path fill="none" stroke="black" stroke-dasharray="5,2" d="M1365.69,-1277.95C1354.16,-1302.81 1340.79,-1331.63 1329.68,-1355.59"/>
<polygon fill="black" stroke="black" points="1326.41,-1354.31 1325.38,-1364.86 1332.76,-1357.26 1326.41,-1354.31"/>
</g>
<!-- 10 -->
<g id="node8" class="node">
<title>10</title>
<polygon fill="#f2f2f2" stroke="black" points="1640.71,-1356.7 1640.71,-1456.7 1856.16,-1456.7 1856.16,-1356.7 1640.71,-1356.7"/>
<text text-anchor="middle" x="1748.43" y="-1440.1" font-family="Times,serif" font-size="14.00">&lt;&lt;Struct&gt;&gt;</text>
<text text-anchor="middle" x="1748.43" y="-1423.3" font-family="Times,serif" font-size="14.00">Definition</text>
<text text-anchor="middle" x="1748.43" y="-1406.5" font-family="Times,serif" font-size="14.00">contracts/libraries/statement_lib.sol</text>
<polyline fill="none" stroke="black" points="1640.71,-1398.3 1856.16,-1398.3 "/>
<text text-anchor="start" x="1648.71" y="-1381.7" font-family="Times,serif" font-size="14.00">verificationKey: bytes32</text>
<text text-anchor="start" x="1648.71" y="-1364.9" font-family="Times,serif" font-size="14.00">provingKey: bytes32</text>
</g>
<!-- 7&#45;&gt;10 -->
<g id="edge6" class="edge">
<title>7&#45;&gt;10</title>
<path fill="none" stroke="black" stroke-dasharray="5,2" d="M1500.21,-1276.43C1546.26,-1300.41 1599.77,-1328.28 1645.29,-1351.99"/>
<polygon fill="black" stroke="black" points="1643.8,-1355.16 1654.29,-1356.67 1647.03,-1348.95 1643.8,-1355.16"/>
</g>
<!-- 8 -->
<g id="node6" class="node">
<title>8</title>
<polygon fill="#f2f2f2" stroke="black" points="1286.54,-981.9 1286.54,-1081.9 1568.33,-1081.9 1568.33,-981.9 1286.54,-981.9"/>
<text text-anchor="middle" x="1427.43" y="-1065.3" font-family="Times,serif" font-size="14.00">&lt;&lt;Struct&gt;&gt;</text>
<text text-anchor="middle" x="1427.43" y="-1048.5" font-family="Times,serif" font-size="14.00">StatementStorage</text>
<text text-anchor="middle" x="1427.43" y="-1031.7" font-family="Times,serif" font-size="14.00">contracts/libraries/statement_lib.sol</text>
<polyline fill="none" stroke="black" points="1286.54,-1023.5 1568.33,-1023.5 "/>
<text text-anchor="start" x="1294.54" y="-1006.9" font-family="Times,serif" font-size="14.00">statements: mapping(uint256=&gt;StatementData)</text>
<text text-anchor="start" x="1294.54" y="-990.1" font-family="Times,serif" font-size="14.00">statementCounter: uint256</text>
</g>
<!-- 8&#45;&gt;7 -->
<g id="edge8" class="edge">
<title>8&#45;&gt;7</title>
<path fill="none" stroke="black" stroke-dasharray="5,2" d="M1418.14,-1082.1C1414.18,-1103.12 1409.48,-1128.01 1405.19,-1150.72"/>
<polygon fill="black" stroke="black" points="1401.73,-1150.17 1403.32,-1160.64 1408.61,-1151.46 1401.73,-1150.17"/>
</g>
<!-- 11 -->
<g id="node9" class="node">
<title>11</title>
<polygon fill="#f2f2f2" stroke="black" points="1324.65,-777.7 1324.65,-944.9 1758.22,-944.9 1758.22,-777.7 1324.65,-777.7"/>
<text text-anchor="middle" x="1541.43" y="-928.3" font-family="Times,serif" font-size="14.00">&lt;&lt;Library&gt;&gt;</text>
<text text-anchor="middle" x="1541.43" y="-911.5" font-family="Times,serif" font-size="14.00">StatementLibrary</text>
<text text-anchor="middle" x="1541.43" y="-894.7" font-family="Times,serif" font-size="14.00">contracts/libraries/statement_lib.sol</text>
<polyline fill="none" stroke="black" points="1324.65,-886.5 1758.22,-886.5 "/>
<text text-anchor="start" x="1332.65" y="-869.9" font-family="Times,serif" font-size="14.00">Internal:</text>
<text text-anchor="start" x="1332.65" y="-853.1" font-family="Times,serif" font-size="14.00"> &#160;&#160;&#160;add(self: StatementStorage, definition: Definition, price: Price): uint256</text>
<text text-anchor="start" x="1332.65" y="-836.3" font-family="Times,serif" font-size="14.00"> &#160;&#160;&#160;get(self: StatementStorage, id: uint256): StatementData</text>
<text text-anchor="start" x="1332.65" y="-819.5" font-family="Times,serif" font-size="14.00"> &#160;&#160;&#160;update(self: StatementStorage, id: uint256, price: Price)</text>
<text text-anchor="start" x="1332.65" y="-802.7" font-family="Times,serif" font-size="14.00"> &#160;&#160;&#160;update(self: StatementStorage, id: uint256, definition: Definition)</text>
<text text-anchor="start" x="1332.65" y="-785.9" font-family="Times,serif" font-size="14.00"> &#160;&#160;&#160;remove(self: StatementStorage, id: uint256)</text>
</g>
<!-- 11&#45;&gt;7 -->
<g id="edge12" class="edge">
<title>11&#45;&gt;7</title>
<path fill="none" stroke="black" stroke-dasharray="5,2" d="M1578.07,-944.91C1591.53,-987.87 1598.85,-1040.08 1577.43,-1082.4 1562.03,-1112.82 1536.26,-1138.09 1508.78,-1158.25"/>
<polygon fill="black" stroke="black" points="1506.71,-1155.42 1500.59,-1164.07 1510.77,-1161.12 1506.71,-1155.42"/>
</g>
<!-- 11&#45;&gt;8 -->
<g id="edge9" class="edge">
<title>11&#45;&gt;8</title>
<path fill="none" stroke="black" stroke-dasharray="5,2" d="M1485.43,-945.12C1479.03,-954.58 1472.62,-964.08 1466.5,-973.11"/>
<polygon fill="black" stroke="black" points="1463.45,-971.38 1460.75,-981.63 1469.25,-975.3 1463.45,-971.38"/>
</g>
<!-- 11&#45;&gt;9 -->
<g id="edge11" class="edge">
<title>11&#45;&gt;9</title>
<path fill="none" stroke="black" stroke-dasharray="5,2" d="M1585.85,-944.92C1590.62,-956.87 1594.72,-969.25 1597.43,-981.4 1631.35,-1133.23 1616.98,-1207.79 1509.43,-1320.2 1486.19,-1344.49 1454.98,-1362.18 1424,-1374.94"/>
<polygon fill="black" stroke="black" points="1422.41,-1371.8 1414.41,-1378.74 1424.99,-1378.31 1422.41,-1371.8"/>
</g>
<!-- 11&#45;&gt;10 -->
<g id="edge10" class="edge">
<title>11&#45;&gt;10</title>
<path fill="none" stroke="black" stroke-dasharray="5,2" d="M1624.75,-944.93C1633.67,-956.55 1641.86,-968.84 1648.43,-981.4 1711.27,-1101.6 1735.13,-1261.45 1743.8,-1346.52"/>
<polygon fill="black" stroke="black" points="1740.32,-1346.91 1744.78,-1356.52 1747.29,-1346.23 1740.32,-1346.91"/>
</g>
<!-- 12 -->
<g id="node10" class="node">
<title>12</title>
<polygon fill="#f2f2f2" stroke="black" points="752.88,-811.3 752.88,-911.3 1077.98,-911.3 1077.98,-811.3 752.88,-811.3"/>
<text text-anchor="middle" x="915.43" y="-894.7" font-family="Times,serif" font-size="14.00">&lt;&lt;Library&gt;&gt;</text>
<text text-anchor="middle" x="915.43" y="-877.9" font-family="Times,serif" font-size="14.00">Tools</text>
<text text-anchor="middle" x="915.43" y="-861.1" font-family="Times,serif" font-size="14.00">contracts/libraries/tools.sol</text>
<polyline fill="none" stroke="black" points="752.88,-852.9 1077.98,-852.9 "/>
<text text-anchor="start" x="760.88" y="-836.3" font-family="Times,serif" font-size="14.00">Internal:</text>
<text text-anchor="start" x="760.88" y="-819.5" font-family="Times,serif" font-size="14.00"> &#160;&#160;&#160;verifyProof(orderId: uint256, proof: bytes32[]): bool</text>
</g>
<!-- 13 -->
<g id="node11" class="node">
<title>13</title>
<polygon fill="#f2f2f2" stroke="black" points="1494.19,-180.9 1494.19,-280.9 1816.68,-280.9 1816.68,-180.9 1494.19,-180.9"/>
<text text-anchor="middle" x="1655.43" y="-264.3" font-family="Times,serif" font-size="14.00">MockTocken</text>
<text text-anchor="middle" x="1655.43" y="-247.5" font-family="Times,serif" font-size="14.00">contracts/mock/mock_erc20_contract.sol</text>
<polyline fill="none" stroke="black" points="1494.19,-239.3 1816.68,-239.3 "/>
<text text-anchor="start" x="1502.19" y="-222.7" font-family="Times,serif" font-size="14.00">Public:</text>
<text text-anchor="start" x="1502.19" y="-205.9" font-family="Times,serif" font-size="14.00"> &#160;&#160;&#160;constructor()</text>
<text text-anchor="start" x="1502.19" y="-189.1" font-family="Times,serif" font-size="14.00"> &#160;&#160;&#160;mint(to: address, amount: uint256) &lt;&lt;onlyOwner&gt;&gt;</text>
</g>
<!-- 0 -->
<g id="node12" class="node">
<title>0</title>
<polygon fill="#f2f2f2" stroke="black" points="334.98,-506.7 334.98,-732.3 919.89,-732.3 919.89,-506.7 334.98,-506.7"/>
<text text-anchor="middle" x="627.43" y="-715.7" font-family="Times,serif" font-size="14.00">OrderContract</text>
<text text-anchor="middle" x="627.43" y="-698.9" font-family="Times,serif" font-size="14.00">contracts/order_contract.sol</text>
<polyline fill="none" stroke="black" points="334.98,-690.7 919.89,-690.7 "/>
<text text-anchor="start" x="342.98" y="-674.1" font-family="Times,serif" font-size="14.00">Private:</text>
<text text-anchor="start" x="342.98" y="-657.3" font-family="Times,serif" font-size="14.00"> &#160;&#160;orderStorage: OrderStorage</text>
<text text-anchor="start" x="342.98" y="-640.5" font-family="Times,serif" font-size="14.00">Public:</text>
<text text-anchor="start" x="342.98" y="-623.7" font-family="Times,serif" font-size="14.00"> &#160;&#160;token: IERC20</text>
<text text-anchor="start" x="342.98" y="-606.9" font-family="Times,serif" font-size="14.00"> &#160;&#160;AUTHORIZED_CALLER_ROLE: bytes32</text>
<polyline fill="none" stroke="black" points="334.98,-598.7 919.89,-598.7 "/>
<text text-anchor="start" x="342.98" y="-582.1" font-family="Times,serif" font-size="14.00">Public:</text>
<text text-anchor="start" x="342.98" y="-565.3" font-family="Times,serif" font-size="14.00"> &#160;&#160;&#160;constructor(_authorizedCaller: address, _token: address)</text>
<text text-anchor="start" x="342.98" y="-548.5" font-family="Times,serif" font-size="14.00"> &#160;&#160;&#160;create(statementId: uint256, input: bytes32, price: uint256, buyer: address): uint256 &lt;&lt;onlyRole&gt;&gt;</text>
<text text-anchor="start" x="342.98" y="-531.7" font-family="Times,serif" font-size="14.00"> &#160;&#160;&#160;get(id: uint256): Order</text>
<text text-anchor="start" x="342.98" y="-514.9" font-family="Times,serif" font-size="14.00"> &#160;&#160;&#160;close(id: uint256, proof: bytes32[], finalPrice: uint256, producer: address) &lt;&lt;onlyRole&gt;&gt;</text>
</g>
<!-- 0&#45;&gt;3 -->
<g id="edge16" class="edge">
<title>0&#45;&gt;3</title>
<path fill="none" stroke="black" stroke-dasharray="5,2" d="M919.97,-661.19C985.31,-684.54 1047.1,-720.86 1087.43,-777.2 1130.94,-837.99 1121.94,-879.09 1087.43,-945.4 970.85,-1169.42 689.8,-1307.02 535.76,-1368.24"/>
<polygon fill="black" stroke="black" points="534.28,-1365.06 526.26,-1371.98 536.84,-1371.57 534.28,-1365.06"/>
</g>
<!-- 0&#45;&gt;4 -->
<g id="edge15" class="edge">
<title>0&#45;&gt;4</title>
<path fill="none" stroke="black" stroke-dasharray="5,2" d="M334.95,-672.37C224.82,-698.36 118.17,-733.65 85.43,-777.2 3.87,-885.69 45.22,-956.7 96.43,-1082.4 100.29,-1091.88 105.06,-1101.19 110.44,-1110.22"/>
<polygon fill="black" stroke="black" points="107.52,-1112.15 115.78,-1118.79 113.47,-1108.45 107.52,-1112.15"/>
</g>
<!-- 0&#45;&gt;5 -->
<g id="edge14" class="edge">
<title>0&#45;&gt;5</title>
<path fill="none" stroke="black" d="M334.95,-678.83C237.54,-704.62 146.37,-738.04 117.43,-777.2 73.01,-837.32 87.57,-876.87 117.43,-945.4 121.95,-955.76 128.4,-965.43 135.83,-974.26"/>
<polygon fill="black" stroke="black" points="133.31,-976.69 142.58,-981.8 138.52,-972.02 133.31,-976.69"/>
</g>
<!-- 0&#45;&gt;6 -->
<g id="edge13" class="edge">
<title>0&#45;&gt;6</title>
<path fill="none" stroke="black" stroke-dasharray="5,2" d="M535.57,-732.33C520.43,-750.75 505.08,-769.43 490.97,-786.61"/>
<polygon fill="black" stroke="black" points="488.22,-784.45 484.57,-794.4 493.62,-788.89 488.22,-784.45"/>
</g>
<!-- 0&#45;&gt;12 -->
<g id="edge17" class="edge">
<title>0&#45;&gt;12</title>
<path fill="none" stroke="black" stroke-dasharray="5,2" d="M761.74,-732.33C791.9,-757.45 822.64,-783.04 848.62,-804.67"/>
<polygon fill="black" stroke="black" points="846.6,-807.54 856.52,-811.25 851.08,-802.16 846.6,-807.54"/>
</g>
<!-- 1 -->
<g id="node13" class="node">
<title>1</title>
<polygon fill="#f2f2f2" stroke="black" points="851.15,-0.5 851.15,-461.3 1475.71,-461.3 1475.71,-0.5 851.15,-0.5"/>
<text text-anchor="middle" x="1163.43" y="-444.7" font-family="Times,serif" font-size="14.00">ProofMarketEndpoint</text>
<text text-anchor="middle" x="1163.43" y="-427.9" font-family="Times,serif" font-size="14.00">contracts/proof_market_endpoint.sol</text>
<polyline fill="none" stroke="black" points="851.15,-419.7 1475.71,-419.7 "/>
<text text-anchor="start" x="859.15" y="-403.1" font-family="Times,serif" font-size="14.00">Public:</text>
<text text-anchor="start" x="859.15" y="-386.3" font-family="Times,serif" font-size="14.00"> &#160;&#160;token: IERC20</text>
<text text-anchor="start" x="859.15" y="-369.5" font-family="Times,serif" font-size="14.00"> &#160;&#160;statementContract: StatementContract</text>
<text text-anchor="start" x="859.15" y="-352.7" font-family="Times,serif" font-size="14.00"> &#160;&#160;orderContract: OrderContract</text>
<text text-anchor="start" x="859.15" y="-335.9" font-family="Times,serif" font-size="14.00"> &#160;&#160;OWNER_ROLE: bytes32</text>
<text text-anchor="start" x="859.15" y="-319.1" font-family="Times,serif" font-size="14.00"> &#160;&#160;RELAYER_ROLE: bytes32</text>
<polyline fill="none" stroke="black" points="851.15,-310.9 1475.71,-310.9 "/>
<text text-anchor="start" x="859.15" y="-294.3" font-family="Times,serif" font-size="14.00">Public:</text>
<text text-anchor="start" x="859.15" y="-277.5" font-family="Times,serif" font-size="14.00"> &#160;&#160;&#160;&lt;&lt;event&gt;&gt; OrderCreated(id: uint256, statementId: uint256, input: bytes32, price: uint256, buyer: address)</text>
<text text-anchor="start" x="859.15" y="-260.7" font-family="Times,serif" font-size="14.00"> &#160;&#160;&#160;&lt;&lt;event&gt;&gt; OrderClosed(id: uint256, producer: address, finalPrice: uint256, proof: bytes32[])</text>
<text text-anchor="start" x="859.15" y="-243.9" font-family="Times,serif" font-size="14.00"> &#160;&#160;&#160;&lt;&lt;event&gt;&gt; StatementAdded(id: uint256, definition: Definition)</text>
<text text-anchor="start" x="859.15" y="-227.1" font-family="Times,serif" font-size="14.00"> &#160;&#160;&#160;&lt;&lt;event&gt;&gt; StatementDefinitionUpdated(id: uint256, definition: Definition)</text>
<text text-anchor="start" x="859.15" y="-210.3" font-family="Times,serif" font-size="14.00"> &#160;&#160;&#160;&lt;&lt;event&gt;&gt; StatementPriceUpdated(id: uint256, price: uint256)</text>
<text text-anchor="start" x="859.15" y="-193.5" font-family="Times,serif" font-size="14.00"> &#160;&#160;&#160;&lt;&lt;event&gt;&gt; StatementRemoved(id: uint256)</text>
<text text-anchor="start" x="859.15" y="-176.7" font-family="Times,serif" font-size="14.00"> &#160;&#160;&#160;constructor(_token: IERC20)</text>
<text text-anchor="start" x="859.15" y="-159.9" font-family="Times,serif" font-size="14.00"> &#160;&#160;&#160;grantRelayer(relayer: address) &lt;&lt;onlyRole&gt;&gt;</text>
<text text-anchor="start" x="859.15" y="-143.1" font-family="Times,serif" font-size="14.00"> &#160;&#160;&#160;revokeRelayer(relayer: address) &lt;&lt;onlyRole&gt;&gt;</text>
<text text-anchor="start" x="859.15" y="-126.3" font-family="Times,serif" font-size="14.00"> &#160;&#160;&#160;getOrder(orderId: uint256): Order</text>
<text text-anchor="start" x="859.15" y="-109.5" font-family="Times,serif" font-size="14.00"> &#160;&#160;&#160;createOrder(statementId: uint256, input: bytes32, price: uint256): uint256</text>
<text text-anchor="start" x="859.15" y="-92.7" font-family="Times,serif" font-size="14.00"> &#160;&#160;&#160;closeOrder(orderId: uint256, proof: bytes32[], finalPrice: uint256, producer: address) &lt;&lt;onlyRole&gt;&gt;</text>
<text text-anchor="start" x="859.15" y="-75.9" font-family="Times,serif" font-size="14.00"> &#160;&#160;&#160;getStatement(id: uint256): StatementData</text>
<text text-anchor="start" x="859.15" y="-59.1" font-family="Times,serif" font-size="14.00"> &#160;&#160;&#160;addStatement(definition: Definition, price: Price) &lt;&lt;onlyRole&gt;&gt;</text>
<text text-anchor="start" x="859.15" y="-42.3" font-family="Times,serif" font-size="14.00"> &#160;&#160;&#160;updateStatementDefinition(id: uint256, definition: Definition) &lt;&lt;onlyRole&gt;&gt;</text>
<text text-anchor="start" x="859.15" y="-25.5" font-family="Times,serif" font-size="14.00"> &#160;&#160;&#160;updateStatementPrice(id: uint256, price: Price) &lt;&lt;onlyRole&gt;&gt;</text>
<text text-anchor="start" x="859.15" y="-8.7" font-family="Times,serif" font-size="14.00"> &#160;&#160;&#160;removeStatement(id: uint256) &lt;&lt;onlyRole&gt;&gt;</text>
</g>
<!-- 1&#45;&gt;4 -->
<g id="edge21" class="edge">
<title>1&#45;&gt;4</title>
<path fill="none" stroke="black" stroke-dasharray="5,2" d="M851.12,-271.97C566.41,-328.25 170.43,-462.03 36.43,-777.2 -16.71,-902.2 -11.11,-962.35 52.43,-1082.4 65.5,-1107.09 85.04,-1129.28 105.94,-1148.23"/>
<polygon fill="black" stroke="black" points="103.87,-1151.07 113.69,-1155.06 108.5,-1145.82 103.87,-1151.07"/>
</g>
<!-- 1&#45;&gt;7 -->
<g id="edge22" class="edge">
<title>1&#45;&gt;7</title>
<path fill="none" stroke="black" stroke-dasharray="5,2" d="M1166.9,-461.55C1173.5,-675.83 1192.45,-977.74 1246.43,-1082.4 1260.27,-1109.22 1281.6,-1133.53 1303.73,-1153.93"/>
<polygon fill="black" stroke="black" points="1301.47,-1156.61 1311.25,-1160.7 1306.15,-1151.41 1301.47,-1156.61"/>
</g>
<!-- 1&#45;&gt;9 -->
<g id="edge23" class="edge">
<title>1&#45;&gt;9</title>
<path fill="none" stroke="black" stroke-dasharray="5,2" d="M1153.15,-461.67C1148.68,-580.62 1144.43,-728.23 1144.43,-860.3 1144.43,-860.3 1144.43,-860.3 1144.43,-1032.9 1144.43,-1164.54 1150.08,-1206.51 1216.43,-1320.2 1224.27,-1333.64 1234.85,-1346.29 1245.99,-1357.54"/>
<polygon fill="black" stroke="black" points="1243.77,-1360.26 1253.38,-1364.73 1248.65,-1355.24 1243.77,-1360.26"/>
</g>
<!-- 1&#45;&gt;10 -->
<g id="edge20" class="edge">
<title>1&#45;&gt;10</title>
<path fill="none" stroke="black" stroke-dasharray="5,2" d="M1476.17,-457.18C1479.26,-458.75 1482.35,-460.29 1485.43,-461.8 1535.43,-486.31 1560.52,-464.88 1605.43,-497.8 1757.25,-609.08 1824.43,-672.07 1824.43,-860.3 1824.43,-860.3 1824.43,-860.3 1824.43,-1032.9 1824.43,-1161.53 1825.5,-1196.73 1789.43,-1320.2 1786.79,-1329.23 1783.29,-1338.49 1779.44,-1347.43"/>
<polygon fill="black" stroke="black" points="1776.23,-1346.04 1775.32,-1356.6 1782.61,-1348.91 1776.23,-1346.04"/>
</g>
<!-- 1&#45;&gt;0 -->
<g id="edge19" class="edge">
<title>1&#45;&gt;0</title>
<path fill="none" stroke="black" d="M850.86,-457.35C830.36,-472.13 810.22,-486.66 790.93,-500.57"/>
<polygon fill="black" stroke="black" points="788.78,-497.81 782.72,-506.49 792.88,-503.48 788.78,-497.81"/>
</g>
<!-- 2 -->
<g id="node14" class="node">
<title>2</title>
<polygon fill="#f2f2f2" stroke="black" points="1210.12,-498.3 1210.12,-740.7 1596.74,-740.7 1596.74,-498.3 1210.12,-498.3"/>
<text text-anchor="middle" x="1403.43" y="-724.1" font-family="Times,serif" font-size="14.00">StatementContract</text>
<text text-anchor="middle" x="1403.43" y="-707.3" font-family="Times,serif" font-size="14.00">contracts/statement_contract.sol</text>
<polyline fill="none" stroke="black" points="1210.12,-699.1 1596.74,-699.1 "/>
<text text-anchor="start" x="1218.12" y="-682.5" font-family="Times,serif" font-size="14.00">Private:</text>
<text text-anchor="start" x="1218.12" y="-665.7" font-family="Times,serif" font-size="14.00"> &#160;&#160;statementStorage: StatementStorage</text>
<text text-anchor="start" x="1218.12" y="-648.9" font-family="Times,serif" font-size="14.00">Public:</text>
<text text-anchor="start" x="1218.12" y="-632.1" font-family="Times,serif" font-size="14.00"> &#160;&#160;AUTHORIZED_CALLER_ROLE: bytes32</text>
<polyline fill="none" stroke="black" points="1210.12,-623.9 1596.74,-623.9 "/>
<text text-anchor="start" x="1218.12" y="-607.3" font-family="Times,serif" font-size="14.00">Public:</text>
<text text-anchor="start" x="1218.12" y="-590.5" font-family="Times,serif" font-size="14.00"> &#160;&#160;&#160;constructor(_authorizedCaller: address)</text>
<text text-anchor="start" x="1218.12" y="-573.7" font-family="Times,serif" font-size="14.00"> &#160;&#160;&#160;add(definition: Definition, price: Price): uint256 &lt;&lt;onlyRole&gt;&gt;</text>
<text text-anchor="start" x="1218.12" y="-556.9" font-family="Times,serif" font-size="14.00"> &#160;&#160;&#160;get(id: uint256): StatementData</text>
<text text-anchor="start" x="1218.12" y="-540.1" font-family="Times,serif" font-size="14.00"> &#160;&#160;&#160;update(id: uint256, price: Price) &lt;&lt;onlyRole&gt;&gt;</text>
<text text-anchor="start" x="1218.12" y="-523.3" font-family="Times,serif" font-size="14.00"> &#160;&#160;&#160;update(id: uint256, definition: Definition) &lt;&lt;onlyRole&gt;&gt;</text>
<text text-anchor="start" x="1218.12" y="-506.5" font-family="Times,serif" font-size="14.00"> &#160;&#160;&#160;remove(id: uint256) &lt;&lt;onlyRole&gt;&gt;</text>
</g>
<!-- 1&#45;&gt;2 -->
<g id="edge18" class="edge">
<title>1&#45;&gt;2</title>
<path fill="none" stroke="black" d="M1305.99,-461.53C1311.87,-471.01 1317.68,-480.36 1323.35,-489.5"/>
<polygon fill="black" stroke="black" points="1320.5,-491.54 1328.74,-498.19 1326.44,-487.85 1320.5,-491.54"/>
</g>
<!-- 2&#45;&gt;7 -->
<g id="edge28" class="edge">
<title>2&#45;&gt;7</title>
<path fill="none" stroke="black" stroke-dasharray="5,2" d="M1307.93,-740.94C1301.5,-752.75 1295.84,-764.92 1291.43,-777.2 1245.57,-905.01 1230.73,-954.9 1277.43,-1082.4 1286.86,-1108.13 1303.55,-1132.35 1321.35,-1153"/>
<polygon fill="black" stroke="black" points="1318.96,-1155.58 1328.21,-1160.74 1324.19,-1150.94 1318.96,-1155.58"/>
</g>
<!-- 2&#45;&gt;8 -->
<g id="edge25" class="edge">
<title>2&#45;&gt;8</title>
<path fill="none" stroke="black" d="M1327.95,-741.13C1322.91,-753 1318.59,-765.13 1315.43,-777.2 1296.51,-849.52 1282.29,-878.39 1315.43,-945.4 1320.73,-956.11 1328.08,-965.84 1336.51,-974.58"/>
<polygon fill="black" stroke="black" points="1334.21,-977.23 1343.82,-981.69 1339.09,-972.21 1334.21,-977.23"/>
</g>
<!-- 2&#45;&gt;9 -->
<g id="edge27" class="edge">
<title>2&#45;&gt;9</title>
<path fill="none" stroke="black" stroke-dasharray="5,2" d="M1264.58,-740.75C1256.64,-752.32 1249.74,-764.51 1244.43,-777.2 1160.41,-977.98 1243.97,-1245.29 1285.74,-1355.22"/>
<polygon fill="black" stroke="black" points="1282.55,-1356.66 1289.41,-1364.74 1289.08,-1354.15 1282.55,-1356.66"/>
</g>
<!-- 2&#45;&gt;10 -->
<g id="edge26" class="edge">
<title>2&#45;&gt;10</title>
<path fill="none" stroke="black" stroke-dasharray="5,2" d="M1596.8,-658.25C1662.26,-681.26 1728.56,-718.15 1767.43,-777.2 1828.11,-869.38 1781.09,-1208.01 1758.64,-1346.29"/>
<polygon fill="black" stroke="black" points="1755.17,-1345.85 1757,-1356.29 1762.07,-1346.98 1755.17,-1345.85"/>
</g>
<!-- 2&#45;&gt;11 -->
<g id="edge24" class="edge">
<title>2&#45;&gt;11</title>
<path fill="none" stroke="black" stroke-dasharray="5,2" d="M1472.63,-740.75C1478.04,-750.14 1483.44,-759.52 1488.7,-768.67"/>
<polygon fill="black" stroke="black" points="1485.69,-770.45 1493.71,-777.37 1491.75,-766.96 1485.69,-770.45"/>
</g>
</g>
</svg>
