<?xml version="1.0" encoding="UTF-8" standalone="no"?>
<!DOCTYPE svg PUBLIC "-//W3C//DTD SVG 1.1//EN"
 "http://www.w3.org/Graphics/SVG/1.1/DTD/svg11.dtd">
<!-- Generated by graphviz version 5.0.0 (20220707.1540)
 -->
<!-- Title: UmlClassDiagram Pages: 1 -->
<svg width="1778pt" height="1558pt"
 viewBox="0.00 0.00 1778.50 1558.00" xmlns="http://www.w3.org/2000/svg" xmlns:xlink="http://www.w3.org/1999/xlink">
<g id="graph0" class="graph" transform="scale(1 1) rotate(0) translate(4 1554)">
<title>UmlClassDiagram</title>
<polygon fill="white" stroke="transparent" points="-4,4 -4,-1554 1774.5,-1554 1774.5,4 -4,4"/>
<!-- 3 -->
<g id="node1" class="node">
<title>3</title>
<polygon fill="#f2f2f2" stroke="black" points="563.48,-414.3 563.48,-783.1 1118.06,-783.1 1118.06,-414.3 563.48,-414.3"/>
<text text-anchor="middle" x="840.77" y="-766.5" font-family="Times,serif" font-size="14.00">&lt;&lt;Interface&gt;&gt;</text>
<text text-anchor="middle" x="840.77" y="-749.7" font-family="Times,serif" font-size="14.00">IProofMarketEndpoint</text>
<text text-anchor="middle" x="840.77" y="-732.9" font-family="Times,serif" font-size="14.00">contracts/interfaces/proof_market_endpoint.sol</text>
<polyline fill="none" stroke="black" points="563.48,-724.7 1118.06,-724.7 "/>
<text text-anchor="start" x="571.48" y="-708.1" font-family="Times,serif" font-size="14.00">External:</text>
<text text-anchor="start" x="571.48" y="-691.3" font-family="Times,serif" font-size="14.00"> &#160;&#160;&#160;&#160;grantRelayer(relayer: address)</text>
<text text-anchor="start" x="571.48" y="-674.5" font-family="Times,serif" font-size="14.00"> &#160;&#160;&#160;&#160;revokeRelayer(relayer: address)</text>
<text text-anchor="start" x="571.48" y="-657.7" font-family="Times,serif" font-size="14.00"> &#160;&#160;&#160;&#160;getOrder(orderId: uint256): OrderLibrary.Order</text>
<text text-anchor="start" x="571.48" y="-640.9" font-family="Times,serif" font-size="14.00"> &#160;&#160;&#160;&#160;createOrder(orderInput: OrderLibrary.OrderInput): uint256</text>
<text text-anchor="start" x="571.48" y="-624.1" font-family="Times,serif" font-size="14.00"> &#160;&#160;&#160;&#160;closeOrder(orderId: uint256, proof: bytes, finalPrice: uint256, producer: address)</text>
<text text-anchor="start" x="571.48" y="-607.3" font-family="Times,serif" font-size="14.00"> &#160;&#160;&#160;&#160;getStatement(id: uint256): StatementLibrary.StatementData</text>
<text text-anchor="start" x="571.48" y="-590.5" font-family="Times,serif" font-size="14.00"> &#160;&#160;&#160;&#160;addStatement(statementInput: StatementLibrary.StatementInput)</text>
<text text-anchor="start" x="571.48" y="-573.7" font-family="Times,serif" font-size="14.00"> &#160;&#160;&#160;&#160;updateStatementDefinition(id: uint256, definition: StatementLibrary.Definition)</text>
<text text-anchor="start" x="571.48" y="-556.9" font-family="Times,serif" font-size="14.00"> &#160;&#160;&#160;&#160;updateStatementPrice(id: uint256, price: StatementLibrary.Price)</text>
<text text-anchor="start" x="571.48" y="-540.1" font-family="Times,serif" font-size="14.00"> &#160;&#160;&#160;&#160;removeStatement(id: uint256)</text>
<text text-anchor="start" x="571.48" y="-523.3" font-family="Times,serif" font-size="14.00">Public:</text>
<text text-anchor="start" x="571.48" y="-506.5" font-family="Times,serif" font-size="14.00"> &#160;&#160;&#160;&lt;&lt;event&gt;&gt; OrderCreated(id: uint256, orderInput: OrderLibrary.OrderInput, buyer: address)</text>
<text text-anchor="start" x="571.48" y="-489.7" font-family="Times,serif" font-size="14.00"> &#160;&#160;&#160;&lt;&lt;event&gt;&gt; OrderClosed(id: uint256, producer: address, finalPrice: uint256, proof: bytes)</text>
<text text-anchor="start" x="571.48" y="-472.9" font-family="Times,serif" font-size="14.00"> &#160;&#160;&#160;&lt;&lt;event&gt;&gt; StatementAdded(id: uint256, definition: StatementLibrary.Definition)</text>
<text text-anchor="start" x="571.48" y="-456.1" font-family="Times,serif" font-size="14.00"> &#160;&#160;&#160;&lt;&lt;event&gt;&gt; StatementDefinitionUpdated(id: uint256, definition: StatementLibrary.Definition)</text>
<text text-anchor="start" x="571.48" y="-439.3" font-family="Times,serif" font-size="14.00"> &#160;&#160;&#160;&lt;&lt;event&gt;&gt; StatementPriceUpdated(id: uint256, price: StatementLibrary.Price)</text>
<text text-anchor="start" x="571.48" y="-422.5" font-family="Times,serif" font-size="14.00"> &#160;&#160;&#160;&lt;&lt;event&gt;&gt; StatementRemoved(id: uint256)</text>
</g>
<!-- 4 -->
<g id="node6" class="node">
<title>4</title>
<polygon fill="#f2f2f2" stroke="black" points="367.79,-845.3 367.79,-978.9 813.76,-978.9 813.76,-845.3 367.79,-845.3"/>
<text text-anchor="middle" x="590.77" y="-962.3" font-family="Times,serif" font-size="14.00">&lt;&lt;Library&gt;&gt;</text>
<text text-anchor="middle" x="590.77" y="-945.5" font-family="Times,serif" font-size="14.00">OrderLibrary</text>
<text text-anchor="middle" x="590.77" y="-928.7" font-family="Times,serif" font-size="14.00">contracts/libraries/order_lib.sol</text>
<polyline fill="none" stroke="black" points="367.79,-920.5 813.76,-920.5 "/>
<text text-anchor="start" x="375.79" y="-903.9" font-family="Times,serif" font-size="14.00">Internal:</text>
<text text-anchor="start" x="375.79" y="-887.1" font-family="Times,serif" font-size="14.00"> &#160;&#160;&#160;create(self: OrderStorage, inputData: OrderInput, buyer: address): uint256</text>
<text text-anchor="start" x="375.79" y="-870.3" font-family="Times,serif" font-size="14.00"> &#160;&#160;&#160;get(self: OrderStorage, id: uint256): Order</text>
<text text-anchor="start" x="375.79" y="-853.5" font-family="Times,serif" font-size="14.00"> &#160;&#160;&#160;update(self: OrderStorage, id: uint256, producer: address, proof: bytes)</text>
</g>
<!-- 3&#45;&gt;4 -->
<g id="edge1" class="edge">
<title>3&#45;&gt;4</title>
<path fill="none" stroke="black" stroke-dasharray="5,2" d="M693.18,-783.54C678.1,-802.33 663.47,-820.55 650.22,-837.06"/>
<polygon fill="black" stroke="black" points="647.35,-835.03 643.82,-845.02 652.81,-839.41 647.35,-835.03"/>
</g>
<!-- 9 -->
<g id="node12" class="node">
<title>9</title>
<polygon fill="#f2f2f2" stroke="black" points="1163.18,-820.1 1163.18,-1004.1 1582.37,-1004.1 1582.37,-820.1 1163.18,-820.1"/>
<text text-anchor="middle" x="1372.77" y="-987.5" font-family="Times,serif" font-size="14.00">&lt;&lt;Library&gt;&gt;</text>
<text text-anchor="middle" x="1372.77" y="-970.7" font-family="Times,serif" font-size="14.00">StatementLibrary</text>
<text text-anchor="middle" x="1372.77" y="-953.9" font-family="Times,serif" font-size="14.00">contracts/libraries/statement_lib.sol</text>
<polyline fill="none" stroke="black" points="1163.18,-945.7 1582.37,-945.7 "/>
<text text-anchor="start" x="1171.18" y="-929.1" font-family="Times,serif" font-size="14.00">Internal:</text>
<text text-anchor="start" x="1171.18" y="-912.3" font-family="Times,serif" font-size="14.00"> &#160;&#160;&#160;add(self: StatementStorage, statementInput: StatementInput): uint256</text>
<text text-anchor="start" x="1171.18" y="-895.5" font-family="Times,serif" font-size="14.00"> &#160;&#160;&#160;get(self: StatementStorage, id: uint256): StatementData</text>
<text text-anchor="start" x="1171.18" y="-878.7" font-family="Times,serif" font-size="14.00"> &#160;&#160;&#160;update(self: StatementStorage, id: uint256, price: Price)</text>
<text text-anchor="start" x="1171.18" y="-861.9" font-family="Times,serif" font-size="14.00"> &#160;&#160;&#160;update(self: StatementStorage, id: uint256, definition: Definition)</text>
<text text-anchor="start" x="1171.18" y="-845.1" font-family="Times,serif" font-size="14.00"> &#160;&#160;&#160;remove(self: StatementStorage, id: uint256)</text>
<text text-anchor="start" x="1171.18" y="-828.3" font-family="Times,serif" font-size="14.00"> &#160;&#160;&#160;exists(self: StatementStorage, id: uint256): bool</text>
</g>
<!-- 3&#45;&gt;9 -->
<g id="edge2" class="edge">
<title>3&#45;&gt;9</title>
<path fill="none" stroke="black" stroke-dasharray="5,2" d="M1118.31,-778.68C1121.14,-780.33 1123.96,-781.97 1126.77,-783.6 1145,-794.16 1164.2,-804.83 1183.49,-815.28"/>
<polygon fill="black" stroke="black" points="1181.89,-818.39 1192.35,-820.06 1185.21,-812.23 1181.89,-818.39"/>
</g>
<!-- 5 -->
<g id="node2" class="node">
<title>5</title>
<polygon fill="#f2f2f2" stroke="black" points="424.1,-1449.5 424.1,-1549.5 615.44,-1549.5 615.44,-1449.5 424.1,-1449.5"/>
<text text-anchor="middle" x="519.77" y="-1532.9" font-family="Times,serif" font-size="14.00">&lt;&lt;Enum&gt;&gt;</text>
<text text-anchor="middle" x="519.77" y="-1516.1" font-family="Times,serif" font-size="14.00">OrderStatus</text>
<text text-anchor="middle" x="519.77" y="-1499.3" font-family="Times,serif" font-size="14.00">contracts/libraries/order_lib.sol</text>
<polyline fill="none" stroke="black" points="424.1,-1491.1 615.44,-1491.1 "/>
<text text-anchor="start" x="432.1" y="-1474.5" font-family="Times,serif" font-size="14.00">OPEN: 0</text>
<text text-anchor="start" x="432.1" y="-1457.7" font-family="Times,serif" font-size="14.00">CLOSED: 1</text>
</g>
<!-- 5&#45;&gt;4 -->
<g id="edge5" class="edge">
<title>5&#45;&gt;4</title>
<path fill="none" stroke="black" d="M524.02,-1449.17C526.41,-1364.67 528.1,-1187.16 556.77,-1040.6 559.98,-1024.18 564.76,-1006.97 569.79,-990.7"/>
<polygon fill="black" stroke="black" points="569.86,-990.48 567.85,-983.55 573.47,-979.04 575.48,-985.96 569.86,-990.48"/>
</g>
<!-- 6 -->
<g id="node3" class="node">
<title>6</title>
<polygon fill="#f2f2f2" stroke="black" points="706.1,-1211.7 706.1,-1412.5 897.44,-1412.5 897.44,-1211.7 706.1,-1211.7"/>
<text text-anchor="middle" x="801.77" y="-1395.9" font-family="Times,serif" font-size="14.00">&lt;&lt;Struct&gt;&gt;</text>
<text text-anchor="middle" x="801.77" y="-1379.1" font-family="Times,serif" font-size="14.00">Order</text>
<text text-anchor="middle" x="801.77" y="-1362.3" font-family="Times,serif" font-size="14.00">contracts/libraries/order_lib.sol</text>
<polyline fill="none" stroke="black" points="706.1,-1354.1 897.44,-1354.1 "/>
<text text-anchor="start" x="714.1" y="-1337.5" font-family="Times,serif" font-size="14.00">id: uint256</text>
<text text-anchor="start" x="714.1" y="-1320.7" font-family="Times,serif" font-size="14.00">statementId: uint256</text>
<text text-anchor="start" x="714.1" y="-1303.9" font-family="Times,serif" font-size="14.00">input: bytes</text>
<text text-anchor="start" x="714.1" y="-1287.1" font-family="Times,serif" font-size="14.00">price: uint256</text>
<text text-anchor="start" x="714.1" y="-1270.3" font-family="Times,serif" font-size="14.00">buyer: address</text>
<text text-anchor="start" x="714.1" y="-1253.5" font-family="Times,serif" font-size="14.00">status: OrderStatus</text>
<text text-anchor="start" x="714.1" y="-1236.7" font-family="Times,serif" font-size="14.00">producer: address</text>
<text text-anchor="start" x="714.1" y="-1219.9" font-family="Times,serif" font-size="14.00">proof: bytes</text>
</g>
<!-- 6&#45;&gt;5 -->
<g id="edge3" class="edge">
<title>6&#45;&gt;5</title>
<path fill="none" stroke="black" stroke-dasharray="5,2" d="M705.91,-1376.13C672.49,-1398.1 635.29,-1422.56 602.98,-1443.79"/>
<polygon fill="black" stroke="black" points="600.88,-1440.99 594.44,-1449.41 604.72,-1446.84 600.88,-1440.99"/>
</g>
<!-- 6&#45;&gt;4 -->
<g id="edge6" class="edge">
<title>6&#45;&gt;4</title>
<path fill="none" stroke="black" d="M818.76,-1211.68C820.18,-1157.65 812.86,-1091.64 782.77,-1040.6 770.74,-1020.2 754.02,-1002.27 735.4,-986.79"/>
<polygon fill="black" stroke="black" points="735.2,-986.63 728.02,-986.02 725.81,-979.15 733,-979.76 735.2,-986.63"/>
</g>
<!-- 7 -->
<g id="node4" class="node">
<title>7</title>
<polygon fill="#f2f2f2" stroke="black" points="291.1,-1049.5 291.1,-1166.3 482.44,-1166.3 482.44,-1049.5 291.1,-1049.5"/>
<text text-anchor="middle" x="386.77" y="-1149.7" font-family="Times,serif" font-size="14.00">&lt;&lt;Struct&gt;&gt;</text>
<text text-anchor="middle" x="386.77" y="-1132.9" font-family="Times,serif" font-size="14.00">OrderInput</text>
<text text-anchor="middle" x="386.77" y="-1116.1" font-family="Times,serif" font-size="14.00">contracts/libraries/order_lib.sol</text>
<polyline fill="none" stroke="black" points="291.1,-1107.9 482.44,-1107.9 "/>
<text text-anchor="start" x="299.1" y="-1091.3" font-family="Times,serif" font-size="14.00">statementId: uint256</text>
<text text-anchor="start" x="299.1" y="-1074.5" font-family="Times,serif" font-size="14.00">input: bytes</text>
<text text-anchor="start" x="299.1" y="-1057.7" font-family="Times,serif" font-size="14.00">price: uint256</text>
</g>
<!-- 7&#45;&gt;4 -->
<g id="edge7" class="edge">
<title>7&#45;&gt;4</title>
<path fill="none" stroke="black" d="M453.63,-1049.3C474.62,-1029.87 497.87,-1007.91 519.17,-987.38"/>
<polygon fill="black" stroke="black" points="519.23,-987.32 520.76,-980.28 527.86,-978.98 526.32,-986.03 519.23,-987.32"/>
</g>
<!-- 8 -->
<g id="node5" class="node">
<title>8</title>
<polygon fill="#f2f2f2" stroke="black" points="556.82,-1057.9 556.82,-1157.9 764.73,-1157.9 764.73,-1057.9 556.82,-1057.9"/>
<text text-anchor="middle" x="660.77" y="-1141.3" font-family="Times,serif" font-size="14.00">&lt;&lt;Struct&gt;&gt;</text>
<text text-anchor="middle" x="660.77" y="-1124.5" font-family="Times,serif" font-size="14.00">OrderStorage</text>
<text text-anchor="middle" x="660.77" y="-1107.7" font-family="Times,serif" font-size="14.00">contracts/libraries/order_lib.sol</text>
<polyline fill="none" stroke="black" points="556.82,-1099.5 764.73,-1099.5 "/>
<text text-anchor="start" x="564.82" y="-1082.9" font-family="Times,serif" font-size="14.00">orders: mapping(uint256=&gt;Order)</text>
<text text-anchor="start" x="564.82" y="-1066.1" font-family="Times,serif" font-size="14.00">orderCounter: uint256</text>
</g>
<!-- 8&#45;&gt;6 -->
<g id="edge4" class="edge">
<title>8&#45;&gt;6</title>
<path fill="none" stroke="black" stroke-dasharray="5,2" d="M695.08,-1158.11C704.73,-1171.94 715.62,-1187.56 726.66,-1203.39"/>
<polygon fill="black" stroke="black" points="723.86,-1205.48 732.45,-1211.68 729.6,-1201.48 723.86,-1205.48"/>
</g>
<!-- 8&#45;&gt;4 -->
<g id="edge8" class="edge">
<title>8&#45;&gt;4</title>
<path fill="none" stroke="black" d="M648.98,-1057.73C642.32,-1037.29 633.8,-1013.06 625.3,-990.34"/>
<polygon fill="black" stroke="black" points="625.25,-990.21 619.38,-986.01 621,-978.98 626.87,-983.18 625.25,-990.21"/>
</g>
<!-- 4&#45;&gt;5 -->
<g id="edge12" class="edge">
<title>4&#45;&gt;5</title>
<path fill="none" stroke="black" stroke-dasharray="5,2" d="M556.22,-979.04C549.18,-998.57 542.76,-1020.2 538.77,-1040.6 511.2,-1181.58 508.58,-1351.19 512.59,-1439.12"/>
<polygon fill="black" stroke="black" points="509.09,-1439.36 513.09,-1449.17 516.08,-1439.01 509.09,-1439.36"/>
</g>
<!-- 4&#45;&gt;6 -->
<g id="edge11" class="edge">
<title>4&#45;&gt;6</title>
<path fill="none" stroke="black" stroke-dasharray="5,2" d="M708.21,-979.15C730.23,-996.28 750.71,-1016.75 764.77,-1040.6 792.98,-1088.45 801.18,-1149.46 802.67,-1201.41"/>
<polygon fill="black" stroke="black" points="799.18,-1201.75 802.88,-1211.68 806.17,-1201.61 799.18,-1201.75"/>
</g>
<!-- 4&#45;&gt;7 -->
<g id="edge10" class="edge">
<title>4&#45;&gt;7</title>
<path fill="none" stroke="black" stroke-dasharray="5,2" d="M514.99,-978.98C493.07,-999.4 469.42,-1021.87 448.46,-1042.21"/>
<polygon fill="black" stroke="black" points="445.9,-1039.82 441.17,-1049.3 450.78,-1044.84 445.9,-1039.82"/>
</g>
<!-- 4&#45;&gt;8 -->
<g id="edge9" class="edge">
<title>4&#45;&gt;8</title>
<path fill="none" stroke="black" stroke-dasharray="5,2" d="M608.14,-978.98C615.78,-1001.45 624.84,-1026.39 633.33,-1048.25"/>
<polygon fill="black" stroke="black" points="630.14,-1049.7 637.05,-1057.73 636.66,-1047.14 630.14,-1049.7"/>
</g>
<!-- 10 -->
<g id="node7" class="node">
<title>10</title>
<polygon fill="#f2f2f2" stroke="black" points="1265.05,-1245.3 1265.05,-1378.9 1480.5,-1378.9 1480.5,-1245.3 1265.05,-1245.3"/>
<text text-anchor="middle" x="1372.77" y="-1362.3" font-family="Times,serif" font-size="14.00">&lt;&lt;Struct&gt;&gt;</text>
<text text-anchor="middle" x="1372.77" y="-1345.5" font-family="Times,serif" font-size="14.00">StatementData</text>
<text text-anchor="middle" x="1372.77" y="-1328.7" font-family="Times,serif" font-size="14.00">contracts/libraries/statement_lib.sol</text>
<polyline fill="none" stroke="black" points="1265.05,-1320.5 1480.5,-1320.5 "/>
<text text-anchor="start" x="1273.05" y="-1303.9" font-family="Times,serif" font-size="14.00">id: uint256</text>
<text text-anchor="start" x="1273.05" y="-1287.1" font-family="Times,serif" font-size="14.00">definition: Definition</text>
<text text-anchor="start" x="1273.05" y="-1270.3" font-family="Times,serif" font-size="14.00">price: Price</text>
<text text-anchor="start" x="1273.05" y="-1253.5" font-family="Times,serif" font-size="14.00">developer: address</text>
</g>
<!-- 13 -->
<g id="node10" class="node">
<title>13</title>
<polygon fill="#f2f2f2" stroke="black" points="1555.05,-1457.9 1555.05,-1541.1 1770.5,-1541.1 1770.5,-1457.9 1555.05,-1457.9"/>
<text text-anchor="middle" x="1662.77" y="-1524.5" font-family="Times,serif" font-size="14.00">&lt;&lt;Struct&gt;&gt;</text>
<text text-anchor="middle" x="1662.77" y="-1507.7" font-family="Times,serif" font-size="14.00">Price</text>
<text text-anchor="middle" x="1662.77" y="-1490.9" font-family="Times,serif" font-size="14.00">contracts/libraries/statement_lib.sol</text>
<polyline fill="none" stroke="black" points="1555.05,-1482.7 1770.5,-1482.7 "/>
<text text-anchor="start" x="1563.05" y="-1466.1" font-family="Times,serif" font-size="14.00">price: uint256</text>
</g>
<!-- 10&#45;&gt;13 -->
<g id="edge14" class="edge">
<title>10&#45;&gt;13</title>
<path fill="none" stroke="black" stroke-dasharray="5,2" d="M1475.83,-1378.99C1513.65,-1403.17 1555.64,-1430.01 1590.22,-1452.12"/>
<polygon fill="black" stroke="black" points="1588.54,-1455.2 1598.85,-1457.63 1592.31,-1449.3 1588.54,-1455.2"/>
</g>
<!-- 14 -->
<g id="node11" class="node">
<title>14</title>
<polygon fill="#f2f2f2" stroke="black" points="909.05,-1449.5 909.05,-1549.5 1124.5,-1549.5 1124.5,-1449.5 909.05,-1449.5"/>
<text text-anchor="middle" x="1016.77" y="-1532.9" font-family="Times,serif" font-size="14.00">&lt;&lt;Struct&gt;&gt;</text>
<text text-anchor="middle" x="1016.77" y="-1516.1" font-family="Times,serif" font-size="14.00">Definition</text>
<text text-anchor="middle" x="1016.77" y="-1499.3" font-family="Times,serif" font-size="14.00">contracts/libraries/statement_lib.sol</text>
<polyline fill="none" stroke="black" points="909.05,-1491.1 1124.5,-1491.1 "/>
<text text-anchor="start" x="917.05" y="-1474.5" font-family="Times,serif" font-size="14.00">verificationKey: bytes</text>
<text text-anchor="start" x="917.05" y="-1457.7" font-family="Times,serif" font-size="14.00">provingKey: bytes</text>
</g>
<!-- 10&#45;&gt;14 -->
<g id="edge13" class="edge">
<title>10&#45;&gt;14</title>
<path fill="none" stroke="black" stroke-dasharray="5,2" d="M1264.99,-1369.23C1218.95,-1393.21 1165.44,-1421.08 1119.91,-1444.79"/>
<polygon fill="black" stroke="black" points="1118.17,-1441.75 1110.92,-1449.47 1121.4,-1447.96 1118.17,-1441.75"/>
</g>
<!-- 10&#45;&gt;9 -->
<g id="edge18" class="edge">
<title>10&#45;&gt;9</title>
<path fill="none" stroke="black" d="M1377.95,-1245.04C1379.72,-1182.89 1380,-1088.84 1378.78,-1016.7"/>
<polygon fill="black" stroke="black" points="1378.77,-1016.41 1374.66,-1010.48 1378.55,-1004.41 1382.66,-1010.33 1378.77,-1016.41"/>
</g>
<!-- 11 -->
<g id="node8" class="node">
<title>11</title>
<polygon fill="#f2f2f2" stroke="black" points="1410.05,-1041.1 1410.05,-1174.7 1625.5,-1174.7 1625.5,-1041.1 1410.05,-1041.1"/>
<text text-anchor="middle" x="1517.77" y="-1158.1" font-family="Times,serif" font-size="14.00">&lt;&lt;Struct&gt;&gt;</text>
<text text-anchor="middle" x="1517.77" y="-1141.3" font-family="Times,serif" font-size="14.00">StatementInput</text>
<text text-anchor="middle" x="1517.77" y="-1124.5" font-family="Times,serif" font-size="14.00">contracts/libraries/statement_lib.sol</text>
<polyline fill="none" stroke="black" points="1410.05,-1116.3 1625.5,-1116.3 "/>
<text text-anchor="start" x="1418.05" y="-1099.7" font-family="Times,serif" font-size="14.00">id: uint256</text>
<text text-anchor="start" x="1418.05" y="-1082.9" font-family="Times,serif" font-size="14.00">definition: Definition</text>
<text text-anchor="start" x="1418.05" y="-1066.1" font-family="Times,serif" font-size="14.00">price: Price</text>
<text text-anchor="start" x="1418.05" y="-1049.3" font-family="Times,serif" font-size="14.00">developer: address</text>
</g>
<!-- 11&#45;&gt;13 -->
<g id="edge16" class="edge">
<title>11&#45;&gt;13</title>
<path fill="none" stroke="black" stroke-dasharray="5,2" d="M1542.37,-1174.99C1571.15,-1252.33 1618.17,-1378.66 1644.12,-1448.37"/>
<polygon fill="black" stroke="black" points="1640.86,-1449.67 1647.63,-1457.82 1647.42,-1447.23 1640.86,-1449.67"/>
</g>
<!-- 11&#45;&gt;14 -->
<g id="edge15" class="edge">
<title>11&#45;&gt;14</title>
<path fill="none" stroke="black" stroke-dasharray="5,2" d="M1532.49,-1174.92C1543.55,-1243.43 1548.17,-1349.29 1489.77,-1413 1443.12,-1463.9 1259.16,-1484.72 1134.88,-1493.08"/>
<polygon fill="black" stroke="black" points="1134.3,-1489.61 1124.55,-1493.76 1134.75,-1496.6 1134.3,-1489.61"/>
</g>
<!-- 11&#45;&gt;9 -->
<g id="edge19" class="edge">
<title>11&#45;&gt;9</title>
<path fill="none" stroke="black" d="M1474.9,-1041C1468.59,-1032.33 1461.93,-1023.28 1455.15,-1014.19"/>
<polygon fill="black" stroke="black" points="1454.96,-1013.93 1448.16,-1011.53 1447.77,-1004.33 1454.56,-1006.73 1454.96,-1013.93"/>
</g>
<!-- 12 -->
<g id="node9" class="node">
<title>12</title>
<polygon fill="#f2f2f2" stroke="black" points="1053.88,-1066.3 1053.88,-1149.5 1335.67,-1149.5 1335.67,-1066.3 1053.88,-1066.3"/>
<text text-anchor="middle" x="1194.77" y="-1132.9" font-family="Times,serif" font-size="14.00">&lt;&lt;Struct&gt;&gt;</text>
<text text-anchor="middle" x="1194.77" y="-1116.1" font-family="Times,serif" font-size="14.00">StatementStorage</text>
<text text-anchor="middle" x="1194.77" y="-1099.3" font-family="Times,serif" font-size="14.00">contracts/libraries/statement_lib.sol</text>
<polyline fill="none" stroke="black" points="1053.88,-1091.1 1335.67,-1091.1 "/>
<text text-anchor="start" x="1061.88" y="-1074.5" font-family="Times,serif" font-size="14.00">statements: mapping(uint256=&gt;StatementData)</text>
</g>
<!-- 12&#45;&gt;10 -->
<g id="edge17" class="edge">
<title>12&#45;&gt;10</title>
<path fill="none" stroke="black" stroke-dasharray="5,2" d="M1230.79,-1149.82C1252.89,-1174.92 1281.85,-1207.81 1307.84,-1237.34"/>
<polygon fill="black" stroke="black" points="1305.5,-1239.97 1314.73,-1245.17 1310.75,-1235.35 1305.5,-1239.97"/>
</g>
<!-- 12&#45;&gt;9 -->
<g id="edge20" class="edge">
<title>12&#45;&gt;9</title>
<path fill="none" stroke="black" d="M1238.02,-1065.94C1253.03,-1050.37 1270.4,-1031.86 1287.59,-1013.19"/>
<polygon fill="black" stroke="black" points="1287.61,-1013.17 1288.72,-1006.04 1295.72,-1004.33 1294.61,-1011.45 1287.61,-1013.17"/>
</g>
<!-- 13&#45;&gt;9 -->
<g id="edge21" class="edge">
<title>13&#45;&gt;9</title>
<path fill="none" stroke="black" d="M1677.71,-1457.85C1700.48,-1372.38 1731.11,-1171.19 1643.77,-1040.6 1630.18,-1020.27 1612.38,-1003.08 1592.38,-988.55"/>
<polygon fill="black" stroke="black" points="1592.26,-988.47 1585.05,-988.34 1582.4,-981.64 1589.6,-981.77 1592.26,-988.47"/>
</g>
<!-- 14&#45;&gt;9 -->
<g id="edge22" class="edge">
<title>14&#45;&gt;9</title>
<path fill="none" stroke="black" d="M1009.32,-1449.4C992.79,-1358.91 963.85,-1163.79 1053.77,-1040.6 1078.53,-1006.69 1113.62,-981.8 1151.55,-963.53"/>
<polygon fill="black" stroke="black" points="1151.97,-963.34 1155.74,-957.19 1162.86,-958.31 1159.09,-964.45 1151.97,-963.34"/>
</g>
<!-- 9&#45;&gt;10 -->
<g id="edge25" class="edge">
<title>9&#45;&gt;10</title>
<path fill="none" stroke="black" stroke-dasharray="5,2" d="M1366.99,-1004.41C1365.6,-1074.12 1365.71,-1169.06 1367.32,-1234.76"/>
<polygon fill="black" stroke="black" points="1363.83,-1235.14 1367.6,-1245.04 1370.83,-1234.95 1363.83,-1235.14"/>
</g>
<!-- 9&#45;&gt;11 -->
<g id="edge24" class="edge">
<title>9&#45;&gt;11</title>
<path fill="none" stroke="black" stroke-dasharray="5,2" d="M1434.29,-1004.33C1441.41,-1013.89 1448.68,-1023.53 1455.81,-1032.87"/>
<polygon fill="black" stroke="black" points="1453.17,-1035.19 1462.03,-1041 1458.73,-1030.93 1453.17,-1035.19"/>
</g>
<!-- 9&#45;&gt;12 -->
<g id="edge23" class="edge">
<title>9&#45;&gt;12</title>
<path fill="none" stroke="black" stroke-dasharray="5,2" d="M1282.24,-1004.33C1265.13,-1022.89 1248.09,-1041.73 1233.64,-1058.11"/>
<polygon fill="black" stroke="black" points="1230.73,-1056.12 1226.76,-1065.94 1235.99,-1060.73 1230.73,-1056.12"/>
</g>
<!-- 9&#45;&gt;13 -->
<g id="edge26" class="edge">
<title>9&#45;&gt;13</title>
<path fill="none" stroke="black" stroke-dasharray="5,2" d="M1582.51,-994.64C1599.15,-1007.82 1614.03,-1023.04 1625.77,-1040.6 1709.87,-1166.34 1684.59,-1357.55 1669.62,-1447.87"/>
<polygon fill="black" stroke="black" points="1666.15,-1447.41 1667.94,-1457.85 1673.05,-1448.57 1666.15,-1447.41"/>
</g>
<!-- 9&#45;&gt;14 -->
<g id="edge27" class="edge">
<title>9&#45;&gt;14</title>
<path fill="none" stroke="black" stroke-dasharray="5,2" d="M1162.84,-951.12C1113.66,-970.01 1066.66,-998.29 1035.77,-1040.6 949.01,-1159.46 972.9,-1345.28 996.3,-1439.48"/>
<polygon fill="black" stroke="black" points="992.97,-1440.59 998.85,-1449.4 999.75,-1438.85 992.97,-1440.59"/>
</g>
<!-- 15 -->
<g id="node13" class="node">
<title>15</title>
<polygon fill="#f2f2f2" stroke="black" points="47.88,-862.1 47.88,-962.1 349.66,-962.1 349.66,-862.1 47.88,-862.1"/>
<text text-anchor="middle" x="198.77" y="-945.5" font-family="Times,serif" font-size="14.00">&lt;&lt;Library&gt;&gt;</text>
<text text-anchor="middle" x="198.77" y="-928.7" font-family="Times,serif" font-size="14.00">Tools</text>
<text text-anchor="middle" x="198.77" y="-911.9" font-family="Times,serif" font-size="14.00">contracts/libraries/tools.sol</text>
<polyline fill="none" stroke="black" points="47.88,-903.7 349.66,-903.7 "/>
<text text-anchor="start" x="55.88" y="-887.1" font-family="Times,serif" font-size="14.00">Internal:</text>
<text text-anchor="start" x="55.88" y="-870.3" font-family="Times,serif" font-size="14.00"> &#160;&#160;&#160;verifyProof(orderId: uint256, proof: bytes): bool</text>
</g>
<!-- 16 -->
<g id="node14" class="node">
<title>16</title>
<polygon fill="#f2f2f2" stroke="black" points="1144.51,-138.9 1144.51,-238.9 1391.04,-238.9 1391.04,-138.9 1144.51,-138.9"/>
<text text-anchor="middle" x="1267.77" y="-222.3" font-family="Times,serif" font-size="14.00">MockTocken</text>
<text text-anchor="middle" x="1267.77" y="-205.5" font-family="Times,serif" font-size="14.00">contracts/mock/mock_erc20_contract.sol</text>
<polyline fill="none" stroke="black" points="1144.51,-197.3 1391.04,-197.3 "/>
<text text-anchor="start" x="1152.51" y="-180.7" font-family="Times,serif" font-size="14.00">Public:</text>
<text text-anchor="start" x="1152.51" y="-163.9" font-family="Times,serif" font-size="14.00"> &#160;&#160;&#160;constructor()</text>
<text text-anchor="start" x="1152.51" y="-147.1" font-family="Times,serif" font-size="14.00"> &#160;&#160;&#160;mint(to: address, amount: uint256)</text>
</g>
<!-- 0 -->
<g id="node15" class="node">
<title>0</title>
<polygon fill="#f2f2f2" stroke="black" points="0,-485.9 0,-711.5 507.54,-711.5 507.54,-485.9 0,-485.9"/>
<text text-anchor="middle" x="253.77" y="-694.9" font-family="Times,serif" font-size="14.00">OrderContract</text>
<text text-anchor="middle" x="253.77" y="-678.1" font-family="Times,serif" font-size="14.00">contracts/order_contract.sol</text>
<polyline fill="none" stroke="black" points="0,-669.9 507.54,-669.9 "/>
<text text-anchor="start" x="8" y="-653.3" font-family="Times,serif" font-size="14.00">Private:</text>
<text text-anchor="start" x="8" y="-636.5" font-family="Times,serif" font-size="14.00"> &#160;&#160;orderStorage: OrderLibrary.OrderStorage</text>
<text text-anchor="start" x="8" y="-619.7" font-family="Times,serif" font-size="14.00">Public:</text>
<text text-anchor="start" x="8" y="-602.9" font-family="Times,serif" font-size="14.00"> &#160;&#160;token: IERC20</text>
<text text-anchor="start" x="8" y="-586.1" font-family="Times,serif" font-size="14.00"> &#160;&#160;AUTHORIZED_CALLER_ROLE: bytes32</text>
<polyline fill="none" stroke="black" points="0,-577.9 507.54,-577.9 "/>
<text text-anchor="start" x="8" y="-561.3" font-family="Times,serif" font-size="14.00">Public:</text>
<text text-anchor="start" x="8" y="-544.5" font-family="Times,serif" font-size="14.00"> &#160;&#160;&#160;constructor(_authorizedCaller: address, _token: address)</text>
<text text-anchor="start" x="8" y="-527.7" font-family="Times,serif" font-size="14.00"> &#160;&#160;&#160;create(orderInput: OrderLibrary.OrderInput, buyer: address): uint256 &lt;&lt;onlyRole&gt;&gt;</text>
<text text-anchor="start" x="8" y="-510.9" font-family="Times,serif" font-size="14.00"> &#160;&#160;&#160;get(id: uint256): OrderLibrary.Order</text>
<text text-anchor="start" x="8" y="-494.1" font-family="Times,serif" font-size="14.00"> &#160;&#160;&#160;close(id: uint256, proof: bytes, finalPrice: uint256, producer: address) &lt;&lt;onlyRole&gt;&gt;</text>
</g>
<!-- 0&#45;&gt;4 -->
<g id="edge28" class="edge">
<title>0&#45;&gt;4</title>
<path fill="none" stroke="black" d="M374.96,-711.68C420.44,-753.7 470.92,-800.35 511.62,-837.96"/>
<polygon fill="black" stroke="black" points="509.38,-840.65 519.1,-844.87 514.13,-835.51 509.38,-840.65"/>
</g>
<!-- 0&#45;&gt;15 -->
<g id="edge29" class="edge">
<title>0&#45;&gt;15</title>
<path fill="none" stroke="black" stroke-dasharray="5,2" d="M233.99,-711.68C225.64,-759 216.24,-812.18 209.26,-851.72"/>
<polygon fill="black" stroke="black" points="205.79,-851.26 207.49,-861.72 212.68,-852.48 205.79,-851.26"/>
</g>
<!-- 1 -->
<g id="node16" class="node">
<title>1</title>
<polygon fill="#f2f2f2" stroke="black" points="555.52,-0.5 555.52,-377.3 1126.02,-377.3 1126.02,-0.5 555.52,-0.5"/>
<text text-anchor="middle" x="840.77" y="-360.7" font-family="Times,serif" font-size="14.00">ProofMarketEndpoint</text>
<text text-anchor="middle" x="840.77" y="-343.9" font-family="Times,serif" font-size="14.00">contracts/proof_market_endpoint.sol</text>
<polyline fill="none" stroke="black" points="555.52,-335.7 1126.02,-335.7 "/>
<text text-anchor="start" x="563.52" y="-319.1" font-family="Times,serif" font-size="14.00">Public:</text>
<text text-anchor="start" x="563.52" y="-302.3" font-family="Times,serif" font-size="14.00"> &#160;&#160;token: IERC20</text>
<text text-anchor="start" x="563.52" y="-285.5" font-family="Times,serif" font-size="14.00"> &#160;&#160;statementContract: StatementContract</text>
<text text-anchor="start" x="563.52" y="-268.7" font-family="Times,serif" font-size="14.00"> &#160;&#160;orderContract: OrderContract</text>
<text text-anchor="start" x="563.52" y="-251.9" font-family="Times,serif" font-size="14.00"> &#160;&#160;OWNER_ROLE: bytes32</text>
<text text-anchor="start" x="563.52" y="-235.1" font-family="Times,serif" font-size="14.00"> &#160;&#160;RELAYER_ROLE: bytes32</text>
<polyline fill="none" stroke="black" points="555.52,-226.9 1126.02,-226.9 "/>
<text text-anchor="start" x="563.52" y="-210.3" font-family="Times,serif" font-size="14.00">Public:</text>
<text text-anchor="start" x="563.52" y="-193.5" font-family="Times,serif" font-size="14.00"> &#160;&#160;&#160;&lt;&lt;modifier&gt;&gt; statementMustExist(statementId: uint256)</text>
<text text-anchor="start" x="563.52" y="-176.7" font-family="Times,serif" font-size="14.00"> &#160;&#160;&#160;constructor(_token: IERC20)</text>
<text text-anchor="start" x="563.52" y="-159.9" font-family="Times,serif" font-size="14.00"> &#160;&#160;&#160;grantRelayer(relayer: address) &lt;&lt;onlyRole&gt;&gt;</text>
<text text-anchor="start" x="563.52" y="-143.1" font-family="Times,serif" font-size="14.00"> &#160;&#160;&#160;revokeRelayer(relayer: address) &lt;&lt;onlyRole&gt;&gt;</text>
<text text-anchor="start" x="563.52" y="-126.3" font-family="Times,serif" font-size="14.00"> &#160;&#160;&#160;getOrder(orderId: uint256): OrderLibrary.Order</text>
<text text-anchor="start" x="563.52" y="-109.5" font-family="Times,serif" font-size="14.00"> &#160;&#160;&#160;createOrder(orderInput: OrderLibrary.OrderInput): uint256 &lt;&lt;statementMustExist&gt;&gt;</text>
<text text-anchor="start" x="563.52" y="-92.7" font-family="Times,serif" font-size="14.00"> &#160;&#160;&#160;closeOrder(orderId: uint256, proof: bytes, finalPrice: uint256, producer: address) &lt;&lt;onlyRole&gt;&gt;</text>
<text text-anchor="start" x="563.52" y="-75.9" font-family="Times,serif" font-size="14.00"> &#160;&#160;&#160;getStatement(id: uint256): StatementLibrary.StatementData</text>
<text text-anchor="start" x="563.52" y="-59.1" font-family="Times,serif" font-size="14.00"> &#160;&#160;&#160;addStatement(statementInput: StatementLibrary.StatementInput) &lt;&lt;onlyRole&gt;&gt;</text>
<text text-anchor="start" x="563.52" y="-42.3" font-family="Times,serif" font-size="14.00"> &#160;&#160;&#160;updateStatementDefinition(id: uint256, definition: StatementLibrary.Definition) &lt;&lt;onlyRole&gt;&gt;</text>
<text text-anchor="start" x="563.52" y="-25.5" font-family="Times,serif" font-size="14.00"> &#160;&#160;&#160;updateStatementPrice(id: uint256, price: StatementLibrary.Price) &lt;&lt;onlyRole&gt;&gt;</text>
<text text-anchor="start" x="563.52" y="-8.7" font-family="Times,serif" font-size="14.00"> &#160;&#160;&#160;removeStatement(id: uint256) &lt;&lt;onlyRole&gt;&gt;</text>
</g>
<!-- 1&#45;&gt;3 -->
<g id="edge30" class="edge">
<title>1&#45;&gt;3</title>
<path fill="none" stroke="black" stroke-dasharray="5,2" d="M840.77,-377.39C840.77,-379.59 840.77,-381.79 840.77,-383.99"/>
<polygon fill="none" stroke="black" points="830.27,-384.16 840.77,-414.17 851.27,-384.17 830.27,-384.16"/>
</g>
<!-- 1&#45;&gt;4 -->
<g id="edge33" class="edge">
<title>1&#45;&gt;4</title>
<path fill="none" stroke="black" stroke-dasharray="5,2" d="M576.25,-377.47C568.15,-389.07 560.92,-401.19 554.77,-413.8 488.12,-550.63 530.01,-734.1 562.78,-835.59"/>
<polygon fill="black" stroke="black" points="559.47,-836.74 565.92,-845.15 566.13,-834.56 559.47,-836.74"/>
</g>
<!-- 1&#45;&gt;9 -->
<g id="edge34" class="edge">
<title>1&#45;&gt;9</title>
<path fill="none" stroke="black" stroke-dasharray="5,2" d="M1126.27,-374.52C1129.43,-375.65 1132.6,-376.75 1135.77,-377.8 1186.84,-394.77 1582.16,-374.36 1618.77,-413.8 1730.59,-534.26 1704.16,-643.17 1618.77,-783.6 1610.78,-796.75 1600.94,-808.6 1589.84,-819.28"/>
<polygon fill="black" stroke="black" points="1587.38,-816.79 1582.37,-826.13 1592.11,-821.95 1587.38,-816.79"/>
</g>
<!-- 1&#45;&gt;0 -->
<g id="edge32" class="edge">
<title>1&#45;&gt;0</title>
<path fill="none" stroke="black" d="M570.9,-377.39C520.61,-412.32 469.4,-447.9 423.21,-479.99"/>
<polygon fill="black" stroke="black" points="421.16,-477.15 414.94,-485.73 425.15,-482.9 421.16,-477.15"/>
</g>
<!-- 2 -->
<g id="node17" class="node">
<title>2</title>
<polygon fill="#f2f2f2" stroke="black" points="1135.92,-469.1 1135.92,-728.3 1609.63,-728.3 1609.63,-469.1 1135.92,-469.1"/>
<text text-anchor="middle" x="1372.77" y="-711.7" font-family="Times,serif" font-size="14.00">StatementContract</text>
<text text-anchor="middle" x="1372.77" y="-694.9" font-family="Times,serif" font-size="14.00">contracts/statement_contract.sol</text>
<polyline fill="none" stroke="black" points="1135.92,-686.7 1609.63,-686.7 "/>
<text text-anchor="start" x="1143.92" y="-670.1" font-family="Times,serif" font-size="14.00">Private:</text>
<text text-anchor="start" x="1143.92" y="-653.3" font-family="Times,serif" font-size="14.00"> &#160;&#160;statementStorage: StatementLibrary.StatementStorage</text>
<text text-anchor="start" x="1143.92" y="-636.5" font-family="Times,serif" font-size="14.00">Public:</text>
<text text-anchor="start" x="1143.92" y="-619.7" font-family="Times,serif" font-size="14.00"> &#160;&#160;AUTHORIZED_CALLER_ROLE: bytes32</text>
<polyline fill="none" stroke="black" points="1135.92,-611.5 1609.63,-611.5 "/>
<text text-anchor="start" x="1143.92" y="-594.9" font-family="Times,serif" font-size="14.00">Public:</text>
<text text-anchor="start" x="1143.92" y="-578.1" font-family="Times,serif" font-size="14.00"> &#160;&#160;&#160;constructor(_authorizedCaller: address)</text>
<text text-anchor="start" x="1143.92" y="-561.3" font-family="Times,serif" font-size="14.00"> &#160;&#160;&#160;add(statementInput: StatementLibrary.StatementInput): uint256 &lt;&lt;onlyRole&gt;&gt;</text>
<text text-anchor="start" x="1143.92" y="-544.5" font-family="Times,serif" font-size="14.00"> &#160;&#160;&#160;get(id: uint256): StatementLibrary.StatementData</text>
<text text-anchor="start" x="1143.92" y="-527.7" font-family="Times,serif" font-size="14.00"> &#160;&#160;&#160;update(id: uint256, price: StatementLibrary.Price) &lt;&lt;onlyRole&gt;&gt;</text>
<text text-anchor="start" x="1143.92" y="-510.9" font-family="Times,serif" font-size="14.00"> &#160;&#160;&#160;update(id: uint256, definition: StatementLibrary.Definition) &lt;&lt;onlyRole&gt;&gt;</text>
<text text-anchor="start" x="1143.92" y="-494.1" font-family="Times,serif" font-size="14.00"> &#160;&#160;&#160;remove(id: uint256) &lt;&lt;onlyRole&gt;&gt;</text>
<text text-anchor="start" x="1143.92" y="-477.3" font-family="Times,serif" font-size="14.00"> &#160;&#160;&#160;exists(id: uint256): bool</text>
</g>
<!-- 1&#45;&gt;2 -->
<g id="edge31" class="edge">
<title>1&#45;&gt;2</title>
<path fill="none" stroke="black" d="M1085.36,-377.39C1122.92,-406.17 1161.04,-435.4 1196.72,-462.75"/>
<polygon fill="black" stroke="black" points="1194.71,-465.62 1204.77,-468.92 1198.97,-460.06 1194.71,-465.62"/>
</g>
<!-- 2&#45;&gt;9 -->
<g id="edge35" class="edge">
<title>2&#45;&gt;9</title>
<path fill="none" stroke="black" d="M1372.77,-728.61C1372.77,-755.64 1372.77,-783.78 1372.77,-809.64"/>
<polygon fill="black" stroke="black" points="1369.27,-809.81 1372.77,-819.81 1376.27,-809.81 1369.27,-809.81"/>
</g>
</g>
</svg>
