<?xml version="1.0" encoding="UTF-8" standalone="no"?>
<!DOCTYPE svg PUBLIC "-//W3C//DTD SVG 1.1//EN"
 "http://www.w3.org/Graphics/SVG/1.1/DTD/svg11.dtd">
<!-- Generated by graphviz version 5.0.0 (20220707.1540)
 -->
<!-- Title: UmlClassDiagram Pages: 1 -->
<svg width="1836pt" height="1448pt"
 viewBox="0.00 0.00 1835.77 1448.40" xmlns="http://www.w3.org/2000/svg" xmlns:xlink="http://www.w3.org/1999/xlink">
<g id="graph0" class="graph" transform="scale(1 1) rotate(0) translate(4 1444.4)">
<title>UmlClassDiagram</title>
<polygon fill="white" stroke="transparent" points="-4,4 -4,-1444.4 1831.77,-1444.4 1831.77,4 -4,4"/>
<!-- 3 -->
<g id="node1" class="node">
<title>3</title>
<polygon fill="#f2f2f2" stroke="black" points="374.77,-1339.9 374.77,-1439.9 566.11,-1439.9 566.11,-1339.9 374.77,-1339.9"/>
<text text-anchor="middle" x="470.44" y="-1423.3" font-family="Times,serif" font-size="14.00">&lt;&lt;Enum&gt;&gt;</text>
<text text-anchor="middle" x="470.44" y="-1406.5" font-family="Times,serif" font-size="14.00">OrderStatus</text>
<text text-anchor="middle" x="470.44" y="-1389.7" font-family="Times,serif" font-size="14.00">contracts/libraries/order_lib.sol</text>
<polyline fill="none" stroke="black" points="374.77,-1381.5 566.11,-1381.5 "/>
<text text-anchor="start" x="382.77" y="-1364.9" font-family="Times,serif" font-size="14.00">OPEN: 0</text>
<text text-anchor="start" x="382.77" y="-1348.1" font-family="Times,serif" font-size="14.00">CLOSED: 1</text>
</g>
<!-- 4 -->
<g id="node2" class="node">
<title>4</title>
<polygon fill="#f2f2f2" stroke="black" points="153.77,-1102.1 153.77,-1302.9 345.11,-1302.9 345.11,-1102.1 153.77,-1102.1"/>
<text text-anchor="middle" x="249.44" y="-1286.3" font-family="Times,serif" font-size="14.00">&lt;&lt;Struct&gt;&gt;</text>
<text text-anchor="middle" x="249.44" y="-1269.5" font-family="Times,serif" font-size="14.00">Order</text>
<text text-anchor="middle" x="249.44" y="-1252.7" font-family="Times,serif" font-size="14.00">contracts/libraries/order_lib.sol</text>
<polyline fill="none" stroke="black" points="153.77,-1244.5 345.11,-1244.5 "/>
<text text-anchor="start" x="161.77" y="-1227.9" font-family="Times,serif" font-size="14.00">id: uint256</text>
<text text-anchor="start" x="161.77" y="-1211.1" font-family="Times,serif" font-size="14.00">statementId: uint256</text>
<text text-anchor="start" x="161.77" y="-1194.3" font-family="Times,serif" font-size="14.00">input: bytes32</text>
<text text-anchor="start" x="161.77" y="-1177.5" font-family="Times,serif" font-size="14.00">price: uint256</text>
<text text-anchor="start" x="161.77" y="-1160.7" font-family="Times,serif" font-size="14.00">buyer: address</text>
<text text-anchor="start" x="161.77" y="-1143.9" font-family="Times,serif" font-size="14.00">status: OrderStatus</text>
<text text-anchor="start" x="161.77" y="-1127.1" font-family="Times,serif" font-size="14.00">producer: address</text>
<text text-anchor="start" x="161.77" y="-1110.3" font-family="Times,serif" font-size="14.00">proof: bytes32[]</text>
</g>
<!-- 4&#45;&gt;3 -->
<g id="edge1" class="edge">
<title>4&#45;&gt;3</title>
<path fill="none" stroke="black" stroke-dasharray="5,2" d="M345.41,-1284.01C365.18,-1300.6 385.59,-1317.72 404.03,-1333.19"/>
<polygon fill="black" stroke="black" points="401.9,-1335.97 411.81,-1339.72 406.4,-1330.61 401.9,-1335.97"/>
</g>
<!-- 5 -->
<g id="node3" class="node">
<title>5</title>
<polygon fill="#f2f2f2" stroke="black" points="145.49,-965.1 145.49,-1065.1 353.4,-1065.1 353.4,-965.1 145.49,-965.1"/>
<text text-anchor="middle" x="249.44" y="-1048.5" font-family="Times,serif" font-size="14.00">&lt;&lt;Struct&gt;&gt;</text>
<text text-anchor="middle" x="249.44" y="-1031.7" font-family="Times,serif" font-size="14.00">OrderStorage</text>
<text text-anchor="middle" x="249.44" y="-1014.9" font-family="Times,serif" font-size="14.00">contracts/libraries/order_lib.sol</text>
<polyline fill="none" stroke="black" points="145.49,-1006.7 353.4,-1006.7 "/>
<text text-anchor="start" x="153.49" y="-990.1" font-family="Times,serif" font-size="14.00">orders: mapping(uint256=&gt;Order)</text>
<text text-anchor="start" x="153.49" y="-973.3" font-family="Times,serif" font-size="14.00">orderCounter: uint256</text>
</g>
<!-- 5&#45;&gt;4 -->
<g id="edge2" class="edge">
<title>5&#45;&gt;4</title>
<path fill="none" stroke="black" stroke-dasharray="5,2" d="M249.44,-1065.3C249.44,-1073.65 249.44,-1082.61 249.44,-1091.8"/>
<polygon fill="black" stroke="black" points="245.94,-1091.84 249.44,-1101.84 252.94,-1091.84 245.94,-1091.84"/>
</g>
<!-- 6 -->
<g id="node4" class="node">
<title>6</title>
<polygon fill="#f2f2f2" stroke="black" points="166.18,-777.7 166.18,-911.3 774.7,-911.3 774.7,-777.7 166.18,-777.7"/>
<text text-anchor="middle" x="470.44" y="-894.7" font-family="Times,serif" font-size="14.00">&lt;&lt;Library&gt;&gt;</text>
<text text-anchor="middle" x="470.44" y="-877.9" font-family="Times,serif" font-size="14.00">OrderLibrary</text>
<text text-anchor="middle" x="470.44" y="-861.1" font-family="Times,serif" font-size="14.00">contracts/libraries/order_lib.sol</text>
<polyline fill="none" stroke="black" points="166.18,-852.9 774.7,-852.9 "/>
<text text-anchor="start" x="174.18" y="-836.3" font-family="Times,serif" font-size="14.00">Internal:</text>
<text text-anchor="start" x="174.18" y="-819.5" font-family="Times,serif" font-size="14.00"> &#160;&#160;&#160;create(self: OrderStorage, statementId: uint256, input: bytes32, price: uint256, buyer: address): uint256</text>
<text text-anchor="start" x="174.18" y="-802.7" font-family="Times,serif" font-size="14.00"> &#160;&#160;&#160;get(self: OrderStorage, id: uint256): Order</text>
<text text-anchor="start" x="174.18" y="-785.9" font-family="Times,serif" font-size="14.00"> &#160;&#160;&#160;update(self: OrderStorage, id: uint256, producer: address, proof: bytes32[])</text>
</g>
<!-- 6&#45;&gt;3 -->
<g id="edge5" class="edge">
<title>6&#45;&gt;3</title>
<path fill="none" stroke="black" stroke-dasharray="5,2" d="M470.44,-911.32C470.44,-1017.99 470.44,-1227.02 470.44,-1329.45"/>
<polygon fill="black" stroke="black" points="466.94,-1329.62 470.44,-1339.62 473.94,-1329.62 466.94,-1329.62"/>
</g>
<!-- 6&#45;&gt;4 -->
<g id="edge4" class="edge">
<title>6&#45;&gt;4</title>
<path fill="none" stroke="black" stroke-dasharray="5,2" d="M442.9,-911.75C423.06,-956.63 394.27,-1016.48 362.44,-1065.6 356.38,-1074.96 349.75,-1084.4 342.86,-1093.72"/>
<polygon fill="black" stroke="black" points="339.95,-1091.77 336.73,-1101.86 345.54,-1095.97 339.95,-1091.77"/>
</g>
<!-- 6&#45;&gt;5 -->
<g id="edge3" class="edge">
<title>6&#45;&gt;5</title>
<path fill="none" stroke="black" stroke-dasharray="5,2" d="M384.05,-911.41C363.51,-927.08 341.81,-943.63 321.96,-958.77"/>
<polygon fill="black" stroke="black" points="319.7,-956.09 313.88,-964.94 323.95,-961.66 319.7,-956.09"/>
</g>
<!-- 7 -->
<g id="node5" class="node">
<title>7</title>
<polygon fill="#f2f2f2" stroke="black" points="1459.72,-1144.1 1459.72,-1260.9 1675.16,-1260.9 1675.16,-1144.1 1459.72,-1144.1"/>
<text text-anchor="middle" x="1567.44" y="-1244.3" font-family="Times,serif" font-size="14.00">&lt;&lt;Struct&gt;&gt;</text>
<text text-anchor="middle" x="1567.44" y="-1227.5" font-family="Times,serif" font-size="14.00">StatementData</text>
<text text-anchor="middle" x="1567.44" y="-1210.7" font-family="Times,serif" font-size="14.00">contracts/libraries/statement_lib.sol</text>
<polyline fill="none" stroke="black" points="1459.72,-1202.5 1675.16,-1202.5 "/>
<text text-anchor="start" x="1467.72" y="-1185.9" font-family="Times,serif" font-size="14.00">id: uint256</text>
<text text-anchor="start" x="1467.72" y="-1169.1" font-family="Times,serif" font-size="14.00">definition: bytes32</text>
<text text-anchor="start" x="1467.72" y="-1152.3" font-family="Times,serif" font-size="14.00">price: Price</text>
</g>
<!-- 9 -->
<g id="node7" class="node">
<title>9</title>
<polygon fill="#f2f2f2" stroke="black" points="1158.72,-1348.3 1158.72,-1431.5 1374.16,-1431.5 1374.16,-1348.3 1158.72,-1348.3"/>
<text text-anchor="middle" x="1266.44" y="-1414.9" font-family="Times,serif" font-size="14.00">&lt;&lt;Struct&gt;&gt;</text>
<text text-anchor="middle" x="1266.44" y="-1398.1" font-family="Times,serif" font-size="14.00">Price</text>
<text text-anchor="middle" x="1266.44" y="-1381.3" font-family="Times,serif" font-size="14.00">contracts/libraries/statement_lib.sol</text>
<polyline fill="none" stroke="black" points="1158.72,-1373.1 1374.16,-1373.1 "/>
<text text-anchor="start" x="1166.72" y="-1356.5" font-family="Times,serif" font-size="14.00">price: uint256</text>
</g>
<!-- 7&#45;&gt;9 -->
<g id="edge6" class="edge">
<title>7&#45;&gt;9</title>
<path fill="none" stroke="black" stroke-dasharray="5,2" d="M1473.85,-1261.15C1431.25,-1287.39 1381.5,-1318.03 1341.41,-1342.72"/>
<polygon fill="black" stroke="black" points="1339.43,-1339.83 1332.75,-1348.06 1343.1,-1345.79 1339.43,-1339.83"/>
</g>
<!-- 8 -->
<g id="node6" class="node">
<title>8</title>
<polygon fill="#f2f2f2" stroke="black" points="1426.55,-965.1 1426.55,-1065.1 1708.34,-1065.1 1708.34,-965.1 1426.55,-965.1"/>
<text text-anchor="middle" x="1567.44" y="-1048.5" font-family="Times,serif" font-size="14.00">&lt;&lt;Struct&gt;&gt;</text>
<text text-anchor="middle" x="1567.44" y="-1031.7" font-family="Times,serif" font-size="14.00">StatementStorage</text>
<text text-anchor="middle" x="1567.44" y="-1014.9" font-family="Times,serif" font-size="14.00">contracts/libraries/statement_lib.sol</text>
<polyline fill="none" stroke="black" points="1426.55,-1006.7 1708.34,-1006.7 "/>
<text text-anchor="start" x="1434.55" y="-990.1" font-family="Times,serif" font-size="14.00">statements: mapping(uint256=&gt;StatementData)</text>
<text text-anchor="start" x="1434.55" y="-973.3" font-family="Times,serif" font-size="14.00">statementCounter: uint256</text>
</g>
<!-- 8&#45;&gt;7 -->
<g id="edge7" class="edge">
<title>8&#45;&gt;7</title>
<path fill="none" stroke="black" stroke-dasharray="5,2" d="M1567.44,-1065.3C1567.44,-1086.23 1567.44,-1110.99 1567.44,-1133.62"/>
<polygon fill="black" stroke="black" points="1563.94,-1133.84 1567.44,-1143.84 1570.94,-1133.84 1563.94,-1133.84"/>
</g>
<!-- 10 -->
<g id="node8" class="node">
<title>10</title>
<polygon fill="#f2f2f2" stroke="black" points="1250.65,-760.9 1250.65,-928.1 1670.23,-928.1 1670.23,-760.9 1250.65,-760.9"/>
<text text-anchor="middle" x="1460.44" y="-911.5" font-family="Times,serif" font-size="14.00">&lt;&lt;Library&gt;&gt;</text>
<text text-anchor="middle" x="1460.44" y="-894.7" font-family="Times,serif" font-size="14.00">StatementLibrary</text>
<text text-anchor="middle" x="1460.44" y="-877.9" font-family="Times,serif" font-size="14.00">contracts/libraries/statement_lib.sol</text>
<polyline fill="none" stroke="black" points="1250.65,-869.7 1670.23,-869.7 "/>
<text text-anchor="start" x="1258.65" y="-853.1" font-family="Times,serif" font-size="14.00">Internal:</text>
<text text-anchor="start" x="1258.65" y="-836.3" font-family="Times,serif" font-size="14.00"> &#160;&#160;&#160;add(self: StatementStorage, definition: bytes32, price: Price): uint256</text>
<text text-anchor="start" x="1258.65" y="-819.5" font-family="Times,serif" font-size="14.00"> &#160;&#160;&#160;get(self: StatementStorage, id: uint256): StatementData</text>
<text text-anchor="start" x="1258.65" y="-802.7" font-family="Times,serif" font-size="14.00"> &#160;&#160;&#160;update(self: StatementStorage, id: uint256, price: Price)</text>
<text text-anchor="start" x="1258.65" y="-785.9" font-family="Times,serif" font-size="14.00"> &#160;&#160;&#160;update(self: StatementStorage, id: uint256, definition: bytes32)</text>
<text text-anchor="start" x="1258.65" y="-769.1" font-family="Times,serif" font-size="14.00"> &#160;&#160;&#160;remove(self: StatementStorage, id: uint256)</text>
</g>
<!-- 10&#45;&gt;7 -->
<g id="edge10" class="edge">
<title>10&#45;&gt;7</title>
<path fill="none" stroke="black" stroke-dasharray="5,2" d="M1421.43,-928.11C1406.98,-970.58 1398.27,-1022.36 1417.44,-1065.6 1429.6,-1093.02 1450.32,-1117.26 1472.55,-1137.4"/>
<polygon fill="black" stroke="black" points="1470.31,-1140.09 1480.14,-1144.07 1474.94,-1134.83 1470.31,-1140.09"/>
</g>
<!-- 10&#45;&gt;8 -->
<g id="edge8" class="edge">
<title>10&#45;&gt;8</title>
<path fill="none" stroke="black" stroke-dasharray="5,2" d="M1513,-928.32C1519.01,-937.78 1525.03,-947.28 1530.77,-956.31"/>
<polygon fill="black" stroke="black" points="1527.86,-958.26 1536.17,-964.83 1533.77,-954.51 1527.86,-958.26"/>
</g>
<!-- 10&#45;&gt;9 -->
<g id="edge9" class="edge">
<title>10&#45;&gt;9</title>
<path fill="none" stroke="black" stroke-dasharray="5,2" d="M1417.39,-928.38C1411.73,-940.4 1406.24,-952.73 1401.44,-964.6 1348.19,-1096.4 1301.78,-1257.77 1279.87,-1338.24"/>
<polygon fill="black" stroke="black" points="1276.43,-1337.54 1277.19,-1348.11 1283.19,-1339.37 1276.43,-1337.54"/>
</g>
<!-- 11 -->
<g id="node9" class="node">
<title>11</title>
<polygon fill="#f2f2f2" stroke="black" points="792.89,-794.5 792.89,-894.5 1117.99,-894.5 1117.99,-794.5 792.89,-794.5"/>
<text text-anchor="middle" x="955.44" y="-877.9" font-family="Times,serif" font-size="14.00">&lt;&lt;Library&gt;&gt;</text>
<text text-anchor="middle" x="955.44" y="-861.1" font-family="Times,serif" font-size="14.00">Tools</text>
<text text-anchor="middle" x="955.44" y="-844.3" font-family="Times,serif" font-size="14.00">contracts/libraries/tools.sol</text>
<polyline fill="none" stroke="black" points="792.89,-836.1 1117.99,-836.1 "/>
<text text-anchor="start" x="800.89" y="-819.5" font-family="Times,serif" font-size="14.00">Internal:</text>
<text text-anchor="start" x="800.89" y="-802.7" font-family="Times,serif" font-size="14.00"> &#160;&#160;&#160;verifyProof(orderId: uint256, proof: bytes32[]): bool</text>
</g>
<!-- 0 -->
<g id="node10" class="node">
<title>0</title>
<polygon fill="#f2f2f2" stroke="black" points="142.61,-481.5 142.61,-707.1 798.27,-707.1 798.27,-481.5 142.61,-481.5"/>
<text text-anchor="middle" x="470.44" y="-690.5" font-family="Times,serif" font-size="14.00">OrderContract</text>
<text text-anchor="middle" x="470.44" y="-673.7" font-family="Times,serif" font-size="14.00">contracts/order_contract.sol</text>
<polyline fill="none" stroke="black" points="142.61,-665.5 798.27,-665.5 "/>
<text text-anchor="start" x="150.61" y="-648.9" font-family="Times,serif" font-size="14.00">Private:</text>
<text text-anchor="start" x="150.61" y="-632.1" font-family="Times,serif" font-size="14.00"> &#160;&#160;orderStorage: OrderStorage</text>
<text text-anchor="start" x="150.61" y="-615.3" font-family="Times,serif" font-size="14.00">Public:</text>
<text text-anchor="start" x="150.61" y="-598.5" font-family="Times,serif" font-size="14.00"> &#160;&#160;authorizedCaller: address</text>
<polyline fill="none" stroke="black" points="142.61,-590.3 798.27,-590.3 "/>
<text text-anchor="start" x="150.61" y="-573.7" font-family="Times,serif" font-size="14.00">Public:</text>
<text text-anchor="start" x="150.61" y="-556.9" font-family="Times,serif" font-size="14.00"> &#160;&#160;&#160;&lt;&lt;modifier&gt;&gt; onlyAuthorizedCaller()</text>
<text text-anchor="start" x="150.61" y="-540.1" font-family="Times,serif" font-size="14.00"> &#160;&#160;&#160;constructor(_authorizedCaller: address)</text>
<text text-anchor="start" x="150.61" y="-523.3" font-family="Times,serif" font-size="14.00"> &#160;&#160;&#160;create(statementId: uint256, input: bytes32, price: uint256, buyer: address): uint256 &lt;&lt;onlyAuthorizedCaller&gt;&gt;</text>
<text text-anchor="start" x="150.61" y="-506.5" font-family="Times,serif" font-size="14.00"> &#160;&#160;&#160;get(id: uint256): Order</text>
<text text-anchor="start" x="150.61" y="-489.7" font-family="Times,serif" font-size="14.00"> &#160;&#160;&#160;close(id: uint256, producer: address, proof: bytes32[]) &lt;&lt;onlyAuthorizedCaller&gt;&gt;</text>
</g>
<!-- 0&#45;&gt;4 -->
<g id="edge13" class="edge">
<title>0&#45;&gt;4</title>
<path fill="none" stroke="black" stroke-dasharray="5,2" d="M174.41,-707.31C156.67,-722.83 140.97,-740.44 128.44,-760.4 56.3,-875.33 86.62,-939.39 136.44,-1065.6 140.12,-1074.91 144.69,-1084.06 149.88,-1092.93"/>
<polygon fill="black" stroke="black" points="147.04,-1095 155.25,-1101.7 153.01,-1091.35 147.04,-1095"/>
</g>
<!-- 0&#45;&gt;5 -->
<g id="edge12" class="edge">
<title>0&#45;&gt;5</title>
<path fill="none" stroke="black" d="M201.97,-707.38C184.67,-722.95 169.42,-740.54 157.44,-760.4 118.83,-824.41 127.57,-860.07 157.44,-928.6 161.96,-938.96 168.41,-948.63 175.84,-957.46"/>
<polygon fill="black" stroke="black" points="173.31,-959.89 182.59,-965 178.53,-955.22 173.31,-959.89"/>
</g>
<!-- 0&#45;&gt;6 -->
<g id="edge11" class="edge">
<title>0&#45;&gt;6</title>
<path fill="none" stroke="black" stroke-dasharray="5,2" d="M470.44,-707.42C470.44,-727.78 470.44,-748.58 470.44,-767.59"/>
<polygon fill="black" stroke="black" points="466.94,-767.66 470.44,-777.66 473.94,-767.66 466.94,-767.66"/>
</g>
<!-- 0&#45;&gt;11 -->
<g id="edge14" class="edge">
<title>0&#45;&gt;11</title>
<path fill="none" stroke="black" stroke-dasharray="5,2" d="M689.18,-707.24C745.35,-735.98 803.24,-765.61 850.63,-789.86"/>
<polygon fill="black" stroke="black" points="849.17,-793.05 859.66,-794.49 852.36,-786.81 849.17,-793.05"/>
</g>
<!-- 1 -->
<g id="node11" class="node">
<title>1</title>
<polygon fill="#f2f2f2" stroke="black" points="853.16,-0.5 853.16,-427.7 1477.72,-427.7 1477.72,-0.5 853.16,-0.5"/>
<text text-anchor="middle" x="1165.44" y="-411.1" font-family="Times,serif" font-size="14.00">ProofMarketEndpoint</text>
<text text-anchor="middle" x="1165.44" y="-394.3" font-family="Times,serif" font-size="14.00">contracts/proof_market_endpoint.sol</text>
<polyline fill="none" stroke="black" points="853.16,-386.1 1477.72,-386.1 "/>
<text text-anchor="start" x="861.16" y="-369.5" font-family="Times,serif" font-size="14.00">Public:</text>
<text text-anchor="start" x="861.16" y="-352.7" font-family="Times,serif" font-size="14.00"> &#160;&#160;token: IERC20</text>
<text text-anchor="start" x="861.16" y="-335.9" font-family="Times,serif" font-size="14.00"> &#160;&#160;statementContract: StatementContract</text>
<text text-anchor="start" x="861.16" y="-319.1" font-family="Times,serif" font-size="14.00"> &#160;&#160;orderContract: OrderContract</text>
<text text-anchor="start" x="861.16" y="-302.3" font-family="Times,serif" font-size="14.00"> &#160;&#160;owner: address</text>
<polyline fill="none" stroke="black" points="853.16,-294.1 1477.72,-294.1 "/>
<text text-anchor="start" x="861.16" y="-277.5" font-family="Times,serif" font-size="14.00">Public:</text>
<text text-anchor="start" x="861.16" y="-260.7" font-family="Times,serif" font-size="14.00"> &#160;&#160;&#160;&lt;&lt;event&gt;&gt; OrderCreated(id: uint256, statementId: uint256, input: bytes32, price: uint256, buyer: address)</text>
<text text-anchor="start" x="861.16" y="-243.9" font-family="Times,serif" font-size="14.00"> &#160;&#160;&#160;&lt;&lt;event&gt;&gt; OrderClosed(id: uint256, producer: address, finalPrice: uint256, proof: bytes32[])</text>
<text text-anchor="start" x="861.16" y="-227.1" font-family="Times,serif" font-size="14.00"> &#160;&#160;&#160;&lt;&lt;event&gt;&gt; StatementAdded(id: uint256, definition: bytes32)</text>
<text text-anchor="start" x="861.16" y="-210.3" font-family="Times,serif" font-size="14.00"> &#160;&#160;&#160;&lt;&lt;event&gt;&gt; StatementDefinitionUpdated(id: uint256, definition: bytes32)</text>
<text text-anchor="start" x="861.16" y="-193.5" font-family="Times,serif" font-size="14.00"> &#160;&#160;&#160;&lt;&lt;event&gt;&gt; StatementPriceUpdated(id: uint256, price: uint256)</text>
<text text-anchor="start" x="861.16" y="-176.7" font-family="Times,serif" font-size="14.00"> &#160;&#160;&#160;&lt;&lt;event&gt;&gt; StatementRemoved(id: uint256)</text>
<text text-anchor="start" x="861.16" y="-159.9" font-family="Times,serif" font-size="14.00"> &#160;&#160;&#160;&lt;&lt;modifier&gt;&gt; onlyOwner()</text>
<text text-anchor="start" x="861.16" y="-143.1" font-family="Times,serif" font-size="14.00"> &#160;&#160;&#160;constructor(_token: IERC20)</text>
<text text-anchor="start" x="861.16" y="-126.3" font-family="Times,serif" font-size="14.00"> &#160;&#160;&#160;getOrder(orderId: uint256): Order</text>
<text text-anchor="start" x="861.16" y="-109.5" font-family="Times,serif" font-size="14.00"> &#160;&#160;&#160;createOrder(statementId: uint256, input: bytes32, price: uint256): uint256</text>
<text text-anchor="start" x="861.16" y="-92.7" font-family="Times,serif" font-size="14.00"> &#160;&#160;&#160;closeOrder(orderId: uint256, proof: bytes32[], finalPrice: uint256, producer: address)</text>
<text text-anchor="start" x="861.16" y="-75.9" font-family="Times,serif" font-size="14.00"> &#160;&#160;&#160;getStatement(id: uint256): StatementData</text>
<text text-anchor="start" x="861.16" y="-59.1" font-family="Times,serif" font-size="14.00"> &#160;&#160;&#160;addStatement(definition: bytes32, price: Price) &lt;&lt;onlyOwner&gt;&gt;</text>
<text text-anchor="start" x="861.16" y="-42.3" font-family="Times,serif" font-size="14.00"> &#160;&#160;&#160;updateStatementDefinition(id: uint256, definition: bytes32) &lt;&lt;onlyOwner&gt;&gt;</text>
<text text-anchor="start" x="861.16" y="-25.5" font-family="Times,serif" font-size="14.00"> &#160;&#160;&#160;updateStatementPrice(id: uint256, price: Price) &lt;&lt;onlyOwner&gt;&gt;</text>
<text text-anchor="start" x="861.16" y="-8.7" font-family="Times,serif" font-size="14.00"> &#160;&#160;&#160;removeStatement(id: uint256) &lt;&lt;onlyOwner&gt;&gt;</text>
</g>
<!-- 1&#45;&gt;3 -->
<g id="edge18" class="edge">
<title>1&#45;&gt;3</title>
<path fill="none" stroke="black" stroke-dasharray="5,2" d="M1155.82,-427.75C1151.11,-549.45 1146.44,-705.02 1146.44,-843.5 1146.44,-843.5 1146.44,-843.5 1146.44,-1016.1 1146.44,-1273.35 766.43,-1354.41 576.24,-1378.88"/>
<polygon fill="black" stroke="black" points="575.7,-1375.42 566.22,-1380.14 576.58,-1382.36 575.7,-1375.42"/>
</g>
<!-- 1&#45;&gt;4 -->
<g id="edge17" class="edge">
<title>1&#45;&gt;4</title>
<path fill="none" stroke="black" stroke-dasharray="5,2" d="M852.95,-252.54C586.18,-291.09 230.69,-360.28 133.44,-464.2 -49.55,-659.75 -26.13,-826.96 95.44,-1065.6 107.69,-1089.65 126.17,-1111.36 146.11,-1130.02"/>
<polygon fill="black" stroke="black" points="143.76,-1132.61 153.52,-1136.75 148.47,-1127.43 143.76,-1132.61"/>
</g>
<!-- 1&#45;&gt;7 -->
<g id="edge19" class="edge">
<title>1&#45;&gt;7</title>
<path fill="none" stroke="black" stroke-dasharray="5,2" d="M1477.93,-304.87C1558.4,-342.06 1637.43,-393.56 1691.44,-464.2 1854.52,-677.48 1868.45,-825.43 1748.44,-1065.6 1733.8,-1094.91 1709.49,-1119.54 1683.37,-1139.43"/>
<polygon fill="black" stroke="black" points="1681.18,-1136.7 1675.22,-1145.46 1685.34,-1142.33 1681.18,-1136.7"/>
</g>
<!-- 1&#45;&gt;9 -->
<g id="edge20" class="edge">
<title>1&#45;&gt;9</title>
<path fill="none" stroke="black" stroke-dasharray="5,2" d="M1175.07,-427.75C1179.77,-549.45 1184.44,-705.02 1184.44,-843.5 1184.44,-843.5 1184.44,-843.5 1184.44,-1016.1 1184.44,-1145.02 1186.65,-1180.14 1224.44,-1303.4 1228.11,-1315.38 1233.29,-1327.75 1238.76,-1339.24"/>
<polygon fill="black" stroke="black" points="1235.63,-1340.81 1243.18,-1348.24 1241.91,-1337.72 1235.63,-1340.81"/>
</g>
<!-- 1&#45;&gt;0 -->
<g id="edge16" class="edge">
<title>1&#45;&gt;0</title>
<path fill="none" stroke="black" d="M853.01,-385.12C796.14,-416.06 738.01,-447.7 684.78,-476.66"/>
<polygon fill="black" stroke="black" points="683.05,-473.62 675.94,-481.47 686.39,-479.77 683.05,-473.62"/>
</g>
<!-- 2 -->
<g id="node12" class="node">
<title>2</title>
<polygon fill="#f2f2f2" stroke="black" points="1238.75,-464.7 1238.75,-723.9 1682.13,-723.9 1682.13,-464.7 1238.75,-464.7"/>
<text text-anchor="middle" x="1460.44" y="-707.3" font-family="Times,serif" font-size="14.00">StatementContract</text>
<text text-anchor="middle" x="1460.44" y="-690.5" font-family="Times,serif" font-size="14.00">contracts/statement_contract.sol</text>
<polyline fill="none" stroke="black" points="1238.75,-682.3 1682.13,-682.3 "/>
<text text-anchor="start" x="1246.75" y="-665.7" font-family="Times,serif" font-size="14.00">Private:</text>
<text text-anchor="start" x="1246.75" y="-648.9" font-family="Times,serif" font-size="14.00"> &#160;&#160;statementStorage: StatementStorage</text>
<text text-anchor="start" x="1246.75" y="-632.1" font-family="Times,serif" font-size="14.00">Public:</text>
<text text-anchor="start" x="1246.75" y="-615.3" font-family="Times,serif" font-size="14.00"> &#160;&#160;authorizedCaller: address</text>
<polyline fill="none" stroke="black" points="1238.75,-607.1 1682.13,-607.1 "/>
<text text-anchor="start" x="1246.75" y="-590.5" font-family="Times,serif" font-size="14.00">Public:</text>
<text text-anchor="start" x="1246.75" y="-573.7" font-family="Times,serif" font-size="14.00"> &#160;&#160;&#160;&lt;&lt;modifier&gt;&gt; onlyAuthorizedCaller()</text>
<text text-anchor="start" x="1246.75" y="-556.9" font-family="Times,serif" font-size="14.00"> &#160;&#160;&#160;constructor(_authorizedCaller: address)</text>
<text text-anchor="start" x="1246.75" y="-540.1" font-family="Times,serif" font-size="14.00"> &#160;&#160;&#160;add(definition: bytes32, price: Price): uint256 &lt;&lt;onlyAuthorizedCaller&gt;&gt;</text>
<text text-anchor="start" x="1246.75" y="-523.3" font-family="Times,serif" font-size="14.00"> &#160;&#160;&#160;get(id: uint256): StatementData</text>
<text text-anchor="start" x="1246.75" y="-506.5" font-family="Times,serif" font-size="14.00"> &#160;&#160;&#160;update(id: uint256, price: Price) &lt;&lt;onlyAuthorizedCaller&gt;&gt;</text>
<text text-anchor="start" x="1246.75" y="-489.7" font-family="Times,serif" font-size="14.00"> &#160;&#160;&#160;update(id: uint256, definition: bytes32) &lt;&lt;onlyAuthorizedCaller&gt;&gt;</text>
<text text-anchor="start" x="1246.75" y="-472.9" font-family="Times,serif" font-size="14.00"> &#160;&#160;&#160;remove(id: uint256) &lt;&lt;onlyAuthorizedCaller&gt;&gt;</text>
</g>
<!-- 1&#45;&gt;2 -->
<g id="edge15" class="edge">
<title>1&#45;&gt;2</title>
<path fill="none" stroke="black" d="M1331.48,-427.97C1338.98,-437.58 1346.41,-447.11 1353.7,-456.46"/>
<polygon fill="black" stroke="black" points="1351.16,-458.89 1360.07,-464.62 1356.68,-454.58 1351.16,-458.89"/>
</g>
<!-- 2&#45;&gt;7 -->
<g id="edge24" class="edge">
<title>2&#45;&gt;7</title>
<path fill="none" stroke="black" stroke-dasharray="5,2" d="M1679.34,-724.05C1689.23,-735.37 1698.07,-747.48 1705.44,-760.4 1772.69,-878.32 1772.46,-941.5 1717.44,-1065.6 1705.28,-1093.02 1684.56,-1117.26 1662.33,-1137.4"/>
<polygon fill="black" stroke="black" points="1659.95,-1134.83 1654.75,-1144.07 1664.57,-1140.09 1659.95,-1134.83"/>
</g>
<!-- 2&#45;&gt;8 -->
<g id="edge22" class="edge">
<title>2&#45;&gt;8</title>
<path fill="none" stroke="black" d="M1656,-723.96C1665.05,-735.36 1673.02,-747.51 1679.44,-760.4 1712.79,-827.3 1712.59,-861.59 1679.44,-928.6 1674.14,-939.31 1666.79,-949.04 1658.37,-957.78"/>
<polygon fill="black" stroke="black" points="1655.78,-955.41 1651.05,-964.89 1660.66,-960.43 1655.78,-955.41"/>
</g>
<!-- 2&#45;&gt;9 -->
<g id="edge23" class="edge">
<title>2&#45;&gt;9</title>
<path fill="none" stroke="black" stroke-dasharray="5,2" d="M1264.88,-723.96C1255.83,-735.36 1247.87,-747.51 1241.44,-760.4 1191.28,-861.03 1237.99,-1206.43 1258.19,-1337.71"/>
<polygon fill="black" stroke="black" points="1254.78,-1338.55 1259.77,-1347.9 1261.69,-1337.48 1254.78,-1338.55"/>
</g>
<!-- 2&#45;&gt;10 -->
<g id="edge21" class="edge">
<title>2&#45;&gt;10</title>
<path fill="none" stroke="black" stroke-dasharray="5,2" d="M1460.44,-724.13C1460.44,-733.03 1460.44,-741.91 1460.44,-750.57"/>
<polygon fill="black" stroke="black" points="1456.94,-750.62 1460.44,-760.62 1463.94,-750.62 1456.94,-750.62"/>
</g>
</g>
</svg>
