<?xml version="1.0" encoding="UTF-8" standalone="no"?>
<!DOCTYPE svg PUBLIC "-//W3C//DTD SVG 1.1//EN"
 "http://www.w3.org/Graphics/SVG/1.1/DTD/svg11.dtd">
<!-- Generated by graphviz version 5.0.0 (20220707.1540)
 -->
<!-- Title: UmlClassDiagram Pages: 1 -->
<svg width="1956pt" height="1676pt"
 viewBox="0.00 0.00 1956.50 1675.60" xmlns="http://www.w3.org/2000/svg" xmlns:xlink="http://www.w3.org/1999/xlink">
<g id="graph0" class="graph" transform="scale(1 1) rotate(0) translate(4 1671.6)">
<title>UmlClassDiagram</title>
<polygon fill="white" stroke="transparent" points="-4,4 -4,-1671.6 1952.5,-1671.6 1952.5,4 -4,4"/>
<!-- 3 -->
<g id="node1" class="node">
<title>3</title>
<polygon fill="#f2f2f2" stroke="black" points="563.49,-531.9 563.49,-900.7 1174.05,-900.7 1174.05,-531.9 563.49,-531.9"/>
<text text-anchor="middle" x="868.77" y="-884.1" font-family="Times,serif" font-size="14.00">&lt;&lt;Interface&gt;&gt;</text>
<text text-anchor="middle" x="868.77" y="-867.3" font-family="Times,serif" font-size="14.00">IProofMarketEndpoint</text>
<text text-anchor="middle" x="868.77" y="-850.5" font-family="Times,serif" font-size="14.00">contracts/interfaces/proof_market_endpoint.sol</text>
<polyline fill="none" stroke="black" points="563.49,-842.3 1174.05,-842.3 "/>
<text text-anchor="start" x="571.49" y="-825.7" font-family="Times,serif" font-size="14.00">External:</text>
<text text-anchor="start" x="571.49" y="-808.9" font-family="Times,serif" font-size="14.00"> &#160;&#160;&#160;&#160;grantRelayer(relayer: address)</text>
<text text-anchor="start" x="571.49" y="-792.1" font-family="Times,serif" font-size="14.00"> &#160;&#160;&#160;&#160;revokeRelayer(relayer: address)</text>
<text text-anchor="start" x="571.49" y="-775.3" font-family="Times,serif" font-size="14.00"> &#160;&#160;&#160;&#160;getOrder(orderId: uint256): OrderLibrary.Order</text>
<text text-anchor="start" x="571.49" y="-758.5" font-family="Times,serif" font-size="14.00"> &#160;&#160;&#160;&#160;createOrder(statementId: uint256, input: bytes, price: uint256): uint256</text>
<text text-anchor="start" x="571.49" y="-741.7" font-family="Times,serif" font-size="14.00"> &#160;&#160;&#160;&#160;closeOrder(orderId: uint256, proof: bytes, finalPrice: uint256, producer: address)</text>
<text text-anchor="start" x="571.49" y="-724.9" font-family="Times,serif" font-size="14.00"> &#160;&#160;&#160;&#160;getStatement(id: uint256): StatementLibrary.StatementData</text>
<text text-anchor="start" x="571.49" y="-708.1" font-family="Times,serif" font-size="14.00"> &#160;&#160;&#160;&#160;addStatement(definition: StatementLibrary.Definition, price: StatementLibrary.Price)</text>
<text text-anchor="start" x="571.49" y="-691.3" font-family="Times,serif" font-size="14.00"> &#160;&#160;&#160;&#160;updateStatementDefinition(id: uint256, definition: StatementLibrary.Definition)</text>
<text text-anchor="start" x="571.49" y="-674.5" font-family="Times,serif" font-size="14.00"> &#160;&#160;&#160;&#160;updateStatementPrice(id: uint256, price: StatementLibrary.Price)</text>
<text text-anchor="start" x="571.49" y="-657.7" font-family="Times,serif" font-size="14.00"> &#160;&#160;&#160;&#160;removeStatement(id: uint256)</text>
<text text-anchor="start" x="571.49" y="-640.9" font-family="Times,serif" font-size="14.00">Public:</text>
<text text-anchor="start" x="571.49" y="-624.1" font-family="Times,serif" font-size="14.00"> &#160;&#160;&#160;&lt;&lt;event&gt;&gt; OrderCreated(id: uint256, statementId: uint256, input: bytes, price: uint256, buyer: address)</text>
<text text-anchor="start" x="571.49" y="-607.3" font-family="Times,serif" font-size="14.00"> &#160;&#160;&#160;&lt;&lt;event&gt;&gt; OrderClosed(id: uint256, producer: address, finalPrice: uint256, proof: bytes)</text>
<text text-anchor="start" x="571.49" y="-590.5" font-family="Times,serif" font-size="14.00"> &#160;&#160;&#160;&lt;&lt;event&gt;&gt; StatementAdded(id: uint256, definition: StatementLibrary.Definition)</text>
<text text-anchor="start" x="571.49" y="-573.7" font-family="Times,serif" font-size="14.00"> &#160;&#160;&#160;&lt;&lt;event&gt;&gt; StatementDefinitionUpdated(id: uint256, definition: StatementLibrary.Definition)</text>
<text text-anchor="start" x="571.49" y="-556.9" font-family="Times,serif" font-size="14.00"> &#160;&#160;&#160;&lt;&lt;event&gt;&gt; StatementPriceUpdated(id: uint256, price: StatementLibrary.Price)</text>
<text text-anchor="start" x="571.49" y="-540.1" font-family="Times,serif" font-size="14.00"> &#160;&#160;&#160;&lt;&lt;event&gt;&gt; StatementRemoved(id: uint256)</text>
</g>
<!-- 4 -->
<g id="node6" class="node">
<title>4</title>
<polygon fill="#f2f2f2" stroke="black" points="367.79,-971.3 367.79,-1104.9 813.76,-1104.9 813.76,-971.3 367.79,-971.3"/>
<text text-anchor="middle" x="590.77" y="-1088.3" font-family="Times,serif" font-size="14.00">&lt;&lt;Library&gt;&gt;</text>
<text text-anchor="middle" x="590.77" y="-1071.5" font-family="Times,serif" font-size="14.00">OrderLibrary</text>
<text text-anchor="middle" x="590.77" y="-1054.7" font-family="Times,serif" font-size="14.00">contracts/libraries/order_lib.sol</text>
<polyline fill="none" stroke="black" points="367.79,-1046.5 813.76,-1046.5 "/>
<text text-anchor="start" x="375.79" y="-1029.9" font-family="Times,serif" font-size="14.00">Internal:</text>
<text text-anchor="start" x="375.79" y="-1013.1" font-family="Times,serif" font-size="14.00"> &#160;&#160;&#160;create(self: OrderStorage, inputData: OrderInput, buyer: address): uint256</text>
<text text-anchor="start" x="375.79" y="-996.3" font-family="Times,serif" font-size="14.00"> &#160;&#160;&#160;get(self: OrderStorage, id: uint256): Order</text>
<text text-anchor="start" x="375.79" y="-979.5" font-family="Times,serif" font-size="14.00"> &#160;&#160;&#160;update(self: OrderStorage, id: uint256, producer: address, proof: bytes)</text>
</g>
<!-- 3&#45;&gt;4 -->
<g id="edge2" class="edge">
<title>3&#45;&gt;4</title>
<path fill="none" stroke="black" stroke-dasharray="5,2" d="M709.07,-901.01C689.93,-923.03 671.32,-944.44 654.75,-963.51"/>
<polygon fill="black" stroke="black" points="651.93,-961.41 648.01,-971.25 657.22,-966 651.93,-961.41"/>
</g>
<!-- 9 -->
<g id="node12" class="node">
<title>9</title>
<polygon fill="#f2f2f2" stroke="black" points="1219.18,-937.7 1219.18,-1138.5 1638.37,-1138.5 1638.37,-937.7 1219.18,-937.7"/>
<text text-anchor="middle" x="1428.77" y="-1121.9" font-family="Times,serif" font-size="14.00">&lt;&lt;Library&gt;&gt;</text>
<text text-anchor="middle" x="1428.77" y="-1105.1" font-family="Times,serif" font-size="14.00">StatementLibrary</text>
<text text-anchor="middle" x="1428.77" y="-1088.3" font-family="Times,serif" font-size="14.00">contracts/libraries/statement_lib.sol</text>
<polyline fill="none" stroke="black" points="1219.18,-1080.1 1638.37,-1080.1 "/>
<text text-anchor="start" x="1227.18" y="-1063.5" font-family="Times,serif" font-size="14.00">Internal:</text>
<text text-anchor="start" x="1227.18" y="-1046.7" font-family="Times,serif" font-size="14.00"> &#160;&#160;&#160;add(self: StatementStorage, statementInput: StatementInput): uint256</text>
<text text-anchor="start" x="1227.18" y="-1029.9" font-family="Times,serif" font-size="14.00"> &#160;&#160;&#160;get(self: StatementStorage, id: uint256): StatementData</text>
<text text-anchor="start" x="1227.18" y="-1013.1" font-family="Times,serif" font-size="14.00"> &#160;&#160;&#160;update(self: StatementStorage, id: uint256, price: Price)</text>
<text text-anchor="start" x="1227.18" y="-996.3" font-family="Times,serif" font-size="14.00"> &#160;&#160;&#160;update(self: StatementStorage, id: uint256, definition: Definition)</text>
<text text-anchor="start" x="1227.18" y="-979.5" font-family="Times,serif" font-size="14.00"> &#160;&#160;&#160;remove(self: StatementStorage, id: uint256)</text>
<text text-anchor="start" x="1227.18" y="-962.7" font-family="Times,serif" font-size="14.00"> &#160;&#160;&#160;exists(self: StatementStorage, id: uint256): bool</text>
<text text-anchor="start" x="1227.18" y="-945.9" font-family="Times,serif" font-size="14.00"> &#160;&#160;&#160;exists(self: StatementStorage, definition: Definition): bool</text>
</g>
<!-- 3&#45;&gt;9 -->
<g id="edge1" class="edge">
<title>3&#45;&gt;9</title>
<path fill="none" stroke="black" stroke-dasharray="5,2" d="M1174.08,-896.25C1176.99,-897.91 1179.89,-899.56 1182.77,-901.2 1200.8,-911.46 1219.63,-922.06 1238.49,-932.6"/>
<polygon fill="black" stroke="black" points="1237.02,-935.79 1247.45,-937.61 1240.43,-929.67 1237.02,-935.79"/>
</g>
<!-- 5 -->
<g id="node2" class="node">
<title>5</title>
<polygon fill="#f2f2f2" stroke="black" points="621.1,-1567.1 621.1,-1667.1 812.44,-1667.1 812.44,-1567.1 621.1,-1567.1"/>
<text text-anchor="middle" x="716.77" y="-1650.5" font-family="Times,serif" font-size="14.00">&lt;&lt;Enum&gt;&gt;</text>
<text text-anchor="middle" x="716.77" y="-1633.7" font-family="Times,serif" font-size="14.00">OrderStatus</text>
<text text-anchor="middle" x="716.77" y="-1616.9" font-family="Times,serif" font-size="14.00">contracts/libraries/order_lib.sol</text>
<polyline fill="none" stroke="black" points="621.1,-1608.7 812.44,-1608.7 "/>
<text text-anchor="start" x="629.1" y="-1592.1" font-family="Times,serif" font-size="14.00">OPEN: 0</text>
<text text-anchor="start" x="629.1" y="-1575.3" font-family="Times,serif" font-size="14.00">CLOSED: 1</text>
</g>
<!-- 5&#45;&gt;4 -->
<g id="edge5" class="edge">
<title>5&#45;&gt;4</title>
<path fill="none" stroke="black" d="M722.21,-1567.03C724.27,-1484.05 715.3,-1311.69 668.77,-1175 662.04,-1155.22 652.9,-1134.72 643.21,-1115.82"/>
<polygon fill="black" stroke="black" points="643.21,-1115.82 636.88,-1112.37 637.62,-1105.2 643.95,-1108.65 643.21,-1115.82"/>
</g>
<!-- 6 -->
<g id="node3" class="node">
<title>6</title>
<polygon fill="#f2f2f2" stroke="black" points="488.1,-1329.3 488.1,-1530.1 679.44,-1530.1 679.44,-1329.3 488.1,-1329.3"/>
<text text-anchor="middle" x="583.77" y="-1513.5" font-family="Times,serif" font-size="14.00">&lt;&lt;Struct&gt;&gt;</text>
<text text-anchor="middle" x="583.77" y="-1496.7" font-family="Times,serif" font-size="14.00">Order</text>
<text text-anchor="middle" x="583.77" y="-1479.9" font-family="Times,serif" font-size="14.00">contracts/libraries/order_lib.sol</text>
<polyline fill="none" stroke="black" points="488.1,-1471.7 679.44,-1471.7 "/>
<text text-anchor="start" x="496.1" y="-1455.1" font-family="Times,serif" font-size="14.00">id: uint256</text>
<text text-anchor="start" x="496.1" y="-1438.3" font-family="Times,serif" font-size="14.00">statementId: uint256</text>
<text text-anchor="start" x="496.1" y="-1421.5" font-family="Times,serif" font-size="14.00">input: bytes</text>
<text text-anchor="start" x="496.1" y="-1404.7" font-family="Times,serif" font-size="14.00">price: uint256</text>
<text text-anchor="start" x="496.1" y="-1387.9" font-family="Times,serif" font-size="14.00">buyer: address</text>
<text text-anchor="start" x="496.1" y="-1371.1" font-family="Times,serif" font-size="14.00">status: OrderStatus</text>
<text text-anchor="start" x="496.1" y="-1354.3" font-family="Times,serif" font-size="14.00">producer: address</text>
<text text-anchor="start" x="496.1" y="-1337.5" font-family="Times,serif" font-size="14.00">proof: bytes</text>
</g>
<!-- 6&#45;&gt;5 -->
<g id="edge3" class="edge">
<title>6&#45;&gt;5</title>
<path fill="none" stroke="black" stroke-dasharray="5,2" d="M655.14,-1530.18C662.12,-1539.92 669.03,-1549.55 675.56,-1558.65"/>
<polygon fill="black" stroke="black" points="672.77,-1560.76 681.44,-1566.85 678.46,-1556.68 672.77,-1560.76"/>
</g>
<!-- 6&#45;&gt;4 -->
<g id="edge6" class="edge">
<title>6&#45;&gt;4</title>
<path fill="none" stroke="black" d="M632.97,-1329.2C636.62,-1317.1 639.68,-1304.78 641.77,-1292.8 650.79,-1241.23 649.59,-1226.77 641.77,-1175 638.87,-1155.79 633.79,-1135.55 627.87,-1116.73"/>
<polygon fill="black" stroke="black" points="627.84,-1116.62 622.17,-1112.17 624.1,-1105.22 629.77,-1109.67 627.84,-1116.62"/>
</g>
<!-- 7 -->
<g id="node4" class="node">
<title>7</title>
<polygon fill="#f2f2f2" stroke="black" points="206.1,-1175.5 206.1,-1292.3 397.44,-1292.3 397.44,-1175.5 206.1,-1175.5"/>
<text text-anchor="middle" x="301.77" y="-1275.7" font-family="Times,serif" font-size="14.00">&lt;&lt;Struct&gt;&gt;</text>
<text text-anchor="middle" x="301.77" y="-1258.9" font-family="Times,serif" font-size="14.00">OrderInput</text>
<text text-anchor="middle" x="301.77" y="-1242.1" font-family="Times,serif" font-size="14.00">contracts/libraries/order_lib.sol</text>
<polyline fill="none" stroke="black" points="206.1,-1233.9 397.44,-1233.9 "/>
<text text-anchor="start" x="214.1" y="-1217.3" font-family="Times,serif" font-size="14.00">statementId: uint256</text>
<text text-anchor="start" x="214.1" y="-1200.5" font-family="Times,serif" font-size="14.00">input: bytes</text>
<text text-anchor="start" x="214.1" y="-1183.7" font-family="Times,serif" font-size="14.00">price: uint256</text>
</g>
<!-- 7&#45;&gt;4 -->
<g id="edge7" class="edge">
<title>7&#45;&gt;4</title>
<path fill="none" stroke="black" d="M393.89,-1175.3C424.19,-1155.36 458.04,-1132.73 489.01,-1111.74"/>
<polygon fill="black" stroke="black" points="489.03,-1111.72 491.75,-1105.04 498.96,-1104.98 496.24,-1111.66 489.03,-1111.72"/>
</g>
<!-- 8 -->
<g id="node5" class="node">
<title>8</title>
<polygon fill="#f2f2f2" stroke="black" points="415.82,-1183.9 415.82,-1283.9 623.73,-1283.9 623.73,-1183.9 415.82,-1183.9"/>
<text text-anchor="middle" x="519.77" y="-1267.3" font-family="Times,serif" font-size="14.00">&lt;&lt;Struct&gt;&gt;</text>
<text text-anchor="middle" x="519.77" y="-1250.5" font-family="Times,serif" font-size="14.00">OrderStorage</text>
<text text-anchor="middle" x="519.77" y="-1233.7" font-family="Times,serif" font-size="14.00">contracts/libraries/order_lib.sol</text>
<polyline fill="none" stroke="black" points="415.82,-1225.5 623.73,-1225.5 "/>
<text text-anchor="start" x="423.82" y="-1208.9" font-family="Times,serif" font-size="14.00">orders: mapping(uint256=&gt;Order)</text>
<text text-anchor="start" x="423.82" y="-1192.1" font-family="Times,serif" font-size="14.00">orderCounter: uint256</text>
</g>
<!-- 8&#45;&gt;6 -->
<g id="edge4" class="edge">
<title>8&#45;&gt;6</title>
<path fill="none" stroke="black" stroke-dasharray="5,2" d="M536.01,-1284.05C539.6,-1294.94 543.55,-1306.89 547.59,-1319.12"/>
<polygon fill="black" stroke="black" points="544.38,-1320.58 550.84,-1328.97 551.03,-1318.38 544.38,-1320.58"/>
</g>
<!-- 8&#45;&gt;4 -->
<g id="edge8" class="edge">
<title>8&#45;&gt;4</title>
<path fill="none" stroke="black" d="M543.75,-1183.73C551.97,-1163.29 561.07,-1139.06 569.1,-1116.34"/>
<polygon fill="black" stroke="black" points="569.11,-1116.31 567.31,-1109.33 573.07,-1104.98 574.87,-1111.97 569.11,-1116.31"/>
</g>
<!-- 4&#45;&gt;5 -->
<g id="edge12" class="edge">
<title>4&#45;&gt;5</title>
<path fill="none" stroke="black" stroke-dasharray="5,2" d="M620.51,-1105.2C631.33,-1126.88 642.76,-1151.45 650.77,-1175 695.48,-1306.35 705.51,-1470.64 710.63,-1556.91"/>
<polygon fill="black" stroke="black" points="707.14,-1557.26 711.23,-1567.03 714.13,-1556.84 707.14,-1557.26"/>
</g>
<!-- 4&#45;&gt;6 -->
<g id="edge11" class="edge">
<title>4&#45;&gt;6</title>
<path fill="none" stroke="black" stroke-dasharray="5,2" d="M607.02,-1105.22C613.58,-1127.11 620.27,-1151.8 623.77,-1175 631.59,-1226.77 632.79,-1241.23 623.77,-1292.8 622.23,-1301.6 620.18,-1310.58 617.8,-1319.52"/>
<polygon fill="black" stroke="black" points="614.41,-1318.63 615.1,-1329.2 621.15,-1320.51 614.41,-1318.63"/>
</g>
<!-- 4&#45;&gt;7 -->
<g id="edge10" class="edge">
<title>4&#45;&gt;7</title>
<path fill="none" stroke="black" stroke-dasharray="5,2" d="M486.09,-1104.98C454.54,-1125.85 420.25,-1148.85 389.89,-1169.53"/>
<polygon fill="black" stroke="black" points="387.72,-1166.78 381.43,-1175.3 391.67,-1172.56 387.72,-1166.78"/>
</g>
<!-- 4&#45;&gt;8 -->
<g id="edge9" class="edge">
<title>4&#45;&gt;8</title>
<path fill="none" stroke="black" stroke-dasharray="5,2" d="M560.2,-1104.98C551.54,-1127.34 542.5,-1152.17 535.1,-1173.96"/>
<polygon fill="black" stroke="black" points="531.68,-1173.14 531.82,-1183.73 538.32,-1175.36 531.68,-1173.14"/>
</g>
<!-- 10 -->
<g id="node7" class="node">
<title>10</title>
<polygon fill="#f2f2f2" stroke="black" points="1232.05,-1362.9 1232.05,-1496.5 1447.5,-1496.5 1447.5,-1362.9 1232.05,-1362.9"/>
<text text-anchor="middle" x="1339.77" y="-1479.9" font-family="Times,serif" font-size="14.00">&lt;&lt;Struct&gt;&gt;</text>
<text text-anchor="middle" x="1339.77" y="-1463.1" font-family="Times,serif" font-size="14.00">StatementData</text>
<text text-anchor="middle" x="1339.77" y="-1446.3" font-family="Times,serif" font-size="14.00">contracts/libraries/statement_lib.sol</text>
<polyline fill="none" stroke="black" points="1232.05,-1438.1 1447.5,-1438.1 "/>
<text text-anchor="start" x="1240.05" y="-1421.5" font-family="Times,serif" font-size="14.00">id: uint256</text>
<text text-anchor="start" x="1240.05" y="-1404.7" font-family="Times,serif" font-size="14.00">definition: Definition</text>
<text text-anchor="start" x="1240.05" y="-1387.9" font-family="Times,serif" font-size="14.00">price: Price</text>
<text text-anchor="start" x="1240.05" y="-1371.1" font-family="Times,serif" font-size="14.00">developer: address</text>
</g>
<!-- 13 -->
<g id="node10" class="node">
<title>13</title>
<polygon fill="#f2f2f2" stroke="black" points="1733.05,-1575.5 1733.05,-1658.7 1948.5,-1658.7 1948.5,-1575.5 1733.05,-1575.5"/>
<text text-anchor="middle" x="1840.77" y="-1642.1" font-family="Times,serif" font-size="14.00">&lt;&lt;Struct&gt;&gt;</text>
<text text-anchor="middle" x="1840.77" y="-1625.3" font-family="Times,serif" font-size="14.00">Price</text>
<text text-anchor="middle" x="1840.77" y="-1608.5" font-family="Times,serif" font-size="14.00">contracts/libraries/statement_lib.sol</text>
<polyline fill="none" stroke="black" points="1733.05,-1600.3 1948.5,-1600.3 "/>
<text text-anchor="start" x="1741.05" y="-1583.7" font-family="Times,serif" font-size="14.00">price: uint256</text>
</g>
<!-- 10&#45;&gt;13 -->
<g id="edge14" class="edge">
<title>10&#45;&gt;13</title>
<path fill="none" stroke="black" stroke-dasharray="5,2" d="M1447.56,-1470.59C1528.69,-1500.61 1639.81,-1541.73 1723.22,-1572.6"/>
<polygon fill="black" stroke="black" points="1722.15,-1575.93 1732.74,-1576.12 1724.58,-1569.37 1722.15,-1575.93"/>
</g>
<!-- 14 -->
<g id="node11" class="node">
<title>14</title>
<polygon fill="#f2f2f2" stroke="black" points="1087.05,-1567.1 1087.05,-1667.1 1302.5,-1667.1 1302.5,-1567.1 1087.05,-1567.1"/>
<text text-anchor="middle" x="1194.77" y="-1650.5" font-family="Times,serif" font-size="14.00">&lt;&lt;Struct&gt;&gt;</text>
<text text-anchor="middle" x="1194.77" y="-1633.7" font-family="Times,serif" font-size="14.00">Definition</text>
<text text-anchor="middle" x="1194.77" y="-1616.9" font-family="Times,serif" font-size="14.00">contracts/libraries/statement_lib.sol</text>
<polyline fill="none" stroke="black" points="1087.05,-1608.7 1302.5,-1608.7 "/>
<text text-anchor="start" x="1095.05" y="-1592.1" font-family="Times,serif" font-size="14.00">verificationKey: bytes</text>
<text text-anchor="start" x="1095.05" y="-1575.3" font-family="Times,serif" font-size="14.00">provingKey: bytes</text>
</g>
<!-- 10&#45;&gt;14 -->
<g id="edge13" class="edge">
<title>10&#45;&gt;14</title>
<path fill="none" stroke="black" stroke-dasharray="5,2" d="M1288.24,-1496.59C1272.29,-1516.99 1254.85,-1539.28 1239.41,-1559.03"/>
<polygon fill="black" stroke="black" points="1236.55,-1557 1233.14,-1567.04 1242.06,-1561.32 1236.55,-1557"/>
</g>
<!-- 10&#45;&gt;9 -->
<g id="edge18" class="edge">
<title>10&#45;&gt;9</title>
<path fill="none" stroke="black" d="M1308.51,-1362.73C1284.82,-1310.24 1260.83,-1235.77 1287.77,-1175 1291.87,-1165.76 1296.93,-1156.89 1302.69,-1148.41"/>
<polygon fill="black" stroke="black" points="1302.72,-1148.37 1302.99,-1141.16 1309.75,-1138.64 1309.48,-1145.85 1302.72,-1148.37"/>
</g>
<!-- 11 -->
<g id="node8" class="node">
<title>11</title>
<polygon fill="#f2f2f2" stroke="black" points="1588.05,-1175.5 1588.05,-1292.3 1803.5,-1292.3 1803.5,-1175.5 1588.05,-1175.5"/>
<text text-anchor="middle" x="1695.77" y="-1275.7" font-family="Times,serif" font-size="14.00">&lt;&lt;Struct&gt;&gt;</text>
<text text-anchor="middle" x="1695.77" y="-1258.9" font-family="Times,serif" font-size="14.00">StatementInput</text>
<text text-anchor="middle" x="1695.77" y="-1242.1" font-family="Times,serif" font-size="14.00">contracts/libraries/statement_lib.sol</text>
<polyline fill="none" stroke="black" points="1588.05,-1233.9 1803.5,-1233.9 "/>
<text text-anchor="start" x="1596.05" y="-1217.3" font-family="Times,serif" font-size="14.00">definition: Definition</text>
<text text-anchor="start" x="1596.05" y="-1200.5" font-family="Times,serif" font-size="14.00">price: Price</text>
<text text-anchor="start" x="1596.05" y="-1183.7" font-family="Times,serif" font-size="14.00">developer: address</text>
</g>
<!-- 11&#45;&gt;13 -->
<g id="edge16" class="edge">
<title>11&#45;&gt;13</title>
<path fill="none" stroke="black" stroke-dasharray="5,2" d="M1717.64,-1292.38C1745.94,-1366.78 1794.79,-1495.21 1821.67,-1565.88"/>
<polygon fill="black" stroke="black" points="1818.48,-1567.35 1825.31,-1575.45 1825.03,-1564.86 1818.48,-1567.35"/>
</g>
<!-- 11&#45;&gt;14 -->
<g id="edge15" class="edge">
<title>11&#45;&gt;14</title>
<path fill="none" stroke="black" stroke-dasharray="5,2" d="M1663.38,-1292.51C1623.15,-1359.04 1548.5,-1467.41 1456.77,-1530.6 1413.92,-1560.12 1360.19,-1579.99 1312.56,-1593.08"/>
<polygon fill="black" stroke="black" points="1311.56,-1589.72 1302.81,-1595.69 1313.37,-1596.49 1311.56,-1589.72"/>
</g>
<!-- 11&#45;&gt;9 -->
<g id="edge19" class="edge">
<title>11&#45;&gt;9</title>
<path fill="none" stroke="black" d="M1622.83,-1175.44C1610.04,-1165.96 1596.32,-1155.88 1582.29,-1145.65"/>
<polygon fill="black" stroke="black" points="1582.24,-1145.62 1575.04,-1145.32 1572.54,-1138.55 1579.75,-1138.85 1582.24,-1145.62"/>
</g>
<!-- 12 -->
<g id="node9" class="node">
<title>12</title>
<polygon fill="#f2f2f2" stroke="black" points="1287.88,-1183.9 1287.88,-1283.9 1569.67,-1283.9 1569.67,-1183.9 1287.88,-1183.9"/>
<text text-anchor="middle" x="1428.77" y="-1267.3" font-family="Times,serif" font-size="14.00">&lt;&lt;Struct&gt;&gt;</text>
<text text-anchor="middle" x="1428.77" y="-1250.5" font-family="Times,serif" font-size="14.00">StatementStorage</text>
<text text-anchor="middle" x="1428.77" y="-1233.7" font-family="Times,serif" font-size="14.00">contracts/libraries/statement_lib.sol</text>
<polyline fill="none" stroke="black" points="1287.88,-1225.5 1569.67,-1225.5 "/>
<text text-anchor="start" x="1295.88" y="-1208.9" font-family="Times,serif" font-size="14.00">statements: mapping(uint256=&gt;StatementData)</text>
<text text-anchor="start" x="1295.88" y="-1192.1" font-family="Times,serif" font-size="14.00">statementCounter: uint256</text>
</g>
<!-- 12&#45;&gt;10 -->
<g id="edge17" class="edge">
<title>12&#45;&gt;10</title>
<path fill="none" stroke="black" stroke-dasharray="5,2" d="M1406.2,-1284.05C1396.52,-1305.14 1384.98,-1330.25 1374.27,-1353.58"/>
<polygon fill="black" stroke="black" points="1371.05,-1352.22 1370.05,-1362.76 1377.41,-1355.14 1371.05,-1352.22"/>
</g>
<!-- 12&#45;&gt;9 -->
<g id="edge20" class="edge">
<title>12&#45;&gt;9</title>
<path fill="none" stroke="black" d="M1434.74,-1183.51C1435.11,-1173.25 1435.35,-1162.06 1435.45,-1150.59"/>
<polygon fill="black" stroke="black" points="1435.45,-1150.55 1431.49,-1144.53 1435.52,-1138.55 1439.49,-1144.58 1435.45,-1150.55"/>
</g>
<!-- 13&#45;&gt;9 -->
<g id="edge21" class="edge">
<title>13&#45;&gt;9</title>
<path fill="none" stroke="black" d="M1856.6,-1575.19C1880.52,-1490.81 1912.67,-1295.31 1821.77,-1175 1780.5,-1120.37 1715.53,-1087.63 1650.19,-1068.03"/>
<polygon fill="black" stroke="black" points="1649.96,-1067.96 1643.09,-1070.14 1638.43,-1064.64 1645.3,-1062.45 1649.96,-1067.96"/>
</g>
<!-- 14&#45;&gt;9 -->
<g id="edge22" class="edge">
<title>14&#45;&gt;9</title>
<path fill="none" stroke="black" d="M1195.47,-1566.96C1193.37,-1480.46 1192.69,-1298.49 1271.77,-1175 1277.75,-1165.67 1284.57,-1156.68 1291.96,-1148.06"/>
<polygon fill="black" stroke="black" points="1292.18,-1147.81 1293.2,-1140.67 1300.18,-1138.87 1299.16,-1146.01 1292.18,-1147.81"/>
</g>
<!-- 9&#45;&gt;10 -->
<g id="edge25" class="edge">
<title>9&#45;&gt;10</title>
<path fill="none" stroke="black" stroke-dasharray="5,2" d="M1291.82,-1138.64C1283.05,-1150 1275.47,-1162.15 1269.77,-1175 1244.35,-1232.33 1264.26,-1301.85 1289.34,-1353.6"/>
<polygon fill="black" stroke="black" points="1286.3,-1355.35 1293.9,-1362.73 1292.56,-1352.22 1286.3,-1355.35"/>
</g>
<!-- 9&#45;&gt;11 -->
<g id="edge24" class="edge">
<title>9&#45;&gt;11</title>
<path fill="none" stroke="black" stroke-dasharray="5,2" d="M1559.04,-1138.55C1573.62,-1149.12 1588.24,-1159.65 1602.23,-1169.63"/>
<polygon fill="black" stroke="black" points="1600.21,-1172.48 1610.38,-1175.44 1604.27,-1166.78 1600.21,-1172.48"/>
</g>
<!-- 9&#45;&gt;12 -->
<g id="edge23" class="edge">
<title>9&#45;&gt;12</title>
<path fill="none" stroke="black" stroke-dasharray="5,2" d="M1422.02,-1138.55C1422.04,-1150.39 1422.2,-1162.17 1422.49,-1173.19"/>
<polygon fill="black" stroke="black" points="1419,-1173.62 1422.8,-1183.51 1425.99,-1173.4 1419,-1173.62"/>
</g>
<!-- 9&#45;&gt;13 -->
<g id="edge26" class="edge">
<title>9&#45;&gt;13</title>
<path fill="none" stroke="black" stroke-dasharray="5,2" d="M1638.78,-1069.77C1701.28,-1089.55 1763.7,-1121.96 1803.77,-1175 1891.29,-1290.84 1864.74,-1476.4 1848.56,-1565.35"/>
<polygon fill="black" stroke="black" points="1845.11,-1564.72 1846.74,-1575.19 1852,-1565.99 1845.11,-1564.72"/>
</g>
<!-- 9&#45;&gt;14 -->
<g id="edge27" class="edge">
<title>9&#45;&gt;14</title>
<path fill="none" stroke="black" stroke-dasharray="5,2" d="M1282.25,-1138.87C1271.62,-1150.21 1261.91,-1162.3 1253.77,-1175 1177.62,-1293.9 1175.43,-1467.03 1183.73,-1556.94"/>
<polygon fill="black" stroke="black" points="1180.26,-1557.36 1184.74,-1566.96 1187.22,-1556.66 1180.26,-1557.36"/>
</g>
<!-- 15 -->
<g id="node13" class="node">
<title>15</title>
<polygon fill="#f2f2f2" stroke="black" points="47.88,-988.1 47.88,-1088.1 349.66,-1088.1 349.66,-988.1 47.88,-988.1"/>
<text text-anchor="middle" x="198.77" y="-1071.5" font-family="Times,serif" font-size="14.00">&lt;&lt;Library&gt;&gt;</text>
<text text-anchor="middle" x="198.77" y="-1054.7" font-family="Times,serif" font-size="14.00">Tools</text>
<text text-anchor="middle" x="198.77" y="-1037.9" font-family="Times,serif" font-size="14.00">contracts/libraries/tools.sol</text>
<polyline fill="none" stroke="black" points="47.88,-1029.7 349.66,-1029.7 "/>
<text text-anchor="start" x="55.88" y="-1013.1" font-family="Times,serif" font-size="14.00">Internal:</text>
<text text-anchor="start" x="55.88" y="-996.3" font-family="Times,serif" font-size="14.00"> &#160;&#160;&#160;verifyProof(orderId: uint256, proof: bytes): bool</text>
</g>
<!-- 16 -->
<g id="node14" class="node">
<title>16</title>
<polygon fill="#f2f2f2" stroke="black" points="1309.53,-197.7 1309.53,-297.7 1632.02,-297.7 1632.02,-197.7 1309.53,-197.7"/>
<text text-anchor="middle" x="1470.77" y="-281.1" font-family="Times,serif" font-size="14.00">MockTocken</text>
<text text-anchor="middle" x="1470.77" y="-264.3" font-family="Times,serif" font-size="14.00">contracts/mock/mock_erc20_contract.sol</text>
<polyline fill="none" stroke="black" points="1309.53,-256.1 1632.02,-256.1 "/>
<text text-anchor="start" x="1317.53" y="-239.5" font-family="Times,serif" font-size="14.00">Public:</text>
<text text-anchor="start" x="1317.53" y="-222.7" font-family="Times,serif" font-size="14.00"> &#160;&#160;&#160;constructor()</text>
<text text-anchor="start" x="1317.53" y="-205.9" font-family="Times,serif" font-size="14.00"> &#160;&#160;&#160;mint(to: address, amount: uint256) &lt;&lt;onlyOwner&gt;&gt;</text>
</g>
<!-- 0 -->
<g id="node15" class="node">
<title>0</title>
<polygon fill="#f2f2f2" stroke="black" points="0,-603.5 0,-829.1 507.54,-829.1 507.54,-603.5 0,-603.5"/>
<text text-anchor="middle" x="253.77" y="-812.5" font-family="Times,serif" font-size="14.00">OrderContract</text>
<text text-anchor="middle" x="253.77" y="-795.7" font-family="Times,serif" font-size="14.00">contracts/order_contract.sol</text>
<polyline fill="none" stroke="black" points="0,-787.5 507.54,-787.5 "/>
<text text-anchor="start" x="8" y="-770.9" font-family="Times,serif" font-size="14.00">Private:</text>
<text text-anchor="start" x="8" y="-754.1" font-family="Times,serif" font-size="14.00"> &#160;&#160;orderStorage: OrderLibrary.OrderStorage</text>
<text text-anchor="start" x="8" y="-737.3" font-family="Times,serif" font-size="14.00">Public:</text>
<text text-anchor="start" x="8" y="-720.5" font-family="Times,serif" font-size="14.00"> &#160;&#160;token: IERC20</text>
<text text-anchor="start" x="8" y="-703.7" font-family="Times,serif" font-size="14.00"> &#160;&#160;AUTHORIZED_CALLER_ROLE: bytes32</text>
<polyline fill="none" stroke="black" points="0,-695.5 507.54,-695.5 "/>
<text text-anchor="start" x="8" y="-678.9" font-family="Times,serif" font-size="14.00">Public:</text>
<text text-anchor="start" x="8" y="-662.1" font-family="Times,serif" font-size="14.00"> &#160;&#160;&#160;constructor(_authorizedCaller: address, _token: address)</text>
<text text-anchor="start" x="8" y="-645.3" font-family="Times,serif" font-size="14.00"> &#160;&#160;&#160;create(orderInput: OrderLibrary.OrderInput, buyer: address): uint256 &lt;&lt;onlyRole&gt;&gt;</text>
<text text-anchor="start" x="8" y="-628.5" font-family="Times,serif" font-size="14.00"> &#160;&#160;&#160;get(id: uint256): OrderLibrary.Order</text>
<text text-anchor="start" x="8" y="-611.7" font-family="Times,serif" font-size="14.00"> &#160;&#160;&#160;close(id: uint256, proof: bytes, finalPrice: uint256, producer: address) &lt;&lt;onlyRole&gt;&gt;</text>
</g>
<!-- 0&#45;&gt;4 -->
<g id="edge28" class="edge">
<title>0&#45;&gt;4</title>
<path fill="none" stroke="black" d="M371.64,-829.15C418.73,-873.84 471.64,-924.05 513.67,-963.93"/>
<polygon fill="black" stroke="black" points="511.46,-966.66 521.12,-971 516.27,-961.58 511.46,-966.66"/>
</g>
<!-- 0&#45;&gt;15 -->
<g id="edge29" class="edge">
<title>0&#45;&gt;15</title>
<path fill="none" stroke="black" stroke-dasharray="5,2" d="M234.54,-829.15C225.92,-879.24 216.12,-936.26 208.95,-977.91"/>
<polygon fill="black" stroke="black" points="205.48,-977.43 207.24,-987.88 212.38,-978.62 205.48,-977.43"/>
</g>
<!-- 1 -->
<g id="node16" class="node">
<title>1</title>
<polygon fill="#f2f2f2" stroke="black" points="672.4,-0.5 672.4,-494.9 1291.15,-494.9 1291.15,-0.5 672.4,-0.5"/>
<text text-anchor="middle" x="981.77" y="-478.3" font-family="Times,serif" font-size="14.00">ProofMarketEndpoint</text>
<text text-anchor="middle" x="981.77" y="-461.5" font-family="Times,serif" font-size="14.00">contracts/proof_market_endpoint.sol</text>
<polyline fill="none" stroke="black" points="672.4,-453.3 1291.15,-453.3 "/>
<text text-anchor="start" x="680.4" y="-436.7" font-family="Times,serif" font-size="14.00">Public:</text>
<text text-anchor="start" x="680.4" y="-419.9" font-family="Times,serif" font-size="14.00"> &#160;&#160;token: IERC20</text>
<text text-anchor="start" x="680.4" y="-403.1" font-family="Times,serif" font-size="14.00"> &#160;&#160;statementContract: StatementContract</text>
<text text-anchor="start" x="680.4" y="-386.3" font-family="Times,serif" font-size="14.00"> &#160;&#160;orderContract: OrderContract</text>
<text text-anchor="start" x="680.4" y="-369.5" font-family="Times,serif" font-size="14.00"> &#160;&#160;OWNER_ROLE: bytes32</text>
<text text-anchor="start" x="680.4" y="-352.7" font-family="Times,serif" font-size="14.00"> &#160;&#160;RELAYER_ROLE: bytes32</text>
<polyline fill="none" stroke="black" points="672.4,-344.5 1291.15,-344.5 "/>
<text text-anchor="start" x="680.4" y="-327.9" font-family="Times,serif" font-size="14.00">Public:</text>
<text text-anchor="start" x="680.4" y="-311.1" font-family="Times,serif" font-size="14.00"> &#160;&#160;&#160;&lt;&lt;event&gt;&gt; OrderCreated(id: uint256, orderInput: OrderLibrary.OrderInput, buyer: address)</text>
<text text-anchor="start" x="680.4" y="-294.3" font-family="Times,serif" font-size="14.00"> &#160;&#160;&#160;&lt;&lt;event&gt;&gt; OrderClosed(id: uint256, producer: address, finalPrice: uint256, proof: bytes)</text>
<text text-anchor="start" x="680.4" y="-277.5" font-family="Times,serif" font-size="14.00"> &#160;&#160;&#160;&lt;&lt;event&gt;&gt; StatementAdded(id: uint256, definition: StatementLibrary.Definition)</text>
<text text-anchor="start" x="680.4" y="-260.7" font-family="Times,serif" font-size="14.00"> &#160;&#160;&#160;&lt;&lt;event&gt;&gt; StatementDefinitionUpdated(id: uint256, definition: StatementLibrary.Definition)</text>
<text text-anchor="start" x="680.4" y="-243.9" font-family="Times,serif" font-size="14.00"> &#160;&#160;&#160;&lt;&lt;event&gt;&gt; StatementPriceUpdated(id: uint256, price: StatementLibrary.Price)</text>
<text text-anchor="start" x="680.4" y="-227.1" font-family="Times,serif" font-size="14.00"> &#160;&#160;&#160;&lt;&lt;event&gt;&gt; StatementRemoved(id: uint256)</text>
<text text-anchor="start" x="680.4" y="-210.3" font-family="Times,serif" font-size="14.00"> &#160;&#160;&#160;&lt;&lt;modifier&gt;&gt; statementMustExist(statementId: uint256)</text>
<text text-anchor="start" x="680.4" y="-193.5" font-family="Times,serif" font-size="14.00"> &#160;&#160;&#160;&lt;&lt;modifier&gt;&gt; statementMustNotExist(definition: StatementLibrary.Definition)</text>
<text text-anchor="start" x="680.4" y="-176.7" font-family="Times,serif" font-size="14.00"> &#160;&#160;&#160;constructor(_token: IERC20)</text>
<text text-anchor="start" x="680.4" y="-159.9" font-family="Times,serif" font-size="14.00"> &#160;&#160;&#160;grantRelayer(relayer: address) &lt;&lt;onlyRole&gt;&gt;</text>
<text text-anchor="start" x="680.4" y="-143.1" font-family="Times,serif" font-size="14.00"> &#160;&#160;&#160;revokeRelayer(relayer: address) &lt;&lt;onlyRole&gt;&gt;</text>
<text text-anchor="start" x="680.4" y="-126.3" font-family="Times,serif" font-size="14.00"> &#160;&#160;&#160;getOrder(orderId: uint256): OrderLibrary.Order</text>
<text text-anchor="start" x="680.4" y="-109.5" font-family="Times,serif" font-size="14.00"> &#160;&#160;&#160;createOrder(orderInput: OrderLibrary.OrderInput): uint256 &lt;&lt;statementMustExist&gt;&gt;</text>
<text text-anchor="start" x="680.4" y="-92.7" font-family="Times,serif" font-size="14.00"> &#160;&#160;&#160;closeOrder(orderId: uint256, proof: bytes, finalPrice: uint256, producer: address) &lt;&lt;onlyRole&gt;&gt;</text>
<text text-anchor="start" x="680.4" y="-75.9" font-family="Times,serif" font-size="14.00"> &#160;&#160;&#160;getStatement(id: uint256): StatementLibrary.StatementData</text>
<text text-anchor="start" x="680.4" y="-59.1" font-family="Times,serif" font-size="14.00"> &#160;&#160;&#160;addStatement(statementInput: StatementLibrary.StatementInput) &lt;&lt;onlyRole, statementMustNotExist&gt;&gt;</text>
<text text-anchor="start" x="680.4" y="-42.3" font-family="Times,serif" font-size="14.00"> &#160;&#160;&#160;updateStatementDefinition(id: uint256, definition: StatementLibrary.Definition) &lt;&lt;onlyRole&gt;&gt;</text>
<text text-anchor="start" x="680.4" y="-25.5" font-family="Times,serif" font-size="14.00"> &#160;&#160;&#160;updateStatementPrice(id: uint256, price: StatementLibrary.Price) &lt;&lt;onlyRole&gt;&gt;</text>
<text text-anchor="start" x="680.4" y="-8.7" font-family="Times,serif" font-size="14.00"> &#160;&#160;&#160;removeStatement(id: uint256) &lt;&lt;onlyRole&gt;&gt;</text>
</g>
<!-- 1&#45;&gt;4 -->
<g id="edge32" class="edge">
<title>1&#45;&gt;4</title>
<path fill="none" stroke="black" stroke-dasharray="5,2" d="M672.24,-398.47C625.01,-435.22 582.75,-479.32 554.77,-531.4 515.88,-603.79 544.16,-819.71 554.77,-901.2 557.35,-920.97 561.94,-941.97 567.01,-961.39"/>
<polygon fill="black" stroke="black" points="563.64,-962.33 569.61,-971.08 570.4,-960.52 563.64,-962.33"/>
</g>
<!-- 1&#45;&gt;9 -->
<g id="edge33" class="edge">
<title>1&#45;&gt;9</title>
<path fill="none" stroke="black" stroke-dasharray="5,2" d="M1291.51,-491.61C1294.59,-492.91 1297.68,-494.18 1300.77,-495.4 1378.4,-526.15 1618.63,-469.6 1674.77,-531.4 1785.28,-653.06 1758.29,-759.65 1674.77,-901.2 1666.84,-914.64 1657.05,-926.85 1645.99,-937.92"/>
<polygon fill="black" stroke="black" points="1643.36,-935.59 1638.54,-945.03 1648.19,-940.65 1643.36,-935.59"/>
</g>
<!-- 1&#45;&gt;0 -->
<g id="edge31" class="edge">
<title>1&#45;&gt;0</title>
<path fill="none" stroke="black" d="M672.37,-435.9C621.77,-467.36 570.11,-499.99 521.77,-531.4 489.38,-552.45 455.16,-575.38 422.39,-597.7"/>
<polygon fill="black" stroke="black" points="420.38,-594.83 414.09,-603.36 424.32,-600.61 420.38,-594.83"/>
</g>
<!-- 2 -->
<g id="node17" class="node">
<title>2</title>
<polygon fill="#f2f2f2" stroke="black" points="1191.92,-578.3 1191.92,-854.3 1665.63,-854.3 1665.63,-578.3 1191.92,-578.3"/>
<text text-anchor="middle" x="1428.77" y="-837.7" font-family="Times,serif" font-size="14.00">StatementContract</text>
<text text-anchor="middle" x="1428.77" y="-820.9" font-family="Times,serif" font-size="14.00">contracts/statement_contract.sol</text>
<polyline fill="none" stroke="black" points="1191.92,-812.7 1665.63,-812.7 "/>
<text text-anchor="start" x="1199.92" y="-796.1" font-family="Times,serif" font-size="14.00">Private:</text>
<text text-anchor="start" x="1199.92" y="-779.3" font-family="Times,serif" font-size="14.00"> &#160;&#160;statementStorage: StatementLibrary.StatementStorage</text>
<text text-anchor="start" x="1199.92" y="-762.5" font-family="Times,serif" font-size="14.00">Public:</text>
<text text-anchor="start" x="1199.92" y="-745.7" font-family="Times,serif" font-size="14.00"> &#160;&#160;AUTHORIZED_CALLER_ROLE: bytes32</text>
<polyline fill="none" stroke="black" points="1191.92,-737.5 1665.63,-737.5 "/>
<text text-anchor="start" x="1199.92" y="-720.9" font-family="Times,serif" font-size="14.00">Public:</text>
<text text-anchor="start" x="1199.92" y="-704.1" font-family="Times,serif" font-size="14.00"> &#160;&#160;&#160;constructor(_authorizedCaller: address)</text>
<text text-anchor="start" x="1199.92" y="-687.3" font-family="Times,serif" font-size="14.00"> &#160;&#160;&#160;add(statementInput: StatementLibrary.StatementInput): uint256 &lt;&lt;onlyRole&gt;&gt;</text>
<text text-anchor="start" x="1199.92" y="-670.5" font-family="Times,serif" font-size="14.00"> &#160;&#160;&#160;get(id: uint256): StatementLibrary.StatementData</text>
<text text-anchor="start" x="1199.92" y="-653.7" font-family="Times,serif" font-size="14.00"> &#160;&#160;&#160;update(id: uint256, price: StatementLibrary.Price) &lt;&lt;onlyRole&gt;&gt;</text>
<text text-anchor="start" x="1199.92" y="-636.9" font-family="Times,serif" font-size="14.00"> &#160;&#160;&#160;update(id: uint256, definition: StatementLibrary.Definition) &lt;&lt;onlyRole&gt;&gt;</text>
<text text-anchor="start" x="1199.92" y="-620.1" font-family="Times,serif" font-size="14.00"> &#160;&#160;&#160;remove(id: uint256) &lt;&lt;onlyRole&gt;&gt;</text>
<text text-anchor="start" x="1199.92" y="-603.3" font-family="Times,serif" font-size="14.00"> &#160;&#160;&#160;exists(id: uint256): bool</text>
<text text-anchor="start" x="1199.92" y="-586.5" font-family="Times,serif" font-size="14.00"> &#160;&#160;&#160;exists(definition: StatementLibrary.Definition): bool</text>
</g>
<!-- 1&#45;&gt;2 -->
<g id="edge30" class="edge">
<title>1&#45;&gt;2</title>
<path fill="none" stroke="black" d="M1217.71,-494.98C1242.53,-520.89 1267.14,-546.58 1290.32,-570.78"/>
<polygon fill="black" stroke="black" points="1288.03,-573.44 1297.47,-578.24 1293.08,-568.6 1288.03,-573.44"/>
</g>
<!-- 2&#45;&gt;9 -->
<g id="edge34" class="edge">
<title>2&#45;&gt;9</title>
<path fill="none" stroke="black" d="M1428.77,-854.32C1428.77,-878.68 1428.77,-903.77 1428.77,-927.26"/>
<polygon fill="black" stroke="black" points="1425.27,-927.57 1428.77,-937.57 1432.27,-927.57 1425.27,-927.57"/>
</g>
</g>
</svg>
